# Blender v2.93.1 OBJ File: 'road_junction_mirror.blend'
# www.blender.org
o Plane
v 0.500000 -5.079199 0.009674
v 0.500000 -6.298399 0.000000
v 1.000000 -1.776399 0.009674
v 0.000000 -6.298399 0.000000
v -0.000000 -5.079199 0.000000
v 1.000000 -1.626398 0.009674
v 0.500000 5.079201 0.009674
v 0.500000 -1.626399 0.009674
v 0.500000 -1.776399 0.009674
v 0.500000 6.298401 0.000000
v 1.000000 5.229201 0.009674
v 0.000000 6.298401 0.000000
v 0.000000 5.079201 0.000000
v 0.500000 5.229201 0.009674
v 0.000000 5.229201 0.000000
v 0.500000 -5.229199 0.009674
v 1.000000 -6.298399 0.000000
v 1.000000 -5.079199 0.009674
v 1.000000 -5.229200 0.009674
v -0.000000 -5.229199 0.000000
v 1.000000 6.298401 0.000000
v 1.000000 5.079201 0.009674
v 0.000000 0.000000 0.000000
vt 0.598999 0.801001
vt 0.401001 0.898999
vt 0.598999 0.898999
vt 0.698999 0.801001
vt 0.601001 0.998999
vt 0.698999 0.998999
vt 0.901001 0.001001
vt 0.998999 0.198999
vt 0.998999 0.001001
vt 0.801001 0.001001
vt 0.898999 0.198999
vt 0.898999 0.001001
vt 0.398999 0.898999
vt 0.201001 0.801001
vt 0.201001 0.898999
vt 0.401001 0.801001
vt 0.601001 0.801001
vt 0.901001 0.198999
vt 0.801001 0.198999
vt 0.398999 0.801001
vt 0.998999 0.401001
vt 0.801001 0.798999
vt 0.998999 0.798999
vt 0.001001 0.198999
vt 0.798999 0.001001
vt 0.001001 0.001001
vt 0.398999 0.401001
vt 0.201001 0.798999
vt 0.398999 0.798999
vt 0.401001 0.798999
vt 0.798999 0.601001
vt 0.401001 0.601001
vt 0.798999 0.598999
vt 0.401001 0.401001
vt 0.401001 0.598999
vt 0.001001 0.201001
vt 0.198998 0.201001
vt 0.198999 0.600000
vt 0.998999 0.201001
vt 0.201001 0.398999
vt 0.998999 0.398999
vt 0.801001 0.401001
vt 0.798999 0.198999
vt 0.201001 0.401001
vt 0.798999 0.798999
vt 0.798999 0.401001
vt 0.198999 0.998999
vt 0.001001 0.739546
vt 0.001001 0.998999
vt 0.001001 0.727763
vt 0.201001 0.201001
vn 0.0000 0.0000 1.0000
vn -0.0193 0.0000 0.9998
vn -0.0193 0.0090 0.9998
vn 0.0000 -0.0090 1.0000
vn 0.0000 0.0090 1.0000
vn -0.0193 -0.0090 0.9998
s off
f 11/1/1 7/2/1 22/3/1
f 3/4/1 8/5/1 9/6/1
f 18/7/1 16/8/1 19/9/1
f 1/10/2 20/11/2 16/12/2
f 15/13/2 7/14/2 14/15/2
f 11/1/1 14/16/1 7/2/1
f 3/4/1 6/17/1 8/5/1
f 18/7/1 1/18/1 16/8/1
f 1/10/2 5/19/2 20/11/2
f 15/13/2 13/20/2 7/14/2
f 10/21/3 15/22/3 14/23/3
f 9/24/1 18/25/1 3/26/1
f 19/27/4 2/28/4 17/29/4
f 2/30/1 20/31/1 4/32/1
f 21/33/5 14/34/5 11/35/5
f 7/36/2 13/37/2 23/38/2
f 6/39/1 7/40/1 8/41/1
f 10/21/1 12/42/1 15/22/1
f 9/24/1 1/43/1 18/25/1
f 19/27/4 16/44/4 2/28/4
f 2/30/6 16/45/6 20/31/6
f 21/33/5 10/46/5 14/34/5
f 23/38/2 5/47/2 9/48/2
f 5/47/2 1/49/2 9/48/2
f 9/48/2 8/50/2 23/38/2
f 8/50/2 7/36/2 23/38/2
f 6/39/1 22/51/1 7/40/1
