# Blender v2.93.1 OBJ File: 'road.blend'
# www.blender.org
o Plane
v 0.000000 6.298400 0.009674
v 4.500000 5.229201 0.009674
v 3.000000 5.229201 0.009674
v 3.000000 6.298400 0.009674
v 1.500000 5.229201 0.009674
v 0.000000 5.229201 0.009674
v 0.000000 1.776397 0.009674
v 1.500000 5.079202 0.009674
v 1.500000 1.776397 0.009674
v 4.500000 1.776397 0.009674
v 4.500000 5.079202 0.009674
v 3.000000 1.776397 0.009674
v 0.000000 5.079201 0.009674
v 1.500000 6.298400 0.009674
v 4.500000 6.298400 0.009674
v 3.000000 5.079201 0.009674
v 0.000000 1.626396 0.009674
v 1.500000 1.626396 0.009674
v 4.500000 1.626396 0.009674
v 3.000000 1.626396 0.009674
v 0.000000 -5.079201 0.009674
v 1.500000 -5.079201 0.009674
v 4.500000 -5.079196 0.009674
v 3.000000 -5.079196 0.009674
v 0.000000 -6.298399 0.000000
v 1.500000 -6.298400 0.000000
v 4.500000 -6.298400 0.000000
v 3.000000 -6.298400 0.000000
v 3.000000 -5.229197 0.009674
v 0.000000 -5.229197 0.009674
v 1.500000 -5.229197 0.009674
v 4.500000 -5.229197 0.009674
v 1.500000 -1.776402 0.009674
v 3.000000 -1.776402 0.009674
v 4.500000 -1.776402 0.009674
v 0.000000 -1.776401 0.009674
v 3.000000 -1.676401 0.009674
v 4.500000 -1.676401 0.009674
v 1.500000 -1.676403 0.009674
v 0.000000 -1.676403 0.009674
vt 0.362635 0.998999
vt 0.182819 0.917668
vt 0.182819 0.998999
vt 0.910092 0.334334
vt 0.998999 0.498999
vt 0.998999 0.334334
vt 0.180817 0.998999
vt 0.001001 0.917668
vt 0.001001 0.998999
vt 0.544454 0.915666
vt 0.364637 0.834334
vt 0.364637 0.915666
vt 0.817181 0.667668
vt 0.728274 0.832332
vt 0.817181 0.832332
vt 0.362635 0.915666
vt 0.182819 0.834334
vt 0.182819 0.915666
vt 0.180817 0.834334
vt 0.001001 0.915666
vt 0.180817 0.915666
vt 0.908090 0.667668
vt 0.819183 0.832332
vt 0.908090 0.832332
vt 0.726272 0.915666
vt 0.546456 0.834334
vt 0.546456 0.915666
vt 0.998999 0.167668
vt 0.910092 0.332332
vt 0.998999 0.332332
vt 0.362635 0.917668
vt 0.910092 0.498999
vt 0.180817 0.917668
vt 0.544454 0.834334
vt 0.728274 0.667668
vt 0.362635 0.834334
vt 0.001001 0.834334
vt 0.819183 0.667668
vt 0.726272 0.834334
vt 0.910092 0.167668
vt 0.362635 0.665666
vt 0.182819 0.334334
vt 0.182819 0.665666
vt 0.726272 0.165666
vt 0.364637 0.001001
vt 0.364637 0.165666
vt 0.546456 0.167668
vt 0.726272 0.498999
vt 0.726272 0.167668
vt 0.001001 0.667668
vt 0.180817 0.832332
vt 0.180817 0.667668
vt 0.728274 0.501001
vt 0.908090 0.665666
vt 0.908090 0.501001
vt 0.728274 0.334334
vt 0.908090 0.498999
vt 0.908090 0.334334
vt 0.728274 0.001001
vt 0.908090 0.332332
vt 0.908090 0.001001
vt 0.362635 0.001001
vt 0.001001 0.165666
vt 0.362635 0.165666
vt 0.364637 0.334334
vt 0.544454 0.665666
vt 0.544454 0.334334
vt 0.546456 0.501001
vt 0.726272 0.665666
vt 0.726272 0.501001
vt 0.546456 0.667668
vt 0.726272 0.832332
vt 0.726272 0.667668
vt 0.001001 0.501001
vt 0.180817 0.665666
vt 0.180817 0.501001
vt 0.998999 0.001001
vt 0.910092 0.165666
vt 0.998999 0.165666
vt 0.908090 0.915666
vt 0.728274 0.834334
vt 0.728274 0.915666
vt 0.544454 0.167668
vt 0.182819 0.332332
vt 0.544454 0.332332
vt 0.001001 0.167668
vt 0.180817 0.498999
vt 0.180817 0.167668
vt 0.544454 0.667668
vt 0.182819 0.832332
vt 0.544454 0.832332
vt 0.362635 0.334334
vt 0.726272 0.001001
vt 0.546456 0.498999
vt 0.001001 0.832332
vt 0.728274 0.665666
vt 0.728274 0.498999
vt 0.728274 0.332332
vt 0.001001 0.001001
vt 0.364637 0.665666
vt 0.546456 0.665666
vt 0.546456 0.832332
vt 0.001001 0.665666
vt 0.910092 0.001001
vt 0.908090 0.834334
vt 0.182819 0.167668
vt 0.001001 0.498999
vt 0.182819 0.667668
vn 0.0000 0.0000 1.0000
vn 0.0000 -0.0090 1.0000
s off
f 6/1/1 8/2/1 5/3/1
f 8/4/1 3/5/1 5/6/1
f 3/7/1 11/8/1 2/9/1
f 9/10/1 20/11/1 12/12/1
f 12/13/1 19/14/1 10/15/1
f 7/16/1 18/17/1 9/18/1
f 22/19/1 30/20/1 31/21/1
f 22/22/1 29/23/1 24/24/1
f 32/25/1 24/26/1 29/27/1
f 39/28/1 34/29/1 37/30/1
f 6/1/1 13/31/1 8/2/1
f 8/4/1 16/32/1 3/5/1
f 3/7/1 16/33/1 11/8/1
f 9/10/1 18/34/1 20/11/1
f 12/13/1 20/35/1 19/14/1
f 7/16/1 17/36/1 18/17/1
f 22/19/1 21/37/1 30/20/1
f 22/22/1 31/38/1 29/23/1
f 32/25/1 23/39/1 24/26/1
f 39/28/1 33/40/1 34/29/1
f 13/41/1 9/42/1 8/43/1
f 16/44/1 9/45/1 12/46/1
f 16/47/1 10/48/1 11/49/1
f 1/50/1 5/51/1 14/52/1
f 5/53/1 4/54/1 14/55/1
f 3/56/1 15/57/1 4/58/1
f 33/59/1 24/60/1 34/61/1
f 34/62/1 23/63/1 35/64/1
f 36/65/1 22/66/1 33/67/1
f 26/68/2 29/69/2 31/70/2
f 31/71/2 25/72/2 26/73/2
f 27/74/2 29/75/2 28/76/2
f 40/77/1 33/78/1 39/79/1
f 37/80/1 35/81/1 38/82/1
f 18/83/1 37/84/1 20/85/1
f 20/86/1 38/87/1 19/88/1
f 17/89/1 39/90/1 18/91/1
f 13/41/1 7/92/1 9/42/1
f 16/44/1 8/93/1 9/45/1
f 16/47/1 12/94/1 10/48/1
f 1/50/1 6/95/1 5/51/1
f 5/53/1 3/96/1 4/54/1
f 3/56/1 2/97/1 15/57/1
f 33/59/1 22/98/1 24/60/1
f 34/62/1 24/99/1 23/63/1
f 36/65/1 21/100/1 22/66/1
f 26/68/2 28/101/2 29/69/2
f 31/71/2 30/102/2 25/72/2
f 27/74/2 32/103/2 29/75/2
f 40/77/1 36/104/1 33/78/1
f 37/80/1 34/105/1 35/81/1
f 18/83/1 39/106/1 37/84/1
f 20/86/1 37/107/1 38/87/1
f 17/89/1 40/108/1 39/90/1
