# Blender v2.93.1 OBJ File: 'tunnel.blend'
# www.blender.org
o Plane
v 4.500000 5.229201 0.009674
v 3.000000 5.229201 0.009674
v 3.000000 6.298400 0.009674
v 1.500000 5.229201 0.009674
v 0.000000 5.229201 0.009674
v 0.000000 1.776397 0.009674
v 1.500000 5.079202 0.009674
v 1.500000 1.776397 0.009674
v 4.500000 1.776397 0.009674
v 4.500000 5.079202 0.009674
v 3.000000 1.776397 0.009674
v 0.000000 5.079201 0.009674
v 1.500000 6.298400 0.009674
v 4.500000 6.298400 0.009674
v 3.000000 5.079201 0.009674
v 0.000000 1.626396 0.009674
v 1.500000 1.626396 0.009674
v 4.500000 1.626396 0.009674
v 3.000000 1.626396 0.009674
v 0.000000 -5.079201 0.009674
v 1.500000 -5.079201 0.009674
v 4.500000 -5.079196 0.009674
v 3.000000 -5.079196 0.009674
v 0.000000 -6.298399 0.000000
v 1.500000 -6.298400 0.000000
v 4.500000 -6.298400 0.000000
v 3.000000 -6.298400 0.000000
v 3.000000 -5.229197 0.009674
v 0.000000 -5.229197 0.009674
v 1.500000 -5.229197 0.009674
v 4.500000 -5.229197 0.009674
v 1.500000 -1.776402 0.009674
v 3.000000 -1.776402 0.009674
v 4.500000 -1.776402 0.009674
v 0.000000 -1.776401 0.009674
v 3.000000 -1.676401 0.009674
v 4.500000 -1.676401 0.009674
v 1.500000 -1.676403 0.009674
v 0.000000 -1.676403 0.009674
v 0.000000 6.298400 0.009674
v 1.500000 5.855037 3.266177
v -0.000000 5.855037 3.266177
v 3.000000 5.855037 3.266177
v 4.500000 5.855037 3.266177
v 4.500000 6.500881 1.639490
v 3.000000 6.500881 1.639490
v 0.000000 6.500881 1.639490
v 1.500000 6.500881 1.639490
v 4.500000 4.810183 4.670280
v -0.000000 4.810183 4.670280
v 1.500000 4.810183 4.670280
v 3.000000 4.810183 4.670280
v 1.499999 3.437522 5.756111
v 4.500000 3.437522 5.756111
v -0.000001 3.437522 5.756111
v 2.999999 3.437522 5.756111
v 1.499999 1.830600 6.449672
v 2.999999 1.830600 6.449672
v -0.000001 1.830600 6.449672
v 4.500000 1.830600 6.449672
v 3.000000 -6.500880 1.639490
v 4.500000 -6.500880 1.639490
v 4.500000 0.098926 6.703699
v -0.000001 0.098926 6.703699
v 1.500000 -6.500880 1.639490
v -0.000000 -6.500880 1.639490
v 2.083569 0.040961 6.703699
v 2.416429 0.040961 6.703699
v 3.000000 -5.855037 3.266177
v 4.500000 -5.855037 3.266177
v 1.500000 -5.855037 3.266177
v -0.000000 -5.855036 3.266177
v 2.999999 -4.810182 4.670280
v 4.500000 -4.810182 4.670280
v 1.499999 -4.810182 4.670280
v -0.000001 -4.810182 4.670280
v 2.999999 -3.437521 5.756111
v 4.500000 -3.437521 5.756111
v 1.499999 -3.437521 5.756111
v -0.000001 -3.437521 5.756110
v 2.999999 -1.830600 6.449672
v 4.500000 -1.830600 6.449672
v 1.499999 -1.830600 6.449672
v -0.000001 -1.830599 6.449672
v 2.416429 -0.040960 6.703699
v 4.500000 -0.098926 6.703699
v 2.083569 -0.040960 6.703699
v -0.000001 -0.098925 6.703699
v 2.999999 0.098926 6.703699
v 1.499999 0.098926 6.703699
v 2.999999 -0.098925 6.703699
v 1.499999 -0.098925 6.703699
v 2.416429 0.040961 6.657585
v 2.083569 0.040961 6.657585
v 2.416429 -0.040960 6.657585
v 2.083569 -0.040960 6.657585
v 2.618720 0.090747 6.617463
v 1.881278 0.090747 6.617463
v 2.618720 -0.090746 6.617463
v 1.881278 -0.090746 6.617463
v 2.618720 0.090747 6.551939
v 1.881278 0.090747 6.551939
v 2.618720 -0.090746 6.551939
v 1.881278 -0.090746 6.551939
vt 0.911499 0.601001
vt 0.901001 0.698999
vt 0.911499 0.698999
vt 0.698999 0.913501
vt 0.601001 0.923999
vt 0.698999 0.923999
vt 0.911499 0.701001
vt 0.901001 0.798999
vt 0.911499 0.798999
vt 0.911499 0.801001
vt 0.901001 0.898999
vt 0.911499 0.898999
vt 0.798999 0.911499
vt 0.701001 0.901001
vt 0.701001 0.911499
vt 0.923999 0.801001
vt 0.913501 0.898999
vt 0.923999 0.898999
vt 0.913501 0.701001
vt 0.923999 0.798999
vt 0.923999 0.701001
vt 0.698999 0.911499
vt 0.601001 0.901001
vt 0.601001 0.911499
vt 0.923999 0.601001
vt 0.913501 0.698999
vt 0.923999 0.698999
vt 0.898999 0.917749
vt 0.801001 0.913501
vt 0.801001 0.917749
vt 0.948999 0.501001
vt 0.926001 0.548999
vt 0.948999 0.548999
vt 0.732251 0.919751
vt 0.736499 0.930249
vt 0.736499 0.919751
vt 0.723999 0.930249
vt 0.701001 0.919751
vt 0.701001 0.930249
vt 0.926001 0.551001
vt 0.948999 0.598999
vt 0.948999 0.551001
vt 0.923999 0.901001
vt 0.913501 0.923999
vt 0.923999 0.923999
vt 0.901001 0.551001
vt 0.911499 0.598999
vt 0.911499 0.551001
vt 0.907251 0.501001
vt 0.911499 0.548999
vt 0.911499 0.501001
vt 0.726001 0.919751
vt 0.730249 0.930249
vt 0.730249 0.919751
vt 0.901001 0.501001
vt 0.905249 0.548999
vt 0.905249 0.501001
vt 0.901001 0.601001
vt 0.601001 0.913501
vt 0.901001 0.701001
vt 0.901001 0.801001
vt 0.798999 0.901001
vt 0.913501 0.801001
vt 0.913501 0.798999
vt 0.698999 0.901001
vt 0.913501 0.601001
vt 0.898999 0.913501
vt 0.926001 0.501001
vt 0.732251 0.930249
vt 0.723999 0.919751
vt 0.926001 0.598999
vt 0.913501 0.901001
vt 0.901001 0.598999
vt 0.907251 0.548999
vt 0.726001 0.930249
vt 0.901001 0.548999
vt 0.001001 0.398999
vt 0.198999 0.301001
vt 0.001001 0.301001
vt 0.298999 0.001001
vt 0.201001 0.198999
vt 0.298999 0.198999
vt 0.398999 0.201001
vt 0.201001 0.298999
vt 0.398999 0.298999
vt 0.301001 0.901001
vt 0.398999 0.998999
vt 0.398999 0.901001
vt 0.401001 0.901001
vt 0.498999 0.998999
vt 0.498999 0.901001
vt 0.901001 0.301001
vt 0.998999 0.398999
vt 0.998999 0.301001
vt 0.198999 0.501001
vt 0.001001 0.598999
vt 0.198999 0.598999
vt 0.501001 0.001001
vt 0.598999 0.198999
vt 0.598999 0.001001
vt 0.398999 0.501001
vt 0.201001 0.598999
vt 0.398999 0.598999
vt 0.901001 0.101001
vt 0.998999 0.198999
vt 0.998999 0.101001
vt 0.001001 0.901001
vt 0.098999 0.998999
vt 0.098999 0.901001
vt 0.901001 0.001001
vt 0.998999 0.098999
vt 0.998999 0.001001
vt 0.798999 0.917749
vt 0.701001 0.913501
vt 0.701001 0.917749
vt 0.930249 0.701001
vt 0.926001 0.798999
vt 0.930249 0.798999
vt 0.701001 0.001001
vt 0.798999 0.198999
vt 0.798999 0.001001
vt 0.198999 0.701001
vt 0.001001 0.798999
vt 0.198999 0.798999
vt 0.701001 0.201001
vt 0.798999 0.398999
vt 0.798999 0.201001
vt 0.738501 0.919751
vt 0.742749 0.923999
vt 0.742749 0.919751
vt 0.907251 0.901001
vt 0.911499 0.923999
vt 0.911499 0.901001
vt 0.744751 0.919751
vt 0.748999 0.923999
vt 0.748999 0.919751
vt 0.901001 0.901001
vt 0.905249 0.923999
vt 0.905249 0.901001
vt 0.198999 0.398999
vt 0.201001 0.001001
vt 0.201001 0.201001
vt 0.301001 0.998999
vt 0.401001 0.998999
vt 0.901001 0.398999
vt 0.001001 0.501001
vt 0.501001 0.198999
vt 0.201001 0.501001
vt 0.901001 0.198999
vt 0.001001 0.998999
vt 0.901001 0.098999
vt 0.798999 0.913501
vt 0.926001 0.701001
vt 0.701001 0.198999
vt 0.001001 0.701001
vt 0.701001 0.398999
vt 0.738501 0.923999
vt 0.907251 0.923999
vt 0.744751 0.923999
vt 0.901001 0.923999
vt 0.398999 0.798999
vt 0.201001 0.701001
vt 0.201001 0.798999
vt 0.798999 0.401001
vt 0.701001 0.598999
vt 0.798999 0.598999
vt 0.598999 0.798999
vt 0.401001 0.701001
vt 0.401001 0.798999
vt 0.698999 0.601001
vt 0.601001 0.798999
vt 0.698999 0.798999
vt 0.801001 0.801001
vt 0.898999 0.898999
vt 0.898999 0.801001
vt 0.801001 0.701001
vt 0.898999 0.798999
vt 0.898999 0.701001
vt 0.801001 0.601001
vt 0.898999 0.698999
vt 0.898999 0.601001
vt 0.398999 0.898999
vt 0.201001 0.801001
vt 0.201001 0.898999
vt 0.801001 0.201001
vt 0.898999 0.398999
vt 0.898999 0.201001
vt 0.598999 0.898999
vt 0.401001 0.801001
vt 0.401001 0.898999
vt 0.098999 0.001001
vt 0.001001 0.198999
vt 0.098999 0.198999
vt 0.798999 0.898999
vt 0.601001 0.801001
vt 0.601001 0.898999
vt 0.898999 0.001001
vt 0.801001 0.198999
vt 0.898999 0.198999
vt 0.198999 0.898999
vt 0.001001 0.801001
vt 0.001001 0.898999
vt 0.798999 0.601001
vt 0.701001 0.798999
vt 0.798999 0.798999
vt 0.598999 0.598999
vt 0.401001 0.501001
vt 0.401001 0.598999
vt 0.601001 0.001001
vt 0.698999 0.198999
vt 0.698999 0.001001
vt 0.101001 0.901001
vt 0.198999 0.998999
vt 0.198999 0.901001
vt 0.598999 0.498999
vt 0.401001 0.401001
vt 0.401001 0.498999
vt 0.901001 0.201001
vt 0.998999 0.298999
vt 0.998999 0.201001
vt 0.201001 0.901001
vt 0.298999 0.998999
vt 0.298999 0.901001
vt 0.401001 0.001001
vt 0.498999 0.198999
vt 0.498999 0.001001
vt 0.198999 0.401001
vt 0.001001 0.498999
vt 0.198999 0.498999
vt 0.301001 0.001001
vt 0.398999 0.198999
vt 0.398999 0.001001
vt 0.398999 0.301001
vt 0.201001 0.398999
vt 0.398999 0.398999
vt 0.101001 0.001001
vt 0.198999 0.198999
vt 0.198999 0.001001
vt 0.198999 0.201001
vt 0.001001 0.298999
vt 0.198999 0.298999
vt 0.801001 0.401001
vt 0.898999 0.598999
vt 0.898999 0.401001
vt 0.598999 0.698999
vt 0.401001 0.601001
vt 0.401001 0.698999
vt 0.601001 0.401001
vt 0.698999 0.598999
vt 0.698999 0.401001
vt 0.398999 0.601001
vt 0.201001 0.698999
vt 0.398999 0.698999
vt 0.601001 0.201001
vt 0.698999 0.398999
vt 0.698999 0.201001
vt 0.198999 0.601001
vt 0.001001 0.698999
vt 0.198999 0.698999
vt 0.501001 0.201001
vt 0.598999 0.398999
vt 0.598999 0.201001
vt 0.398999 0.401001
vt 0.201001 0.498999
vt 0.398999 0.498999
vt 0.401001 0.201001
vt 0.498999 0.398999
vt 0.498999 0.201001
vt 0.898999 0.901001
vt 0.801001 0.911499
vt 0.898999 0.911499
vt 0.926001 0.601001
vt 0.936499 0.698999
vt 0.936499 0.601001
vt 0.598999 0.901001
vt 0.501001 0.948999
vt 0.598999 0.948999
vt 0.948999 0.401001
vt 0.901001 0.498999
vt 0.948999 0.498999
vt 0.923999 0.548999
vt 0.913501 0.501001
vt 0.913501 0.548999
vt 0.923999 0.598999
vt 0.913501 0.551001
vt 0.913501 0.598999
vt 0.398999 0.701001
vt 0.701001 0.401001
vt 0.598999 0.701001
vt 0.601001 0.601001
vt 0.801001 0.898999
vt 0.801001 0.798999
vt 0.801001 0.698999
vt 0.398999 0.801001
vt 0.801001 0.398999
vt 0.598999 0.801001
vt 0.001001 0.001001
vt 0.798999 0.801001
vt 0.801001 0.001001
vt 0.198999 0.801001
vt 0.701001 0.601001
vt 0.598999 0.501001
vt 0.601001 0.198999
vt 0.101001 0.998999
vt 0.598999 0.401001
vt 0.901001 0.298999
vt 0.201001 0.998999
vt 0.401001 0.198999
vt 0.001001 0.401001
vt 0.301001 0.198999
vt 0.201001 0.301001
vt 0.101001 0.198999
vt 0.001001 0.201001
vt 0.801001 0.598999
vt 0.598999 0.601001
vt 0.601001 0.598999
vt 0.201001 0.601001
vt 0.601001 0.398999
vt 0.001001 0.601001
vt 0.501001 0.398999
vt 0.201001 0.401001
vt 0.401001 0.398999
vt 0.801001 0.901001
vt 0.926001 0.698999
vt 0.501001 0.901001
vt 0.901001 0.401001
vt 0.923999 0.501001
vt 0.923999 0.551001
vn 0.0000 0.0000 1.0000
vn 0.0000 0.6275 0.7786
vn 1.0000 0.0000 0.0000
vn 0.1946 0.0000 0.9809
vn 0.0000 -0.6275 0.7786
vn -0.1946 0.0000 0.9809
vn -0.0000 0.0000 -1.0000
vn -0.0000 -1.0000 0.0000
vn -1.0000 0.0000 0.0000
vn -0.0000 1.0000 0.0000
vn 0.1945 0.0000 0.9809
vn 0.0000 -0.0090 1.0000
vn 0.0000 -0.8022 -0.5970
vn 0.0000 -0.9294 -0.3690
vn 0.0000 -0.9924 0.1233
vn 0.0000 -0.6204 -0.7843
vn 0.0000 -0.3963 -0.9181
vn 0.0000 -0.1451 -0.9894
vn 0.0000 0.9925 0.1226
vn 0.0000 0.9294 -0.3690
vn 0.0000 0.8022 -0.5970
vn 0.0000 0.6204 -0.7843
vn 0.0000 0.3963 -0.9181
vn 0.0000 0.1451 -0.9894
s off
f 5/1/1 7/2/1 4/3/1
f 7/4/1 2/5/1 4/6/1
f 2/7/1 10/8/1 1/9/1
f 8/10/1 19/11/1 11/12/1
f 11/13/1 18/14/1 9/15/1
f 6/16/1 17/17/1 8/18/1
f 21/19/1 29/20/1 30/21/1
f 21/22/1 28/23/1 23/24/1
f 31/25/1 23/26/1 28/27/1
f 38/28/1 33/29/1 36/30/1
f 93/31/2 98/32/2 94/33/2
f 103/34/3 97/35/3 99/36/3
f 99/37/4 93/38/4 95/39/4
f 100/40/5 95/41/5 96/42/5
f 98/43/6 96/44/6 94/45/6
f 102/46/7 103/47/7 104/48/7
f 104/49/8 99/50/8 100/51/8
f 102/52/9 100/53/9 98/54/9
f 101/55/10 98/56/10 97/57/10
f 5/1/1 12/58/1 7/2/1
f 7/4/1 15/59/1 2/5/1
f 2/7/1 15/60/1 10/8/1
f 8/10/1 17/61/1 19/11/1
f 11/13/1 19/62/1 18/14/1
f 6/16/1 16/63/1 17/17/1
f 21/19/1 20/64/1 29/20/1
f 21/22/1 30/65/1 28/23/1
f 31/25/1 22/66/1 23/26/1
f 38/28/1 32/67/1 33/29/1
f 93/31/2 97/68/2 98/32/2
f 103/34/3 101/69/3 97/35/3
f 99/37/11 97/70/11 93/38/11
f 100/40/5 99/71/5 95/41/5
f 98/43/6 100/72/6 96/44/6
f 102/46/7 101/73/7 103/47/7
f 104/49/8 103/74/8 99/50/8
f 102/52/9 104/75/9 100/53/9
f 101/55/10 102/76/10 98/56/10
f 12/77/1 8/78/1 7/79/1
f 15/80/1 8/81/1 11/82/1
f 15/83/1 9/84/1 10/85/1
f 40/86/1 4/87/1 13/88/1
f 4/89/1 3/90/1 13/91/1
f 2/92/1 14/93/1 3/94/1
f 32/95/1 23/96/1 33/97/1
f 33/98/1 22/99/1 34/100/1
f 35/101/1 21/102/1 32/103/1
f 25/104/12 28/105/12 30/106/12
f 30/107/12 24/108/12 25/109/12
f 26/110/12 28/111/12 27/112/12
f 39/113/1 32/114/1 38/115/1
f 36/116/1 34/117/1 37/118/1
f 17/119/1 36/120/1 19/121/1
f 19/122/1 37/123/1 18/124/1
f 16/125/1 38/126/1 17/127/1
f 94/128/9 87/129/9 67/130/9
f 93/131/10 67/132/10 68/133/10
f 95/134/3 68/135/3 85/136/3
f 96/137/8 85/138/8 87/139/8
f 12/77/1 6/140/1 8/78/1
f 15/80/1 7/141/1 8/81/1
f 15/83/1 11/142/1 9/84/1
f 40/86/1 5/143/1 4/87/1
f 4/89/1 2/144/1 3/90/1
f 2/92/1 1/145/1 14/93/1
f 32/95/1 21/146/1 23/96/1
f 33/98/1 23/147/1 22/99/1
f 35/101/1 20/148/1 21/102/1
f 25/104/12 27/149/12 28/105/12
f 30/107/12 29/150/12 24/108/12
f 26/110/12 31/151/12 28/111/12
f 39/113/1 35/152/1 32/114/1
f 36/116/1 33/153/1 34/117/1
f 17/119/1 38/154/1 36/120/1
f 19/122/1 36/155/1 37/123/1
f 16/125/1 39/156/1 38/126/1
f 94/128/9 96/157/9 87/129/9
f 93/131/10 94/158/10 67/132/10
f 95/134/3 93/159/3 68/135/3
f 96/137/8 95/160/8 85/138/8
f 41/161/13 52/162/13 51/163/13
f 48/164/14 43/165/14 41/166/14
f 49/167/13 43/168/13 44/169/13
f 47/170/14 41/171/14 42/172/14
f 14/173/15 46/174/15 3/175/15
f 3/176/15 48/177/15 13/178/15
f 13/179/15 47/180/15 40/181/15
f 44/182/14 46/183/14 45/184/14
f 49/185/16 56/186/16 52/187/16
f 51/188/16 56/189/16 53/190/16
f 51/191/13 42/192/13 41/193/13
f 57/194/17 55/195/17 53/196/17
f 50/197/16 53/198/16 55/199/16
f 90/200/18 59/201/18 57/202/18
f 89/203/18 57/204/18 58/205/18
f 60/206/17 56/207/17 54/208/17
f 56/209/17 57/210/17 53/211/17
f 24/212/19 65/213/19 25/214/19
f 63/215/18 58/216/18 60/217/18
f 25/218/19 61/219/19 27/220/19
f 27/221/19 62/222/19 26/223/19
f 65/224/20 69/225/20 61/226/20
f 66/227/20 71/228/20 65/229/20
f 61/230/20 70/231/20 62/232/20
f 71/233/21 73/234/21 69/235/21
f 72/236/21 75/237/21 71/238/21
f 69/239/21 74/240/21 70/241/21
f 75/242/22 77/243/22 73/244/22
f 75/245/22 80/246/22 79/247/22
f 73/248/22 78/249/22 74/250/22
f 79/251/23 81/252/23 77/253/23
f 80/254/23 83/255/23 79/256/23
f 77/257/23 82/258/23 78/259/23
f 83/260/24 91/261/24 81/262/24
f 84/263/24 92/264/24 83/265/24
f 81/266/24 86/267/24 82/268/24
f 64/269/7 92/270/7 88/271/7
f 89/272/7 86/273/7 91/274/7
f 90/275/7 68/276/7 67/277/7
f 85/278/7 92/279/7 87/280/7
f 87/281/7 90/282/7 67/283/7
f 68/284/7 91/285/7 85/286/7
f 41/161/13 43/287/13 52/162/13
f 48/164/14 46/288/14 43/165/14
f 49/167/13 52/289/13 43/168/13
f 47/170/14 48/290/14 41/171/14
f 14/173/15 45/291/15 46/174/15
f 3/176/15 46/292/15 48/177/15
f 13/179/15 48/293/15 47/180/15
f 44/182/14 43/294/14 46/183/14
f 49/185/16 54/295/16 56/186/16
f 51/188/16 52/296/16 56/189/16
f 51/191/13 50/297/13 42/192/13
f 57/194/17 59/298/17 55/195/17
f 50/197/16 51/299/16 53/198/16
f 90/200/18 64/300/18 59/201/18
f 89/203/18 90/301/18 57/204/18
f 60/206/17 58/302/17 56/207/17
f 56/209/17 58/303/17 57/210/17
f 24/212/19 66/304/19 65/213/19
f 63/215/18 89/305/18 58/216/18
f 25/218/19 65/306/19 61/219/19
f 27/221/19 61/307/19 62/222/19
f 65/224/20 71/308/20 69/225/20
f 66/227/20 72/309/20 71/228/20
f 61/230/20 69/310/20 70/231/20
f 71/233/21 75/311/21 73/234/21
f 72/236/21 76/312/21 75/237/21
f 69/239/21 73/313/21 74/240/21
f 75/242/22 79/314/22 77/243/22
f 75/245/22 76/315/22 80/246/22
f 73/248/22 77/316/22 78/249/22
f 79/251/23 83/317/23 81/252/23
f 80/254/23 84/318/23 83/255/23
f 77/257/23 81/319/23 82/258/23
f 83/260/24 92/320/24 91/261/24
f 84/263/24 88/321/24 92/264/24
f 81/266/24 91/322/24 86/267/24
f 64/269/7 90/323/7 92/270/7
f 89/272/7 63/324/7 86/273/7
f 90/275/7 89/325/7 68/276/7
f 85/278/7 91/326/7 92/279/7
f 87/281/7 92/327/7 90/282/7
f 68/284/7 89/328/7 91/285/7
