# Blender v2.93.1 OBJ File: 'tunnel_end.blend'
# www.blender.org
o Plane
v 0.000000 0.009674 -5.229201
v 0.000000 0.009674 -5.079201
v 0.000000 0.009674 -6.298400
v -0.000000 3.266177 -5.855037
v 0.000000 1.639490 -6.500881
v -0.000000 4.670280 -4.810183
v -0.000001 5.756111 -3.437522
v -0.000001 6.449672 -1.830600
v -0.000001 6.703699 -0.098926
v 1.353417 0.009674 -5.051021
v 1.314594 0.009674 -4.906132
v 1.630146 0.009674 -6.083787
v 1.515395 3.266177 -5.655531
v 1.682552 1.639490 -6.279368
v 1.244967 4.670280 -4.646279
v 0.889696 5.756111 -3.320391
v 0.473794 6.449672 -1.768224
v 0.025603 6.703699 -0.095555
v 2.614601 0.009674 -4.528621
v 2.539601 0.009674 -4.398717
v 3.149200 0.009674 -5.454574
v 2.927518 3.266177 -5.070611
v 3.250440 1.639490 -5.629928
v 2.405091 4.670280 -4.165740
v 1.718760 5.756111 -2.976982
v 0.915299 6.449672 -1.585346
v 0.049462 6.703699 -0.085673
v 3.697604 0.009674 -3.697603
v 3.591538 0.009674 -3.591537
v 4.453641 0.009674 -4.453641
v 4.140136 3.266177 -4.140136
v 4.596817 1.639490 -4.596817
v 3.401312 4.670280 -3.401312
v 2.430695 5.756111 -2.430696
v 1.294429 6.449672 -1.294430
v 0.069951 6.703699 -0.069952
v 4.528621 0.009674 -2.614600
v 4.398717 0.009674 -2.539600
v 5.454574 0.009674 -3.149199
v 5.070611 3.266177 -2.927518
v 5.629927 1.639490 -3.250440
v 4.165740 4.670280 -2.405091
v 2.976981 5.756111 -1.718761
v 1.585346 6.449672 -0.915300
v 0.085672 6.703699 -0.049464
v 5.051020 0.009674 -1.353416
v 4.906131 0.009674 -1.314594
v 6.083786 0.009674 -1.630145
v 5.655531 3.266177 -1.515395
v 6.279367 1.639490 -1.682552
v 4.646278 4.670280 -1.244967
v 3.320391 5.756111 -0.889697
v 1.768224 6.449672 -0.473795
v 0.095555 6.703699 -0.025605
v 5.229200 0.009674 0.000001
v 5.079201 0.009674 0.000000
v 6.298398 0.009674 0.000000
v 5.855037 3.266177 0.000000
v 6.500879 1.639490 -0.000000
v 4.810182 4.670280 -0.000000
v 3.437521 5.756111 -0.000001
v 1.830600 6.449672 -0.000001
v 0.098926 6.703699 -0.000001
v 5.051020 0.009674 1.353417
v 4.906131 0.009674 1.314594
v 6.083786 0.009674 1.630146
v 5.655531 3.266177 1.515395
v 6.279367 1.639490 1.682551
v 4.646278 4.670280 1.244966
v 3.320391 5.756111 0.889695
v 1.768224 6.449672 0.473794
v 0.095555 6.703699 0.025603
v 4.528620 0.009674 2.614601
v 4.398717 0.009674 2.539600
v 5.454573 0.009674 3.149199
v 5.070610 3.266177 2.927518
v 5.629926 1.639490 3.250439
v 4.165740 4.670280 2.405090
v 2.976981 5.756111 1.718760
v 1.585346 6.449672 0.915300
v 0.085673 6.703699 0.049462
v 0.000000 0.009674 0.000000
v 3.697602 0.009674 3.697603
v 3.591537 0.009674 3.591537
v 4.453640 0.009674 4.453640
v 4.140136 3.266177 4.140136
v 4.596816 1.639490 4.596815
v 3.401312 4.670280 3.401312
v 2.430695 5.756111 2.430694
v 1.294430 6.449672 1.294429
v 0.069952 6.703699 0.069951
v 2.614599 0.009674 4.528620
v 2.539600 0.009674 4.398717
v 3.149199 0.009674 5.454573
v 2.927518 3.266177 5.070610
v 3.250439 1.639490 5.629926
v 2.405091 4.670280 4.165739
v 1.718761 5.756111 2.976980
v 0.915300 6.449672 1.585346
v 0.049464 6.703699 0.085672
v 1.353416 0.009674 5.051019
v 1.314594 0.009674 4.906131
v 1.630145 0.009674 6.083785
v 1.515395 3.266177 5.655531
v 1.682551 1.639490 6.279366
v 1.244967 4.670280 4.646278
v 0.889697 5.756111 3.320390
v 0.473795 6.449672 1.768224
v 0.025605 6.703699 0.095555
v -0.000001 0.009674 5.229199
v -0.000000 0.009674 5.079200
v -0.000000 0.009674 6.298398
v -0.000000 3.266177 5.855036
v 0.000000 1.639490 6.500878
v 0.000000 4.670280 4.810181
v 0.000001 5.756111 3.437521
v 0.000001 6.449672 1.830600
v 0.000001 6.703699 0.098926
vt 0.030249 0.938501
vt 0.016626 0.998999
vt 0.030249 0.998999
vt 0.014624 0.938501
vt 0.001001 0.998999
vt 0.014624 0.998999
vt 0.061499 0.938501
vt 0.047876 0.998999
vt 0.061499 0.998999
vt 0.045874 0.938501
vt 0.032251 0.998999
vt 0.045874 0.998999
vt 0.092749 0.938501
vt 0.079126 0.998999
vt 0.092749 0.998999
vt 0.077124 0.938501
vt 0.063501 0.998999
vt 0.077124 0.998999
vt 0.123999 0.938501
vt 0.110376 0.998999
vt 0.123999 0.998999
vt 0.108374 0.938501
vt 0.094751 0.998999
vt 0.108374 0.998999
vt 0.905249 0.876001
vt 0.891626 0.936499
vt 0.905249 0.936499
vt 0.889624 0.876001
vt 0.876001 0.936499
vt 0.889624 0.936499
vt 0.936499 0.876001
vt 0.922876 0.936499
vt 0.936499 0.936499
vt 0.920874 0.876001
vt 0.907251 0.936499
vt 0.920874 0.936499
vt 0.016626 0.938501
vt 0.001001 0.938501
vt 0.047876 0.938501
vt 0.032251 0.938501
vt 0.079126 0.938501
vt 0.063501 0.938501
vt 0.110376 0.938501
vt 0.094751 0.938501
vt 0.891626 0.876001
vt 0.876001 0.876001
vt 0.922876 0.876001
vt 0.907251 0.876001
vt 0.748999 0.811499
vt 0.626001 0.751001
vt 0.626001 0.811499
vt 0.811499 0.373999
vt 0.811499 0.252002
vt 0.752002 0.373999
vt 0.248999 0.936499
vt 0.126001 0.876001
vt 0.126001 0.936499
vt 0.623999 0.752002
vt 0.502002 0.811499
vt 0.623999 0.811499
vt 0.751001 0.873999
vt 0.873999 0.813501
vt 0.751001 0.813501
vt 0.501001 0.810498
vt 0.622998 0.751001
vt 0.501001 0.751001
vt 0.873999 0.373999
vt 0.813501 0.251001
vt 0.813501 0.373999
vt 0.810498 0.251001
vt 0.751001 0.372998
vt 0.751001 0.251001
vt 0.811499 0.248999
vt 0.751001 0.126001
vt 0.751001 0.248999
vt 0.811499 0.748999
vt 0.811499 0.627002
vt 0.752002 0.748999
vt 0.126001 0.811499
vt 0.248999 0.751001
vt 0.126001 0.751001
vt 0.248999 0.814502
vt 0.127002 0.873999
vt 0.248999 0.873999
vt 0.001001 0.873999
vt 0.123999 0.813501
vt 0.001001 0.813501
vt 0.123999 0.811499
vt 0.002002 0.811499
vt 0.123999 0.752002
vt 0.376001 0.873999
vt 0.498999 0.813501
vt 0.376001 0.813501
vt 0.001001 0.810498
vt 0.122998 0.751001
vt 0.001001 0.751001
vt 0.873999 0.498999
vt 0.813501 0.376001
vt 0.813501 0.498999
vt 0.751001 0.626001
vt 0.751001 0.747998
vt 0.810498 0.626001
vt 0.936499 0.498999
vt 0.876001 0.376001
vt 0.876001 0.498999
vt 0.126001 0.872998
vt 0.247998 0.813501
vt 0.126001 0.813501
vt 0.936499 0.748999
vt 0.876001 0.626001
vt 0.876001 0.748999
vt 0.877002 0.123999
vt 0.936499 0.002002
vt 0.936499 0.123999
vt 0.998999 0.248999
vt 0.938501 0.126001
vt 0.938501 0.248999
vt 0.935498 0.001001
vt 0.876001 0.122998
vt 0.876001 0.001001
vt 0.748999 0.751001
vt 0.248999 0.876001
vt 0.873999 0.873999
vt 0.873999 0.251001
vt 0.811499 0.126001
vt 0.248999 0.811499
vt 0.123999 0.873999
vt 0.498999 0.873999
vt 0.873999 0.376001
vt 0.936499 0.376001
vt 0.936499 0.626001
vt 0.998999 0.126001
vt 0.954126 0.251001
vt 0.967749 0.373999
vt 0.967749 0.251001
vt 0.001001 0.126001
vt 0.123999 0.248999
vt 0.123999 0.126001
vt 0.936499 0.501001
vt 0.876001 0.623999
vt 0.936499 0.623999
vt 0.001001 0.251001
vt 0.123999 0.373999
vt 0.123999 0.251001
vt 0.748999 0.936499
vt 0.626001 0.876001
vt 0.626001 0.936499
vt 0.251001 0.126001
vt 0.373999 0.248999
vt 0.373999 0.126001
vt 0.936499 0.751001
vt 0.876001 0.873999
vt 0.936499 0.873999
vt 0.251001 0.251001
vt 0.373999 0.373999
vt 0.373999 0.251001
vt 0.498999 0.876001
vt 0.376001 0.936499
vt 0.498999 0.936499
vt 0.376001 0.001001
vt 0.498999 0.123999
vt 0.498999 0.001001
vt 0.952124 0.251001
vt 0.938501 0.373999
vt 0.952124 0.373999
vt 0.498999 0.126001
vt 0.376001 0.248999
vt 0.498999 0.248999
vt 0.376001 0.251001
vt 0.498999 0.373999
vt 0.498999 0.251001
vt 0.938501 0.751001
vt 0.952124 0.873999
vt 0.952124 0.751001
vt 0.001001 0.501001
vt 0.123999 0.623999
vt 0.123999 0.501001
vt 0.873999 0.626001
vt 0.813501 0.748999
vt 0.873999 0.748999
vt 0.248999 0.501001
vt 0.126001 0.623999
vt 0.248999 0.623999
vt 0.873999 0.751001
vt 0.751001 0.811499
vt 0.873999 0.811499
vt 0.373999 0.873999
vt 0.251001 0.813501
vt 0.251001 0.873999
vt 0.376001 0.501001
vt 0.498999 0.623999
vt 0.498999 0.501001
vt 0.813501 0.001001
vt 0.873999 0.123999
vt 0.873999 0.001001
vt 0.626001 0.001001
vt 0.748999 0.123999
vt 0.748999 0.001001
vt 0.873999 0.938501
vt 0.751001 0.952124
vt 0.873999 0.952124
vt 0.748999 0.126001
vt 0.626001 0.248999
vt 0.748999 0.248999
vt 0.751001 0.501001
vt 0.811499 0.623999
vt 0.811499 0.501001
vt 0.373999 0.626001
vt 0.251001 0.748999
vt 0.373999 0.748999
vt 0.748999 0.938501
vt 0.626001 0.952124
vt 0.748999 0.952124
vt 0.498999 0.626001
vt 0.376001 0.748999
vt 0.498999 0.748999
vt 0.373999 0.811499
vt 0.251001 0.751001
vt 0.251001 0.811499
vt 0.626001 0.501001
vt 0.748999 0.623999
vt 0.748999 0.501001
vt 0.952124 0.626001
vt 0.938501 0.748999
vt 0.952124 0.748999
vt 0.748999 0.626001
vt 0.626001 0.748999
vt 0.748999 0.748999
vt 0.811499 0.001001
vt 0.751001 0.123999
vt 0.811499 0.123999
vt 0.501001 0.626001
vt 0.623999 0.748999
vt 0.623999 0.626001
vt 0.873999 0.876001
vt 0.751001 0.936499
vt 0.873999 0.936499
vt 0.748999 0.251001
vt 0.626001 0.373999
vt 0.748999 0.373999
vt 0.811499 0.376001
vt 0.751001 0.498999
vt 0.811499 0.498999
vt 0.126001 0.626001
vt 0.248999 0.748999
vt 0.248999 0.626001
vt 0.498999 0.751001
vt 0.376001 0.811499
vt 0.498999 0.811499
vt 0.123999 0.626001
vt 0.001001 0.748999
vt 0.123999 0.748999
vt 0.938501 0.501001
vt 0.952124 0.623999
vt 0.952124 0.501001
vt 0.123999 0.001001
vt 0.001001 0.123999
vt 0.123999 0.123999
vt 0.623999 0.501001
vt 0.501001 0.623999
vt 0.623999 0.623999
vt 0.938501 0.376001
vt 0.952124 0.498999
vt 0.952124 0.376001
vt 0.623999 0.376001
vt 0.501001 0.498999
vt 0.623999 0.498999
vt 0.873999 0.126001
vt 0.813501 0.248999
vt 0.873999 0.248999
vt 0.501001 0.251001
vt 0.623999 0.373999
vt 0.623999 0.251001
vt 0.623999 0.873999
vt 0.501001 0.813501
vt 0.501001 0.873999
vt 0.748999 0.873999
vt 0.626001 0.813501
vt 0.626001 0.873999
vt 0.251001 0.501001
vt 0.373999 0.623999
vt 0.373999 0.501001
vt 0.873999 0.501001
vt 0.813501 0.623999
vt 0.873999 0.623999
vt 0.623999 0.126001
vt 0.501001 0.248999
vt 0.623999 0.248999
vt 0.623999 0.938501
vt 0.501001 0.952124
vt 0.623999 0.952124
vt 0.623999 0.001001
vt 0.501001 0.123999
vt 0.623999 0.123999
vt 0.936499 0.126001
vt 0.876001 0.248999
vt 0.936499 0.248999
vt 0.376001 0.376001
vt 0.498999 0.498999
vt 0.498999 0.376001
vt 0.498999 0.938501
vt 0.376001 0.952124
vt 0.498999 0.952124
vt 0.373999 0.376001
vt 0.251001 0.498999
vt 0.373999 0.498999
vt 0.373999 0.936499
vt 0.251001 0.876001
vt 0.251001 0.936499
vt 0.126001 0.376001
vt 0.248999 0.498999
vt 0.248999 0.376001
vt 0.123999 0.376001
vt 0.001001 0.498999
vt 0.123999 0.498999
vt 0.623999 0.936499
vt 0.501001 0.876001
vt 0.501001 0.936499
vt 0.126001 0.251001
vt 0.248999 0.373999
vt 0.248999 0.251001
vt 0.998999 0.001001
vt 0.938501 0.123999
vt 0.998999 0.123999
vt 0.373999 0.001001
vt 0.251001 0.123999
vt 0.373999 0.123999
vt 0.373999 0.938501
vt 0.251001 0.952124
vt 0.373999 0.952124
vt 0.126001 0.126001
vt 0.248999 0.248999
vt 0.248999 0.126001
vt 0.936499 0.251001
vt 0.876001 0.373999
vt 0.936499 0.373999
vt 0.248999 0.001001
vt 0.126001 0.123999
vt 0.248999 0.123999
vt 0.248999 0.952124
vt 0.126001 0.938501
vt 0.126001 0.952124
vt 0.748999 0.376001
vt 0.626001 0.498999
vt 0.748999 0.498999
vt 0.123999 0.936499
vt 0.001001 0.876001
vt 0.001001 0.936499
vt 0.886098 0.938733
vt 0.886098 0.951892
vt 0.876465 0.947075
vt 0.954126 0.373999
vt 0.001001 0.248999
vt 0.876001 0.501001
vt 0.001001 0.373999
vt 0.748999 0.876001
vt 0.251001 0.248999
vt 0.876001 0.751001
vt 0.251001 0.373999
vt 0.376001 0.876001
vt 0.376001 0.123999
vt 0.938501 0.251001
vt 0.376001 0.126001
vt 0.376001 0.373999
vt 0.938501 0.873999
vt 0.001001 0.623999
vt 0.813501 0.626001
vt 0.126001 0.501001
vt 0.751001 0.751001
vt 0.373999 0.813501
vt 0.376001 0.623999
vt 0.813501 0.123999
vt 0.626001 0.123999
vt 0.751001 0.938501
vt 0.626001 0.126001
vt 0.751001 0.623999
vt 0.251001 0.626001
vt 0.626001 0.938501
vt 0.376001 0.626001
vt 0.373999 0.751001
vt 0.626001 0.623999
vt 0.938501 0.626001
vt 0.626001 0.626001
vt 0.751001 0.001001
vt 0.501001 0.748999
vt 0.751001 0.876001
vt 0.626001 0.251001
vt 0.751001 0.376001
vt 0.126001 0.748999
vt 0.376001 0.751001
vt 0.001001 0.626001
vt 0.938501 0.623999
vt 0.001001 0.001001
vt 0.501001 0.501001
vt 0.938501 0.498999
vt 0.501001 0.376001
vt 0.813501 0.126001
vt 0.501001 0.373999
vt 0.623999 0.813501
vt 0.748999 0.813501
vt 0.251001 0.623999
vt 0.813501 0.501001
vt 0.501001 0.126001
vt 0.501001 0.938501
vt 0.501001 0.001001
vt 0.876001 0.126001
vt 0.376001 0.498999
vt 0.376001 0.938501
vt 0.251001 0.376001
vt 0.373999 0.876001
vt 0.126001 0.498999
vt 0.001001 0.376001
vt 0.623999 0.876001
vt 0.126001 0.373999
vt 0.938501 0.001001
vt 0.251001 0.001001
vt 0.251001 0.938501
vt 0.126001 0.248999
vt 0.876001 0.251001
vt 0.126001 0.001001
vt 0.248999 0.938501
vt 0.626001 0.376001
vt 0.123999 0.876001
vt 0.889624 0.938501
vt 0.889624 0.952124
vt 0.882812 0.951211
vt 0.879991 0.950129
vt 0.877826 0.948718
vt 0.876001 0.945312
vt 0.879991 0.940496
vt 0.876465 0.943550
vt 0.877826 0.941907
vt 0.882812 0.939414
vn 0.0000 1.0000 0.0000
vn -0.0191 -0.9892 0.1451
vn -0.1050 -0.5937 0.7978
vn -0.0814 -0.7817 0.6183
vn -0.1295 0.1222 0.9840
vn -0.0521 -0.9169 0.3957
vn -0.1215 -0.3663 0.9225
vn -0.2387 -0.7817 0.5762
vn -0.3798 0.1222 0.9169
vn -0.1527 -0.9169 0.3688
vn -0.3561 -0.3663 0.8597
vn -0.0560 -0.9892 0.1352
vn -0.3079 -0.5937 0.7434
vn -0.5665 -0.3663 0.7382
vn -0.0891 -0.9892 0.1161
vn -0.4899 -0.5937 0.6384
vn -0.3797 -0.7817 0.4948
vn -0.6042 0.1222 0.7874
vn -0.2430 -0.9169 0.3167
vn -0.4948 -0.7817 0.3797
vn -0.7874 0.1222 0.6042
vn -0.3167 -0.9169 0.2430
vn -0.7382 -0.3663 0.5665
vn -0.1161 -0.9892 0.0891
vn -0.6384 -0.5937 0.4899
vn -0.3688 -0.9169 0.1527
vn -0.8597 -0.3663 0.3561
vn -0.1352 -0.9892 0.0560
vn -0.7434 -0.5937 0.3079
vn -0.5762 -0.7817 0.2387
vn -0.9170 0.1222 0.3798
vn -0.1451 -0.9892 0.0191
vn -0.7978 -0.5937 0.1050
vn -0.6183 -0.7817 0.0814
vn -0.9840 0.1222 0.1295
vn -0.3957 -0.9169 0.0521
vn -0.9225 -0.3663 0.1215
vn -0.6183 -0.7817 -0.0814
vn -0.9840 0.1222 -0.1295
vn -0.3957 -0.9169 -0.0521
vn -0.9225 -0.3663 -0.1215
vn -0.1451 -0.9892 -0.0191
vn -0.7978 -0.5937 -0.1050
vn -0.8597 -0.3663 -0.3561
vn -0.1352 -0.9892 -0.0560
vn -0.7434 -0.5937 -0.3079
vn -0.5762 -0.7817 -0.2387
vn -0.9169 0.1222 -0.3798
vn -0.3688 -0.9169 -0.1527
vn -0.4948 -0.7817 -0.3797
vn -0.7874 0.1222 -0.6042
vn -0.3167 -0.9169 -0.2430
vn -0.7382 -0.3663 -0.5665
vn -0.1161 -0.9892 -0.0891
vn -0.6384 -0.5937 -0.4899
vn -0.2430 -0.9169 -0.3167
vn -0.5665 -0.3663 -0.7382
vn -0.0891 -0.9892 -0.1161
vn -0.4899 -0.5937 -0.6384
vn -0.3797 -0.7817 -0.4948
vn -0.6042 0.1222 -0.7874
vn -0.3079 -0.5937 -0.7434
vn -0.2387 -0.7817 -0.5762
vn -0.3798 0.1222 -0.9169
vn -0.1527 -0.9169 -0.3688
vn -0.3561 -0.3663 -0.8597
vn -0.0560 -0.9892 -0.1352
vn -0.1295 0.1222 -0.9840
vn -0.0521 -0.9169 -0.3957
vn -0.1215 -0.3663 -0.9225
vn -0.0191 -0.9892 -0.1451
vn -0.1050 -0.5937 -0.7978
vn -0.0814 -0.7817 -0.6183
vn 0.0000 -1.0000 0.0000
vn -0.3798 0.1222 0.9170
vn -0.3688 -0.9169 0.1528
vn -0.9169 0.1222 0.3798
vn 0.0000 -1.0000 0.0001
s off
f 11/1/1 1/2/1 2/3/1
f 20/4/1 10/5/1 11/6/1
f 29/7/1 19/8/1 20/9/1
f 38/10/1 28/11/1 29/12/1
f 47/13/1 37/14/1 38/15/1
f 56/16/1 46/17/1 47/18/1
f 65/19/1 55/20/1 56/21/1
f 74/22/1 64/23/1 65/24/1
f 84/25/1 73/26/1 74/27/1
f 93/28/1 83/29/1 84/30/1
f 102/31/1 92/32/1 93/33/1
f 111/34/1 101/35/1 102/36/1
f 11/1/1 10/37/1 1/2/1
f 20/4/1 19/38/1 10/5/1
f 29/7/1 28/39/1 19/8/1
f 38/10/1 37/40/1 28/11/1
f 47/13/1 46/41/1 37/14/1
f 56/16/1 55/42/1 46/17/1
f 65/19/1 64/43/1 55/20/1
f 74/22/1 73/44/1 64/23/1
f 84/25/1 83/45/1 73/26/1
f 93/28/1 92/46/1 83/29/1
f 102/31/1 101/47/1 92/32/1
f 111/34/1 110/48/1 101/35/1
f 10/49/1 3/50/1 1/51/1
f 2/52/1 82/53/1 11/54/1
f 19/55/1 12/56/1 10/57/1
f 11/58/1 82/59/1 20/60/1
f 19/61/1 30/62/1 21/63/1
f 20/64/1 82/65/1 29/66/1
f 28/67/1 39/68/1 30/69/1
f 29/70/1 82/71/1 38/72/1
f 37/73/1 48/74/1 39/75/1
f 38/76/1 82/77/1 47/78/1
f 46/79/1 57/80/1 48/81/1
f 47/82/1 82/83/1 56/84/1
f 55/85/1 66/86/1 57/87/1
f 56/88/1 82/89/1 65/90/1
f 64/91/1 75/92/1 66/93/1
f 65/94/1 82/95/1 74/96/1
f 73/97/1 85/98/1 75/99/1
f 74/100/1 82/101/1 84/102/1
f 83/103/1 94/104/1 85/105/1
f 84/106/1 82/107/1 93/108/1
f 92/109/1 103/110/1 94/111/1
f 93/112/1 82/113/1 102/114/1
f 101/115/1 112/116/1 103/117/1
f 102/118/1 82/119/1 111/120/1
f 10/49/1 12/121/1 3/50/1
f 19/55/1 21/122/1 12/56/1
f 19/61/1 28/123/1 30/62/1
f 28/67/1 37/124/1 39/68/1
f 37/73/1 46/125/1 48/74/1
f 46/79/1 55/126/1 57/80/1
f 55/85/1 64/127/1 66/86/1
f 64/91/1 73/128/1 75/92/1
f 73/97/1 83/129/1 85/98/1
f 83/103/1 92/130/1 94/104/1
f 92/109/1 101/131/1 103/110/1
f 101/115/1 110/132/1 112/116/1
f 17/133/2 9/134/2 8/135/2
f 13/136/3 6/137/3 4/138/3
f 6/139/4 16/140/4 7/141/4
f 3/142/5 14/143/5 5/144/5
f 7/145/6 17/146/6 8/147/6
f 5/148/7 13/149/7 4/150/7
f 15/151/8 25/152/8 16/153/8
f 12/154/9 23/155/9 14/156/9
f 25/157/10 17/158/10 16/159/10
f 14/160/11 22/161/11 13/162/11
f 17/163/12 27/164/12 18/165/12
f 13/166/13 24/167/13 15/168/13
f 23/169/14 31/170/14 22/171/14
f 35/172/15 27/173/15 26/174/15
f 31/175/16 24/176/16 22/177/16
f 24/178/17 34/179/17 25/180/17
f 23/181/18 30/182/18 32/183/18
f 34/184/19 26/185/19 25/186/19
f 33/187/20 43/188/20 34/189/20
f 30/190/21 41/191/21 32/192/21
f 43/193/22 35/194/22 34/195/22
f 32/196/23 40/197/23 31/198/23
f 44/199/24 36/200/24 35/201/24
f 31/202/25 42/203/25 33/204/25
f 52/205/26 44/206/26 43/207/26
f 40/208/27 50/209/27 49/210/27
f 53/211/28 45/212/28 44/213/28
f 40/214/29 51/215/29 42/216/29
f 42/217/30 52/218/30 43/219/30
f 39/220/31 50/221/31 41/222/31
f 53/223/32 63/224/32 54/225/32
f 49/226/33 60/227/33 51/228/33
f 51/229/34 61/230/34 52/231/34
f 48/232/35 59/233/35 50/234/35
f 61/235/36 53/236/36 52/237/36
f 49/238/37 59/239/37 58/240/37
f 60/241/38 70/242/38 61/243/38
f 57/244/39 68/245/39 59/246/39
f 70/247/40 62/248/40 61/249/40
f 58/250/41 68/251/41 67/252/41
f 71/253/42 63/254/42 62/255/42
f 58/256/43 69/257/43 60/258/43
f 67/259/44 77/260/44 76/261/44
f 80/262/45 72/263/45 71/264/45
f 67/265/46 78/266/46 69/267/46
f 69/268/47 79/269/47 70/270/47
f 66/271/48 77/272/48 68/273/48
f 70/274/49 80/275/49 71/276/49
f 78/277/50 89/278/50 79/279/50
f 75/280/51 87/281/51 77/282/51
f 79/283/52 90/284/52 80/285/52
f 76/286/53 87/287/53 86/288/53
f 90/289/54 81/290/54 80/291/54
f 76/292/55 88/293/55 78/294/55
f 89/295/56 99/296/56 90/297/56
f 87/298/57 95/299/57 86/300/57
f 99/301/58 91/302/58 90/303/58
f 86/304/59 97/305/59 88/306/59
f 88/307/60 98/308/60 89/309/60
f 85/310/61 96/311/61 87/312/61
f 95/313/62 106/314/62 97/315/62
f 97/316/63 107/317/63 98/318/63
f 94/319/64 105/320/64 96/321/64
f 98/322/65 108/323/65 99/324/65
f 95/325/66 105/326/66 104/327/66
f 108/328/67 100/329/67 99/330/67
f 103/331/68 114/332/68 105/333/68
f 107/334/69 117/335/69 108/336/69
f 104/337/70 114/338/70 113/339/70
f 108/340/71 118/341/71 109/342/71
f 104/343/72 115/344/72 106/345/72
f 106/346/73 116/347/73 107/348/73
f 109/349/74 18/350/74 54/351/74
f 17/133/2 18/352/2 9/134/2
f 13/136/3 15/353/3 6/137/3
f 6/139/4 15/354/4 16/140/4
f 3/142/5 12/355/5 14/143/5
f 7/145/6 16/356/6 17/146/6
f 5/148/7 14/357/7 13/149/7
f 15/151/8 24/358/8 25/152/8
f 12/154/75 21/359/75 23/155/75
f 25/157/10 26/360/10 17/158/10
f 14/160/11 23/361/11 22/161/11
f 17/163/12 26/362/12 27/164/12
f 13/166/13 22/363/13 24/167/13
f 23/169/14 32/364/14 31/170/14
f 35/172/15 36/365/15 27/173/15
f 31/175/16 33/366/16 24/176/16
f 24/178/17 33/367/17 34/179/17
f 23/181/18 21/368/18 30/182/18
f 34/184/19 35/369/19 26/185/19
f 33/187/20 42/370/20 43/188/20
f 30/190/21 39/371/21 41/191/21
f 43/193/22 44/372/22 35/194/22
f 32/196/23 41/373/23 40/197/23
f 44/199/24 45/374/24 36/200/24
f 31/202/25 40/375/25 42/203/25
f 52/205/76 53/376/76 44/206/76
f 40/208/27 41/377/27 50/209/27
f 53/211/28 54/378/28 45/212/28
f 40/214/29 49/379/29 51/215/29
f 42/217/30 51/380/30 52/218/30
f 39/220/77 48/381/77 50/221/77
f 53/223/32 62/382/32 63/224/32
f 49/226/33 58/383/33 60/227/33
f 51/229/34 60/384/34 61/230/34
f 48/232/35 57/385/35 59/233/35
f 61/235/36 62/386/36 53/236/36
f 49/238/37 50/387/37 59/239/37
f 60/241/38 69/388/38 70/242/38
f 57/244/39 66/389/39 68/245/39
f 70/247/40 71/390/40 62/248/40
f 58/250/41 59/391/41 68/251/41
f 71/253/42 72/392/42 63/254/42
f 58/256/43 67/393/43 69/257/43
f 67/259/44 68/394/44 77/260/44
f 80/262/45 81/395/45 72/263/45
f 67/265/46 76/396/46 78/266/46
f 69/268/47 78/397/47 79/269/47
f 66/271/48 75/398/48 77/272/48
f 70/274/49 79/399/49 80/275/49
f 78/277/50 88/400/50 89/278/50
f 75/280/51 85/401/51 87/281/51
f 79/283/52 89/402/52 90/284/52
f 76/286/53 77/403/53 87/287/53
f 90/289/54 91/404/54 81/290/54
f 76/292/55 86/405/55 88/293/55
f 89/295/56 98/406/56 99/296/56
f 87/298/57 96/407/57 95/299/57
f 99/301/58 100/408/58 91/302/58
f 86/304/59 95/409/59 97/305/59
f 88/307/60 97/410/60 98/308/60
f 85/310/61 94/411/61 96/311/61
f 95/313/62 104/412/62 106/314/62
f 97/316/63 106/413/63 107/317/63
f 94/319/64 103/414/64 105/320/64
f 98/322/65 107/415/65 108/323/65
f 95/325/66 96/416/66 105/326/66
f 108/328/67 109/417/67 100/329/67
f 103/331/68 112/418/68 114/332/68
f 107/334/69 116/419/69 117/335/69
f 104/337/70 105/420/70 114/338/70
f 108/340/71 117/421/71 118/341/71
f 104/343/72 113/422/72 115/344/72
f 106/346/73 115/423/73 116/347/73
f 118/424/74 9/425/74 18/350/74
f 18/350/74 27/426/74 36/427/74
f 36/427/78 45/428/78 54/351/78
f 54/351/74 63/429/74 91/430/74
f 63/429/74 72/431/74 91/430/74
f 72/431/74 81/432/74 91/430/74
f 91/430/74 100/433/74 109/349/74
f 109/349/74 118/424/74 18/350/74
f 18/350/74 36/427/74 54/351/74
f 91/430/74 109/349/74 54/351/74
