# Blender v2.93.1 OBJ File: 'tunnel.blend'
# www.blender.org
o Plane
v 4.500000 0.009674 -5.229201
v 3.000000 0.009674 -5.229201
v 3.000000 0.009674 -6.298400
v 1.500000 0.009674 -5.229201
v 0.000000 0.009674 -5.229201
v 0.000000 0.009674 -1.776397
v 1.500000 0.009674 -5.079202
v 1.500000 0.009674 -1.776397
v 4.500000 0.009674 -1.776397
v 4.500000 0.009674 -5.079202
v 3.000000 0.009674 -1.776397
v 0.000000 0.009674 -5.079201
v 1.500000 0.009674 -6.298400
v 4.500000 0.009674 -6.298400
v 3.000000 0.009674 -5.079201
v 0.000000 0.009674 -1.626396
v 1.500000 0.009674 -1.626396
v 4.500000 0.009674 -1.626396
v 3.000000 0.009674 -1.626396
v 0.000000 0.009674 5.079201
v 1.500000 0.009674 5.079201
v 4.500000 0.009674 5.079196
v 3.000000 0.009674 5.079196
v 0.000000 0.000000 6.298399
v 1.500000 0.000000 6.298400
v 4.500000 0.000000 6.298400
v 3.000000 0.000000 6.298400
v 3.000000 0.009674 5.229197
v 0.000000 0.009674 5.229197
v 1.500000 0.009674 5.229197
v 4.500000 0.009674 5.229197
v 1.500000 0.009674 1.776402
v 3.000000 0.009674 1.776402
v 4.500000 0.009674 1.776402
v 0.000000 0.009674 1.776401
v 3.000000 0.009674 1.676401
v 4.500000 0.009674 1.676401
v 1.500000 0.009674 1.676403
v 0.000000 0.009674 1.676403
v 0.000000 0.009674 -6.298400
v 1.500000 3.266177 -5.855037
v -0.000000 3.266177 -5.855037
v 3.000000 3.266177 -5.855037
v 4.500000 3.266177 -5.855037
v 4.500000 1.639490 -6.500881
v 3.000000 1.639490 -6.500881
v 0.000000 1.639490 -6.500881
v 1.500000 1.639490 -6.500881
v 4.500000 4.670280 -4.810183
v -0.000000 4.670280 -4.810183
v 1.500000 4.670280 -4.810183
v 3.000000 4.670280 -4.810183
v 1.499999 5.756111 -3.437522
v 4.500000 5.756111 -3.437522
v -0.000001 5.756111 -3.437522
v 2.999999 5.756111 -3.437522
v 1.499999 6.449672 -1.830600
v 2.999999 6.449672 -1.830600
v -0.000001 6.449672 -1.830600
v 4.500000 6.449672 -1.830600
v 3.000000 1.639490 6.500880
v 4.500000 1.639490 6.500880
v 4.500000 6.703699 -0.098926
v -0.000001 6.703699 -0.098926
v 1.500000 1.639490 6.500880
v -0.000000 1.639490 6.500880
v 2.083569 6.703699 -0.040961
v 2.416429 6.703699 -0.040961
v 3.000000 3.266177 5.855037
v 4.500000 3.266177 5.855037
v 1.500000 3.266177 5.855037
v -0.000000 3.266177 5.855036
v 2.999999 4.670280 4.810182
v 4.500000 4.670280 4.810182
v 1.499999 4.670280 4.810182
v -0.000001 4.670280 4.810182
v 2.999999 5.756111 3.437521
v 4.500000 5.756111 3.437521
v 1.499999 5.756111 3.437521
v -0.000001 5.756110 3.437521
v 2.999999 6.449672 1.830600
v 4.500000 6.449672 1.830600
v 1.499999 6.449672 1.830600
v -0.000001 6.449672 1.830599
v 2.416429 6.703699 0.040960
v 4.500000 6.703699 0.098926
v 2.083569 6.703699 0.040960
v -0.000001 6.703699 0.098925
v 2.999999 6.703699 -0.098926
v 1.499999 6.703699 -0.098926
v 2.999999 6.703699 0.098925
v 1.499999 6.703699 0.098925
v 2.416429 6.657585 -0.040961
v 2.083569 6.657585 -0.040961
v 2.416429 6.657585 0.040960
v 2.083569 6.657585 0.040960
v 2.618720 6.617463 -0.090747
v 1.881278 6.617463 -0.090747
v 2.618720 6.617463 0.090746
v 1.881278 6.617463 0.090746
v 2.618720 6.551939 -0.090747
v 1.881278 6.551939 -0.090747
v 2.618720 6.551939 0.090746
v 1.881278 6.551939 0.090746
vt 0.911499 0.601001
vt 0.901001 0.698999
vt 0.911499 0.698999
vt 0.698999 0.913501
vt 0.601001 0.923999
vt 0.698999 0.923999
vt 0.911499 0.701001
vt 0.901001 0.798999
vt 0.911499 0.798999
vt 0.911499 0.801001
vt 0.901001 0.898999
vt 0.911499 0.898999
vt 0.798999 0.911499
vt 0.701001 0.901001
vt 0.701001 0.911499
vt 0.923999 0.801001
vt 0.913501 0.898999
vt 0.923999 0.898999
vt 0.913501 0.701001
vt 0.923999 0.798999
vt 0.923999 0.701001
vt 0.698999 0.911499
vt 0.601001 0.901001
vt 0.601001 0.911499
vt 0.923999 0.601001
vt 0.913501 0.698999
vt 0.923999 0.698999
vt 0.898999 0.917749
vt 0.801001 0.913501
vt 0.801001 0.917749
vt 0.948999 0.501001
vt 0.926001 0.548999
vt 0.948999 0.548999
vt 0.732251 0.919751
vt 0.736499 0.930249
vt 0.736499 0.919751
vt 0.723999 0.930249
vt 0.701001 0.919751
vt 0.701001 0.930249
vt 0.926001 0.551001
vt 0.948999 0.598999
vt 0.948999 0.551001
vt 0.923999 0.901001
vt 0.913501 0.923999
vt 0.923999 0.923999
vt 0.901001 0.551001
vt 0.911499 0.598999
vt 0.911499 0.551001
vt 0.907251 0.501001
vt 0.911499 0.548999
vt 0.911499 0.501001
vt 0.726001 0.919751
vt 0.730249 0.930249
vt 0.730249 0.919751
vt 0.901001 0.501001
vt 0.905249 0.548999
vt 0.905249 0.501001
vt 0.901001 0.601001
vt 0.601001 0.913501
vt 0.901001 0.701001
vt 0.901001 0.801001
vt 0.798999 0.901001
vt 0.913501 0.801001
vt 0.913501 0.798999
vt 0.698999 0.901001
vt 0.913501 0.601001
vt 0.898999 0.913501
vt 0.926001 0.501001
vt 0.732251 0.930249
vt 0.723999 0.919751
vt 0.926001 0.598999
vt 0.913501 0.901001
vt 0.901001 0.598999
vt 0.907251 0.548999
vt 0.726001 0.930249
vt 0.901001 0.548999
vt 0.001001 0.398999
vt 0.198999 0.301001
vt 0.001001 0.301001
vt 0.298999 0.001001
vt 0.201001 0.198999
vt 0.298999 0.198999
vt 0.398999 0.201001
vt 0.201001 0.298999
vt 0.398999 0.298999
vt 0.301001 0.901001
vt 0.398999 0.998999
vt 0.398999 0.901001
vt 0.401001 0.901001
vt 0.498999 0.998999
vt 0.498999 0.901001
vt 0.901001 0.301001
vt 0.998999 0.398999
vt 0.998999 0.301001
vt 0.198999 0.501001
vt 0.001001 0.598999
vt 0.198999 0.598999
vt 0.501001 0.001001
vt 0.598999 0.198999
vt 0.598999 0.001001
vt 0.398999 0.501001
vt 0.201001 0.598999
vt 0.398999 0.598999
vt 0.901001 0.101001
vt 0.998999 0.198999
vt 0.998999 0.101001
vt 0.001001 0.901001
vt 0.098999 0.998999
vt 0.098999 0.901001
vt 0.901001 0.001001
vt 0.998999 0.098999
vt 0.998999 0.001001
vt 0.798999 0.917749
vt 0.701001 0.913501
vt 0.701001 0.917749
vt 0.930249 0.701001
vt 0.926001 0.798999
vt 0.930249 0.798999
vt 0.701001 0.001001
vt 0.798999 0.198999
vt 0.798999 0.001001
vt 0.198999 0.701001
vt 0.001001 0.798999
vt 0.198999 0.798999
vt 0.701001 0.201001
vt 0.798999 0.398999
vt 0.798999 0.201001
vt 0.738501 0.919751
vt 0.742749 0.923999
vt 0.742749 0.919751
vt 0.907251 0.901001
vt 0.911499 0.923999
vt 0.911499 0.901001
vt 0.744751 0.919751
vt 0.748999 0.923999
vt 0.748999 0.919751
vt 0.901001 0.901001
vt 0.905249 0.923999
vt 0.905249 0.901001
vt 0.198999 0.398999
vt 0.201001 0.001001
vt 0.201001 0.201001
vt 0.301001 0.998999
vt 0.401001 0.998999
vt 0.901001 0.398999
vt 0.001001 0.501001
vt 0.501001 0.198999
vt 0.201001 0.501001
vt 0.901001 0.198999
vt 0.001001 0.998999
vt 0.901001 0.098999
vt 0.798999 0.913501
vt 0.926001 0.701001
vt 0.701001 0.198999
vt 0.001001 0.701001
vt 0.701001 0.398999
vt 0.738501 0.923999
vt 0.907251 0.923999
vt 0.744751 0.923999
vt 0.901001 0.923999
vt 0.398999 0.798999
vt 0.201001 0.701001
vt 0.201001 0.798999
vt 0.798999 0.401001
vt 0.701001 0.598999
vt 0.798999 0.598999
vt 0.598999 0.798999
vt 0.401001 0.701001
vt 0.401001 0.798999
vt 0.698999 0.601001
vt 0.601001 0.798999
vt 0.698999 0.798999
vt 0.801001 0.801001
vt 0.898999 0.898999
vt 0.898999 0.801001
vt 0.801001 0.701001
vt 0.898999 0.798999
vt 0.898999 0.701001
vt 0.801001 0.601001
vt 0.898999 0.698999
vt 0.898999 0.601001
vt 0.398999 0.898999
vt 0.201001 0.801001
vt 0.201001 0.898999
vt 0.801001 0.201001
vt 0.898999 0.398999
vt 0.898999 0.201001
vt 0.598999 0.898999
vt 0.401001 0.801001
vt 0.401001 0.898999
vt 0.098999 0.001001
vt 0.001001 0.198999
vt 0.098999 0.198999
vt 0.798999 0.898999
vt 0.601001 0.801001
vt 0.601001 0.898999
vt 0.898999 0.001001
vt 0.801001 0.198999
vt 0.898999 0.198999
vt 0.198999 0.898999
vt 0.001001 0.801001
vt 0.001001 0.898999
vt 0.798999 0.601001
vt 0.701001 0.798999
vt 0.798999 0.798999
vt 0.598999 0.598999
vt 0.401001 0.501001
vt 0.401001 0.598999
vt 0.601001 0.001001
vt 0.698999 0.198999
vt 0.698999 0.001001
vt 0.101001 0.901001
vt 0.198999 0.998999
vt 0.198999 0.901001
vt 0.598999 0.498999
vt 0.401001 0.401001
vt 0.401001 0.498999
vt 0.901001 0.201001
vt 0.998999 0.298999
vt 0.998999 0.201001
vt 0.201001 0.901001
vt 0.298999 0.998999
vt 0.298999 0.901001
vt 0.401001 0.001001
vt 0.498999 0.198999
vt 0.498999 0.001001
vt 0.198999 0.401001
vt 0.001001 0.498999
vt 0.198999 0.498999
vt 0.301001 0.001001
vt 0.398999 0.198999
vt 0.398999 0.001001
vt 0.398999 0.301001
vt 0.201001 0.398999
vt 0.398999 0.398999
vt 0.101001 0.001001
vt 0.198999 0.198999
vt 0.198999 0.001001
vt 0.198999 0.201001
vt 0.001001 0.298999
vt 0.198999 0.298999
vt 0.801001 0.401001
vt 0.898999 0.598999
vt 0.898999 0.401001
vt 0.598999 0.698999
vt 0.401001 0.601001
vt 0.401001 0.698999
vt 0.601001 0.401001
vt 0.698999 0.598999
vt 0.698999 0.401001
vt 0.398999 0.601001
vt 0.201001 0.698999
vt 0.398999 0.698999
vt 0.601001 0.201001
vt 0.698999 0.398999
vt 0.698999 0.201001
vt 0.198999 0.601001
vt 0.001001 0.698999
vt 0.198999 0.698999
vt 0.501001 0.201001
vt 0.598999 0.398999
vt 0.598999 0.201001
vt 0.398999 0.401001
vt 0.201001 0.498999
vt 0.398999 0.498999
vt 0.401001 0.201001
vt 0.498999 0.398999
vt 0.498999 0.201001
vt 0.898999 0.901001
vt 0.801001 0.911499
vt 0.898999 0.911499
vt 0.926001 0.601001
vt 0.936499 0.698999
vt 0.936499 0.601001
vt 0.598999 0.901001
vt 0.501001 0.948999
vt 0.598999 0.948999
vt 0.948999 0.401001
vt 0.901001 0.498999
vt 0.948999 0.498999
vt 0.923999 0.548999
vt 0.913501 0.501001
vt 0.913501 0.548999
vt 0.923999 0.598999
vt 0.913501 0.551001
vt 0.913501 0.598999
vt 0.398999 0.701001
vt 0.701001 0.401001
vt 0.598999 0.701001
vt 0.601001 0.601001
vt 0.801001 0.898999
vt 0.801001 0.798999
vt 0.801001 0.698999
vt 0.398999 0.801001
vt 0.801001 0.398999
vt 0.598999 0.801001
vt 0.001001 0.001001
vt 0.798999 0.801001
vt 0.801001 0.001001
vt 0.198999 0.801001
vt 0.701001 0.601001
vt 0.598999 0.501001
vt 0.601001 0.198999
vt 0.101001 0.998999
vt 0.598999 0.401001
vt 0.901001 0.298999
vt 0.201001 0.998999
vt 0.401001 0.198999
vt 0.001001 0.401001
vt 0.301001 0.198999
vt 0.201001 0.301001
vt 0.101001 0.198999
vt 0.001001 0.201001
vt 0.801001 0.598999
vt 0.598999 0.601001
vt 0.601001 0.598999
vt 0.201001 0.601001
vt 0.601001 0.398999
vt 0.001001 0.601001
vt 0.501001 0.398999
vt 0.201001 0.401001
vt 0.401001 0.398999
vt 0.801001 0.901001
vt 0.926001 0.698999
vt 0.501001 0.901001
vt 0.901001 0.401001
vt 0.923999 0.501001
vt 0.923999 0.551001
vn 0.0000 1.0000 0.0000
vn -0.0000 0.7786 -0.6275
vn 1.0000 0.0000 0.0000
vn 0.1946 0.9809 0.0000
vn -0.0000 0.7786 0.6275
vn -0.1946 0.9809 0.0000
vn 0.0000 -1.0000 0.0000
vn -0.0000 0.0000 1.0000
vn -1.0000 0.0000 0.0000
vn -0.0000 0.0000 -1.0000
vn 0.0000 1.0000 0.0090
vn 0.0000 -0.5970 0.8022
vn 0.0000 -0.3690 0.9294
vn 0.0000 0.1233 0.9924
vn 0.0000 -0.7843 0.6204
vn 0.0000 -0.9181 0.3963
vn 0.0000 -0.9894 0.1451
vn 0.0000 0.1226 -0.9925
vn 0.0000 -0.3690 -0.9294
vn 0.0000 -0.5970 -0.8022
vn 0.0000 -0.7843 -0.6204
vn 0.0000 -0.9181 -0.3963
vn 0.0000 -0.9894 -0.1451
s off
f 5/1/1 7/2/1 4/3/1
f 7/4/1 2/5/1 4/6/1
f 2/7/1 10/8/1 1/9/1
f 8/10/1 19/11/1 11/12/1
f 11/13/1 18/14/1 9/15/1
f 6/16/1 17/17/1 8/18/1
f 21/19/1 29/20/1 30/21/1
f 21/22/1 28/23/1 23/24/1
f 31/25/1 23/26/1 28/27/1
f 38/28/1 33/29/1 36/30/1
f 93/31/2 98/32/2 94/33/2
f 103/34/3 97/35/3 99/36/3
f 99/37/4 93/38/4 95/39/4
f 100/40/5 95/41/5 96/42/5
f 98/43/6 96/44/6 94/45/6
f 102/46/7 103/47/7 104/48/7
f 104/49/8 99/50/8 100/51/8
f 102/52/9 100/53/9 98/54/9
f 101/55/10 98/56/10 97/57/10
f 5/1/1 12/58/1 7/2/1
f 7/4/1 15/59/1 2/5/1
f 2/7/1 15/60/1 10/8/1
f 8/10/1 17/61/1 19/11/1
f 11/13/1 19/62/1 18/14/1
f 6/16/1 16/63/1 17/17/1
f 21/19/1 20/64/1 29/20/1
f 21/22/1 30/65/1 28/23/1
f 31/25/1 22/66/1 23/26/1
f 38/28/1 32/67/1 33/29/1
f 93/31/2 97/68/2 98/32/2
f 103/34/3 101/69/3 97/35/3
f 99/37/4 97/70/4 93/38/4
f 100/40/5 99/71/5 95/41/5
f 98/43/6 100/72/6 96/44/6
f 102/46/7 101/73/7 103/47/7
f 104/49/8 103/74/8 99/50/8
f 102/52/9 104/75/9 100/53/9
f 101/55/10 102/76/10 98/56/10
f 12/77/1 8/78/1 7/79/1
f 15/80/1 8/81/1 11/82/1
f 15/83/1 9/84/1 10/85/1
f 40/86/1 4/87/1 13/88/1
f 4/89/1 3/90/1 13/91/1
f 2/92/1 14/93/1 3/94/1
f 32/95/1 23/96/1 33/97/1
f 33/98/1 22/99/1 34/100/1
f 35/101/1 21/102/1 32/103/1
f 25/104/11 28/105/11 30/106/11
f 30/107/11 24/108/11 25/109/11
f 26/110/11 28/111/11 27/112/11
f 39/113/1 32/114/1 38/115/1
f 36/116/1 34/117/1 37/118/1
f 17/119/1 36/120/1 19/121/1
f 19/122/1 37/123/1 18/124/1
f 16/125/1 38/126/1 17/127/1
f 94/128/9 87/129/9 67/130/9
f 93/131/10 67/132/10 68/133/10
f 95/134/3 68/135/3 85/136/3
f 96/137/8 85/138/8 87/139/8
f 12/77/1 6/140/1 8/78/1
f 15/80/1 7/141/1 8/81/1
f 15/83/1 11/142/1 9/84/1
f 40/86/1 5/143/1 4/87/1
f 4/89/1 2/144/1 3/90/1
f 2/92/1 1/145/1 14/93/1
f 32/95/1 21/146/1 23/96/1
f 33/98/1 23/147/1 22/99/1
f 35/101/1 20/148/1 21/102/1
f 25/104/11 27/149/11 28/105/11
f 30/107/11 29/150/11 24/108/11
f 26/110/11 31/151/11 28/111/11
f 39/113/1 35/152/1 32/114/1
f 36/116/1 33/153/1 34/117/1
f 17/119/1 38/154/1 36/120/1
f 19/122/1 36/155/1 37/123/1
f 16/125/1 39/156/1 38/126/1
f 94/128/9 96/157/9 87/129/9
f 93/131/10 94/158/10 67/132/10
f 95/134/3 93/159/3 68/135/3
f 96/137/8 95/160/8 85/138/8
f 41/161/12 52/162/12 51/163/12
f 48/164/13 43/165/13 41/166/13
f 49/167/12 43/168/12 44/169/12
f 47/170/13 41/171/13 42/172/13
f 14/173/14 46/174/14 3/175/14
f 3/176/14 48/177/14 13/178/14
f 13/179/14 47/180/14 40/181/14
f 44/182/13 46/183/13 45/184/13
f 49/185/15 56/186/15 52/187/15
f 51/188/15 56/189/15 53/190/15
f 51/191/12 42/192/12 41/193/12
f 57/194/16 55/195/16 53/196/16
f 50/197/15 53/198/15 55/199/15
f 90/200/17 59/201/17 57/202/17
f 89/203/17 57/204/17 58/205/17
f 60/206/16 56/207/16 54/208/16
f 56/209/16 57/210/16 53/211/16
f 24/212/18 65/213/18 25/214/18
f 63/215/17 58/216/17 60/217/17
f 25/218/18 61/219/18 27/220/18
f 27/221/18 62/222/18 26/223/18
f 65/224/19 69/225/19 61/226/19
f 66/227/19 71/228/19 65/229/19
f 61/230/19 70/231/19 62/232/19
f 71/233/20 73/234/20 69/235/20
f 72/236/20 75/237/20 71/238/20
f 69/239/20 74/240/20 70/241/20
f 75/242/21 77/243/21 73/244/21
f 75/245/21 80/246/21 79/247/21
f 73/248/21 78/249/21 74/250/21
f 79/251/22 81/252/22 77/253/22
f 80/254/22 83/255/22 79/256/22
f 77/257/22 82/258/22 78/259/22
f 83/260/23 91/261/23 81/262/23
f 84/263/23 92/264/23 83/265/23
f 81/266/23 86/267/23 82/268/23
f 64/269/7 92/270/7 88/271/7
f 89/272/7 86/273/7 91/274/7
f 90/275/7 68/276/7 67/277/7
f 85/278/7 92/279/7 87/280/7
f 87/281/7 90/282/7 67/283/7
f 68/284/7 91/285/7 85/286/7
f 41/161/12 43/287/12 52/162/12
f 48/164/13 46/288/13 43/165/13
f 49/167/12 52/289/12 43/168/12
f 47/170/13 48/290/13 41/171/13
f 14/173/14 45/291/14 46/174/14
f 3/176/14 46/292/14 48/177/14
f 13/179/14 48/293/14 47/180/14
f 44/182/13 43/294/13 46/183/13
f 49/185/15 54/295/15 56/186/15
f 51/188/15 52/296/15 56/189/15
f 51/191/12 50/297/12 42/192/12
f 57/194/16 59/298/16 55/195/16
f 50/197/15 51/299/15 53/198/15
f 90/200/17 64/300/17 59/201/17
f 89/203/17 90/301/17 57/204/17
f 60/206/16 58/302/16 56/207/16
f 56/209/16 58/303/16 57/210/16
f 24/212/18 66/304/18 65/213/18
f 63/215/17 89/305/17 58/216/17
f 25/218/18 65/306/18 61/219/18
f 27/221/18 61/307/18 62/222/18
f 65/224/19 71/308/19 69/225/19
f 66/227/19 72/309/19 71/228/19
f 61/230/19 69/310/19 70/231/19
f 71/233/20 75/311/20 73/234/20
f 72/236/20 76/312/20 75/237/20
f 69/239/20 73/313/20 74/240/20
f 75/242/21 79/314/21 77/243/21
f 75/245/21 76/315/21 80/246/21
f 73/248/21 77/316/21 78/249/21
f 79/251/22 83/317/22 81/252/22
f 80/254/22 84/318/22 83/255/22
f 77/257/22 81/319/22 82/258/22
f 83/260/23 92/320/23 91/261/23
f 84/263/23 88/321/23 92/264/23
f 81/266/23 91/322/23 86/267/23
f 64/269/7 90/323/7 92/270/7
f 89/272/7 63/324/7 86/273/7
f 90/275/7 89/325/7 68/276/7
f 85/278/7 91/326/7 92/279/7
f 87/281/7 92/327/7 90/282/7
f 68/284/7 89/328/7 91/285/7
