# Blender v2.93.1 OBJ File: 'road.blend'
# www.blender.org
o Plane
v 0.000000 5.613786 -0.000000
v 0.000000 2.310985 -0.000000
v 0.000000 5.613786 0.100000
v 0.000000 6.832986 0.100000
v 0.000000 6.832986 -0.000000
v 1.500000 5.613786 -0.000000
v 1.500000 5.613786 0.100000
v 1.500000 6.832986 0.100000
v 1.500000 6.832986 -0.000000
v 4.500000 5.613786 -0.000000
v 4.500000 5.613786 0.100000
v 4.500000 6.832986 0.100000
v 4.500000 6.832986 -0.000000
v 3.000000 2.310985 -0.000000
v 3.000000 5.613786 -0.000000
v 3.000000 5.613786 0.100000
v 3.000000 6.832986 0.100000
v 3.000000 6.832986 -0.000000
v 0.000000 -2.211015 -0.000000
v 1.500000 1.091786 -0.000000
v 1.500000 -2.211015 -0.000000
v 4.500000 -2.211015 -0.000000
v 4.500000 1.091786 -0.000000
v 3.000000 -2.211015 -0.000000
v 0.000000 2.310985 0.100000
v 0.000000 1.091785 0.100000
v 0.000000 1.091785 -0.000000
v 1.500000 2.310985 -0.000000
v 1.500000 2.310985 0.100000
v 1.500000 1.091785 0.100000
v 4.500000 2.310985 -0.000000
v 4.500000 2.310985 0.100000
v 4.500000 1.091785 0.100000
v 3.000000 2.310985 0.100000
v 3.000000 1.091785 0.100000
v 3.000000 1.091785 -0.000000
v 0.000000 -2.311015 -0.000000
v 1.500000 -2.311015 -0.000000
v 4.500000 -2.311015 -0.000000
v 3.000000 -2.311015 -0.000000
v 0.000000 -5.613814 -0.000000
v 1.500000 -5.613814 -0.000000
v 4.500000 -5.613814 -0.000000
v 3.000000 -5.613814 -0.000000
v 0.000000 -6.833014 -0.000000
v 1.500000 -6.833014 -0.000000
v 4.500000 -6.833014 -0.000000
v 3.000000 -6.833014 -0.000000
v 0.000000 -5.613814 0.100000
v 1.500000 -5.613814 0.100000
v 4.500000 -5.613814 0.100000
v 3.000000 -5.613814 0.100000
v 0.000000 -6.833014 0.100000
v 1.500000 -6.833014 0.100000
v 4.500000 -6.833014 0.100000
v 3.000000 -6.833014 0.100000
vt 0.922076 0.154847
vt 0.847155 0.306691
vt 0.922076 0.306691
vt 0.847155 0.154847
vt 0.614384 0.001001
vt 0.308693 0.152845
vt 0.614384 0.152845
vt 0.614384 0.154847
vt 0.462539 0.460537
vt 0.614384 0.460537
vt 0.306691 0.308693
vt 0.154847 0.614384
vt 0.306691 0.614384
vt 0.154847 0.306691
vt 0.460537 0.154847
vt 0.154847 0.154847
vt 0.152845 0.154847
vt 0.001001 0.460537
vt 0.152845 0.460537
vt 0.614384 0.462539
vt 0.308693 0.614384
vt 0.614384 0.614384
vt 0.614384 0.845153
vt 0.462539 0.770232
vt 0.462539 0.845153
vt 0.922076 0.308693
vt 0.847155 0.460537
vt 0.922076 0.460537
vt 0.460537 0.616386
vt 0.154847 0.768230
vt 0.460537 0.768230
vt 0.616386 0.001001
vt 0.768230 0.306691
vt 0.768230 0.001001
vt 0.306691 0.001001
vt 0.001001 0.152845
vt 0.306691 0.152845
vt 0.308693 0.001001
vt 0.462539 0.154847
vt 0.154847 0.308693
vt 0.460537 0.306691
vt 0.001001 0.154847
vt 0.308693 0.462539
vt 0.614384 0.770232
vt 0.847155 0.308693
vt 0.154847 0.616386
vt 0.616386 0.306691
vt 0.001001 0.001001
vt 0.845153 0.308693
vt 0.770232 0.460537
vt 0.845153 0.460537
vt 0.614384 0.847155
vt 0.462539 0.922076
vt 0.614384 0.922076
vt 0.001001 0.616386
vt 0.152845 0.768230
vt 0.152845 0.616386
vt 0.770232 0.770232
vt 0.845153 0.922076
vt 0.845153 0.770232
vt 0.308693 0.308693
vt 0.460537 0.460537
vt 0.460537 0.308693
vt 0.306691 0.922076
vt 0.154847 0.847155
vt 0.154847 0.922076
vt 0.922076 0.462539
vt 0.847155 0.614384
vt 0.922076 0.614384
vt 0.462539 0.616386
vt 0.614384 0.768230
vt 0.614384 0.616386
vt 0.768230 0.845153
vt 0.616386 0.770232
vt 0.616386 0.845153
vt 0.770232 0.616386
vt 0.845153 0.768230
vt 0.845153 0.616386
vt 0.768230 0.922076
vt 0.616386 0.847155
vt 0.616386 0.922076
vt 0.770232 0.001001
vt 0.922076 0.152845
vt 0.922076 0.001001
vt 0.845153 0.154847
vt 0.770232 0.306691
vt 0.845153 0.306691
vt 0.616386 0.462539
vt 0.768230 0.614384
vt 0.768230 0.462539
vt 0.306691 0.770232
vt 0.154847 0.845153
vt 0.306691 0.845153
vt 0.770232 0.462539
vt 0.845153 0.614384
vt 0.845153 0.462539
vt 0.616386 0.616386
vt 0.768230 0.768230
vt 0.768230 0.616386
vt 0.460537 0.770232
vt 0.308693 0.845153
vt 0.460537 0.845153
vt 0.922076 0.616386
vt 0.847155 0.768230
vt 0.922076 0.768230
vt 0.460537 0.922076
vt 0.308693 0.847155
vt 0.308693 0.922076
vt 0.001001 0.462539
vt 0.152845 0.614384
vt 0.152845 0.462539
vt 0.616386 0.308693
vt 0.768230 0.460537
vt 0.768230 0.308693
vt 0.001001 0.770232
vt 0.152845 0.922076
vt 0.152845 0.770232
vt 0.922076 0.770232
vt 0.847155 0.922076
vt 0.922076 0.922076
vt 0.152845 0.998999
vt 0.001001 0.924078
vt 0.001001 0.998999
vt 0.998999 0.001001
vt 0.924078 0.152845
vt 0.998999 0.152845
vt 0.306691 0.998999
vt 0.154847 0.924078
vt 0.154847 0.998999
vt 0.770232 0.308693
vt 0.462539 0.847155
vt 0.001001 0.768230
vt 0.770232 0.922076
vt 0.308693 0.460537
vt 0.306691 0.847155
vt 0.847155 0.462539
vt 0.462539 0.768230
vt 0.768230 0.770232
vt 0.770232 0.768230
vt 0.768230 0.847155
vt 0.770232 0.152845
vt 0.770232 0.154847
vt 0.616386 0.614384
vt 0.154847 0.770232
vt 0.770232 0.614384
vt 0.616386 0.768230
vt 0.308693 0.770232
vt 0.847155 0.616386
vt 0.460537 0.847155
vt 0.001001 0.614384
vt 0.616386 0.460537
vt 0.001001 0.922076
vt 0.847155 0.770232
vt 0.152845 0.924078
vt 0.924078 0.001001
vt 0.306691 0.924078
vn 0.0000 0.0000 1.0000
vn 0.0000 -1.0000 0.0000
vn 0.0000 1.0000 0.0000
s off
f 21/1/1 40/2/1 24/3/1
f 21/1/1 38/4/1 40/2/1
f 28/5/1 1/6/1 2/7/1
f 15/8/1 28/9/1 14/10/1
f 10/11/1 14/12/1 31/13/1
f 27/14/1 21/15/1 20/16/1
f 36/17/1 21/18/1 24/19/1
f 36/20/1 22/21/1 23/22/1
f 24/23/1 39/24/1 22/25/1
f 19/26/1 38/27/1 21/28/1
f 38/29/1 44/30/1 40/31/1
f 40/32/1 43/33/1 39/34/1
f 37/35/1 42/36/1 38/37/1
f 28/5/1 6/38/1 1/6/1
f 15/8/1 6/39/1 28/9/1
f 10/11/1 15/40/1 14/12/1
f 27/14/1 19/41/1 21/15/1
f 36/17/1 20/42/1 21/18/1
f 36/20/1 24/43/1 22/21/1
f 24/23/1 40/44/1 39/24/1
f 19/26/1 37/45/1 38/27/1
f 38/29/1 42/46/1 44/30/1
f 40/32/1 44/47/1 43/33/1
f 37/35/1 41/48/1 42/36/1
f 15/49/2 7/50/2 6/51/2
f 7/52/2 1/53/2 6/54/2
f 8/55/1 3/56/1 7/57/1
f 9/58/3 4/59/3 8/60/3
f 16/61/1 8/62/1 7/63/1
f 17/64/3 9/65/3 8/66/3
f 10/67/2 16/68/2 15/69/2
f 11/70/1 17/71/1 16/72/1
f 12/73/3 18/74/3 17/75/3
f 29/76/3 14/77/3 28/78/3
f 2/79/3 29/80/3 28/81/3
f 25/82/1 30/83/1 29/84/1
f 26/85/2 20/86/2 30/87/2
f 30/88/1 34/89/1 29/90/1
f 20/91/2 35/92/2 30/93/2
f 34/94/3 31/95/3 14/96/3
f 35/97/1 32/98/1 34/99/1
f 36/100/2 33/101/2 35/102/2
f 46/103/2 53/104/2 45/105/2
f 48/106/2 54/107/2 46/108/2
f 50/109/1 56/110/1 52/111/1
f 52/112/1 55/113/1 51/114/1
f 49/115/1 54/116/1 50/117/1
f 44/118/3 51/119/3 43/120/3
f 47/121/2 56/122/2 48/123/2
f 42/124/3 52/125/3 44/126/3
f 41/127/3 50/128/3 42/129/3
f 15/49/2 16/130/2 7/50/2
f 7/52/2 3/131/2 1/53/2
f 8/55/1 4/132/1 3/56/1
f 9/58/3 5/133/3 4/59/3
f 16/61/1 17/134/1 8/62/1
f 17/64/3 18/135/3 9/65/3
f 10/67/2 11/136/2 16/68/2
f 11/70/1 12/137/1 17/71/1
f 12/73/3 13/138/3 18/74/3
f 29/76/3 34/139/3 14/77/3
f 2/79/3 25/140/3 29/80/3
f 25/82/1 26/141/1 30/83/1
f 26/85/2 27/142/2 20/86/2
f 30/88/1 35/143/1 34/89/1
f 20/91/2 36/144/2 35/92/2
f 34/94/3 32/145/3 31/95/3
f 35/97/1 33/146/1 32/98/1
f 36/100/2 23/147/2 33/101/2
f 46/103/2 54/148/2 53/104/2
f 48/106/2 56/149/2 54/107/2
f 50/109/1 54/150/1 56/110/1
f 52/112/1 56/151/1 55/113/1
f 49/115/1 53/152/1 54/116/1
f 44/118/3 52/153/3 51/119/3
f 47/121/2 55/154/2 56/122/2
f 42/124/3 50/155/3 52/125/3
f 41/127/3 49/156/3 50/128/3
