# Blender v2.93.1 OBJ File: 'tunnel.blend'
# www.blender.org
o Plane
v 0.000000 5.613786 -0.000000
v 0.000000 2.310985 -0.000000
v 0.000000 5.613786 0.100000
v 0.000000 6.832986 0.100000
v 3.000000 7.119830 1.281140
v 1.500000 5.613786 -0.000000
v 1.500000 5.613786 0.100000
v 1.500000 6.832986 0.100000
v 4.500000 7.119830 1.281140
v 4.500000 5.613786 -0.000000
v 4.500000 5.613786 0.100000
v 4.500000 6.832986 0.100000
v 1.500000 7.119830 1.281140
v 3.000000 2.310985 -0.000000
v 3.000000 5.613786 -0.000000
v 3.000000 5.613786 0.100000
v 3.000000 6.832986 0.100000
v -0.000000 7.119830 1.281140
v 0.000000 -2.211015 -0.000000
v 1.500000 1.091786 -0.000000
v 1.500000 -2.211015 -0.000000
v 4.500000 -2.211015 -0.000000
v 4.500000 1.091786 -0.000000
v 3.000000 -2.211015 -0.000000
v 0.000000 1.091785 -0.000000
v 1.500000 2.310985 -0.000000
v 4.500000 2.310985 -0.000000
v 3.000000 1.091785 -0.000000
v 0.000000 -2.311015 -0.000000
v 1.500000 -2.311015 -0.000000
v 4.500000 -2.311015 -0.000000
v 3.000000 -2.311015 -0.000000
v 0.000000 -5.613814 -0.000000
v 1.500000 -5.613814 -0.000000
v 4.500000 -5.613814 -0.000000
v 3.000000 -5.613814 -0.000000
v -0.000000 6.545648 3.080233
v 1.500000 6.545648 3.080233
v 4.500000 6.545648 3.080233
v 3.000000 6.545648 3.080233
v 0.000000 -5.613814 0.100000
v 1.500000 -5.613814 0.100000
v 4.500000 -5.613814 0.100000
v 3.000000 -5.613814 0.100000
v 0.000000 -6.833014 0.100000
v 1.500000 -6.833014 0.100000
v 4.500000 -6.833014 0.100000
v 3.000000 -6.833014 0.100000
v -0.000001 5.525388 4.669415
v 1.499999 5.525388 4.669415
v 4.500000 5.525388 4.669415
v 2.999999 5.525388 4.669415
v -0.000001 4.128582 5.940383
v 1.499999 4.128582 5.940383
v 4.500000 4.128582 5.940383
v 2.999999 4.128582 5.940383
v -0.000001 0.605265 7.208814
v 2.015424 0.089839 7.208812
v 4.500000 0.605265 7.208814
v 2.484573 0.089839 7.208812
v 4.500000 2.310985 6.835215
v 2.999999 2.310985 6.835215
v 1.499999 2.310985 6.835215
v -0.000001 2.310985 6.835215
v 4.500000 1.091786 7.101065
v 2.999999 1.091785 7.101065
v 1.499999 1.091785 7.101065
v -0.000001 1.091785 7.101065
v -0.000000 -7.119830 1.281140
v 1.500000 -7.119830 1.281140
v 4.500000 -7.119830 1.281140
v 3.000000 -7.119830 1.281140
v -0.000000 -6.545644 3.080234
v 1.500000 -6.545644 3.080234
v 4.500000 -6.545644 3.080234
v 3.000000 -6.545644 3.080234
v -0.000001 -5.525383 4.669415
v 1.499999 -5.525383 4.669415
v 4.500000 -5.525383 4.669415
v 2.999999 -5.525383 4.669415
v -0.000001 -4.128577 5.940382
v 1.499999 -4.128577 5.940382
v 4.500000 -4.128577 5.940382
v 2.999999 -4.128577 5.940382
v -0.000001 -2.450415 6.806523
v 1.499999 -2.450415 6.806523
v 4.500000 -2.450416 6.806523
v 2.999999 -2.450415 6.806523
v -0.000001 -0.605262 7.208810
v 2.015424 -0.089836 7.208811
v 4.500000 -0.605262 7.208810
v 2.484573 -0.089836 7.208811
v 2.476336 2.310985 6.093514
v 4.500000 2.310985 6.146543
v 2.023662 2.310985 6.093514
v -0.000001 2.310985 6.146543
v 2.476336 2.310985 6.043011
v 2.023662 2.310985 6.043011
v 4.500000 2.310985 5.989983
v -0.000001 2.310985 5.989983
v 2.999999 0.605265 7.208814
v 1.499999 0.605265 7.208814
v 2.999999 -0.605262 7.208810
v 1.499999 -0.605262 7.208810
v 2.015424 0.089839 7.170660
v 2.484573 0.089839 7.170660
v 2.015424 -0.089836 7.170659
v 2.484573 -0.089836 7.170659
v 1.873433 0.144219 7.157680
v 2.626565 0.144219 7.157680
v 1.873433 -0.144216 7.157678
v 2.626565 -0.144216 7.157678
v 1.873433 0.144220 7.078797
v 2.626565 0.144220 7.078797
v 1.873433 -0.144216 7.078795
v 2.626565 -0.144216 7.078795
v 1.499999 2.310985 6.146543
v 2.999999 2.310985 6.146543
v 2.999999 2.310985 5.989983
v 1.499999 2.310985 5.989983
v 2.023662 2.341314 6.093514
v 2.476336 2.341314 6.093514
v 2.476336 2.341314 6.043011
v 2.023662 2.341314 6.043011
v 1.752484 2.351333 6.123769
v 2.747514 2.351333 6.123769
v 2.747514 2.351333 6.012757
v 1.752484 2.351333 6.012757
v 1.752484 2.408024 6.123769
v 2.747514 2.408024 6.123769
v 2.747514 2.408024 6.012757
v 1.752484 2.408024 6.012757
vt 0.947528 0.824530
vt 0.942177 0.940175
vt 0.947528 0.940175
vt 0.726940 0.962234
vt 0.721589 0.949530
vt 0.721589 0.962234
vt 0.712234 0.964236
vt 0.706883 0.976940
vt 0.712234 0.976940
vt 0.962234 0.969587
vt 0.956883 0.942177
vt 0.956883 0.969587
vt 0.734293 0.964236
vt 0.728942 0.976940
vt 0.734293 0.976940
vt 0.748999 0.949530
vt 0.743648 0.976940
vt 0.748999 0.976940
vt 0.956883 0.589236
vt 0.969587 0.646058
vt 0.969587 0.589236
vt 0.822528 0.954881
vt 0.765707 0.949530
vt 0.765707 0.954881
vt 0.726940 0.964236
vt 0.721589 0.976940
vt 0.726940 0.976940
vt 0.425470 0.942177
vt 0.420119 0.998999
vt 0.425470 0.998999
vt 0.831883 0.949530
vt 0.837234 0.962234
vt 0.837234 0.949530
vt 0.418117 0.942177
vt 0.412766 0.998999
vt 0.418117 0.998999
vt 0.498999 0.824530
vt 0.486295 0.881352
vt 0.498999 0.881352
vt 0.484293 0.824530
vt 0.471589 0.881352
vt 0.484293 0.881352
vt 0.829881 0.949530
vt 0.824530 0.962234
vt 0.829881 0.962234
vt 0.434825 0.942177
vt 0.440175 0.998999
vt 0.440175 0.942177
vt 0.432823 0.942177
vt 0.427472 0.998999
vt 0.432823 0.998999
vt 0.714236 0.949530
vt 0.719587 0.954881
vt 0.719587 0.949530
vt 0.706883 0.949530
vt 0.712234 0.954881
vt 0.712234 0.949530
vt 0.942177 0.824530
vt 0.726940 0.949530
vt 0.706883 0.964236
vt 0.962234 0.942177
vt 0.728942 0.964236
vt 0.743648 0.949530
vt 0.956883 0.646058
vt 0.822528 0.949530
vt 0.721589 0.964236
vt 0.420119 0.942177
vt 0.831883 0.962234
vt 0.412766 0.942177
vt 0.486295 0.824530
vt 0.471589 0.824530
vt 0.824530 0.949530
vt 0.434825 0.998999
vt 0.427472 0.942177
vt 0.714236 0.954881
vt 0.706883 0.954881
vt 0.353942 0.001001
vt 0.469587 0.234293
vt 0.469587 0.001001
vt 0.234293 0.469587
vt 0.001001 0.353942
vt 0.001001 0.469587
vt 0.587234 0.469587
vt 0.353942 0.353942
vt 0.353942 0.469587
vt 0.704881 0.234293
vt 0.589236 0.001001
vt 0.589236 0.234293
vt 0.234293 0.116646
vt 0.001001 0.001001
vt 0.001001 0.116646
vt 0.589236 0.236295
vt 0.704881 0.469587
vt 0.704881 0.236295
vt 0.940175 0.947528
vt 0.824530 0.942177
vt 0.824530 0.947528
vt 0.954881 0.706883
vt 0.949530 0.822528
vt 0.954881 0.822528
vt 0.234293 0.471589
vt 0.001001 0.587234
vt 0.234293 0.587234
vt 0.236295 0.236295
vt 0.351940 0.469587
vt 0.351940 0.236295
vt 0.234293 0.589236
vt 0.001001 0.704881
vt 0.234293 0.704881
vt 0.734293 0.949530
vt 0.728942 0.962234
vt 0.734293 0.962234
vt 0.954881 0.942177
vt 0.949530 0.969587
vt 0.954881 0.969587
vt 0.947528 0.942177
vt 0.942177 0.969587
vt 0.947528 0.969587
vt 0.719587 0.976940
vt 0.714236 0.964236
vt 0.714236 0.976940
vt 0.969587 0.942177
vt 0.964236 0.969587
vt 0.969587 0.969587
vt 0.714236 0.956883
vt 0.719587 0.962234
vt 0.719587 0.956883
vt 0.706883 0.956883
vt 0.712234 0.962234
vt 0.712234 0.956883
vt 0.756352 0.949530
vt 0.751001 0.976940
vt 0.756352 0.976940
vt 0.353942 0.234293
vt 0.234293 0.353942
vt 0.587234 0.353942
vt 0.704881 0.001001
vt 0.234293 0.001001
vt 0.589236 0.469587
vt 0.940175 0.942177
vt 0.949530 0.706883
vt 0.001001 0.471589
vt 0.236295 0.469587
vt 0.001001 0.589236
vt 0.728942 0.949530
vt 0.949530 0.942177
vt 0.942177 0.942177
vt 0.719587 0.964236
vt 0.964236 0.942177
vt 0.714236 0.962234
vt 0.706883 0.962234
vt 0.751001 0.949530
vt 0.962234 0.648060
vt 0.956883 0.763705
vt 0.962234 0.763705
vt 0.822528 0.942177
vt 0.706883 0.947528
vt 0.822528 0.947528
vt 0.824530 0.471589
vt 0.881352 0.587234
vt 0.881352 0.471589
vt 0.940175 0.589236
vt 0.883354 0.704881
vt 0.940175 0.704881
vt 0.954881 0.824530
vt 0.949530 0.940175
vt 0.954881 0.940175
vt 0.116646 0.998999
vt 0.001001 0.942177
vt 0.001001 0.998999
vt 0.998999 0.001001
vt 0.942177 0.116646
vt 0.998999 0.116646
vt 0.940175 0.881352
vt 0.824530 0.824530
vt 0.824530 0.881352
vt 0.940175 0.706883
vt 0.883354 0.822528
vt 0.940175 0.822528
vt 0.704881 0.947528
vt 0.589236 0.942177
vt 0.589236 0.947528
vt 0.947528 0.706883
vt 0.942177 0.822528
vt 0.947528 0.822528
vt 0.704881 0.954881
vt 0.589236 0.949530
vt 0.589236 0.954881
vt 0.956883 0.648060
vt 0.706883 0.942177
vt 0.824530 0.587234
vt 0.883354 0.589236
vt 0.949530 0.824530
vt 0.116646 0.942177
vt 0.942177 0.001001
vt 0.940175 0.824530
vt 0.883354 0.706883
vt 0.704881 0.942177
vt 0.942177 0.706883
vt 0.704881 0.949530
vt 0.704881 0.881352
vt 0.589236 0.824530
vt 0.589236 0.881352
vt 0.824530 0.940175
vt 0.940175 0.883354
vt 0.824530 0.883354
vt 0.998999 0.234293
vt 0.942177 0.118648
vt 0.942177 0.234293
vt 0.469587 0.587234
vt 0.236295 0.471589
vt 0.236295 0.587234
vt 0.998999 0.236295
vt 0.942177 0.351940
vt 0.998999 0.351940
vt 0.234293 0.942177
vt 0.118648 0.998999
vt 0.234293 0.998999
vt 0.587234 0.001001
vt 0.471589 0.234293
vt 0.587234 0.234293
vt 0.587234 0.351940
vt 0.353942 0.236295
vt 0.353942 0.351940
vt 0.822528 0.236295
vt 0.706883 0.351940
vt 0.822528 0.351940
vt 0.353942 0.706883
vt 0.469587 0.822528
vt 0.469587 0.706883
vt 0.589236 0.706883
vt 0.704881 0.822528
vt 0.704881 0.706883
vt 0.001001 0.824530
vt 0.116646 0.940175
vt 0.116646 0.824530
vt 0.824530 0.118648
vt 0.940175 0.234293
vt 0.940175 0.118648
vt 0.234293 0.824530
vt 0.118648 0.940175
vt 0.234293 0.940175
vt 0.236295 0.824530
vt 0.351940 0.940175
vt 0.351940 0.824530
vt 0.940175 0.236295
vt 0.824530 0.351940
vt 0.940175 0.351940
vt 0.940175 0.353942
vt 0.824530 0.469587
vt 0.940175 0.469587
vt 0.236295 0.706883
vt 0.351940 0.822528
vt 0.351940 0.706883
vt 0.353942 0.824530
vt 0.469587 0.940175
vt 0.469587 0.824530
vt 0.969587 0.469587
vt 0.942177 0.353942
vt 0.942177 0.469587
vt 0.410764 0.969587
vt 0.295119 0.942177
vt 0.295119 0.969587
vt 0.969587 0.587234
vt 0.942177 0.471589
vt 0.942177 0.587234
vt 0.824530 0.001001
vt 0.940175 0.116646
vt 0.940175 0.001001
vt 0.704881 0.940175
vt 0.589236 0.883354
vt 0.589236 0.940175
vt 0.881352 0.706883
vt 0.824530 0.822528
vt 0.881352 0.822528
vt 0.822528 0.940175
vt 0.706883 0.883354
vt 0.706883 0.940175
vt 0.706883 0.706883
vt 0.822528 0.822528
vt 0.822528 0.706883
vt 0.706883 0.589236
vt 0.822528 0.704881
vt 0.822528 0.589236
vt 0.706883 0.471589
vt 0.822528 0.587234
vt 0.822528 0.471589
vt 0.471589 0.706883
vt 0.587234 0.822528
vt 0.587234 0.706883
vt 0.706883 0.353942
vt 0.822528 0.469587
vt 0.822528 0.353942
vt 0.001001 0.706883
vt 0.116646 0.822528
vt 0.116646 0.706883
vt 0.706883 0.001001
vt 0.822528 0.116646
vt 0.822528 0.001001
vt 0.589236 0.589236
vt 0.704881 0.704881
vt 0.704881 0.589236
vt 0.353942 0.589236
vt 0.469587 0.704881
vt 0.469587 0.589236
vt 0.236295 0.589236
vt 0.351940 0.704881
vt 0.351940 0.589236
vt 0.471589 0.471589
vt 0.587234 0.587234
vt 0.587234 0.471589
vt 0.589236 0.471589
vt 0.704881 0.587234
vt 0.704881 0.471589
vt 0.471589 0.589236
vt 0.587234 0.704881
vt 0.587234 0.589236
vt 0.706883 0.118648
vt 0.822528 0.234293
vt 0.822528 0.118648
vt 0.118648 0.706883
vt 0.234293 0.822528
vt 0.234293 0.706883
vt 0.883354 0.471589
vt 0.940175 0.587234
vt 0.940175 0.471589
vt 0.822528 0.824530
vt 0.706883 0.881352
vt 0.822528 0.881352
vt 0.824530 0.589236
vt 0.881352 0.704881
vt 0.881352 0.589236
vt 0.587234 0.942177
vt 0.471589 0.954881
vt 0.587234 0.954881
vt 0.942177 0.589236
vt 0.954881 0.704881
vt 0.954881 0.589236
vt 0.001001 0.351940
vt 0.234293 0.236295
vt 0.001001 0.236295
vt 0.351940 0.234293
vt 0.236295 0.001001
vt 0.236295 0.234293
vt 0.001001 0.234293
vt 0.234293 0.118648
vt 0.001001 0.118648
vt 0.236295 0.942177
vt 0.293117 0.998999
vt 0.293117 0.942177
vt 0.530413 0.883354
vt 0.587234 0.940175
vt 0.587234 0.883354
vt 0.471589 0.883354
vt 0.528411 0.940175
vt 0.528411 0.883354
vt 0.530413 0.824530
vt 0.587234 0.881352
vt 0.587234 0.824530
vt 0.469587 0.998999
vt 0.442177 0.942177
vt 0.442177 0.998999
vt 0.736295 0.949530
vt 0.741646 0.976940
vt 0.741646 0.949530
vt 0.758354 0.949530
vt 0.763705 0.976940
vt 0.763705 0.949530
vt 0.528411 0.824530
vt 0.501001 0.881352
vt 0.528411 0.881352
vt 0.704881 0.824530
vt 0.940175 0.940175
vt 0.998999 0.118648
vt 0.469587 0.471589
vt 0.942177 0.236295
vt 0.118648 0.942177
vt 0.471589 0.001001
vt 0.587234 0.236295
vt 0.706883 0.236295
vt 0.353942 0.822528
vt 0.589236 0.822528
vt 0.001001 0.940175
vt 0.824530 0.234293
vt 0.118648 0.824530
vt 0.236295 0.940175
vt 0.824530 0.236295
vt 0.824530 0.353942
vt 0.236295 0.822528
vt 0.353942 0.940175
vt 0.969587 0.353942
vt 0.410764 0.942177
vt 0.969587 0.471589
vt 0.824530 0.116646
vt 0.704881 0.883354
vt 0.824530 0.706883
vt 0.822528 0.883354
vt 0.706883 0.822528
vt 0.706883 0.704881
vt 0.706883 0.587234
vt 0.471589 0.822528
vt 0.706883 0.469587
vt 0.001001 0.822528
vt 0.706883 0.116646
vt 0.589236 0.704881
vt 0.353942 0.704881
vt 0.236295 0.704881
vt 0.471589 0.587234
vt 0.589236 0.587234
vt 0.471589 0.704881
vt 0.706883 0.234293
vt 0.118648 0.822528
vt 0.883354 0.587234
vt 0.706883 0.824530
vt 0.824530 0.704881
vt 0.471589 0.942177
vt 0.942177 0.704881
vt 0.234293 0.351940
vt 0.351940 0.001001
vt 0.234293 0.234293
vt 0.236295 0.998999
vt 0.530413 0.940175
vt 0.471589 0.940175
vt 0.530413 0.881352
vt 0.469587 0.942177
vt 0.736295 0.976940
vt 0.758354 0.976940
vt 0.501001 0.824530
vn 0.0000 0.0000 1.0000
vn -0.0910 -0.0000 0.9958
vn 1.0000 0.0000 0.0000
vn 0.0000 -0.2322 0.9727
vn 0.0910 -0.0000 0.9958
vn 0.0000 0.2322 0.9727
vn 0.0000 0.0000 -1.0000
vn 0.0000 1.0000 0.0000
vn -1.0000 0.0000 0.0000
vn 0.0000 -1.0000 -0.0000
vn -0.0369 -0.9993 0.0000
vn 0.0000 -0.9493 0.3144
vn 0.0000 -0.9493 -0.3144
vn 0.0369 -0.9993 0.0000
vn 0.0000 -0.9718 0.2360
vn 0.0000 -0.9527 -0.3040
vn 0.0000 -0.8415 -0.5402
vn 0.0000 -0.6730 -0.7396
vn 0.0000 -0.4417 -0.8972
vn 0.0000 -0.2162 -0.9763
vn 0.0000 0.9718 0.2360
vn 0.0000 0.9527 -0.3040
vn 0.0000 0.8415 -0.5402
vn 0.0000 0.6730 -0.7396
vn 0.0000 0.4586 -0.8886
vn 0.0000 0.2130 -0.9770
s off
f 21/1/1 32/2/1 24/3/1
f 107/4/2 109/5/2 111/6/2
f 112/7/3 114/8/3 110/9/3
f 108/10/4 111/11/4 112/12/4
f 108/13/5 110/14/5 106/15/5
f 106/16/6 109/17/6 105/18/6
f 116/19/7 113/20/7 114/21/7
f 110/22/8 113/23/8 109/24/8
f 109/25/9 115/26/9 111/27/9
f 111/28/10 116/29/10 112/30/10
f 121/31/11 128/32/11 124/33/11
f 126/34/1 129/35/1 125/36/1
f 122/37/12 125/38/12 121/39/12
f 124/40/13 127/41/13 123/42/13
f 122/43/14 127/44/14 126/45/14
f 129/46/8 131/47/8 132/48/8
f 128/49/7 131/50/7 127/51/7
f 127/52/3 130/53/3 126/54/3
f 125/55/9 132/56/9 128/57/9
f 21/1/1 30/58/1 32/2/1
f 107/4/2 105/59/2 109/5/2
f 112/7/3 116/60/3 114/8/3
f 108/10/4 107/61/4 111/11/4
f 108/13/5 112/62/5 110/14/5
f 106/16/6 110/63/6 109/17/6
f 116/19/7 115/64/7 113/20/7
f 110/22/8 114/65/8 113/23/8
f 109/25/9 113/66/9 115/26/9
f 111/28/10 115/67/10 116/29/10
f 121/31/11 125/68/11 128/32/11
f 126/34/1 130/69/1 129/35/1
f 122/37/12 126/70/12 125/38/12
f 124/40/13 128/71/13 127/41/13
f 122/43/14 123/72/14 127/44/14
f 129/46/8 130/73/8 131/47/8
f 128/49/7 132/74/7 131/50/7
f 127/52/3 131/75/3 130/53/3
f 125/55/9 129/76/9 132/56/9
f 26/77/1 1/78/1 2/79/1
f 15/80/1 26/81/1 14/82/1
f 10/83/1 14/84/1 27/85/1
f 25/86/1 21/87/1 20/88/1
f 28/89/1 21/90/1 24/91/1
f 28/92/1 22/93/1 23/94/1
f 24/95/1 31/96/1 22/97/1
f 19/98/1 30/99/1 21/100/1
f 30/101/1 36/102/1 32/103/1
f 32/104/1 35/105/1 31/106/1
f 29/107/1 34/108/1 30/109/1
f 92/110/3 106/111/3 60/112/3
f 98/113/7 123/114/7 97/115/7
f 60/116/8 105/117/8 58/118/8
f 90/119/9 105/120/9 107/121/9
f 90/122/10 108/123/10 92/124/10
f 97/125/3 122/126/3 93/127/3
f 95/128/9 124/129/9 98/130/9
f 93/131/1 121/132/1 95/133/1
f 26/77/1 6/134/1 1/78/1
f 15/80/1 6/135/1 26/81/1
f 10/83/1 15/136/1 14/84/1
f 25/86/1 19/137/1 21/87/1
f 28/89/1 20/138/1 21/90/1
f 28/92/1 24/139/1 22/93/1
f 24/95/1 32/140/1 31/96/1
f 19/98/1 29/141/1 30/99/1
f 30/101/1 34/142/1 36/102/1
f 32/104/1 36/143/1 35/105/1
f 29/107/1 33/144/1 34/108/1
f 92/110/3 108/145/3 106/111/3
f 98/113/7 124/146/7 123/114/7
f 60/116/8 106/147/8 105/117/8
f 90/119/9 58/148/9 105/120/9
f 90/122/10 107/149/10 108/123/10
f 97/125/3 123/150/3 122/126/3
f 95/128/9 121/151/9 124/129/9
f 93/131/1 122/152/1 121/132/1
f 15/153/10 7/154/10 6/155/10
f 7/156/10 1/157/10 6/158/10
f 8/159/1 3/160/1 7/161/1
f 16/162/1 8/163/1 7/164/1
f 10/165/10 16/166/10 15/167/10
f 11/168/1 17/169/1 16/170/1
f 42/171/1 48/172/1 44/173/1
f 44/174/1 47/175/1 43/176/1
f 41/177/1 46/178/1 42/179/1
f 36/180/8 43/181/8 35/182/8
f 34/183/8 44/184/8 36/185/8
f 33/186/8 42/187/8 34/188/8
f 15/153/10 16/189/10 7/154/10
f 7/156/10 3/190/10 1/157/10
f 8/159/1 4/191/1 3/160/1
f 16/162/1 17/192/1 8/163/1
f 10/165/10 11/193/10 16/166/10
f 11/168/1 12/194/1 17/169/1
f 42/171/1 46/195/1 48/172/1
f 44/174/1 48/196/1 47/175/1
f 41/177/1 45/197/1 46/178/1
f 36/180/8 44/198/8 43/181/8
f 34/183/8 42/199/8 44/184/8
f 33/186/8 41/200/8 42/187/8
f 8/201/15 18/202/15 4/203/15
f 17/204/15 9/205/15 5/206/15
f 8/207/15 5/208/15 13/209/15
f 67/210/10 25/211/10 20/212/10
f 118/213/8 61/214/8 94/215/8
f 63/216/8 118/217/8 117/218/8
f 65/219/10 28/220/10 23/221/10
f 66/222/10 20/223/10 28/224/10
f 13/225/16 40/226/16 38/227/16
f 9/228/16 40/229/16 5/230/16
f 13/231/16 37/232/16 18/233/16
f 39/234/17 52/235/17 40/236/17
f 40/237/17 50/238/17 38/239/17
f 37/240/17 50/241/17 49/242/17
f 51/243/18 56/244/18 52/245/18
f 50/246/18 56/247/18 54/248/18
f 49/249/18 54/250/18 53/251/18
f 61/252/19 56/253/19 55/254/19
f 62/255/19 54/256/19 56/257/19
f 66/258/20 59/259/20 101/260/20
f 66/261/20 102/262/20 67/263/20
f 68/264/20 102/265/20 57/266/20
f 63/267/19 53/268/19 54/269/19
f 46/270/21 72/271/21 48/272/21
f 48/273/21 71/274/21 47/275/21
f 45/276/21 70/277/21 46/278/21
f 70/279/22 76/280/22 72/281/22
f 72/282/22 75/283/22 71/284/22
f 69/285/22 74/286/22 70/287/22
f 74/288/23 80/289/23 76/290/23
f 76/291/23 79/292/23 75/293/23
f 73/294/23 78/295/23 74/296/23
f 78/297/24 84/298/24 80/299/24
f 80/300/24 83/301/24 79/302/24
f 77/303/24 82/304/24 78/305/24
f 82/306/25 88/307/25 84/308/25
f 84/309/25 87/310/25 83/311/25
f 81/312/25 86/313/25 82/314/25
f 86/315/26 103/316/26 88/317/26
f 88/318/26 91/319/26 87/320/26
f 85/321/26 104/322/26 86/323/26
f 91/324/7 101/325/7 59/326/7
f 104/327/7 57/328/7 102/329/7
f 64/330/8 117/331/8 96/332/8
f 96/333/8 120/334/8 100/335/8
f 118/336/8 99/337/8 119/338/8
f 14/339/8 99/340/8 27/341/8
f 26/342/8 119/343/8 14/344/8
f 2/345/8 120/346/8 26/347/8
f 58/348/7 101/349/7 60/350/7
f 92/351/7 104/352/7 90/353/7
f 60/354/7 103/355/7 92/356/7
f 90/357/7 102/358/7 58/359/7
f 93/360/8 117/361/8 118/362/8
f 93/363/8 119/364/8 97/365/8
f 98/366/8 117/367/8 95/368/8
f 97/369/8 120/370/8 98/371/8
f 8/201/15 13/372/15 18/202/15
f 17/204/15 12/373/15 9/205/15
f 8/207/15 17/374/15 5/208/15
f 67/210/10 68/375/10 25/211/10
f 118/213/8 62/376/8 61/214/8
f 63/216/8 62/377/8 118/217/8
f 65/219/10 66/378/10 28/220/10
f 66/222/10 67/379/10 20/223/10
f 13/225/16 5/380/16 40/226/16
f 9/228/16 39/381/16 40/229/16
f 13/231/16 38/382/16 37/232/16
f 39/234/17 51/383/17 52/235/17
f 40/237/17 52/384/17 50/238/17
f 37/240/17 38/385/17 50/241/17
f 51/243/18 55/386/18 56/244/18
f 50/246/18 52/387/18 56/247/18
f 49/249/18 50/388/18 54/250/18
f 61/252/19 62/389/19 56/253/19
f 62/255/19 63/390/19 54/256/19
f 66/258/20 65/391/20 59/259/20
f 66/261/20 101/392/20 102/262/20
f 68/264/20 67/393/20 102/265/20
f 63/267/19 64/394/19 53/268/19
f 46/270/21 70/395/21 72/271/21
f 48/273/21 72/396/21 71/274/21
f 45/276/21 69/397/21 70/277/21
f 70/279/22 74/398/22 76/280/22
f 72/282/22 76/399/22 75/283/22
f 69/285/22 73/400/22 74/286/22
f 74/288/23 78/401/23 80/289/23
f 76/291/23 80/402/23 79/292/23
f 73/294/23 77/403/23 78/295/23
f 78/297/24 82/404/24 84/298/24
f 80/300/24 84/405/24 83/301/24
f 77/303/24 81/406/24 82/304/24
f 82/306/25 86/407/25 88/307/25
f 84/309/25 88/408/25 87/310/25
f 81/312/25 85/409/25 86/313/25
f 86/315/26 104/410/26 103/316/26
f 88/318/26 103/411/26 91/319/26
f 85/321/26 89/412/26 104/322/26
f 91/324/7 103/413/7 101/325/7
f 104/327/7 89/414/7 57/328/7
f 64/330/8 63/415/8 117/331/8
f 96/333/8 117/416/8 120/334/8
f 118/336/8 94/417/8 99/337/8
f 14/339/8 119/418/8 99/340/8
f 26/342/8 120/419/8 119/343/8
f 2/345/8 100/420/8 120/346/8
f 58/348/7 102/421/7 101/349/7
f 92/351/7 103/422/7 104/352/7
f 60/354/7 101/423/7 103/355/7
f 90/357/7 104/424/7 102/358/7
f 93/360/8 95/425/8 117/361/8
f 93/363/8 118/426/8 119/364/8
f 98/366/8 120/427/8 117/367/8
f 97/369/8 119/428/8 120/370/8
