# Blender v2.80 (sub 75) OBJ File: 'tunnel_entrance_mirror.blend'
# www.blender.org
o Plane
v 1.500000 -0.809923 2.045625
v -0.000001 3.080233 7.067630
v 0.000000 -0.809923 0.826425
v 0.000000 0.100000 6.567626
v 1.500000 -0.809923 0.826426
v 1.500000 -0.709923 6.567626
v 1.500000 0.100000 6.567626
v 1.500000 1.281140 6.567626
v -0.000000 1.281140 6.854470
v 0.000000 -0.709923 6.567626
v -0.000001 4.669415 7.067630
v 0.000000 -0.809923 2.045625
v -0.000001 4.669415 -7.598370
v -0.000001 7.208814 -7.598370
v 1.500000 7.208814 -7.598370
v 1.500000 4.669415 -7.598370
v 1.499999 4.669415 7.067630
v 1.500000 3.080233 7.067630
v -0.000000 3.080233 6.280288
v 1.500000 3.080233 6.567626
v 1.500000 1.281140 7.067630
v 1.500000 0.100000 7.067630
v 0.000000 0.100000 -7.098374
v 1.500000 0.100000 -7.098374
v -0.000001 4.669415 5.260028
v 1.499999 4.669415 6.567626
v -0.000001 5.940383 3.863222
v 1.499999 7.208814 6.567626
v -0.000001 7.208814 0.339905
v 1.499999 7.208814 2.045625
v -0.000001 6.835215 2.045625
v 1.499999 7.208814 0.826425
v -0.000001 7.101065 0.826425
v -0.000000 1.281140 -7.385190
v 1.500000 1.281140 -7.098374
v -0.000000 3.080234 -6.811004
v 1.500000 3.080234 -7.098374
v -0.000001 4.669415 -5.790743
v 1.499999 4.669415 -7.098374
v -0.000001 5.940382 -4.393937
v 1.499999 7.208814 -7.098374
v -0.000001 6.806523 -2.715775
v 1.499999 7.208814 -2.715775
v -0.000001 7.208810 -0.870622
v 1.500001 0.100000 -7.598370
v -0.000001 7.762801 6.567626
v -0.000001 7.762801 2.045625
v 1.500000 3.080234 -7.598370
v -0.000001 7.762801 0.826425
v 1.499999 7.208814 0.339905
v -0.000001 7.762801 -7.098374
v 1.499999 7.208814 -0.870622
v -0.000001 7.762801 -2.715775
v -0.000001 7.762801 0.339905
v -0.000001 7.762801 -0.870622
v -0.000001 7.762801 7.067630
v 1.499999 7.762801 7.067630
v 1.499999 7.762801 -0.870622
v 1.499999 7.762801 0.339905
v 1.499999 7.762801 -2.715775
v 1.499999 7.762801 -7.098374
v 1.499999 7.762801 0.826425
v 1.499999 7.762801 2.045625
v 1.499999 7.762801 6.567626
v 1.499999 7.208814 7.067630
v 1.500000 7.762801 -7.598370
v -0.000001 7.762801 -7.598370
v 1.500000 1.281140 -7.598370
v -0.000001 -0.709923 7.067630
v 0.000000 -0.709923 -7.598370
v -0.000000 1.281140 -7.598370
v -0.000001 7.208814 7.067630
v -0.000000 3.080234 -7.598370
v 0.000000 0.100000 -7.598370
v -0.000001 0.100000 7.067630
v -0.000001 1.281140 7.067630
v 1.500001 -0.709923 -7.598370
v 1.500000 -0.709923 -7.098374
v 0.000000 -0.709923 -7.098374
v 1.500000 -0.709923 7.067630
vt 0.429572 0.858144
vt 0.570428 0.927570
vt 0.429572 0.927570
vt 0.858144 0.856142
vt 0.927570 0.715287
vt 0.927570 0.856142
vt 0.143858 0.927570
vt 0.284713 0.858144
vt 0.284713 0.927570
vt 0.356142 0.998999
vt 0.286715 0.929572
vt 0.356142 0.929572
vt 0.858144 0.570428
vt 0.927570 0.429572
vt 0.927570 0.570428
vt 0.286715 0.143858
vt 0.570428 0.284713
vt 0.286715 0.284713
vt 0.284713 0.998999
vt 0.215287 0.929572
vt 0.284713 0.929572
vt 0.858144 0.141856
vt 0.927570 0.001001
vt 0.927570 0.141856
vt 0.429572 0.856142
vt 0.570428 0.786715
vt 0.570428 0.856142
vt 0.713285 0.001001
vt 0.572430 0.141856
vt 0.572430 0.001001
vt 0.786715 0.570428
vt 0.856142 0.429572
vt 0.856142 0.570428
vt 0.284713 0.572430
vt 0.143858 0.713285
vt 0.143858 0.572430
vt 0.001001 0.570428
vt 0.284713 0.429572
vt 0.284713 0.570428
vt 0.715287 0.713285
vt 0.784713 0.572430
vt 0.784713 0.713285
vt 0.286715 0.001001
vt 0.570428 0.141856
vt 0.286715 0.141856
vt 0.715287 0.570428
vt 0.784713 0.429572
vt 0.784713 0.570428
vt 0.427570 0.784713
vt 0.286715 0.643858
vt 0.427570 0.643858
vt 0.570428 0.784713
vt 0.429572 0.643858
vt 0.570428 0.643858
vt 0.001001 0.286715
vt 0.284713 0.427570
vt 0.001001 0.427570
vt 0.570428 0.570428
vt 0.429572 0.286715
vt 0.570428 0.286715
vt 0.286715 0.856142
vt 0.427570 0.786715
vt 0.427570 0.856142
vt 0.998999 0.427570
vt 0.929572 0.286715
vt 0.998999 0.286715
vt 0.284713 0.715287
vt 0.143858 0.856142
vt 0.143858 0.715287
vt 0.572430 0.784713
vt 0.713285 0.715287
vt 0.713285 0.784713
vt 0.213285 0.998999
vt 0.143858 0.929572
vt 0.213285 0.929572
vt 0.643858 0.570428
vt 0.713285 0.286715
vt 0.713285 0.570428
vt 0.286715 0.572430
vt 0.570428 0.641856
vt 0.286715 0.641856
vt 0.141856 0.998999
vt 0.072430 0.929572
vt 0.141856 0.929572
vt 0.786715 0.713285
vt 0.856142 0.572430
vt 0.856142 0.713285
vt 0.141856 0.713285
vt 0.001001 0.572430
vt 0.141856 0.572430
vt 0.927570 0.927570
vt 0.858144 0.858144
vt 0.927570 0.858144
vt 0.715287 0.784713
vt 0.856142 0.715287
vt 0.856142 0.784713
vt 0.856142 0.001001
vt 0.715287 0.141856
vt 0.715287 0.001001
vt 0.856142 0.927570
vt 0.786715 0.858144
vt 0.856142 0.858144
vt 0.858144 0.427570
vt 0.927570 0.286715
vt 0.927570 0.427570
vt 0.784713 0.927570
vt 0.715287 0.858144
vt 0.784713 0.858144
vt 0.001001 0.927570
vt 0.141856 0.858144
vt 0.141856 0.927570
vt 0.572430 0.570428
vt 0.641856 0.286715
vt 0.641856 0.570428
vt 0.141856 0.856142
vt 0.001001 0.715287
vt 0.141856 0.715287
vt 0.286715 0.927570
vt 0.427570 0.858144
vt 0.427570 0.927570
vt 0.927570 0.713285
vt 0.858144 0.572430
vt 0.927570 0.572430
vt 0.001001 0.143858
vt 0.284713 0.284713
vt 0.001001 0.284713
vt 0.427570 0.998999
vt 0.358144 0.929572
vt 0.427570 0.929572
vt 0.929572 0.284713
vt 0.998999 0.143858
vt 0.998999 0.284713
vt 0.856142 0.427570
vt 0.715287 0.286715
vt 0.856142 0.286715
vt 0.001001 0.001001
vt 0.284713 0.141856
vt 0.001001 0.141856
vt 0.929572 0.141856
vt 0.998999 0.001001
vt 0.998999 0.141856
vt 0.856142 0.856142
vt 0.715287 0.786715
vt 0.856142 0.786715
vt 0.858144 0.284713
vt 0.927570 0.143858
vt 0.927570 0.284713
vt 0.572430 0.856142
vt 0.713285 0.786715
vt 0.713285 0.856142
vt 0.070428 0.998999
vt 0.001001 0.929572
vt 0.070428 0.929572
vt 0.427570 0.570428
vt 0.286715 0.286715
vt 0.427570 0.286715
vt 0.856142 0.284713
vt 0.715287 0.143858
vt 0.856142 0.143858
vt 0.713285 0.284713
vt 0.572430 0.143858
vt 0.713285 0.143858
vt 0.713285 0.713285
vt 0.572430 0.572430
vt 0.713285 0.572430
vt 0.572430 0.858144
vt 0.713285 0.927570
vt 0.572430 0.927570
vt 0.570428 0.858144
vt 0.858144 0.715287
vt 0.143858 0.858144
vt 0.286715 0.998999
vt 0.858144 0.429572
vt 0.570428 0.143858
vt 0.215287 0.998999
vt 0.858144 0.001001
vt 0.429572 0.786715
vt 0.713285 0.141856
vt 0.786715 0.429572
vt 0.284713 0.713285
vt 0.001001 0.429572
vt 0.715287 0.572430
vt 0.570428 0.001001
vt 0.715287 0.429572
vt 0.286715 0.784713
vt 0.429572 0.784713
vt 0.284713 0.286715
vt 0.429572 0.570428
vt 0.286715 0.786715
vt 0.929572 0.427570
vt 0.284713 0.856142
vt 0.572430 0.715287
vt 0.143858 0.998999
vt 0.643858 0.286715
vt 0.570428 0.572430
vt 0.072430 0.998999
vt 0.786715 0.572430
vt 0.001001 0.713285
vt 0.858144 0.927570
vt 0.715287 0.715287
vt 0.856142 0.141856
vt 0.786715 0.927570
vt 0.858144 0.286715
vt 0.715287 0.927570
vt 0.001001 0.858144
vt 0.572430 0.286715
vt 0.001001 0.856142
vt 0.286715 0.858144
vt 0.858144 0.713285
vt 0.284713 0.143858
vt 0.358144 0.998999
vt 0.929572 0.143858
vt 0.715287 0.427570
vt 0.284713 0.001001
vt 0.929572 0.001001
vt 0.715287 0.856142
vt 0.858144 0.143858
vt 0.572430 0.786715
vt 0.001001 0.998999
vt 0.286715 0.570428
vt 0.715287 0.284713
vt 0.572430 0.284713
vt 0.572430 0.713285
vt 0.713285 0.858144
vn 1.0000 0.0000 0.0000
vn 0.0000 0.0000 -1.0000
vn 0.0000 0.0000 1.0000
vn -0.1878 -0.0000 -0.9822
vn 0.1881 0.0000 -0.9821
vn 0.6571 0.0000 -0.7538
vn 0.0700 -0.9739 -0.2157
vn 0.6457 -0.7636 0.0000
vn -0.1878 -0.0000 0.9822
vn 0.1882 0.0000 0.9821
vn 0.6571 0.0000 0.7538
vn 0.0000 1.0000 0.0000
vn 0.2535 -0.9451 0.2061
vn 0.0000 -1.0000 0.0000
vn -0.1827 0.2320 -0.9554
vn 0.1795 -0.2991 -0.9372
vn 0.5915 -0.4356 -0.6785
vn 0.8785 -0.3534 -0.3215
vn 0.2181 -0.8756 -0.4311
vn -0.1827 0.2320 0.9554
vn 0.1795 -0.2991 0.9372
vn 0.5915 -0.4356 0.6785
vn 0.8785 -0.3534 0.3215
vn 0.2318 -0.8644 0.4461
s off
f 16/1/1 41/2/1 39/3/1
f 48/4/1 39/5/1 37/6/1
f 4/7/2 8/8/2 7/9/2
f 80/10/1 7/11/1 22/12/1
f 68/13/1 37/14/1 35/15/1
f 31/16/3 1/17/3 30/18/3
f 45/19/1 35/20/1 24/21/1
f 18/22/1 8/23/1 20/24/1
f 74/25/2 68/26/2 45/27/2
f 9/28/4 20/29/4 8/30/4
f 65/31/1 26/32/1 28/33/1
f 19/34/5 26/35/5 20/36/5
f 25/37/6 28/38/6 26/39/6
f 29/40/7 32/41/7 33/42/7
f 27/43/8 30/44/8 28/45/8
f 35/46/3 23/47/3 24/48/3
f 37/49/9 34/50/9 35/51/9
f 39/52/10 36/53/10 37/54/10
f 41/55/11 38/56/11 39/57/11
f 43/58/8 40/59/8 41/60/8
f 67/61/12 61/62/12 66/63/12
f 46/64/12 57/65/12 64/66/12
f 43/67/13 44/68/13 42/69/13
f 29/70/14 52/71/14 50/72/14
f 21/73/1 7/74/1 8/75/1
f 30/76/1 5/77/1 32/78/1
f 61/79/1 43/80/1 41/81/1
f 64/82/1 65/83/1 28/84/1
f 17/85/1 20/86/1 26/87/1
f 53/88/12 58/89/12 60/90/12
f 58/91/1 50/92/1 52/93/1
f 55/94/12 59/95/12 58/96/12
f 17/97/3 2/98/3 18/99/3
f 59/100/1 32/101/1 50/102/1
f 67/103/2 15/104/2 14/105/2
f 62/106/1 30/107/1 32/108/1
f 76/109/3 22/110/3 21/111/3
f 63/112/1 28/113/1 30/114/1
f 73/115/2 16/116/2 48/117/2
f 70/118/2 45/119/2 77/120/2
f 49/121/12 63/122/12 62/123/12
f 51/124/12 60/125/12 61/126/12
f 66/127/1 41/128/1 15/129/1
f 60/130/1 52/131/1 43/132/1
f 72/133/3 17/134/3 65/135/3
f 47/136/12 64/137/12 63/138/12
f 57/139/3 72/140/3 65/141/3
f 59/142/12 49/143/12 62/144/12
f 79/145/3 24/146/3 23/147/3
f 75/148/3 80/149/3 22/150/3
f 78/151/1 45/152/1 24/153/1
f 33/154/2 5/155/2 3/156/2
f 2/157/3 21/158/3 18/159/3
f 13/160/2 15/161/2 16/162/2
f 71/163/2 48/164/2 68/165/2
f 6/166/2 4/167/2 7/168/2
f 16/1/1 15/169/1 41/2/1
f 48/4/1 16/170/1 39/5/1
f 4/7/15 9/171/15 8/8/15
f 80/10/1 6/172/1 7/11/1
f 68/13/1 48/173/1 37/14/1
f 31/16/3 12/174/3 1/17/3
f 45/19/1 68/175/1 35/20/1
f 18/22/1 21/176/1 8/23/1
f 74/25/2 71/177/2 68/26/2
f 9/28/16 19/178/16 20/29/16
f 65/31/1 17/179/1 26/32/1
f 19/34/17 25/180/17 26/35/17
f 25/37/18 27/181/18 28/38/18
f 29/40/14 50/182/14 32/41/14
f 27/43/19 31/183/19 30/44/19
f 35/46/20 34/184/20 23/47/20
f 37/49/21 36/185/21 34/50/21
f 39/52/22 38/186/22 36/53/22
f 41/55/23 40/187/23 38/56/23
f 43/58/24 42/188/24 40/59/24
f 67/61/12 51/189/12 61/62/12
f 46/64/12 56/190/12 57/65/12
f 43/67/14 52/191/14 44/68/14
f 29/70/14 44/192/14 52/71/14
f 21/73/1 22/193/1 7/74/1
f 30/76/1 1/194/1 5/77/1
f 61/79/1 60/195/1 43/80/1
f 64/82/1 57/196/1 65/83/1
f 17/85/1 18/197/1 20/86/1
f 53/88/12 55/198/12 58/89/12
f 58/91/1 59/199/1 50/92/1
f 55/94/12 54/200/12 59/95/12
f 17/97/3 11/201/3 2/98/3
f 59/100/1 62/202/1 32/101/1
f 67/103/2 66/203/2 15/104/2
f 62/106/1 63/204/1 30/107/1
f 76/109/3 75/205/3 22/110/3
f 63/112/1 64/206/1 28/113/1
f 73/115/2 13/207/2 16/116/2
f 70/118/2 74/208/2 45/119/2
f 49/121/12 47/209/12 63/122/12
f 51/124/12 53/210/12 60/125/12
f 66/127/1 61/211/1 41/128/1
f 60/130/1 58/212/1 52/131/1
f 72/133/3 11/213/3 17/134/3
f 47/136/12 46/214/12 64/137/12
f 57/139/3 56/215/3 72/140/3
f 59/142/12 54/216/12 49/143/12
f 79/145/3 78/217/3 24/146/3
f 75/148/3 69/218/3 80/149/3
f 78/151/1 77/219/1 45/152/1
f 33/154/2 32/220/2 5/155/2
f 2/157/3 76/221/3 21/158/3
f 13/160/2 14/222/2 15/161/2
f 71/163/2 73/223/2 48/164/2
f 6/166/2 10/224/2 4/167/2
