# Blender v2.91.2 OBJ File: 'Car_00001.blend'
# www.blender.org
o Cube
v 1.000000 1.000000 2.000000
v 1.000000 1.000000 0.000000
v 1.000000 -1.000000 2.000000
v 1.000000 -1.000000 0.000000
v -1.000000 1.000000 2.000000
v -1.000000 1.000000 0.000000
v -1.000000 -1.000000 2.000000
v -1.000000 -1.000000 0.000000
v 1.000000 -3.136228 2.000000
v 1.000000 -3.136228 0.000000
v -1.000000 -3.136228 2.000000
v -1.000000 -3.136228 0.000000
vt 0.001001 0.001001
vt 0.332332 0.248999
vt 0.332332 0.001001
vt 0.001001 0.251001
vt 0.332332 0.498999
vt 0.332332 0.251001
vt 0.334334 0.001001
vt 0.665666 0.248999
vt 0.665666 0.001001
vt 0.334334 0.251001
vt 0.665666 0.498999
vt 0.665666 0.251001
vt 0.001001 0.501001
vt 0.332332 0.748999
vt 0.332332 0.501001
vt 0.667668 0.001001
vt 0.998999 0.248999
vt 0.998999 0.001001
vt 0.667668 0.251001
vt 0.998999 0.498999
vt 0.998999 0.251001
vt 0.334334 0.501001
vt 0.665666 0.748999
vt 0.665666 0.501001
vt 0.667668 0.501001
vt 0.998999 0.748999
vt 0.998999 0.501001
vt 0.001001 0.751001
vt 0.332332 0.998999
vt 0.332332 0.751001
vt 0.001001 0.248999
vt 0.001001 0.498999
vt 0.334334 0.248999
vt 0.334334 0.498999
vt 0.001001 0.748999
vt 0.667668 0.248999
vt 0.667668 0.498999
vt 0.334334 0.748999
vt 0.667668 0.748999
vt 0.001001 0.998999
vn 0.0000 0.0000 1.0000
vn -1.0000 0.0000 0.0000
vn 0.0000 0.0000 -1.0000
vn 1.0000 0.0000 0.0000
vn 0.0000 1.0000 0.0000
vn 0.0000 -1.0000 0.0000
s off
f 5/1/1 3/2/1 1/3/1
f 8/4/2 11/5/2 7/6/2
f 7/7/2 6/8/2 8/9/2
f 2/10/3 8/11/3 6/12/3
f 1/13/4 4/14/4 2/15/4
f 5/16/5 2/17/5 6/18/5
f 9/19/6 12/20/6 10/21/6
f 4/22/3 12/23/3 8/24/3
f 7/25/1 9/26/1 3/27/1
f 3/28/4 10/29/4 4/30/4
f 5/1/1 7/31/1 3/2/1
f 8/4/2 12/32/2 11/5/2
f 7/7/2 5/33/2 6/8/2
f 2/10/3 4/34/3 8/11/3
f 1/13/4 3/35/4 4/14/4
f 5/16/5 1/36/5 2/17/5
f 9/19/6 11/37/6 12/20/6
f 4/22/3 10/38/3 12/23/3
f 7/25/1 11/39/1 9/26/1
f 3/28/4 9/40/4 10/29/4
