# Blender v2.80 (sub 75) OBJ File: 'tunnel_00.blend'
# www.blender.org
o Plane
v 0.000000 -0.000000 3.352800
v 0.000000 -0.000000 0.050000
v 0.000000 0.100000 3.352800
v 0.000000 0.100000 4.572000
v 1.500000 -0.000000 0.050000
v 1.500000 -0.000000 3.352800
v 1.500000 0.100000 3.352800
v 1.500000 0.100000 4.572000
v 4.500000 -0.000000 3.352800
v 4.500000 -0.000000 0.050000
v 4.500000 0.100000 3.352800
v 4.500000 0.100000 4.572000
v 3.000000 -0.000000 0.050000
v 3.000000 -0.000000 3.352800
v 3.000000 0.100000 3.352800
v 3.000000 0.100000 4.572000
v -0.000000 1.008117 4.786823
v 1.500000 1.008117 4.786823
v 4.500000 1.008117 4.786823
v 3.000000 1.008117 4.786823
v -0.000000 2.212687 4.362797
v 1.500000 2.212687 4.362797
v 4.500000 2.212687 4.362797
v 3.000000 2.212687 4.362797
v -0.000000 3.266466 3.641453
v 1.500000 3.266466 3.641453
v 4.500000 3.266466 3.641453
v 2.999999 3.266466 3.641453
v -0.000001 4.097641 2.671949
v 1.500000 4.097641 2.671949
v 4.500000 4.097641 2.671950
v 2.999999 4.097641 2.671949
v -0.000001 4.649569 1.520357
v 1.499999 4.649569 1.520357
v 4.500000 4.649569 1.520358
v 2.999999 4.649569 1.520357
v -0.000001 4.884636 0.265155
v 1.697276 4.884636 0.067879
v 4.500000 4.884636 0.265156
v 2.802722 4.884636 0.067879
v 0.000000 -0.000000 -3.352800
v 0.000000 -0.000000 -0.050000
v 0.000000 0.100000 -3.352800
v 0.000000 0.100000 -4.572000
v 1.500000 -0.000000 -0.050000
v 1.500000 -0.000000 -3.352800
v 1.500000 0.100000 -3.352800
v 1.500000 0.100000 -4.572000
v 4.500000 -0.000000 -3.352800
v 4.500000 -0.000000 -0.050000
v 4.500000 0.100000 -3.352800
v 4.500000 0.100000 -4.572000
v 3.000000 -0.000000 -0.050000
v 3.000000 -0.000000 -3.352800
v 3.000000 0.100000 -3.352800
v 3.000000 0.100000 -4.572000
v -0.000000 1.008117 -4.786823
v 1.500000 1.008117 -4.786823
v 4.500000 1.008117 -4.786823
v 3.000000 1.008117 -4.786823
v -0.000000 2.212687 -4.362797
v 1.500000 2.212687 -4.362797
v 4.500000 2.212687 -4.362797
v 3.000000 2.212687 -4.362797
v -0.000000 3.266466 -3.641453
v 1.500000 3.266466 -3.641453
v 4.500000 3.266466 -3.641453
v 2.999999 3.266466 -3.641453
v -0.000001 4.097641 -2.671949
v 1.500000 4.097641 -2.671949
v 4.500000 4.097641 -2.671950
v 2.999999 4.097641 -2.671949
v -0.000001 4.649569 -1.520357
v 1.499999 4.649569 -1.520357
v 4.500000 4.649569 -1.520358
v 2.999999 4.649569 -1.520357
v -0.000001 4.884636 -0.265155
v 1.697276 4.884636 -0.067879
v 4.500000 4.884636 -0.265156
v 2.802722 4.884636 -0.067879
v 2.999999 4.884636 0.265156
v 1.499999 4.884636 0.265155
v 2.999999 4.884636 -0.265156
v 1.499999 4.884636 -0.265155
v 2.802722 4.858716 0.067879
v 1.697276 4.858716 0.067879
v 2.802722 4.858716 -0.067879
v 1.697276 4.858716 -0.067879
v 3.157790 4.840870 0.111484
v 1.342209 4.840870 0.111484
v 3.157790 4.840870 -0.111484
v 1.342209 4.840870 -0.111484
v 3.157790 4.760542 0.111484
v 1.342209 4.760542 0.111484
v 3.157790 4.760542 -0.111484
v 1.342209 4.760542 -0.111484
vt 0.873498 0.889123
vt 0.751502 0.884314
vt 0.751502 0.889123
vt 0.798377 0.892127
vt 0.810998 0.920373
vt 0.810998 0.892127
vt 0.842248 0.904748
vt 0.814002 0.899939
vt 0.814002 0.904748
vt 0.904748 0.751502
vt 0.876502 0.873498
vt 0.904748 0.873498
vt 0.782752 0.892127
vt 0.795373 0.920373
vt 0.795373 0.892127
vt 0.623498 0.904748
vt 0.501502 0.876502
vt 0.501502 0.904748
vt 0.876502 0.376502
vt 0.904748 0.623498
vt 0.904748 0.376502
vt 0.873498 0.881311
vt 0.626502 0.876502
vt 0.626502 0.881311
vt 0.842248 0.896936
vt 0.814002 0.892127
vt 0.814002 0.896936
vt 0.943811 0.376502
vt 0.939002 0.623498
vt 0.943811 0.623498
vt 0.873498 0.884314
vt 0.798377 0.920373
vt 0.842248 0.899939
vt 0.876502 0.751502
vt 0.782752 0.920373
vt 0.623498 0.876502
vt 0.876502 0.623498
vt 0.873498 0.876502
vt 0.842248 0.892127
vt 0.939002 0.376502
vt 0.373498 0.001502
vt 0.251502 0.248498
vt 0.373498 0.248498
vt 0.248498 0.376502
vt 0.001502 0.498498
vt 0.248498 0.498498
vt 0.498498 0.376502
vt 0.251502 0.498498
vt 0.498498 0.498498
vt 0.001502 0.126502
vt 0.123498 0.373498
vt 0.123498 0.126502
vt 0.373498 0.373498
vt 0.126502 0.251502
vt 0.126502 0.373498
vt 0.248498 0.123498
vt 0.001502 0.001502
vt 0.001502 0.123498
vt 0.907752 0.501502
vt 0.912561 0.623498
vt 0.912561 0.501502
vt 0.748498 0.889123
vt 0.626502 0.884314
vt 0.626502 0.889123
vt 0.857873 0.892127
vt 0.853064 0.904748
vt 0.857873 0.904748
vt 0.912561 0.751502
vt 0.907752 0.873498
vt 0.912561 0.873498
vt 0.850061 0.892127
vt 0.845252 0.904748
vt 0.850061 0.904748
vt 0.748498 0.904748
vt 0.626502 0.899939
vt 0.626502 0.904748
vt 0.251502 0.001502
vt 0.001502 0.376502
vt 0.251502 0.376502
vt 0.001502 0.373498
vt 0.373498 0.251502
vt 0.248498 0.001502
vt 0.907752 0.623498
vt 0.748498 0.884314
vt 0.853064 0.892127
vt 0.907752 0.751502
vt 0.845252 0.892127
vt 0.748498 0.899939
vt 0.748498 0.896936
vt 0.626502 0.892127
vt 0.626502 0.896936
vt 0.626502 0.626502
vt 0.748498 0.748498
vt 0.748498 0.626502
vt 0.501502 0.251502
vt 0.623498 0.373498
vt 0.623498 0.251502
vt 0.923377 0.501502
vt 0.928186 0.623498
vt 0.928186 0.501502
vt 0.126502 0.126502
vt 0.248498 0.248498
vt 0.248498 0.126502
vt 0.920373 0.751502
vt 0.915564 0.873498
vt 0.920373 0.873498
vt 0.498498 0.907752
vt 0.376502 0.912561
vt 0.498498 0.912561
vt 0.501502 0.626502
vt 0.623498 0.748498
vt 0.623498 0.626502
vt 0.001502 0.751502
vt 0.123498 0.873498
vt 0.123498 0.751502
vt 0.920373 0.501502
vt 0.915564 0.623498
vt 0.920373 0.623498
vt 0.126502 0.751502
vt 0.248498 0.873498
vt 0.248498 0.751502
vt 0.923377 0.751502
vt 0.928186 0.873498
vt 0.928186 0.751502
vt 0.748498 0.892127
vt 0.626502 0.748498
vt 0.501502 0.373498
vt 0.923377 0.623498
vt 0.126502 0.248498
vt 0.915564 0.751502
vt 0.376502 0.907752
vt 0.501502 0.748498
vt 0.001502 0.873498
vt 0.915564 0.501502
vt 0.126502 0.873498
vt 0.923377 0.873498
vt 0.376502 0.251502
vt 0.498498 0.373498
vt 0.498498 0.251502
vt 0.501502 0.001502
vt 0.623498 0.123498
vt 0.623498 0.001502
vt 0.001502 0.501502
vt 0.123498 0.623498
vt 0.123498 0.501502
vt 0.126502 0.501502
vt 0.248498 0.623498
vt 0.248498 0.501502
vt 0.501502 0.126502
vt 0.623498 0.248498
vt 0.623498 0.126502
vt 0.251502 0.501502
vt 0.373498 0.623498
vt 0.373498 0.501502
vt 0.751502 0.001502
vt 0.873498 0.123498
vt 0.873498 0.001502
vt 0.501502 0.376502
vt 0.623498 0.498498
vt 0.623498 0.376502
vt 0.376502 0.501502
vt 0.498498 0.623498
vt 0.498498 0.501502
vt 0.501502 0.501502
vt 0.623498 0.623498
vt 0.623498 0.501502
vt 0.626502 0.001502
vt 0.748498 0.123498
vt 0.748498 0.001502
vt 0.001502 0.626502
vt 0.123498 0.748498
vt 0.123498 0.626502
vt 0.126502 0.626502
vt 0.248498 0.748498
vt 0.248498 0.626502
vt 0.626502 0.126502
vt 0.748498 0.248498
vt 0.748498 0.126502
vt 0.251502 0.626502
vt 0.373498 0.748498
vt 0.373498 0.626502
vt 0.748498 0.251502
vt 0.626502 0.373498
vt 0.748498 0.373498
vt 0.376502 0.626502
vt 0.498498 0.748498
vt 0.498498 0.626502
vt 0.626502 0.376502
vt 0.748498 0.498498
vt 0.748498 0.376502
vt 0.751502 0.251502
vt 0.873498 0.373498
vt 0.873498 0.251502
vt 0.751502 0.376502
vt 0.873498 0.498498
vt 0.873498 0.376502
vt 0.501502 0.751502
vt 0.623498 0.873498
vt 0.623498 0.751502
vt 0.751502 0.501502
vt 0.873498 0.623498
vt 0.873498 0.501502
vt 0.626502 0.751502
vt 0.748498 0.873498
vt 0.748498 0.751502
vt 0.751502 0.626502
vt 0.873498 0.748498
vt 0.873498 0.626502
vt 0.751502 0.751502
vt 0.873498 0.873498
vt 0.873498 0.751502
vt 0.001502 0.876502
vt 0.123498 0.998498
vt 0.123498 0.876502
vt 0.876502 0.001502
vt 0.998498 0.123498
vt 0.998498 0.001502
vt 0.126502 0.876502
vt 0.248498 0.998498
vt 0.248498 0.876502
vt 0.876502 0.126502
vt 0.998498 0.248498
vt 0.998498 0.126502
vt 0.876502 0.251502
vt 0.998498 0.373498
vt 0.998498 0.251502
vt 0.376502 0.751502
vt 0.498498 0.873498
vt 0.498498 0.751502
vt 0.251502 0.751502
vt 0.373498 0.873498
vt 0.373498 0.751502
vt 0.751502 0.126502
vt 0.873498 0.248498
vt 0.873498 0.126502
vt 0.626502 0.501502
vt 0.748498 0.623498
vt 0.748498 0.501502
vt 0.376502 0.126502
vt 0.498498 0.248498
vt 0.498498 0.126502
vt 0.376502 0.001502
vt 0.498498 0.123498
vt 0.498498 0.001502
vt 0.876502 0.626502
vt 0.935998 0.748498
vt 0.935998 0.626502
vt 0.373498 0.935998
vt 0.251502 0.876502
vt 0.251502 0.935998
vt 0.935998 0.498498
vt 0.907752 0.376502
vt 0.907752 0.498498
vt 0.498498 0.904748
vt 0.376502 0.876502
vt 0.376502 0.904748
vt 0.876502 0.876502
vt 0.904748 0.904748
vt 0.904748 0.876502
vt 0.751502 0.892127
vt 0.779748 0.920373
vt 0.779748 0.892127
vt 0.376502 0.373498
vt 0.501502 0.123498
vt 0.001502 0.623498
vt 0.126502 0.623498
vt 0.501502 0.248498
vt 0.251502 0.623498
vt 0.751502 0.123498
vt 0.501502 0.498498
vt 0.376502 0.623498
vt 0.501502 0.623498
vt 0.626502 0.123498
vt 0.001502 0.748498
vt 0.126502 0.748498
vt 0.626502 0.248498
vt 0.251502 0.748498
vt 0.626502 0.251502
vt 0.376502 0.748498
vt 0.626502 0.498498
vt 0.751502 0.373498
vt 0.751502 0.498498
vt 0.501502 0.873498
vt 0.751502 0.623498
vt 0.626502 0.873498
vt 0.751502 0.748498
vt 0.751502 0.873498
vt 0.001502 0.998498
vt 0.876502 0.123498
vt 0.126502 0.998498
vt 0.876502 0.248498
vt 0.876502 0.373498
vt 0.376502 0.873498
vt 0.251502 0.873498
vt 0.751502 0.248498
vt 0.626502 0.623498
vt 0.376502 0.248498
vt 0.376502 0.123498
vt 0.876502 0.748498
vt 0.373498 0.876502
vt 0.935998 0.376502
vt 0.498498 0.876502
vt 0.876502 0.904748
vt 0.751502 0.920373
vn 0.0000 1.0000 0.0000
vn 0.0502 0.9987 0.0000
vn 1.0000 0.0000 0.0000
vn -0.0000 0.9255 0.3788
vn -0.0502 0.9987 0.0000
vn -0.0000 0.9255 -0.3788
vn 0.0000 -1.0000 0.0000
vn -0.0000 0.0000 1.0000
vn -1.0000 0.0000 0.0000
vn -0.0000 0.0000 -1.0000
vn 0.0000 0.2302 -0.9731
vn 0.0000 -0.3320 -0.9433
vn 0.0000 -0.5649 -0.8252
vn 0.0000 -0.7592 -0.6509
vn 0.0000 -0.9018 -0.4322
vn 0.0000 -0.9829 -0.1841
vn 0.0000 0.2302 0.9731
vn 0.0000 -0.3320 0.9433
vn 0.0000 -0.5649 0.8252
vn 0.0000 -0.7592 0.6509
vn 0.0000 -0.9018 0.4322
vn 0.0000 -0.9829 0.1841
s off
f 13/1/1 45/2/1 5/3/1
f 85/4/2 91/5/2 87/6/2
f 89/7/3 95/8/3 91/9/3
f 86/10/4 89/11/4 85/12/4
f 88/13/5 90/14/5 86/15/5
f 87/16/6 92/17/6 88/18/6
f 96/19/7 93/20/7 94/21/7
f 90/22/8 93/23/8 89/24/8
f 92/25/9 94/26/9 90/27/9
f 91/28/10 96/29/10 92/30/10
f 13/1/1 53/31/1 45/2/1
f 85/4/2 89/32/2 91/5/2
f 89/7/3 93/33/3 95/8/3
f 86/10/4 90/34/4 89/11/4
f 88/13/5 92/35/5 90/14/5
f 87/16/6 91/36/6 92/17/6
f 96/19/7 95/37/7 93/20/7
f 90/22/8 94/38/8 93/23/8
f 92/25/9 96/39/9 94/26/9
f 91/28/10 95/40/10 96/29/10
f 1/41/1 5/42/1 2/43/1
f 5/44/1 14/45/1 13/46/1
f 13/47/1 9/48/1 10/49/1
f 45/50/1 41/51/1 42/52/1
f 54/53/1 45/54/1 53/55/1
f 49/56/1 53/57/1 50/58/1
f 45/59/1 2/60/1 5/61/1
f 10/62/1 53/63/1 13/64/1
f 78/65/9 86/66/9 38/67/9
f 80/68/10 88/69/10 78/70/10
f 40/71/3 87/72/3 80/73/3
f 38/74/8 85/75/8 40/76/8
f 1/41/1 6/77/1 5/42/1
f 5/44/1 6/78/1 14/45/1
f 13/47/1 14/79/1 9/48/1
f 45/50/1 46/80/1 41/51/1
f 54/53/1 46/81/1 45/54/1
f 49/56/1 54/82/1 53/57/1
f 45/59/1 42/83/1 2/60/1
f 10/62/1 50/84/1 53/63/1
f 78/65/9 88/85/9 86/66/9
f 80/68/10 87/86/10 88/69/10
f 40/71/3 85/87/3 87/72/3
f 38/74/8 86/88/8 85/75/8
f 1/89/10 7/90/10 6/91/10
f 3/92/1 8/93/1 7/94/1
f 16/95/1 7/96/1 8/97/1
f 15/98/10 9/99/10 14/100/10
f 16/101/1 11/102/1 15/103/1
f 15/104/10 6/105/10 7/106/10
f 47/107/8 41/108/8 46/109/8
f 48/110/1 43/111/1 47/112/1
f 47/113/1 56/114/1 48/115/1
f 49/116/8 55/117/8 54/118/8
f 51/119/1 56/120/1 55/121/1
f 46/122/8 55/123/8 47/124/8
f 1/89/10 3/125/10 7/90/10
f 3/92/1 4/126/1 8/93/1
f 16/95/1 15/127/1 7/96/1
f 15/98/10 11/128/10 9/99/10
f 16/101/1 12/129/1 11/102/1
f 15/104/10 14/130/10 6/105/10
f 47/107/8 43/131/8 41/108/8
f 48/110/1 44/132/1 43/111/1
f 47/113/1 55/133/1 56/114/1
f 49/116/8 51/134/8 55/117/8
f 51/119/1 52/135/1 56/120/1
f 46/122/8 54/136/8 55/123/8
f 8/137/11 20/138/11 16/139/11
f 16/140/11 19/141/11 12/142/11
f 4/143/11 18/144/11 8/145/11
f 18/146/12 24/147/12 20/148/12
f 20/149/12 23/150/12 19/151/12
f 17/152/12 22/153/12 18/154/12
f 22/155/13 28/156/13 24/157/13
f 24/158/13 27/159/13 23/160/13
f 21/161/13 26/162/13 22/163/13
f 26/164/14 32/165/14 28/166/14
f 28/167/14 31/168/14 27/169/14
f 25/170/14 30/171/14 26/172/14
f 30/173/15 36/174/15 32/175/15
f 32/176/15 35/177/15 31/178/15
f 29/179/15 34/180/15 30/181/15
f 36/182/16 82/183/16 81/184/16
f 36/185/16 39/186/16 35/187/16
f 33/188/16 82/189/16 34/190/16
f 60/191/17 48/192/17 56/193/17
f 59/194/17 56/195/17 52/196/17
f 58/197/17 44/198/17 48/199/17
f 64/200/18 58/201/18 60/202/18
f 63/203/18 60/204/18 59/205/18
f 62/206/18 57/207/18 58/208/18
f 68/209/19 62/210/19 64/211/19
f 67/212/19 64/213/19 63/214/19
f 66/215/19 61/216/19 62/217/19
f 72/218/20 66/219/20 68/220/20
f 71/221/20 68/222/20 67/223/20
f 70/224/20 65/225/20 66/226/20
f 76/227/21 70/228/21 72/229/21
f 75/230/21 72/231/21 71/232/21
f 74/233/21 69/234/21 70/235/21
f 83/236/22 74/237/22 76/238/22
f 79/239/22 76/240/22 75/241/22
f 84/242/22 73/243/22 74/244/22
f 83/245/7 39/246/7 81/247/7
f 37/248/7 84/249/7 82/250/7
f 38/251/7 81/252/7 82/253/7
f 78/254/7 83/255/7 80/256/7
f 80/257/7 81/258/7 40/259/7
f 38/260/7 84/261/7 78/262/7
f 8/137/11 18/263/11 20/138/11
f 16/140/11 20/264/11 19/141/11
f 4/143/11 17/265/11 18/144/11
f 18/146/12 22/266/12 24/147/12
f 20/149/12 24/267/12 23/150/12
f 17/152/12 21/268/12 22/153/12
f 22/155/13 26/269/13 28/156/13
f 24/158/13 28/270/13 27/159/13
f 21/161/13 25/271/13 26/162/13
f 26/164/14 30/272/14 32/165/14
f 28/167/14 32/273/14 31/168/14
f 25/170/14 29/274/14 30/171/14
f 30/173/15 34/275/15 36/174/15
f 32/176/15 36/276/15 35/177/15
f 29/179/15 33/277/15 34/180/15
f 36/182/16 34/278/16 82/183/16
f 36/185/16 81/279/16 39/186/16
f 33/188/16 37/280/16 82/189/16
f 60/191/17 58/281/17 48/192/17
f 59/194/17 60/282/17 56/195/17
f 58/197/17 57/283/17 44/198/17
f 64/200/18 62/284/18 58/201/18
f 63/203/18 64/285/18 60/204/18
f 62/206/18 61/286/18 57/207/18
f 68/209/19 66/287/19 62/210/19
f 67/212/19 68/288/19 64/213/19
f 66/215/19 65/289/19 61/216/19
f 72/218/20 70/290/20 66/219/20
f 71/221/20 72/291/20 68/222/20
f 70/224/20 69/292/20 65/225/20
f 76/227/21 74/293/21 70/228/21
f 75/230/21 76/294/21 72/231/21
f 74/233/21 73/295/21 69/234/21
f 83/236/22 84/296/22 74/237/22
f 79/239/22 83/297/22 76/240/22
f 84/242/22 77/298/22 73/243/22
f 83/245/7 79/299/7 39/246/7
f 37/248/7 77/300/7 84/249/7
f 38/251/7 40/301/7 81/252/7
f 78/254/7 84/302/7 83/255/7
f 80/257/7 83/303/7 81/258/7
f 38/260/7 82/304/7 84/261/7
