# Blender v2.93.1 OBJ File: 'tunnel_entrance.blend'
# www.blender.org
o Plane
v 1.703600 2.745306 5.212727
v 1.703600 4.572000 5.212727
v 1.703600 -2.745306 5.212727
v 0.000000 -4.572000 0.100000
v 1.703600 -4.572000 5.212727
v 1.703600 4.572000 -0.894820
v 0.000000 4.572000 -0.894817
v 1.703601 -4.572000 0.099997
v 0.000000 -4.786823 1.008117
v 1.703600 -4.572000 1.008113
v -0.000000 -4.362797 2.212687
v 1.703600 -4.572000 2.212684
v -0.000000 -3.641453 3.266466
v 1.703600 -4.572000 3.501806
v -0.000000 -2.671949 4.097641
v 1.703600 -4.572000 4.884633
v -0.000000 -1.520357 4.649569
v 1.703600 -2.745306 4.884633
v -0.000000 -0.265155 4.884636
v 1.703600 -4.572000 -0.894820
v 0.000000 4.572000 0.100000
v 0.000000 -4.572000 -0.894817
v 1.703601 4.572000 0.099997
v 0.000000 4.786820 1.008117
v 1.703600 4.572000 1.008113
v -0.000000 4.362797 2.212687
v 1.703600 4.572000 2.212684
v -0.000000 3.641453 3.266466
v 1.703600 4.572000 3.501806
v -0.000000 2.671949 4.097641
v 1.703600 4.572000 4.884633
v -0.000000 1.520357 4.649569
v 1.703600 2.745306 4.884633
v -0.000000 0.265155 4.884636
v 1.703600 -0.778639 4.884633
v 1.703600 0.778639 4.884633
v 1.703600 -0.778639 5.212727
v 1.703600 0.778639 5.212727
v -0.000000 2.745306 5.212730
v -0.000000 4.572000 5.212730
v -0.000000 -2.745306 5.212730
v -0.000000 -4.572000 5.212730
v -0.000000 -0.778639 5.212730
v -0.000000 0.778639 5.212730
v 1.703600 5.051994 5.212727
v 1.703600 -5.051994 5.212727
v -0.000000 5.051994 5.212730
v -0.000000 -5.051994 5.212730
v 1.703599 5.051994 -0.894820
v 1.703599 -5.051994 -0.894820
v -0.000000 5.051994 -0.894817
v -0.000000 -5.051994 -0.894817
vt 0.998999 0.182819
vt 0.910092 0.362635
vt 0.998999 0.362635
vt 0.001001 0.998999
vt 0.180817 0.910092
vt 0.001001 0.910092
vt 0.998999 0.001001
vt 0.910092 0.180817
vt 0.998999 0.180817
vt 0.908090 0.817181
vt 0.728274 0.728274
vt 0.728274 0.817181
vt 0.362635 0.364637
vt 0.182819 0.544454
vt 0.362635 0.544454
vt 0.364637 0.364637
vt 0.544454 0.544454
vt 0.544454 0.364637
vt 0.455546 0.001001
vt 0.635363 0.180817
vt 0.635363 0.001001
vt 0.455546 0.182819
vt 0.635363 0.362635
vt 0.635363 0.182819
vt 0.001001 0.546456
vt 0.180817 0.726272
vt 0.180817 0.546456
vt 0.819183 0.364637
vt 0.908090 0.544454
vt 0.908090 0.364637
vt 0.544454 0.546456
vt 0.364637 0.726272
vt 0.544454 0.726272
vt 0.546456 0.364637
vt 0.726272 0.544454
vt 0.726272 0.364637
vt 0.546456 0.546456
vt 0.726272 0.726272
vt 0.726272 0.546456
vt 0.637365 0.001001
vt 0.817181 0.180817
vt 0.817181 0.001001
vt 0.637365 0.182819
vt 0.817181 0.362635
vt 0.817181 0.182819
vt 0.362635 0.998999
vt 0.182819 0.910092
vt 0.182819 0.998999
vt 0.908090 0.182819
vt 0.819183 0.362635
vt 0.908090 0.362635
vt 0.726272 0.908090
vt 0.546456 0.819183
vt 0.546456 0.908090
vt 0.908090 0.001001
vt 0.819183 0.180817
vt 0.908090 0.180817
vt 0.726272 0.817181
vt 0.546456 0.728274
vt 0.546456 0.817181
vt 0.544454 0.728274
vt 0.364637 0.908090
vt 0.544454 0.908090
vt 0.182819 0.728274
vt 0.362635 0.908090
vt 0.362635 0.728274
vt 0.001001 0.728274
vt 0.180817 0.908090
vt 0.180817 0.728274
vt 0.182819 0.546456
vt 0.362635 0.726272
vt 0.362635 0.546456
vt 0.182819 0.182819
vt 0.362635 0.362635
vt 0.362635 0.182819
vt 0.908090 0.546456
vt 0.819183 0.726272
vt 0.908090 0.726272
vt 0.908090 0.908090
vt 0.728274 0.819183
vt 0.728274 0.908090
vt 0.001001 0.182819
vt 0.180817 0.544454
vt 0.180817 0.182819
vt 0.362635 0.180817
vt 0.001001 0.001001
vt 0.001001 0.180817
vt 0.728274 0.726272
vt 0.817181 0.542273
vt 0.817181 0.613597
vt 0.544454 0.998999
vt 0.364637 0.910092
vt 0.364637 0.998999
vt 0.364637 0.001001
vt 0.453544 0.059905
vt 0.453544 0.113676
vt 0.726272 0.910092
vt 0.546456 0.998999
vt 0.726272 0.998999
vt 0.910092 0.182819
vt 0.180817 0.998999
vt 0.910092 0.001001
vt 0.908090 0.728274
vt 0.182819 0.364637
vt 0.364637 0.544454
vt 0.455546 0.180817
vt 0.455546 0.362635
vt 0.001001 0.726272
vt 0.819183 0.544454
vt 0.364637 0.546456
vt 0.546456 0.544454
vt 0.546456 0.726272
vt 0.637365 0.180817
vt 0.637365 0.362635
vt 0.362635 0.910092
vt 0.819183 0.182819
vt 0.726272 0.819183
vt 0.819183 0.001001
vt 0.726272 0.728274
vt 0.364637 0.728274
vt 0.182819 0.908090
vt 0.001001 0.908090
vt 0.182819 0.726272
vt 0.182819 0.362635
vt 0.819183 0.546456
vt 0.908090 0.819183
vt 0.001001 0.544454
vt 0.362635 0.001001
vt 0.817181 0.667368
vt 0.817181 0.726272
vt 0.728274 0.364637
vt 0.817181 0.364637
vt 0.817181 0.384064
vt 0.817181 0.465943
vt 0.544454 0.910092
vt 0.453544 0.261330
vt 0.453544 0.343209
vt 0.364637 0.362635
vt 0.453544 0.362635
vt 0.453544 0.185000
vt 0.453544 0.001001
vt 0.546456 0.910092
vn 1.0000 0.0000 0.0000
vn 0.0000 -1.0000 0.0000
vn 0.0000 1.0000 0.0000
vn 0.1219 0.9925 0.0000
vn 0.4794 0.8776 0.0000
vn 0.4194 0.0000 -0.9078
vn 0.1367 0.0000 -0.9906
vn -0.1181 -0.9367 -0.3297
vn 0.1219 -0.9925 0.0000
vn 0.4794 -0.8776 0.0000
vn -0.0000 0.0000 -1.0000
vn 0.0000 0.0000 1.0000
vn -0.1218 0.9659 0.2285
vn -0.1181 0.9367 -0.3297
vn 0.4674 0.7295 -0.4994
vn 0.7327 0.4429 -0.5167
vn 0.3990 0.3963 -0.8269
vn 0.0554 0.1838 -0.9814
vn -0.1218 -0.9659 0.2285
vn 0.4674 -0.7295 -0.4994
vn 0.7327 -0.4429 -0.5167
vn 0.3990 -0.3963 -0.8269
vn 0.0554 -0.1838 -0.9814
s off
f 18/1/1 5/2/1 16/3/1
f 23/4/2 7/5/2 6/6/2
f 31/7/1 1/8/1 33/9/1
f 4/10/3 10/11/3 8/12/3
f 10/13/4 11/14/4 12/15/4
f 11/16/4 14/17/4 12/18/4
f 13/19/5 16/20/5 14/21/5
f 15/22/6 18/23/6 16/24/6
f 17/25/7 35/26/7 18/27/7
f 25/28/2 21/29/2 23/30/2
f 25/31/8 26/32/8 24/33/8
f 29/34/9 26/35/9 27/36/9
f 31/37/10 28/38/10 29/39/10
f 33/40/6 30/41/6 31/42/6
f 36/43/7 32/44/7 33/45/7
f 8/46/3 22/47/3 4/48/3
f 19/49/11 36/50/11 35/51/11
f 36/52/1 37/53/1 35/54/1
f 35/55/1 3/56/1 18/57/1
f 33/58/1 38/59/1 36/60/1
f 37/61/12 44/62/12 43/63/12
f 1/64/12 44/65/12 38/66/12
f 3/67/12 42/68/12 5/69/12
f 37/70/12 41/71/12 3/72/12
f 2/73/12 39/74/12 1/75/12
f 2/76/12 47/77/12 40/78/12
f 42/79/12 46/80/12 5/81/12
f 45/82/3 51/83/3 47/84/3
f 46/85/2 52/86/2 50/87/2
f 49/88/1 27/89/1 25/90/1
f 7/91/11 49/92/11 6/93/11
f 50/94/1 8/95/1 10/96/1
f 50/97/11 22/98/11 20/99/11
f 18/1/1 3/100/1 5/2/1
f 23/4/2 21/101/2 7/5/2
f 31/7/1 2/102/1 1/8/1
f 4/10/13 9/103/13 10/11/13
f 10/13/14 9/104/14 11/14/14
f 11/16/15 13/105/15 14/17/15
f 13/19/16 15/106/16 16/20/16
f 15/22/17 17/107/17 18/23/17
f 17/25/18 19/108/18 35/26/18
f 25/28/19 24/109/19 21/29/19
f 25/31/9 27/110/9 26/32/9
f 29/34/20 28/111/20 26/35/20
f 31/37/21 30/112/21 28/38/21
f 33/40/22 32/113/22 30/41/22
f 36/43/23 34/114/23 32/44/23
f 8/46/3 20/115/3 22/47/3
f 19/49/11 34/116/11 36/50/11
f 36/52/1 38/117/1 37/53/1
f 35/55/1 37/118/1 3/56/1
f 33/58/1 1/119/1 38/59/1
f 37/61/12 38/120/12 44/62/12
f 1/64/12 39/121/12 44/65/12
f 3/67/12 41/122/12 42/68/12
f 37/70/12 43/123/12 41/71/12
f 2/73/12 40/124/12 39/74/12
f 2/76/12 45/125/12 47/77/12
f 42/79/12 48/126/12 46/80/12
f 45/82/3 49/127/3 51/83/3
f 46/85/2 48/128/2 52/86/2
f 23/129/1 6/130/1 49/88/1
f 49/88/1 45/131/1 27/89/1
f 45/131/1 2/132/1 31/133/1
f 31/133/1 29/134/1 45/131/1
f 29/134/1 27/89/1 45/131/1
f 25/90/1 23/129/1 49/88/1
f 7/91/11 51/135/11 49/92/11
f 14/136/1 16/137/1 46/138/1
f 16/137/1 5/139/1 46/138/1
f 14/136/1 46/138/1 12/140/1
f 46/138/1 50/94/1 12/140/1
f 50/94/1 20/141/1 8/95/1
f 10/96/1 12/140/1 50/94/1
f 50/97/11 52/142/11 22/98/11
