# Blender v2.93.1 OBJ File: 'tunnel_junction.blend'
# www.blender.org
o Plane
v 0.500000 3.352800 0.009674
v 0.500000 4.572000 0.000000
v 1.000000 0.050000 0.009674
v 0.000000 4.572000 0.000000
v -0.000000 3.352800 0.000000
v -0.000000 2.698261 4.855322
v 0.999999 2.698261 4.855322
v 0.999999 3.862970 3.991520
v 0.500000 0.050000 0.009674
v -0.000000 3.862970 3.991520
v 0.500000 3.862970 3.991520
v 0.500000 4.528649 2.759040
v -0.000000 4.528649 2.759040
v 1.000000 4.528650 2.759040
v 1.000000 4.753230 1.317360
v 0.500000 3.502800 0.009674
v 1.000000 4.572001 -0.000000
v 1.000000 3.352800 0.009674
v 1.000000 3.502800 0.009674
v -0.000000 3.502800 0.000000
v 0.000000 4.753230 1.317360
v 0.500000 4.753230 1.317360
v 0.499999 2.698261 4.855322
v -0.000000 1.349670 5.388243
v 0.999999 1.349670 5.388243
v 0.499999 1.349670 5.388243
v -0.000000 0.135315 5.527939
v 0.999999 0.135315 5.527939
v 0.499999 0.135315 5.527939
v 0.500000 -3.352800 0.009674
v 0.500000 -4.572000 0.000000
v 1.000000 -0.050000 0.009674
v 0.000000 -4.572000 0.000000
v -0.000000 -3.352800 0.000000
v -0.000000 -2.698261 4.855322
v 0.999999 -2.698261 4.855322
v 0.999999 -3.862970 3.991520
v 0.500000 -0.050000 0.009674
v -0.000000 -3.862970 3.991520
v 0.500000 -3.862970 3.991520
v 0.500000 -4.528649 2.759040
v -0.000000 -4.528649 2.759040
v 1.000000 -4.528650 2.759040
v 1.000000 -4.753230 1.317360
v 0.500000 -3.502800 0.009674
v 1.000000 -4.572001 -0.000000
v 1.000000 -3.352800 0.009674
v 1.000000 -3.502800 0.009674
v -0.000000 -3.502800 0.000000
v 0.000000 -4.753230 1.317360
v 0.500000 -4.753230 1.317360
v 0.000000 0.000000 -0.000000
v 0.499999 -2.698261 4.855322
v -0.000000 -1.349670 5.388243
v 0.999999 -1.349670 5.388243
v 0.499999 -1.349670 5.388243
v -0.000000 -0.135315 5.527939
v 0.999999 -0.135315 5.527939
v 0.499999 -0.135315 5.527939
v -0.000000 0.000000 5.527939
vt 0.998999 0.096239
vt 0.953382 0.189475
vt 0.998999 0.189475
vt 0.189475 0.998999
vt 0.096239 0.953382
vt 0.096239 0.998999
vt 0.094237 0.953382
vt 0.001001 0.998999
vt 0.094237 0.998999
vt 0.953382 0.286715
vt 0.998999 0.379951
vt 0.998999 0.286715
vt 0.998999 0.001001
vt 0.953382 0.094237
vt 0.998999 0.094237
vt 0.953382 0.096239
vt 0.189475 0.953382
vt 0.001001 0.953382
vt 0.953382 0.379951
vt 0.953382 0.001001
vt 0.001001 0.475189
vt 0.379951 0.381953
vt 0.001001 0.381953
vt 0.858144 0.381953
vt 0.951380 0.570428
vt 0.951380 0.381953
vt 0.951380 0.856142
vt 0.762906 0.762906
vt 0.762906 0.856142
vt 0.856142 0.001001
vt 0.762906 0.379951
vt 0.856142 0.379951
vt 0.189475 0.951380
vt 0.001001 0.858144
vt 0.001001 0.951380
vt 0.856142 0.760904
vt 0.762906 0.572430
vt 0.762906 0.760904
vt 0.190476 0.665666
vt 0.187651 0.572430
vt 0.193302 0.572430
vt 0.379951 0.475189
vt 0.858144 0.570428
vt 0.951380 0.762906
vt 0.762906 0.001001
vt 0.189475 0.858144
vt 0.856142 0.572430
vt 0.379951 0.572430
vt 0.379951 0.665666
vt 0.001001 0.665666
vt 0.001001 0.572430
vt 0.858144 0.572430
vt 0.951380 0.760904
vt 0.951380 0.572430
vt 0.379951 0.477191
vt 0.001001 0.570428
vt 0.379951 0.570428
vt 0.284713 0.001001
vt 0.191477 0.379951
vt 0.284713 0.379951
vt 0.760904 0.858144
vt 0.572430 0.951380
vt 0.760904 0.951380
vt 0.667668 0.001001
vt 0.760904 0.379951
vt 0.760904 0.001001
vt 0.381953 0.381953
vt 0.475189 0.760904
vt 0.475189 0.381953
vt 0.665666 0.379951
vt 0.286715 0.286715
vt 0.286715 0.379951
vt 0.570428 0.381953
vt 0.477191 0.760904
vt 0.570428 0.760904
vt 0.379951 0.760904
vt 0.001001 0.667668
vt 0.001001 0.760904
vt 0.572430 0.381953
vt 0.665666 0.760904
vt 0.665666 0.381953
vt 0.951380 0.951380
vt 0.762906 0.858144
vt 0.762906 0.951380
vt 0.762906 0.381953
vt 0.856142 0.570428
vt 0.856142 0.381953
vt 0.379951 0.951380
vt 0.191477 0.858144
vt 0.191477 0.951380
vt 0.760904 0.760904
vt 0.667668 0.381953
vt 0.667668 0.760904
vt 0.381953 0.856142
vt 0.760904 0.762906
vt 0.381953 0.762906
vt 0.951380 0.191477
vt 0.858144 0.379951
vt 0.951380 0.379951
vt 0.665666 0.284713
vt 0.286715 0.191477
vt 0.286715 0.284713
vt 0.286715 0.094237
vt 0.665666 0.001001
vt 0.286715 0.001001
vt 0.189475 0.001001
vt 0.096239 0.379951
vt 0.189475 0.379951
vt 0.001001 0.856142
vt 0.379951 0.762906
vt 0.001001 0.762906
vt 0.094237 0.379951
vt 0.001001 0.001001
vt 0.001001 0.379951
vt 0.665666 0.189475
vt 0.286715 0.096239
vt 0.286715 0.189475
vt 0.951380 0.189475
vt 0.858144 0.001001
vt 0.858144 0.189475
vt 0.381953 0.951380
vt 0.570428 0.858144
vt 0.381953 0.858144
vt 0.953382 0.284713
vt 0.953382 0.191477
vt 0.976190 0.191477
vt 0.284713 0.998999
vt 0.191477 0.953382
vt 0.191477 0.998999
vt 0.858144 0.760904
vt 0.001001 0.477191
vt 0.191477 0.001001
vt 0.572430 0.858144
vt 0.667668 0.379951
vt 0.381953 0.760904
vt 0.665666 0.286715
vt 0.477191 0.381953
vt 0.379951 0.667668
vt 0.572430 0.760904
vt 0.951380 0.858144
vt 0.762906 0.570428
vt 0.379951 0.858144
vt 0.760904 0.381953
vt 0.760904 0.856142
vt 0.858144 0.191477
vt 0.665666 0.191477
vt 0.665666 0.094237
vt 0.096239 0.001001
vt 0.379951 0.856142
vt 0.094237 0.001001
vt 0.665666 0.096239
vt 0.951380 0.001001
vt 0.570428 0.951380
vt 0.998999 0.191477
vt 0.998999 0.284713
vt 0.284713 0.953382
vn 0.0000 0.0000 1.0000
vn -0.0193 0.0000 0.9998
vn -0.0000 0.0090 1.0000
vn -0.0193 0.0090 0.9998
vn -0.0000 -0.0090 1.0000
vn -0.0193 -0.0090 0.9998
vn 0.0000 -0.9907 0.1363
vn 0.0000 -0.9881 -0.1539
vn 0.0000 -0.8799 -0.4752
vn 0.0000 -0.5957 -0.8032
vn 0.0000 -0.3675 -0.9300
vn -0.0000 -0.1143 -0.9934
vn 0.0000 0.9907 0.1363
vn 0.0000 0.9881 -0.1539
vn 0.0000 0.8799 -0.4752
vn 0.0000 0.5957 -0.8032
vn 0.0000 0.3675 -0.9300
vn 0.0000 0.1143 -0.9934
vn 0.0000 0.0000 -1.0000
s off
f 16/1/1 18/2/1 19/3/1
f 20/4/2 1/5/2 16/6/2
f 47/7/1 45/8/1 48/9/1
f 30/10/2 49/11/2 45/12/2
f 9/13/1 32/14/1 3/15/1
f 16/1/1 1/16/1 18/2/1
f 20/4/2 5/17/2 1/5/2
f 47/7/1 30/18/1 45/8/1
f 30/10/2 34/19/2 49/11/2
f 9/13/1 38/20/1 32/14/1
f 1/21/1 3/22/1 18/23/1
f 2/24/3 19/25/3 17/26/3
f 2/27/4 20/28/4 16/29/4
f 30/30/1 32/31/1 38/32/1
f 48/33/5 31/34/5 46/35/5
f 31/36/1 49/37/1 33/38/1
f 52/39/2 38/40/2 9/41/2
f 1/21/1 9/42/1 3/22/1
f 2/24/3 16/43/3 19/25/3
f 2/27/1 4/44/1 20/28/1
f 30/30/1 47/45/1 32/31/1
f 48/33/5 45/46/5 31/34/5
f 31/36/6 45/47/6 49/37/6
f 9/41/2 1/48/2 5/49/2
f 52/39/2 34/50/2 38/40/2
f 34/50/2 30/51/2 38/40/2
f 9/41/2 5/49/2 52/39/2
f 2/52/7 21/53/7 4/54/7
f 15/55/8 12/56/8 22/57/8
f 12/58/9 8/59/9 11/60/9
f 17/61/7 22/62/7 2/63/7
f 11/64/10 6/65/10 10/66/10
f 22/67/8 13/68/8 21/69/8
f 13/70/9 11/71/9 10/72/9
f 11/73/10 7/74/10 23/75/10
f 23/76/11 25/77/11 26/78/11
f 23/79/11 24/80/11 6/81/11
f 26/82/12 28/83/12 29/84/12
f 26/85/12 27/86/12 24/87/12
f 50/88/13 31/89/13 33/90/13
f 51/91/14 43/92/14 44/93/14
f 41/94/15 37/95/15 43/96/15
f 51/97/13 46/98/13 31/99/13
f 35/100/16 40/101/16 39/102/16
f 50/103/14 41/104/14 51/105/14
f 39/106/15 41/107/15 42/108/15
f 40/109/16 36/110/16 37/111/16
f 53/112/17 55/113/17 36/114/17
f 54/115/17 53/116/17 35/117/17
f 56/118/18 58/119/18 55/120/18
f 54/121/18 59/122/18 56/123/18
f 59/124/19 57/125/19 60/126/19
f 28/127/19 59/128/19 29/129/19
f 2/52/7 22/130/7 21/53/7
f 15/55/8 14/131/8 12/56/8
f 12/58/9 14/132/9 8/59/9
f 17/61/7 15/133/7 22/62/7
f 11/64/10 23/134/10 6/65/10
f 22/67/8 12/135/8 13/68/8
f 13/70/9 12/136/9 11/71/9
f 11/73/10 8/137/10 7/74/10
f 23/76/11 7/138/11 25/77/11
f 23/79/11 26/139/11 24/80/11
f 26/82/12 25/140/12 28/83/12
f 26/85/12 29/141/12 27/86/12
f 50/88/13 51/142/13 31/89/13
f 51/91/14 41/143/14 43/92/14
f 41/94/15 40/144/15 37/95/15
f 51/97/13 44/145/13 46/98/13
f 35/100/16 53/146/16 40/101/16
f 50/103/14 42/147/14 41/104/14
f 39/106/15 40/148/15 41/107/15
f 40/109/16 53/149/16 36/110/16
f 53/112/17 56/150/17 55/113/17
f 54/115/17 56/151/17 53/116/17
f 56/118/18 59/152/18 58/119/18
f 54/121/18 57/153/18 59/122/18
f 27/154/19 29/155/19 60/126/19
f 29/155/19 59/124/19 60/126/19
f 28/127/19 58/156/19 59/128/19
