# Blender v2.80 (sub 75) OBJ File: 'tunnel.blend'
# www.blender.org
o Plane
v 0.000000 0.009674 -4.596998
v 4.500000 0.009674 -3.527803
v 3.000000 0.009674 -3.527803
v 3.000000 0.009674 -4.596998
v 1.500000 0.009674 -3.527803
v 0.000000 0.009674 -3.527803
v 0.000000 0.009674 -0.074998
v 1.500000 0.009674 -3.377803
v 1.500000 0.009674 -0.074998
v 4.500000 0.009674 -0.074998
v 4.500000 0.009674 -3.377803
v 3.000000 0.009674 -0.074998
v 0.000000 0.009674 -3.377802
v 1.500000 0.009674 -4.596998
v 4.500000 0.009674 -4.596998
v 3.000000 0.009674 -3.377802
v 2.999999 5.388246 -1.349673
v -0.000001 5.388246 -1.349673
v -0.000001 4.855324 -2.698264
v 2.999999 4.855324 -2.698264
v 1.500000 4.855324 -2.698264
v 4.500000 4.855324 -2.698264
v 4.500000 3.991521 -3.862973
v 1.500000 3.991521 -3.862973
v 2.999999 3.991521 -3.862973
v -0.000001 3.991521 -3.862973
v 4.500000 5.388246 -1.349673
v 1.499999 5.388246 -1.349673
v -0.000000 2.759037 -4.528645
v 3.000000 2.759037 -4.528645
v 1.500000 2.759037 -4.528645
v 4.500000 2.759037 -4.528645
v 4.500000 1.317362 -4.753233
v 1.500000 1.317362 -4.753233
v 3.000000 1.317362 -4.753233
v -0.000000 1.317362 -4.753233
v 4.500000 5.527944 -0.135315
v 2.390947 5.527944 -0.040300
v -0.000001 5.527944 -0.135314
v 2.109051 5.527944 -0.040300
v 0.000000 0.009674 4.596998
v 4.500000 0.009674 3.527803
v 3.000000 0.009674 3.527803
v 3.000000 0.009674 4.596998
v 1.500000 0.009674 3.527803
v 0.000000 0.009674 3.527803
v 0.000000 0.009674 0.074998
v 1.500000 0.009674 3.377803
v 1.500000 0.009674 0.074998
v 4.500000 0.009674 0.074998
v 4.500000 0.009674 3.377803
v 3.000000 0.009674 0.074998
v 0.000000 0.009674 3.377802
v 1.500000 0.009674 4.596998
v 4.500000 0.009674 4.596998
v 3.000000 0.009674 3.377802
v 2.999999 5.388246 1.349673
v -0.000001 5.388246 1.349673
v -0.000001 4.855324 2.698264
v 2.999999 4.855324 2.698264
v 1.500000 4.855324 2.698264
v 4.500000 4.855324 2.698264
v 4.500000 3.991521 3.862973
v 1.500000 3.991521 3.862973
v 2.999999 3.991521 3.862973
v -0.000001 3.991521 3.862973
v 4.500000 5.388246 1.349673
v 1.499999 5.388246 1.349673
v -0.000000 2.759037 4.528645
v 3.000000 2.759037 4.528645
v 1.500000 2.759037 4.528645
v 4.500000 2.759037 4.528645
v 4.500000 1.317362 4.753233
v 1.500000 1.317362 4.753233
v 3.000000 1.317362 4.753233
v -0.000000 1.317362 4.753233
v 4.500000 5.527944 0.135315
v 2.390947 5.527944 0.040300
v -0.000001 5.527944 0.135314
v 2.109051 5.527944 0.040300
v 2.999999 5.527944 -0.135315
v 1.499999 5.527944 -0.135314
v 2.999999 5.527944 0.135315
v 1.499999 5.527944 0.135314
v 2.390947 5.494976 -0.040300
v 2.109051 5.494976 -0.040300
v 2.390947 5.494976 0.040300
v 2.109051 5.494976 0.040300
v 2.520190 5.486404 -0.077253
v 1.979808 5.486404 -0.077253
v 2.520190 5.486404 0.077253
v 1.979808 5.486404 0.077253
v 2.520190 5.440949 -0.077253
v 1.979808 5.440949 -0.077253
v 2.520190 5.440949 0.077253
v 1.979808 5.440949 0.077253
vt 0.920874 0.563501
vt 0.907251 0.686499
vt 0.920874 0.686499
vt 0.873999 0.876001
vt 0.751001 0.889624
vt 0.873999 0.889624
vt 0.907251 0.376001
vt 0.920874 0.498999
vt 0.920874 0.376001
vt 0.891626 0.688501
vt 0.905249 0.811499
vt 0.905249 0.688501
vt 0.748999 0.905249
vt 0.626001 0.891626
vt 0.626001 0.905249
vt 0.889624 0.563501
vt 0.876001 0.686499
vt 0.889624 0.686499
vt 0.876001 0.688501
vt 0.889624 0.811499
vt 0.889624 0.688501
vt 0.876001 0.876001
vt 0.889624 0.889624
vt 0.889624 0.876001
vt 0.889624 0.860376
vt 0.883814 0.873999
vt 0.889624 0.873999
vt 0.751001 0.905249
vt 0.780249 0.891626
vt 0.751001 0.891626
vt 0.876001 0.844751
vt 0.889624 0.858374
vt 0.889624 0.844751
vt 0.905249 0.813501
vt 0.891626 0.842749
vt 0.905249 0.842749
vt 0.920874 0.501001
vt 0.907251 0.561499
vt 0.920874 0.561499
vt 0.889624 0.501001
vt 0.883814 0.561499
vt 0.889624 0.561499
vt 0.881811 0.860376
vt 0.876001 0.873999
vt 0.881811 0.873999
vt 0.881811 0.501001
vt 0.876001 0.561499
vt 0.881811 0.561499
vt 0.907251 0.563501
vt 0.751001 0.876001
vt 0.907251 0.498999
vt 0.891626 0.811499
vt 0.748999 0.891626
vt 0.876001 0.563501
vt 0.876001 0.811499
vt 0.876001 0.889624
vt 0.883814 0.860376
vt 0.780249 0.905249
vt 0.876001 0.858374
vt 0.891626 0.813501
vt 0.907251 0.501001
vt 0.883814 0.501001
vt 0.876001 0.860376
vt 0.876001 0.501001
vt 0.001001 0.373999
vt 0.248999 0.251001
vt 0.001001 0.251001
vt 0.498999 0.001001
vt 0.376001 0.248999
vt 0.498999 0.248999
vt 0.248999 0.376001
vt 0.001001 0.498999
vt 0.248999 0.498999
vt 0.251001 0.251001
vt 0.373999 0.373999
vt 0.373999 0.251001
vt 0.251001 0.376001
vt 0.373999 0.498999
vt 0.373999 0.376001
vt 0.376001 0.251001
vt 0.498999 0.373999
vt 0.498999 0.251001
vt 0.248999 0.248999
vt 0.001001 0.126001
vt 0.001001 0.248999
vt 0.373999 0.248999
vt 0.251001 0.001001
vt 0.251001 0.248999
vt 0.248999 0.123999
vt 0.001001 0.001001
vt 0.001001 0.123999
vt 0.751001 0.126001
vt 0.873999 0.248999
vt 0.873999 0.126001
vt 0.126001 0.751001
vt 0.248999 0.873999
vt 0.248999 0.751001
vt 0.751001 0.251001
vt 0.873999 0.373999
vt 0.873999 0.251001
vt 0.748999 0.876001
vt 0.626001 0.889624
vt 0.748999 0.889624
vt 0.905249 0.563501
vt 0.891626 0.686499
vt 0.905249 0.686499
vt 0.790064 0.891626
vt 0.795874 0.897436
vt 0.795874 0.891626
vt 0.889624 0.813501
vt 0.883814 0.842749
vt 0.889624 0.842749
vt 0.782251 0.891626
vt 0.788061 0.897436
vt 0.788061 0.891626
vt 0.881811 0.813501
vt 0.876001 0.842749
vt 0.881811 0.842749
vt 0.248999 0.373999
vt 0.376001 0.001001
vt 0.001001 0.376001
vt 0.251001 0.373999
vt 0.251001 0.498999
vt 0.376001 0.373999
vt 0.248999 0.126001
vt 0.373999 0.001001
vt 0.248999 0.001001
vt 0.751001 0.248999
vt 0.126001 0.873999
vt 0.751001 0.373999
vt 0.626001 0.876001
vt 0.891626 0.563501
vt 0.790064 0.897436
vt 0.883814 0.813501
vt 0.782251 0.897436
vt 0.876001 0.813501
vt 0.498999 0.376001
vt 0.376001 0.498999
vt 0.498999 0.498999
vt 0.123999 0.501001
vt 0.001001 0.623999
vt 0.123999 0.623999
vt 0.501001 0.001001
vt 0.623999 0.123999
vt 0.623999 0.001001
vt 0.501001 0.126001
vt 0.623999 0.248999
vt 0.623999 0.126001
vt 0.126001 0.501001
vt 0.248999 0.623999
vt 0.248999 0.501001
vt 0.373999 0.501001
vt 0.251001 0.623999
vt 0.373999 0.623999
vt 0.623999 0.251001
vt 0.501001 0.373999
vt 0.623999 0.373999
vt 0.751001 0.001001
vt 0.873999 0.123999
vt 0.873999 0.001001
vt 0.498999 0.501001
vt 0.376001 0.623999
vt 0.498999 0.623999
vt 0.623999 0.501001
vt 0.501001 0.623999
vt 0.623999 0.623999
vt 0.626001 0.001001
vt 0.748999 0.123999
vt 0.748999 0.001001
vt 0.123999 0.626001
vt 0.001001 0.748999
vt 0.123999 0.748999
vt 0.248999 0.626001
vt 0.126001 0.748999
vt 0.248999 0.748999
vt 0.626001 0.126001
vt 0.748999 0.248999
vt 0.748999 0.126001
vt 0.373999 0.626001
vt 0.251001 0.748999
vt 0.373999 0.748999
vt 0.748999 0.251001
vt 0.626001 0.373999
vt 0.748999 0.373999
vt 0.376001 0.626001
vt 0.498999 0.748999
vt 0.498999 0.626001
vt 0.748999 0.376001
vt 0.626001 0.498999
vt 0.748999 0.498999
vt 0.498999 0.751001
vt 0.376001 0.873999
vt 0.498999 0.873999
vt 0.873999 0.376001
vt 0.751001 0.498999
vt 0.873999 0.498999
vt 0.873999 0.501001
vt 0.751001 0.623999
vt 0.873999 0.623999
vt 0.501001 0.751001
vt 0.623999 0.873999
vt 0.623999 0.751001
vt 0.626001 0.751001
vt 0.748999 0.873999
vt 0.748999 0.751001
vt 0.873999 0.626001
vt 0.751001 0.748999
vt 0.873999 0.748999
vt 0.873999 0.751001
vt 0.751001 0.873999
vt 0.873999 0.873999
vt 0.876001 0.001001
vt 0.998999 0.123999
vt 0.998999 0.001001
vt 0.123999 0.876001
vt 0.001001 0.998999
vt 0.123999 0.998999
vt 0.248999 0.876001
vt 0.126001 0.998999
vt 0.248999 0.998999
vt 0.876001 0.126001
vt 0.998999 0.248999
vt 0.998999 0.126001
vt 0.373999 0.751001
vt 0.251001 0.873999
vt 0.373999 0.873999
vt 0.623999 0.626001
vt 0.501001 0.748999
vt 0.623999 0.748999
vt 0.626001 0.501001
vt 0.748999 0.623999
vt 0.748999 0.501001
vt 0.623999 0.376001
vt 0.501001 0.498999
vt 0.623999 0.498999
vt 0.123999 0.751001
vt 0.001001 0.873999
vt 0.123999 0.873999
vt 0.251001 0.876001
vt 0.373999 0.998999
vt 0.373999 0.876001
vt 0.626001 0.626001
vt 0.748999 0.748999
vt 0.748999 0.626001
vt 0.623999 0.905249
vt 0.501001 0.876001
vt 0.501001 0.905249
vt 0.905249 0.376001
vt 0.876001 0.498999
vt 0.905249 0.498999
vt 0.376001 0.936499
vt 0.498999 0.876001
vt 0.376001 0.876001
vt 0.936499 0.251001
vt 0.876001 0.373999
vt 0.936499 0.373999
vt 0.891626 0.501001
vt 0.905249 0.561499
vt 0.905249 0.501001
vt 0.936499 0.501001
vt 0.922876 0.561499
vt 0.936499 0.561499
vt 0.376001 0.376001
vt 0.001001 0.501001
vt 0.501001 0.123999
vt 0.501001 0.248999
vt 0.126001 0.623999
vt 0.251001 0.501001
vt 0.501001 0.251001
vt 0.751001 0.123999
vt 0.376001 0.501001
vt 0.501001 0.501001
vt 0.626001 0.123999
vt 0.001001 0.626001
vt 0.126001 0.626001
vt 0.626001 0.248999
vt 0.251001 0.626001
vt 0.626001 0.251001
vt 0.376001 0.748999
vt 0.626001 0.376001
vt 0.376001 0.751001
vt 0.751001 0.376001
vt 0.751001 0.501001
vt 0.501001 0.873999
vt 0.626001 0.873999
vt 0.751001 0.626001
vt 0.751001 0.751001
vt 0.876001 0.123999
vt 0.001001 0.876001
vt 0.126001 0.876001
vt 0.876001 0.248999
vt 0.251001 0.751001
vt 0.501001 0.626001
vt 0.626001 0.623999
vt 0.501001 0.376001
vt 0.001001 0.751001
vt 0.251001 0.998999
vt 0.626001 0.748999
vt 0.623999 0.876001
vt 0.876001 0.376001
vt 0.498999 0.936499
vt 0.876001 0.251001
vt 0.891626 0.561499
vt 0.922876 0.501001
vn 0.0000 1.0000 0.0000
vn 0.0662 0.9978 0.0000
vn -1.0000 0.0000 0.0000
vn -0.0000 0.9741 -0.2260
vn -0.0662 0.9978 0.0000
vn -0.0000 0.9741 0.2260
vn 0.0000 -1.0000 0.0000
vn -0.0000 0.0000 1.0000
vn 1.0000 0.0000 0.0000
vn -0.0000 0.0000 -1.0000
vn 0.0000 -0.8032 0.5957
vn 0.0000 -0.4752 0.8799
vn 0.0000 0.1186 0.9929
vn 0.0000 -0.9934 0.1143
vn 0.0000 -0.1539 0.9881
vn 0.0000 -0.9300 0.3675
vn 0.0000 -0.8032 -0.5957
vn 0.0000 -0.4752 -0.8799
vn 0.0000 0.1186 -0.9929
vn 0.0000 -0.9934 -0.1143
vn 0.0000 -0.1539 -0.9881
vn 0.0000 -0.9300 -0.3675
s off
f 6/1/1 8/2/1 5/3/1
f 8/4/1 3/5/1 5/6/1
f 16/7/1 2/8/1 3/9/1
f 48/10/1 46/11/1 45/12/1
f 43/13/1 48/14/1 45/15/1
f 42/16/1 56/17/1 43/18/1
f 49/19/1 12/20/1 9/21/1
f 87/22/2 89/23/2 85/24/2
f 90/25/3 96/26/3 92/27/3
f 86/28/4 89/29/4 90/30/4
f 86/31/5 92/32/5 88/33/5
f 88/34/6 91/35/6 87/36/6
f 93/37/7 96/38/7 94/39/7
f 92/40/8 95/41/8 91/42/8
f 91/43/9 93/44/9 89/45/9
f 89/46/10 94/47/10 90/48/10
f 6/1/1 13/49/1 8/2/1
f 8/4/1 16/50/1 3/5/1
f 16/7/1 11/51/1 2/8/1
f 48/10/1 53/52/1 46/11/1
f 43/13/1 56/53/1 48/14/1
f 42/16/1 51/54/1 56/17/1
f 49/19/1 52/55/1 12/20/1
f 87/22/2 91/56/2 89/23/2
f 90/25/3 94/57/3 96/26/3
f 86/28/4 85/58/4 89/29/4
f 86/31/5 90/59/5 92/32/5
f 88/34/6 92/60/6 91/35/6
f 93/37/7 95/61/7 96/38/7
f 92/40/8 96/62/8 95/41/8
f 91/43/9 95/63/9 93/44/9
f 89/46/10 93/64/10 94/47/10
f 13/65/1 9/66/1 8/67/1
f 16/68/1 9/69/1 12/70/1
f 16/71/1 10/72/1 11/73/1
f 1/74/1 5/75/1 14/76/1
f 5/77/1 4/78/1 14/79/1
f 3/80/1 15/81/1 4/82/1
f 53/83/1 49/84/1 47/85/1
f 56/86/1 49/87/1 48/88/1
f 50/89/1 56/90/1 51/91/1
f 45/92/1 41/93/1 54/94/1
f 44/95/1 45/96/1 54/97/1
f 55/98/1 43/99/1 44/100/1
f 52/101/1 10/102/1 12/103/1
f 7/104/1 49/105/1 9/106/1
f 40/107/3 88/108/3 80/109/3
f 80/110/8 87/111/8 78/112/8
f 78/113/9 85/114/9 38/115/9
f 38/116/10 86/117/10 40/118/10
f 13/65/1 7/119/1 9/66/1
f 16/68/1 8/120/1 9/69/1
f 16/71/1 12/121/1 10/72/1
f 1/74/1 6/122/1 5/75/1
f 5/77/1 3/123/1 4/78/1
f 3/80/1 2/124/1 15/81/1
f 53/83/1 48/125/1 49/84/1
f 56/86/1 52/126/1 49/87/1
f 50/89/1 52/127/1 56/90/1
f 45/92/1 46/128/1 41/93/1
f 44/95/1 43/129/1 45/96/1
f 55/98/1 42/130/1 43/99/1
f 52/101/1 50/131/1 10/102/1
f 7/104/1 47/132/1 49/105/1
f 40/107/3 86/133/3 88/108/3
f 80/110/8 88/134/8 87/111/8
f 78/113/9 87/135/9 85/114/9
f 38/116/10 85/136/10 86/117/10
f 24/137/11 20/138/11 21/139/11
f 31/140/12 25/141/12 24/142/12
f 14/143/13 36/144/13 1/145/13
f 24/146/11 19/147/11 26/148/11
f 17/149/14 82/150/14 28/151/14
f 35/152/15 32/153/15 30/154/15
f 29/155/12 24/156/12 26/157/12
f 32/158/12 25/159/12 30/160/12
f 17/161/14 37/162/14 81/163/14
f 19/164/16 28/165/16 18/166/16
f 23/167/11 20/168/11 25/169/11
f 21/170/16 17/171/16 28/172/16
f 20/173/16 27/174/16 17/175/16
f 34/176/15 29/177/15 36/178/15
f 14/179/13 35/180/13 34/181/13
f 4/182/13 33/183/13 35/184/13
f 28/185/14 39/186/14 18/187/14
f 34/188/15 30/189/15 31/190/15
f 64/191/17 60/192/17 65/193/17
f 71/194/18 65/195/18 70/196/18
f 41/197/19 74/198/19 54/199/19
f 59/200/17 64/201/17 66/202/17
f 84/203/20 57/204/20 68/205/20
f 75/206/21 72/207/21 73/208/21
f 69/209/18 64/210/18 71/211/18
f 65/212/18 72/213/18 70/214/18
f 57/215/20 77/216/20 67/217/20
f 59/218/22 68/219/22 61/220/22
f 60/221/17 63/222/17 65/223/17
f 61/224/22 57/225/22 60/226/22
f 60/227/22 67/228/22 62/229/22
f 69/230/21 74/231/21 76/232/21
f 54/233/19 75/234/19 44/235/19
f 44/236/19 73/237/19 55/238/19
f 79/239/20 68/240/20 58/241/20
f 71/242/21 75/243/21 74/244/21
f 82/245/7 79/246/7 39/247/7
f 37/248/7 83/249/7 81/250/7
f 38/251/7 82/252/7 81/253/7
f 78/254/7 84/255/7 80/256/7
f 38/257/7 83/258/7 78/259/7
f 40/260/7 84/261/7 82/262/7
f 24/137/11 25/263/11 20/138/11
f 31/140/12 30/264/12 25/141/12
f 14/143/13 34/265/13 36/144/13
f 24/146/11 21/266/11 19/147/11
f 17/149/14 81/267/14 82/150/14
f 35/152/15 33/268/15 32/153/15
f 29/155/12 31/269/12 24/156/12
f 32/158/12 23/270/12 25/159/12
f 17/161/14 27/271/14 37/162/14
f 19/164/16 21/272/16 28/165/16
f 23/167/11 22/273/11 20/168/11
f 21/170/16 20/274/16 17/171/16
f 20/173/16 22/275/16 27/174/16
f 34/176/15 31/276/15 29/177/15
f 14/179/13 4/277/13 35/180/13
f 4/182/13 15/278/13 33/183/13
f 28/185/14 82/279/14 39/186/14
f 34/188/15 35/280/15 30/189/15
f 64/191/17 61/281/17 60/192/17
f 71/194/18 64/282/18 65/195/18
f 41/197/19 76/283/19 74/198/19
f 59/200/17 61/284/17 64/201/17
f 84/203/20 83/285/20 57/204/20
f 75/206/21 70/286/21 72/207/21
f 69/209/18 66/287/18 64/210/18
f 65/212/18 63/288/18 72/213/18
f 57/215/20 83/289/20 77/216/20
f 59/218/22 58/290/22 68/219/22
f 60/221/17 62/291/17 63/222/17
f 61/224/22 68/292/22 57/225/22
f 60/227/22 57/293/22 67/228/22
f 69/230/21 71/294/21 74/231/21
f 54/233/19 74/295/19 75/234/19
f 44/236/19 75/296/19 73/237/19
f 79/239/20 84/297/20 68/240/20
f 71/242/21 70/298/21 75/243/21
f 82/245/7 84/299/7 79/246/7
f 37/248/7 77/300/7 83/249/7
f 38/251/7 40/301/7 82/252/7
f 78/254/7 83/302/7 84/255/7
f 38/257/7 81/303/7 83/258/7
f 40/260/7 80/304/7 84/261/7
