# Blender v2.80 (sub 75) OBJ File: 'tunnel_entrance.blend'
# www.blender.org
o Plane
v 0.000000 3.287834 4.906480
v 1.500000 -0.795069 4.906480
v -0.000000 -0.795069 4.596998
v -0.000000 1.593397 4.906480
v 1.500000 -0.795069 4.596998
v -0.000000 -0.795069 4.906480
v -0.000000 0.009674 4.906480
v 0.000000 5.527944 4.906480
v 1.500000 1.593397 4.906480
v 1.500000 0.009674 4.596998
v -0.000000 0.009674 4.596998
v 1.500000 5.527944 1.349673
v 1.500000 5.527944 2.945626
v 0.000000 4.855324 2.698264
v 0.000000 3.991521 3.862973
v 1.500000 5.527944 4.596998
v 0.000000 5.388246 1.349673
v 1.500000 3.287834 4.596998
v 0.000000 2.759037 4.528645
v -0.000000 1.317362 4.753233
v 1.500000 1.593397 4.596998
v 1.500000 5.527944 0.135314
v 1.500000 3.287834 4.906480
v 0.000000 5.527944 0.135314
v 1.500000 5.527944 4.906480
v 1.500000 0.009674 4.906480
v 0.000000 3.287834 -4.906480
v 1.500000 -0.795069 -4.906480
v -0.000000 -0.795069 -4.596998
v -0.000000 1.593397 -4.906480
v 1.500000 -0.795069 -4.596998
v -0.000000 -0.795069 -4.906480
v -0.000000 0.009674 -4.906480
v 0.000000 5.527944 -4.906480
v 1.500000 1.593397 -4.906480
v 1.500000 0.009674 -4.596998
v -0.000000 0.009674 -4.596998
v 1.500000 5.527944 -1.349673
v 1.500000 5.527944 -2.945626
v 0.000000 4.855324 -2.698264
v 0.000000 3.991521 -3.862973
v 1.500000 5.527944 -4.596998
v 0.000000 5.388246 -1.349673
v 1.500000 3.287834 -4.596998
v 0.000000 2.759037 -4.528645
v -0.000000 1.317362 -4.753233
v 1.500000 1.593397 -4.596998
v 1.500000 5.527944 -0.135314
v 1.500000 3.287834 -4.906480
v 0.000000 5.527944 -0.135314
v 1.500000 5.527944 -4.906480
v 1.500000 0.009674 -4.906480
v 0.000000 5.901805 2.945626
v 1.500000 5.901805 1.349673
v 1.500000 5.901805 2.945626
v 1.500000 5.901805 4.596998
v 1.500000 5.901805 0.135314
v 1.500000 5.901805 4.906480
v 0.000000 5.901805 1.349673
v 1.500000 5.901805 -1.349673
v 1.500000 5.901805 -2.945626
v 1.500000 5.901805 -4.596998
v 1.500000 5.901805 -0.135314
v 1.500000 5.901805 -4.906480
v 0.000000 5.901805 4.596998
v 0.000000 5.901805 0.135314
v 0.000000 5.901805 4.906480
v 0.000000 5.901805 -1.349673
v 0.000000 5.901805 -2.945626
v 0.000000 5.901805 -4.596998
v 0.000000 5.901805 -0.135314
v 0.000000 5.901805 -4.906480
vt 0.728274 0.728274
vt 0.817181 0.908090
vt 0.817181 0.728274
vt 0.362635 0.998999
vt 0.273728 0.955546
vt 0.273728 0.998999
vt 0.182819 0.001001
vt 0.362635 0.180817
vt 0.362635 0.001001
vt 0.182819 0.182819
vt 0.362635 0.362635
vt 0.362635 0.182819
vt 0.001001 0.364637
vt 0.180817 0.544454
vt 0.180817 0.364637
vt 0.910092 0.728274
vt 0.953544 0.908090
vt 0.953544 0.728274
vt 0.544454 0.182819
vt 0.364637 0.362635
vt 0.544454 0.362635
vt 0.182819 0.364637
vt 0.362635 0.544454
vt 0.362635 0.364637
vt 0.544454 0.364637
vt 0.364637 0.544454
vt 0.544454 0.544454
vt 0.001001 0.546456
vt 0.180817 0.726272
vt 0.180817 0.546456
vt 0.726272 0.001001
vt 0.546456 0.180817
vt 0.726272 0.180817
vt 0.364637 0.817181
vt 0.544454 0.728274
vt 0.364637 0.728274
vt 0.955546 0.001001
vt 0.998999 0.180817
vt 0.998999 0.001001
vt 0.726272 0.910092
vt 0.546456 0.953544
vt 0.726272 0.953544
vt 0.728274 0.546456
vt 0.817181 0.726272
vt 0.817181 0.546456
vt 0.728274 0.953544
vt 0.908090 0.910092
vt 0.728274 0.910092
vt 0.908090 0.546456
vt 0.819183 0.726272
vt 0.908090 0.726272
vt 0.544454 0.955546
vt 0.455546 0.998999
vt 0.544454 0.998999
vt 0.728274 0.182819
vt 0.908090 0.362635
vt 0.908090 0.182819
vt 0.001001 0.728274
vt 0.180817 0.908090
vt 0.180817 0.728274
vt 0.546456 0.546456
vt 0.726272 0.726272
vt 0.726272 0.546456
vt 0.908090 0.728274
vt 0.864637 0.908090
vt 0.908090 0.908090
vt 0.726272 0.364637
vt 0.546456 0.544454
vt 0.726272 0.544454
vt 0.182819 0.546456
vt 0.362635 0.726272
vt 0.362635 0.546456
vt 0.544454 0.001001
vt 0.364637 0.180817
vt 0.544454 0.180817
vt 0.182819 0.728274
vt 0.362635 0.908090
vt 0.362635 0.728274
vt 0.180817 0.001001
vt 0.001001 0.180817
vt 0.180817 0.180817
vt 0.544454 0.908090
vt 0.364637 0.819183
vt 0.364637 0.908090
vt 0.862635 0.728274
vt 0.819183 0.908090
vt 0.862635 0.908090
vt 0.726272 0.862635
vt 0.546456 0.819183
vt 0.546456 0.862635
vt 0.817181 0.364637
vt 0.728274 0.544454
vt 0.817181 0.544454
vt 0.726272 0.908090
vt 0.546456 0.864637
vt 0.546456 0.908090
vt 0.953544 0.001001
vt 0.910092 0.180817
vt 0.953544 0.180817
vt 0.180817 0.953544
vt 0.001001 0.910092
vt 0.001001 0.953544
vt 0.910092 0.182819
vt 0.953544 0.362635
vt 0.953544 0.182819
vt 0.271726 0.955546
vt 0.182819 0.998999
vt 0.271726 0.998999
vt 0.910092 0.546456
vt 0.953544 0.726272
vt 0.953544 0.546456
vt 0.453544 0.955546
vt 0.364637 0.998999
vt 0.453544 0.998999
vt 0.910092 0.910092
vt 0.953544 0.953544
vt 0.953544 0.910092
vt 0.546456 0.955546
vt 0.589908 0.998999
vt 0.589908 0.955546
vt 0.955546 0.364637
vt 0.998999 0.544454
vt 0.998999 0.364637
vt 0.955546 0.546456
vt 0.998999 0.589908
vt 0.998999 0.546456
vt 0.544454 0.910092
vt 0.364637 0.953544
vt 0.544454 0.953544
vt 0.728274 0.001001
vt 0.908090 0.180817
vt 0.908090 0.001001
vt 0.908090 0.364637
vt 0.819183 0.544454
vt 0.908090 0.544454
vt 0.364637 0.546456
vt 0.544454 0.726272
vt 0.544454 0.546456
vt 0.362635 0.953544
vt 0.182819 0.910092
vt 0.182819 0.953544
vt 0.998999 0.182819
vt 0.955546 0.362635
vt 0.998999 0.362635
vt 0.546456 0.182819
vt 0.726272 0.362635
vt 0.726272 0.182819
vt 0.726272 0.817181
vt 0.546456 0.728274
vt 0.546456 0.817181
vt 0.001001 0.182819
vt 0.180817 0.362635
vt 0.180817 0.182819
vt 0.953544 0.364637
vt 0.910092 0.544454
vt 0.953544 0.544454
vt 0.180817 0.998999
vt 0.001001 0.955546
vt 0.001001 0.998999
vt 0.728274 0.908090
vt 0.362635 0.955546
vt 0.182819 0.180817
vt 0.182819 0.362635
vt 0.001001 0.544454
vt 0.910092 0.908090
vt 0.364637 0.182819
vt 0.182819 0.544454
vt 0.364637 0.364637
vt 0.001001 0.726272
vt 0.546456 0.001001
vt 0.544454 0.817181
vt 0.955546 0.180817
vt 0.546456 0.910092
vt 0.728274 0.726272
vt 0.908090 0.953544
vt 0.819183 0.546456
vt 0.455546 0.955546
vt 0.728274 0.362635
vt 0.001001 0.908090
vt 0.546456 0.726272
vt 0.864637 0.728274
vt 0.546456 0.364637
vt 0.182819 0.726272
vt 0.364637 0.001001
vt 0.182819 0.908090
vt 0.001001 0.001001
vt 0.544454 0.819183
vt 0.819183 0.728274
vt 0.726272 0.819183
vt 0.728274 0.364637
vt 0.726272 0.864637
vt 0.910092 0.001001
vt 0.180817 0.910092
vt 0.910092 0.362635
vt 0.182819 0.955546
vt 0.910092 0.726272
vt 0.364637 0.955546
vt 0.910092 0.953544
vt 0.546456 0.998999
vt 0.955546 0.544454
vt 0.955546 0.589908
vt 0.364637 0.910092
vt 0.728274 0.180817
vt 0.819183 0.364637
vt 0.364637 0.726272
vt 0.362635 0.910092
vt 0.955546 0.182819
vt 0.546456 0.362635
vt 0.726272 0.728274
vt 0.001001 0.362635
vt 0.910092 0.364637
vt 0.180817 0.955546
vn 0.0000 0.0000 -1.0000
vn 1.0000 0.0000 0.0000
vn 0.0000 0.0000 1.0000
vn -0.1036 0.0000 -0.9946
vn 0.7155 -0.6986 0.0000
vn 0.4395 -0.0000 -0.8982
vn 0.4092 -0.9125 -0.0000
vn 0.0455 -0.0000 -0.9990
vn 0.0000 -1.0000 0.0000
vn 0.0000 0.1186 0.9929
vn 0.2033 -0.4653 0.8615
vn -0.0744 -0.1535 0.9853
vn 0.0921 -0.9892 0.1138
vn 0.0000 1.0000 0.0000
vn 0.0000 0.1186 -0.9929
vn 0.4167 -0.7301 -0.5415
vn 0.2033 -0.4653 -0.8615
vn 0.0863 -0.9265 -0.3661
vn -0.0744 -0.1535 -0.9853
vn 0.0921 -0.9892 -0.1138
vn -0.1036 0.0000 0.9946
vn 0.4167 -0.7301 0.5415
vn 0.4395 -0.0000 0.8982
vn 0.0863 -0.9265 0.3661
vn 0.0455 -0.0000 0.9990
s off
f 5/1/1 11/2/1 10/3/1
f 2/4/2 10/5/2 26/6/2
f 8/7/3 23/8/3 25/9/3
f 1/10/3 9/11/3 23/12/3
f 4/13/3 26/14/3 9/15/3
f 25/16/2 18/17/2 16/18/2
f 10/19/4 20/20/4 21/21/4
f 15/22/5 13/23/5 16/24/5
f 18/25/6 15/26/6 16/27/6
f 14/28/7 12/29/7 13/30/7
f 21/31/8 19/32/8 18/33/8
f 12/34/9 24/35/9 22/36/9
f 9/37/2 10/38/2 21/39/2
f 23/40/2 21/41/2 18/42/2
f 6/43/3 26/44/3 7/45/3
f 3/46/9 2/47/9 6/48/9
f 37/49/3 31/50/3 36/51/3
f 36/52/2 28/53/2 52/54/2
f 49/55/1 34/56/1 51/57/1
f 35/58/1 27/59/1 49/60/1
f 52/61/1 30/62/1 35/63/1
f 44/64/2 51/65/2 42/66/2
f 36/67/10 46/68/10 37/69/10
f 39/70/5 41/71/5 42/72/5
f 44/73/11 41/74/11 45/75/11
f 38/76/7 40/77/7 39/78/7
f 47/79/12 45/80/12 46/81/12
f 38/82/13 50/83/13 43/84/13
f 36/85/2 35/86/2 47/87/2
f 47/88/2 49/89/2 44/90/2
f 52/91/1 32/92/1 33/93/1
f 29/94/9 28/95/9 31/96/9
f 24/97/9 48/98/9 22/99/9
f 72/100/14 62/101/14 64/102/14
f 55/103/2 16/104/2 13/105/2
f 57/106/2 12/107/2 22/108/2
f 62/109/2 39/110/2 42/111/2
f 60/112/2 48/113/2 38/114/2
f 63/115/2 22/116/2 48/117/2
f 56/118/2 25/119/2 16/120/2
f 54/121/2 13/122/2 12/123/2
f 64/124/2 42/125/2 51/126/2
f 61/127/2 38/128/2 39/129/2
f 53/130/14 56/131/14 55/132/14
f 68/133/14 63/134/14 60/135/14
f 59/136/14 55/137/14 54/138/14
f 71/139/14 57/140/14 63/141/14
f 65/142/14 58/143/14 56/144/14
f 70/145/14 61/146/14 62/147/14
f 66/148/14 54/149/14 57/150/14
f 69/151/14 60/152/14 61/153/14
f 25/154/3 67/155/3 8/156/3
f 34/157/1 64/158/1 51/159/1
f 5/1/1 3/160/1 11/2/1
f 2/4/2 5/161/2 10/5/2
f 8/7/3 1/162/3 23/8/3
f 1/10/3 4/163/3 9/11/3
f 4/13/3 7/164/3 26/14/3
f 25/16/2 23/165/2 18/17/2
f 10/19/15 11/166/15 20/20/15
f 15/22/16 14/167/16 13/23/16
f 18/25/17 19/168/17 15/26/17
f 14/28/18 17/169/18 12/29/18
f 21/31/19 20/170/19 19/32/19
f 12/34/20 17/171/20 24/35/20
f 9/37/2 26/172/2 10/38/2
f 23/40/2 9/173/2 21/41/2
f 6/43/3 2/174/3 26/44/3
f 3/46/9 5/175/9 2/47/9
f 37/49/3 29/176/3 31/50/3
f 36/52/2 31/177/2 28/53/2
f 49/55/1 27/178/1 34/56/1
f 35/58/1 30/179/1 27/59/1
f 52/61/1 33/180/1 30/62/1
f 44/64/2 49/181/2 51/65/2
f 36/67/21 47/182/21 46/68/21
f 39/70/22 40/183/22 41/71/22
f 44/73/23 42/184/23 41/74/23
f 38/76/24 43/185/24 40/77/24
f 47/79/25 44/186/25 45/80/25
f 38/82/9 48/187/9 50/83/9
f 36/85/2 52/188/2 35/86/2
f 47/88/2 35/189/2 49/89/2
f 52/91/1 28/190/1 32/92/1
f 29/94/9 32/191/9 28/95/9
f 24/97/9 50/192/9 48/98/9
f 72/100/14 70/193/14 62/101/14
f 55/103/2 56/194/2 16/104/2
f 57/106/2 54/195/2 12/107/2
f 62/109/2 61/196/2 39/110/2
f 60/112/2 63/197/2 48/113/2
f 63/115/2 57/198/2 22/116/2
f 56/118/2 58/199/2 25/119/2
f 54/121/2 55/200/2 13/122/2
f 64/124/2 62/201/2 42/125/2
f 61/127/2 60/202/2 38/128/2
f 53/130/14 65/203/14 56/131/14
f 68/133/14 71/204/14 63/134/14
f 59/136/14 53/205/14 55/137/14
f 71/139/14 66/206/14 57/140/14
f 65/142/14 67/207/14 58/143/14
f 70/145/14 69/208/14 61/146/14
f 66/148/14 59/209/14 54/149/14
f 69/151/14 68/210/14 60/152/14
f 25/154/3 58/211/3 67/155/3
f 34/157/1 72/212/1 64/158/1
