# Blender v2.93.1 OBJ File: 'road.blend'
# www.blender.org
o Plane
v 0.000000 7.999802 0.009674
v 4.500000 6.930604 0.009674
v 3.000000 6.930604 0.009674
v 3.000000 7.999802 0.009674
v 1.500000 6.930604 0.009674
v 0.000000 6.930604 0.009674
v 0.000000 0.075000 0.009674
v 1.500000 6.780604 0.009674
v 1.500000 0.075000 0.009674
v 4.500000 0.075000 0.009674
v 4.500000 6.780604 0.009674
v 3.000000 0.075000 0.009674
v 0.000000 6.780604 0.009674
v 1.500000 7.999802 0.009674
v 4.500000 7.999802 0.009674
v 3.000000 6.780603 0.009674
v 0.000000 -0.075000 0.009674
v 1.500000 -0.075000 0.009674
v 4.500000 -0.075000 0.009674
v 3.000000 -0.075000 0.009674
v 0.000000 -6.780603 0.009674
v 1.500000 -6.780603 0.009674
v 4.500000 -6.780598 0.009674
v 3.000000 -6.780598 0.009674
v 0.000000 -7.999801 0.000000
v 1.500000 -7.999802 0.000000
v 4.500000 -7.999802 0.000000
v 3.000000 -7.999802 0.000000
v 3.000000 -6.930599 0.009674
v 0.000000 -6.930599 0.009674
v 1.500000 -6.930599 0.009674
v 4.500000 -6.930599 0.009674
v 1.500000 -3.477803 0.009674
v 3.000000 -3.477803 0.009674
v 4.500000 -3.477803 0.009674
v 0.000000 -3.477803 0.009674
v 3.000000 -3.377803 0.009674
v 4.500000 -3.377803 0.009674
v 1.500000 -3.377805 0.009674
v 0.000000 -3.377805 0.009674
v 0.000000 3.477800 0.009674
v 1.500000 3.477800 0.009674
v 4.500000 3.477800 0.009674
v 3.000000 3.477799 0.009674
v 0.000000 3.377799 0.009674
v 4.500000 3.377800 0.009674
v 1.500000 3.377800 0.009674
v 3.000000 3.377799 0.009674
vt 0.498999 0.845153
vt 0.334334 0.770232
vt 0.334334 0.845153
vt 0.834334 0.770232
vt 0.915666 0.922076
vt 0.915666 0.770232
vt 0.832332 0.922076
vt 0.667668 0.847155
vt 0.667668 0.922076
vt 0.665666 0.922076
vt 0.501001 0.847155
vt 0.501001 0.922076
vt 0.998999 0.616386
vt 0.917668 0.768230
vt 0.998999 0.768230
vt 0.498999 0.922076
vt 0.334334 0.847155
vt 0.334334 0.922076
vt 0.165666 0.924078
vt 0.001001 0.998999
vt 0.165666 0.998999
vt 0.915666 0.462539
vt 0.834334 0.614384
vt 0.915666 0.614384
vt 0.665666 0.845153
vt 0.501001 0.770232
vt 0.501001 0.845153
vt 0.998999 0.462539
vt 0.917668 0.614384
vt 0.998999 0.614384
vt 0.998999 0.770232
vt 0.917668 0.922076
vt 0.998999 0.922076
vt 0.498999 0.770232
vt 0.834334 0.922076
vt 0.832332 0.847155
vt 0.665666 0.847155
vt 0.917668 0.616386
vt 0.498999 0.847155
vt 0.001001 0.924078
vt 0.834334 0.462539
vt 0.665666 0.770232
vt 0.917668 0.462539
vt 0.917668 0.770232
vt 0.498999 0.306691
vt 0.334334 0.001001
vt 0.334334 0.306691
vt 0.332332 0.614384
vt 0.001001 0.462539
vt 0.001001 0.614384
vt 0.501001 0.001001
vt 0.665666 0.306691
vt 0.665666 0.001001
vt 0.501001 0.462539
vt 0.665666 0.614384
vt 0.665666 0.462539
vt 0.501001 0.616386
vt 0.665666 0.768230
vt 0.665666 0.616386
vt 0.667668 0.616386
vt 0.832332 0.768230
vt 0.832332 0.616386
vt 0.334334 0.462539
vt 0.498999 0.768230
vt 0.498999 0.462539
vt 0.665666 0.308693
vt 0.334334 0.460537
vt 0.665666 0.460537
vt 0.667668 0.001001
vt 0.832332 0.306691
vt 0.832332 0.001001
vt 0.834334 0.001001
vt 0.998999 0.152845
vt 0.998999 0.001001
vt 0.834334 0.308693
vt 0.998999 0.460537
vt 0.998999 0.308693
vt 0.834334 0.154847
vt 0.998999 0.306691
vt 0.998999 0.154847
vt 0.915666 0.616386
vt 0.834334 0.768230
vt 0.915666 0.768230
vt 0.832332 0.845153
vt 0.667668 0.770232
vt 0.667668 0.845153
vt 0.332332 0.770232
vt 0.001001 0.922076
vt 0.332332 0.922076
vt 0.667668 0.308693
vt 0.832332 0.614384
vt 0.832332 0.308693
vt 0.332332 0.616386
vt 0.001001 0.768230
vt 0.332332 0.768230
vt 0.167668 0.001001
vt 0.332332 0.306691
vt 0.332332 0.001001
vt 0.332332 0.460537
vt 0.001001 0.308693
vt 0.001001 0.460537
vt 0.165666 0.001001
vt 0.001001 0.306691
vt 0.165666 0.306691
vt 0.332332 0.998999
vt 0.167668 0.924078
vt 0.167668 0.998999
vt 0.498999 0.924078
vt 0.334334 0.998999
vt 0.498999 0.998999
vt 0.498999 0.001001
vt 0.332332 0.462539
vt 0.501001 0.306691
vt 0.501001 0.614384
vt 0.501001 0.768230
vt 0.667668 0.768230
vt 0.334334 0.768230
vt 0.334334 0.308693
vt 0.667668 0.306691
vt 0.834334 0.152845
vt 0.834334 0.460537
vt 0.834334 0.306691
vt 0.834334 0.616386
vt 0.832332 0.770232
vt 0.001001 0.770232
vt 0.667668 0.614384
vt 0.001001 0.616386
vt 0.167668 0.306691
vt 0.332332 0.308693
vt 0.001001 0.001001
vt 0.332332 0.924078
vt 0.334334 0.924078
vn 0.0000 0.0000 1.0000
vn 0.0000 -0.0090 1.0000
s off
f 6/1/1 8/2/1 5/3/1
f 8/4/1 3/5/1 5/6/1
f 3/7/1 11/8/1 2/9/1
f 9/10/1 20/11/1 12/12/1
f 12/13/1 19/14/1 10/15/1
f 7/16/1 18/17/1 9/18/1
f 22/19/1 30/20/1 31/21/1
f 22/22/1 29/23/1 24/24/1
f 32/25/1 24/26/1 29/27/1
f 39/28/1 34/29/1 37/30/1
f 42/31/1 48/32/1 44/33/1
f 6/1/1 13/34/1 8/2/1
f 8/4/1 16/35/1 3/5/1
f 3/7/1 16/36/1 11/8/1
f 9/10/1 18/37/1 20/11/1
f 12/13/1 20/38/1 19/14/1
f 7/16/1 17/39/1 18/17/1
f 22/19/1 21/40/1 30/20/1
f 22/22/1 31/41/1 29/23/1
f 32/25/1 23/42/1 24/26/1
f 39/28/1 33/43/1 34/29/1
f 42/31/1 47/44/1 48/32/1
f 45/45/1 9/46/1 47/47/1
f 48/48/1 9/49/1 12/50/1
f 48/51/1 10/52/1 46/53/1
f 1/54/1 5/55/1 14/56/1
f 5/57/1 4/58/1 14/59/1
f 3/60/1 15/61/1 4/62/1
f 33/63/1 24/64/1 34/65/1
f 34/66/1 23/67/1 35/68/1
f 36/69/1 22/70/1 33/71/1
f 26/72/2 29/73/2 31/74/2
f 31/75/2 25/76/2 26/77/2
f 27/78/2 29/79/2 28/80/2
f 40/81/1 33/82/1 39/83/1
f 37/84/1 35/85/1 38/86/1
f 18/87/1 37/88/1 20/89/1
f 20/90/1 38/91/1 19/92/1
f 17/93/1 39/94/1 18/95/1
f 16/96/1 43/97/1 11/98/1
f 16/99/1 42/100/1 44/101/1
f 41/102/1 8/103/1 13/104/1
f 44/105/1 46/106/1 43/107/1
f 45/108/1 42/109/1 41/110/1
f 45/45/1 7/111/1 9/46/1
f 48/48/1 47/112/1 9/49/1
f 48/51/1 12/113/1 10/52/1
f 1/54/1 6/114/1 5/55/1
f 5/57/1 3/115/1 4/58/1
f 3/60/1 2/116/1 15/61/1
f 33/63/1 22/117/1 24/64/1
f 34/66/1 24/118/1 23/67/1
f 36/69/1 21/119/1 22/70/1
f 26/72/2 28/120/2 29/73/2
f 31/75/2 30/121/2 25/76/2
f 27/78/2 32/122/2 29/79/2
f 40/81/1 36/123/1 33/82/1
f 37/84/1 34/124/1 35/85/1
f 18/87/1 39/125/1 37/88/1
f 20/90/1 37/126/1 38/91/1
f 17/93/1 40/127/1 39/94/1
f 16/96/1 44/128/1 43/97/1
f 16/99/1 8/129/1 42/100/1
f 41/102/1 42/130/1 8/103/1
f 44/105/1 48/131/1 46/106/1
f 45/108/1 47/132/1 42/109/1
