# Blender v2.80 (sub 75) OBJ File: 'end_06.blend'
# www.blender.org
o Plane
v 0.000000 0.009674 -6.763931
v 0.000000 0.000000 -8.033134
v 0.000000 0.009674 -6.913935
v 3.381966 0.009674 -5.857736
v 1.750634 0.009674 -6.533456
v 2.079128 0.000000 -7.759412
v 1.789458 0.009674 -6.678348
v 4.016567 0.000000 -6.956898
v 3.456967 0.009674 -5.987643
v 4.782822 0.009674 -4.782821
v 5.680284 0.000000 -5.680284
v 4.888890 0.009674 -4.888890
v 5.857737 0.009674 -3.381965
v 6.956898 0.000000 -4.016567
v 5.987643 0.009674 -3.456967
v 6.533456 0.009674 -1.750634
v 7.759412 0.000000 -2.079128
v 6.678348 0.009674 -1.789457
v 6.763931 0.009674 0.000000
v 8.033134 0.000000 0.000000
v 6.913934 0.009674 0.000000
v 6.533455 0.009674 1.750635
v 7.759412 0.000000 2.079129
v 6.678348 0.009674 1.789458
v 5.857736 0.009674 3.381966
v 6.956898 0.000000 4.016568
v 5.987643 0.009674 3.456967
v 4.782821 0.009674 4.782822
v 5.680283 0.000000 5.680284
v 4.888890 0.009674 4.888890
v 3.381965 0.009674 5.857737
v 4.016566 0.000000 6.956899
v 3.456967 0.009674 5.987643
v 1.750634 0.009674 6.533456
v 2.079127 0.000000 7.759412
v 1.789457 0.009674 6.678348
v -0.000000 0.009674 6.763931
v -0.000001 0.000000 8.033134
v -0.000000 0.009674 6.913934
v 0.000000 0.009674 0.000000
vt 0.998999 0.143858
vt 0.929572 0.284713
vt 0.998999 0.284713
vt 0.998999 0.001001
vt 0.929572 0.141856
vt 0.998999 0.141856
vt 0.927570 0.856142
vt 0.858144 0.715287
vt 0.858144 0.856142
vt 0.927570 0.572430
vt 0.858144 0.713285
vt 0.927570 0.713285
vt 0.927570 0.429572
vt 0.858144 0.570428
vt 0.927570 0.570428
vt 0.927570 0.286715
vt 0.858144 0.427570
vt 0.927570 0.427570
vt 0.927570 0.143858
vt 0.858144 0.284713
vt 0.927570 0.284713
vt 0.856142 0.143858
vt 0.786715 0.284713
vt 0.856142 0.284713
vt 0.784713 0.284713
vt 0.715287 0.143858
vt 0.715287 0.284713
vt 0.784713 0.001001
vt 0.715287 0.141856
vt 0.784713 0.141856
vt 0.856142 0.001001
vt 0.786715 0.141856
vt 0.856142 0.141856
vt 0.927570 0.001001
vt 0.858144 0.141856
vt 0.927570 0.141856
vt 0.929572 0.143858
vt 0.929572 0.001001
vt 0.927570 0.715287
vt 0.858144 0.572430
vt 0.858144 0.429572
vt 0.858144 0.286715
vt 0.858144 0.143858
vt 0.786715 0.143858
vt 0.784713 0.143858
vt 0.715287 0.001001
vt 0.786715 0.001001
vt 0.858144 0.001001
vt 0.284713 0.284713
vt 0.001001 0.143858
vt 0.001001 0.284713
vt 0.573431 0.713285
vt 0.856142 0.713285
vt 0.856142 0.573431
vt 0.284713 0.427570
vt 0.001001 0.286715
vt 0.001001 0.427570
vt 0.855141 0.572430
vt 0.572430 0.572430
vt 0.572430 0.712284
vt 0.427570 0.002002
vt 0.427570 0.284713
vt 0.287716 0.284713
vt 0.570428 0.427570
vt 0.286715 0.286715
vt 0.286715 0.427570
vt 0.570428 0.002002
vt 0.430573 0.284713
vt 0.570428 0.284713
vt 0.286715 0.570428
vt 0.570428 0.429572
vt 0.286715 0.429572
vt 0.002002 0.713285
vt 0.284713 0.713285
vt 0.284713 0.573431
vt 0.570428 0.713285
vt 0.286715 0.572430
vt 0.286715 0.713285
vt 0.713285 0.002002
vt 0.713285 0.284713
vt 0.573431 0.284713
vt 0.284713 0.856142
vt 0.001001 0.715287
vt 0.001001 0.856142
vt 0.002002 0.570428
vt 0.284713 0.430573
vt 0.284713 0.570428
vt 0.570428 0.856142
vt 0.286715 0.715287
vt 0.286715 0.856142
vt 0.286715 0.283712
vt 0.286715 0.001001
vt 0.426569 0.001001
vt 0.284713 0.141856
vt 0.001001 0.001001
vt 0.001001 0.141856
vt 0.283712 0.429572
vt 0.001001 0.569427
vt 0.001001 0.429572
vt 0.001001 0.998999
vt 0.284713 0.858144
vt 0.001001 0.858144
vt 0.429572 0.283712
vt 0.569427 0.001001
vt 0.429572 0.001001
vt 0.856142 0.856142
vt 0.572430 0.715287
vt 0.572430 0.856142
vt 0.283712 0.572430
vt 0.001001 0.572430
vt 0.001001 0.712284
vt 0.856142 0.570428
vt 0.572430 0.429572
vt 0.572430 0.570428
vt 0.572430 0.283712
vt 0.572430 0.001001
vt 0.712284 0.001001
vt 0.856142 0.427570
vt 0.572430 0.286715
vt 0.572430 0.427570
vt 0.284713 0.143858
vt 0.284713 0.286715
vt 0.570428 0.286715
vt 0.570428 0.570428
vt 0.570428 0.572430
vt 0.284713 0.715287
vt 0.570428 0.715287
vt 0.284713 0.001001
vt 0.284713 0.998999
vt 0.856142 0.715287
vt 0.856142 0.429572
vt 0.856142 0.286715
vn 0.0000 1.0000 0.0000
vn 0.0011 1.0000 -0.0086
vn 0.0033 1.0000 -0.0081
vn 0.0053 1.0000 -0.0069
vn 0.0069 1.0000 -0.0053
vn 0.0081 1.0000 -0.0033
vn 0.0086 1.0000 -0.0011
vn 0.0086 1.0000 0.0011
vn 0.0081 1.0000 0.0033
vn 0.0069 1.0000 0.0053
vn 0.0053 1.0000 0.0069
vn 0.0033 1.0000 0.0081
vn 0.0011 1.0000 0.0086
s off
f 5/1/1 3/2/1 1/3/1
f 4/4/1 7/5/1 5/6/1
f 4/7/1 12/8/1 9/9/1
f 13/10/1 12/11/1 10/12/1
f 16/13/1 15/14/1 13/15/1
f 19/16/1 18/17/1 16/18/1
f 22/19/1 21/20/1 19/21/1
f 25/22/1 24/23/1 22/24/1
f 25/25/1 30/26/1 27/27/1
f 31/28/1 30/29/1 28/30/1
f 34/31/1 33/32/1 31/33/1
f 37/34/1 36/35/1 34/36/1
f 5/1/1 7/37/1 3/2/1
f 4/4/1 9/38/1 7/5/1
f 4/7/1 10/39/1 12/8/1
f 13/10/1 15/40/1 12/11/1
f 16/13/1 18/41/1 15/14/1
f 19/16/1 21/42/1 18/17/1
f 22/19/1 24/43/1 21/20/1
f 25/22/1 27/44/1 24/23/1
f 25/25/1 28/45/1 30/26/1
f 31/28/1 33/46/1 30/29/1
f 34/31/1 36/47/1 33/32/1
f 37/34/1 39/48/1 36/35/1
f 7/49/2 2/50/2 3/51/2
f 40/52/1 5/53/1 1/54/1
f 9/55/3 6/56/3 7/57/3
f 40/58/1 4/59/1 5/60/1
f 40/61/1 10/62/1 4/63/1
f 12/64/4 8/65/4 9/66/4
f 40/67/1 13/68/1 10/69/1
f 12/70/5 14/71/5 11/72/5
f 40/73/1 16/74/1 13/75/1
f 18/76/6 14/77/6 15/78/6
f 40/79/1 19/80/1 16/81/1
f 21/82/7 17/83/7 18/84/7
f 40/85/1 22/86/1 19/87/1
f 24/88/8 20/89/8 21/90/8
f 40/91/1 25/92/1 22/93/1
f 27/94/9 23/95/9 24/96/9
f 40/97/1 28/98/1 25/99/1
f 27/100/10 29/101/10 26/102/10
f 40/103/1 31/104/1 28/105/1
f 33/106/11 29/107/11 30/108/11
f 40/109/1 34/110/1 31/111/1
f 36/112/12 32/113/12 33/114/12
f 40/115/1 37/116/1 34/117/1
f 39/118/13 35/119/13 36/120/13
f 7/49/2 6/121/2 2/50/2
f 9/55/3 8/122/3 6/56/3
f 12/64/4 11/123/4 8/65/4
f 12/70/5 15/124/5 14/71/5
f 18/76/6 17/125/6 14/77/6
f 21/82/7 20/126/7 17/83/7
f 24/88/8 23/127/8 20/89/8
f 27/94/9 26/128/9 23/95/9
f 27/100/10 30/129/10 29/101/10
f 33/106/11 32/130/11 29/107/11
f 36/112/12 35/131/12 32/113/12
f 39/118/13 38/132/13 35/119/13
