# Blender v2.93.1 OBJ File: 'tunnel_entrance.blend'
# www.blender.org
o Plane
v 0.000000 7.999802 0.009674
v 1.500000 7.999802 0.009674
v -0.000000 8.195500 1.895510
v 1.500000 7.999802 2.454501
v -0.000001 7.425653 3.952076
v 1.500000 7.999803 5.183687
v -0.000001 6.149757 5.739312
v 1.499999 7.999803 8.406841
v -0.000001 4.454766 7.135424
v 1.499999 5.129460 8.406841
v -0.000001 2.456190 8.045269
v 1.499999 2.456190 8.406841
v -0.000001 0.290229 8.406841
v 1.499999 5.129460 8.942926
v -0.000001 2.456190 8.942926
v -0.000001 0.290229 8.942926
v -0.000001 7.999803 8.942926
v -0.000001 5.129460 8.942926
v 1.499999 7.999803 8.942926
v 1.499999 0.290229 8.942926
v 1.499999 8.696807 8.942926
v -0.000001 8.696807 8.942926
v 1.499999 2.456190 8.942926
v 0.000000 8.696806 0.009674
v -0.000000 8.696806 2.454501
v -0.000000 8.696807 5.183687
v -0.000001 8.696807 8.406841
v 0.000000 8.696806 -1.465977
v 1.500000 8.696806 -1.465977
v 1.499999 8.696807 8.406841
v 1.500000 8.696807 5.183687
v 1.500000 8.696806 2.454501
v 1.500000 8.696806 0.009674
v 1.500000 7.999802 -1.465977
v 1.499999 0.290229 8.406841
v 0.000000 7.999802 -1.465977
v 0.000000 -7.999802 0.009674
v 1.500000 -7.999802 0.009674
v -0.000000 -8.195500 1.895510
v 1.500000 -7.999802 2.454501
v -0.000001 -7.425653 3.952076
v 1.500000 -7.999803 5.183687
v -0.000001 -6.149757 5.739312
v 1.499999 -7.999803 8.406841
v -0.000001 -4.454766 7.135424
v 1.499999 -5.129460 8.406841
v -0.000001 -2.456190 8.045269
v 1.499999 -2.456190 8.406841
v -0.000001 -0.290229 8.406841
v 1.499999 -5.129460 8.942926
v -0.000001 -2.456190 8.942926
v -0.000001 -0.290229 8.942926
v -0.000001 -7.999803 8.942926
v -0.000001 -5.129460 8.942926
v 1.499999 -7.999803 8.942926
v 1.499999 -0.290229 8.942926
v 1.499999 -8.696807 8.942926
v -0.000001 -8.696807 8.942926
v 1.499999 -2.456190 8.942926
v 0.000000 -8.696806 0.009674
v -0.000000 -8.696806 2.454501
v -0.000000 -8.696807 5.183687
v -0.000001 -8.696807 8.406841
v 0.000000 -8.696806 -1.465977
v 1.500000 -8.696806 -1.465977
v 1.499999 -8.696807 8.406841
v 1.500000 -8.696807 5.183687
v 1.500000 -8.696806 2.454501
v 1.500000 -8.696806 0.009674
v 1.500000 -7.999802 -1.465977
v 1.499999 -0.290229 8.406841
v 0.000000 -7.999802 -1.465977
vt 0.998999 0.112112
vt 0.945445 0.221221
vt 0.998999 0.221221
vt 0.221221 0.665666
vt 0.001001 0.556557
vt 0.001001 0.665666
vt 0.665666 0.001001
vt 0.556557 0.221221
vt 0.665666 0.221221
vt 0.887888 0.943443
vt 0.667668 0.889890
vt 0.667668 0.943443
vt 0.945445 0.445445
vt 0.998999 0.498999
vt 0.998999 0.445445
vt 0.445445 0.001001
vt 0.554555 0.221221
vt 0.554555 0.001001
vt 0.443443 0.445445
vt 0.223223 0.554555
vt 0.443443 0.554555
vt 0.223223 0.223223
vt 0.443443 0.443443
vt 0.443443 0.223223
vt 0.443443 0.001001
vt 0.223223 0.221221
vt 0.443443 0.221221
vt 0.776777 0.001001
vt 0.667668 0.221221
vt 0.776777 0.221221
vt 0.443443 0.556557
vt 0.223223 0.665666
vt 0.443443 0.665666
vt 0.943443 0.445445
vt 0.889890 0.665666
vt 0.943443 0.665666
vt 0.665666 0.943443
vt 0.445445 0.889890
vt 0.445445 0.943443
vt 0.943443 0.667668
vt 0.889890 0.776777
vt 0.943443 0.776777
vt 0.223223 0.776777
vt 0.443443 0.667668
vt 0.223223 0.667668
vt 0.665666 0.665666
vt 0.556557 0.445445
vt 0.556557 0.665666
vt 0.665666 0.776777
vt 0.445445 0.667668
vt 0.445445 0.776777
vt 0.778779 0.778779
vt 0.887888 0.887888
vt 0.887888 0.778779
vt 0.887888 0.445445
vt 0.834334 0.665666
vt 0.887888 0.665666
vt 0.221221 0.998999
vt 0.112112 0.945445
vt 0.112112 0.998999
vt 0.887888 0.223223
vt 0.834334 0.443443
vt 0.887888 0.443443
vt 0.667668 0.776777
vt 0.887888 0.723223
vt 0.667668 0.723223
vt 0.887888 0.001001
vt 0.778779 0.221221
vt 0.887888 0.221221
vt 0.889890 0.001001
vt 0.998999 0.110110
vt 0.998999 0.001001
vt 0.332332 0.945445
vt 0.223223 0.998999
vt 0.332332 0.998999
vt 0.667668 0.223223
vt 0.776777 0.443443
vt 0.776777 0.223223
vt 0.443443 0.778779
vt 0.223223 0.887888
vt 0.443443 0.887888
vt 0.778779 0.445445
vt 0.832332 0.665666
vt 0.832332 0.445445
vt 0.445445 0.945445
vt 0.498999 0.998999
vt 0.498999 0.945445
vt 0.221221 0.887888
vt 0.001001 0.778779
vt 0.001001 0.887888
vt 0.776777 0.445445
vt 0.667668 0.665666
vt 0.776777 0.665666
vt 0.001001 0.001001
vt 0.221221 0.221221
vt 0.221221 0.001001
vt 0.221221 0.223223
vt 0.001001 0.443443
vt 0.221221 0.443443
vt 0.001001 0.776777
vt 0.221221 0.667668
vt 0.001001 0.667668
vt 0.554555 0.445445
vt 0.445445 0.665666
vt 0.554555 0.665666
vt 0.887888 0.667668
vt 0.667668 0.721221
vt 0.887888 0.721221
vt 0.889890 0.112112
vt 0.943443 0.332332
vt 0.943443 0.112112
vt 0.110110 0.945445
vt 0.001001 0.998999
vt 0.110110 0.998999
vt 0.665666 0.223223
vt 0.556557 0.443443
vt 0.665666 0.443443
vt 0.221221 0.554555
vt 0.001001 0.445445
vt 0.001001 0.554555
vt 0.445445 0.223223
vt 0.554555 0.443443
vt 0.554555 0.223223
vt 0.889890 0.334334
vt 0.998999 0.443443
vt 0.998999 0.334334
vt 0.443443 0.889890
vt 0.223223 0.943443
vt 0.443443 0.943443
vt 0.889890 0.778779
vt 0.943443 0.887888
vt 0.943443 0.778779
vt 0.221221 0.889890
vt 0.001001 0.943443
vt 0.221221 0.943443
vt 0.832332 0.223223
vt 0.778779 0.443443
vt 0.832332 0.443443
vt 0.665666 0.778779
vt 0.445445 0.887888
vt 0.665666 0.887888
vt 0.667668 0.778779
vt 0.776777 0.887888
vt 0.776777 0.778779
vt 0.998999 0.223223
vt 0.945445 0.332332
vt 0.998999 0.332332
vt 0.889890 0.889890
vt 0.943443 0.943443
vt 0.943443 0.889890
vt 0.443443 0.945445
vt 0.334334 0.998999
vt 0.443443 0.998999
vt 0.945445 0.112112
vt 0.221221 0.556557
vt 0.556557 0.001001
vt 0.887888 0.889890
vt 0.945445 0.498999
vt 0.445445 0.221221
vt 0.223223 0.445445
vt 0.223223 0.443443
vt 0.223223 0.001001
vt 0.667668 0.001001
vt 0.223223 0.556557
vt 0.889890 0.445445
vt 0.665666 0.889890
vt 0.889890 0.667668
vt 0.443443 0.776777
vt 0.665666 0.445445
vt 0.665666 0.667668
vt 0.778779 0.887888
vt 0.834334 0.445445
vt 0.221221 0.945445
vt 0.834334 0.223223
vt 0.887888 0.776777
vt 0.778779 0.001001
vt 0.889890 0.110110
vt 0.223223 0.945445
vt 0.667668 0.443443
vt 0.223223 0.778779
vt 0.778779 0.665666
vt 0.445445 0.998999
vt 0.221221 0.778779
vt 0.667668 0.445445
vt 0.001001 0.221221
vt 0.001001 0.223223
vt 0.221221 0.776777
vt 0.445445 0.445445
vt 0.667668 0.667668
vt 0.889890 0.332332
vt 0.001001 0.945445
vt 0.556557 0.223223
vt 0.221221 0.445445
vt 0.445445 0.443443
vt 0.889890 0.443443
vt 0.223223 0.889890
vt 0.889890 0.887888
vt 0.001001 0.889890
vt 0.778779 0.223223
vt 0.445445 0.778779
vt 0.667668 0.887888
vt 0.945445 0.223223
vt 0.889890 0.943443
vt 0.334334 0.945445
vn 0.0000 0.0000 1.0000
vn 1.0000 0.0000 0.0000
vn 0.0000 -0.9947 0.1032
vn 0.0085 -0.9365 -0.3506
vn 0.6192 -0.6391 -0.4562
vn 0.6850 -0.4632 -0.5623
vn 0.2143 -0.4047 -0.8890
vn 0.2313 -0.1602 -0.9596
vn 0.0000 1.0000 0.0000
vn 0.0000 -1.0000 0.0000
vn 0.0000 0.9947 0.1032
vn 0.0085 0.9365 -0.3506
vn 0.6192 0.6391 -0.4562
vn 0.8716 0.0000 -0.4901
vn 0.6466 0.0000 -0.7628
vn 0.2313 0.1602 -0.9596
vn 0.0000 0.0000 -1.0000
vn -0.1294 -0.9916 -0.0000
vn 0.3575 -0.9339 0.0000
vn 0.7768 -0.6298 0.0000
vn -0.1294 0.9916 -0.0000
vn 0.3575 0.9339 0.0000
vn 0.7768 0.6298 -0.0000
vn 0.6850 0.4632 -0.5623
vn 0.2143 0.4047 -0.8890
s off
f 19/1/1 22/2/1 17/3/1
f 23/4/1 16/5/1 20/6/1
f 14/7/1 15/8/1 23/9/1
f 12/10/2 20/11/2 35/12/2
f 30/13/2 19/14/2 8/15/2
f 2/16/3 3/17/3 1/18/3
f 4/19/4 5/20/4 3/21/4
f 6/22/5 7/23/5 5/24/5
f 7/25/6 10/26/6 9/27/6
f 9/28/7 12/29/7 11/30/7
f 12/31/8 13/32/8 11/33/8
f 10/34/2 23/35/2 12/36/2
f 8/37/2 14/38/2 10/39/2
f 27/40/9 21/41/9 30/42/9
f 31/43/9 25/44/9 26/45/9
f 30/46/9 26/47/9 27/48/9
f 33/49/9 25/50/9 32/51/9
f 29/52/9 24/53/9 33/54/9
f 2/55/2 32/56/2 4/57/2
f 34/58/2 33/59/2 2/60/2
f 6/61/2 30/62/2 8/63/2
f 6/64/2 32/65/2 31/66/2
f 19/67/1 18/68/1 14/69/1
f 1/70/10 34/71/10 2/72/10
f 58/73/1 55/74/1 53/75/1
f 52/76/1 59/77/1 56/78/1
f 51/79/1 50/80/1 59/81/1
f 56/82/2 48/83/2 71/84/2
f 55/85/2 66/86/2 44/87/2
f 39/88/11 38/89/11 37/90/11
f 41/91/12 40/92/12 39/93/12
f 43/94/13 42/95/13 41/96/13
f 43/97/14 46/98/14 44/99/14
f 45/100/15 48/101/15 46/102/15
f 49/103/16 48/104/16 47/105/16
f 59/106/2 46/107/2 48/108/2
f 50/109/2 44/110/2 46/111/2
f 57/112/10 63/113/10 66/114/10
f 67/115/10 61/116/10 68/117/10
f 66/118/10 62/119/10 67/120/10
f 61/121/10 69/122/10 68/123/10
f 60/124/10 65/125/10 69/126/10
f 68/127/2 38/128/2 40/129/2
f 69/130/2 70/131/2 38/132/2
f 66/133/2 42/134/2 44/135/2
f 42/136/2 68/137/2 40/138/2
f 54/139/1 55/140/1 50/141/1
f 70/142/9 37/143/9 38/144/9
f 16/145/1 56/146/1 20/147/1
f 20/148/2 71/149/2 35/150/2
f 71/151/17 13/152/17 35/153/17
f 19/1/1 21/154/1 22/2/1
f 23/4/1 15/155/1 16/5/1
f 14/7/1 18/156/1 15/8/1
f 12/10/2 23/157/2 20/11/2
f 30/13/2 21/158/2 19/14/2
f 2/16/18 4/159/18 3/17/18
f 4/19/19 6/160/19 5/20/19
f 6/22/20 8/161/20 7/23/20
f 7/25/14 8/162/14 10/26/14
f 9/28/15 10/163/15 12/29/15
f 12/31/17 35/164/17 13/32/17
f 10/34/2 14/165/2 23/35/2
f 8/37/2 19/166/2 14/38/2
f 27/40/9 22/167/9 21/41/9
f 31/43/9 32/168/9 25/44/9
f 30/46/9 31/169/9 26/47/9
f 33/49/9 24/170/9 25/50/9
f 29/52/9 28/171/9 24/53/9
f 2/55/2 33/172/2 32/56/2
f 34/58/2 29/173/2 33/59/2
f 6/61/2 31/174/2 30/62/2
f 6/64/2 4/175/2 32/65/2
f 19/67/1 17/176/1 18/68/1
f 1/70/10 36/177/10 34/71/10
f 58/73/1 57/178/1 55/74/1
f 52/76/1 51/179/1 59/77/1
f 51/79/1 54/180/1 50/80/1
f 56/82/2 59/181/2 48/83/2
f 55/85/2 57/182/2 66/86/2
f 39/88/21 40/183/21 38/89/21
f 41/91/22 42/184/22 40/92/22
f 43/94/23 44/185/23 42/95/23
f 43/97/24 45/186/24 46/98/24
f 45/100/25 47/187/25 48/101/25
f 49/103/17 71/188/17 48/104/17
f 59/106/2 50/189/2 46/107/2
f 50/109/2 55/190/2 44/110/2
f 57/112/10 58/191/10 63/113/10
f 67/115/10 62/192/10 61/116/10
f 66/118/10 63/193/10 62/119/10
f 61/121/10 60/194/10 69/122/10
f 60/124/10 64/195/10 65/125/10
f 68/127/2 69/196/2 38/128/2
f 69/130/2 65/197/2 70/131/2
f 66/133/2 67/198/2 42/134/2
f 42/136/2 67/199/2 68/137/2
f 54/139/1 53/200/1 55/140/1
f 70/142/9 72/201/9 37/143/9
f 16/145/1 52/202/1 56/146/1
f 20/148/2 56/203/2 71/149/2
f 71/151/17 49/204/17 13/152/17
