# Blender v2.80 (sub 75) OBJ File: 'end_05.blend'
# www.blender.org
o Plane
v 0.000000 0.009674 -5.079205
v 0.000000 0.000000 -6.298404
v 0.000000 0.009674 -5.229205
v 1.676400 0.009674 -4.630014
v 2.286000 0.000000 -5.685873
v 1.751400 0.009674 -4.759919
v 2.903610 0.009674 -3.402805
v 3.959468 0.000000 -4.012404
v 3.033514 0.009674 -3.477805
v 3.352800 0.009674 -1.726405
v 4.572000 0.000000 -1.726405
v 3.502800 0.009674 -1.726405
v 0.000000 0.009674 -1.726405
v 0.000000 0.009674 5.079205
v 0.000000 0.000000 6.298405
v 0.000000 0.009674 5.229205
v 1.676400 0.009674 4.630014
v 2.286000 0.000000 5.685873
v 1.751400 0.009674 4.759919
v 2.903610 0.009674 3.402804
v 3.959468 0.000000 4.012404
v 3.033514 0.009674 3.477805
v 3.352800 0.009674 1.726405
v 4.572000 0.000000 1.726404
v 3.502800 0.009674 1.726405
v 0.000000 0.009674 1.726405
vt 0.443443 0.998999
vt 0.223223 0.889890
vt 0.223223 0.998999
vt 0.221221 0.887888
vt 0.001001 0.778779
vt 0.001001 0.887888
vt 0.776777 0.887888
vt 0.556557 0.778779
vt 0.556557 0.887888
vt 0.443443 0.778779
vt 0.223223 0.887888
vt 0.443443 0.887888
vt 0.221221 0.889890
vt 0.001001 0.998999
vt 0.221221 0.998999
vt 0.776777 0.667668
vt 0.556557 0.776777
vt 0.776777 0.776777
vt 0.443443 0.667668
vt 0.001001 0.776777
vt 0.443443 0.776777
vt 0.443443 0.889890
vt 0.221221 0.778779
vt 0.776777 0.778779
vt 0.223223 0.778779
vt 0.001001 0.889890
vt 0.556557 0.667668
vt 0.001001 0.667668
vt 0.998999 0.223223
vt 0.889890 0.443443
vt 0.998999 0.443443
vt 0.665666 0.224224
vt 0.665666 0.665666
vt 0.446446 0.665666
vt 0.554555 0.667668
vt 0.445445 0.887888
vt 0.554555 0.887888
vt 0.446446 0.221221
vt 0.887888 0.002002
vt 0.887888 0.221221
vt 0.887888 0.445445
vt 0.778779 0.665666
vt 0.887888 0.665666
vt 0.886887 0.001001
vt 0.445445 0.001001
vt 0.445445 0.220220
vt 0.778779 0.223223
vt 0.887888 0.443443
vt 0.887888 0.223223
vt 0.445445 0.664665
vt 0.664665 0.223223
vt 0.445445 0.223223
vt 0.889890 0.001001
vt 0.998999 0.221221
vt 0.998999 0.001001
vt 0.002002 0.665666
vt 0.443443 0.446446
vt 0.443443 0.665666
vt 0.778779 0.667668
vt 0.887888 0.887888
vt 0.887888 0.667668
vt 0.442442 0.445445
vt 0.001001 0.664665
vt 0.001001 0.445445
vt 0.001001 0.001001
vt 0.443443 0.443443
vt 0.443443 0.001001
vt 0.667668 0.223223
vt 0.776777 0.665666
vt 0.776777 0.223223
vt 0.889890 0.223223
vt 0.445445 0.667668
vt 0.778779 0.445445
vt 0.778779 0.443443
vt 0.889890 0.221221
vt 0.778779 0.887888
vt 0.001001 0.443443
vt 0.667668 0.665666
vn 0.0000 1.0000 0.0000
vn 0.0024 1.0000 -0.0090
vn 0.0066 1.0000 -0.0066
vn 0.0090 1.0000 -0.0024
vn 0.0024 1.0000 0.0090
vn 0.0066 1.0000 0.0066
vn 0.0090 1.0000 0.0024
vn 0.0090 1.0000 0.0000
s off
f 4/1/1 3/2/1 1/3/1
f 7/4/1 6/5/1 4/6/1
f 10/7/1 9/8/1 7/9/1
f 16/10/1 17/11/1 14/12/1
f 19/13/1 20/14/1 17/15/1
f 22/16/1 23/17/1 20/18/1
f 10/19/1 25/20/1 12/21/1
f 4/1/1 6/22/1 3/2/1
f 7/4/1 9/23/1 6/5/1
f 10/7/1 12/24/1 9/8/1
f 16/10/1 19/25/1 17/11/1
f 19/13/1 22/26/1 20/14/1
f 22/16/1 25/27/1 23/17/1
f 10/19/1 23/28/1 25/20/1
f 6/29/2 2/30/2 3/31/2
f 13/32/1 4/33/1 1/34/1
f 9/35/3 5/36/3 6/37/3
f 13/38/1 7/39/1 4/40/1
f 12/41/4 8/42/4 9/43/4
f 13/44/1 10/45/1 7/46/1
f 15/47/5 19/48/5 16/49/5
f 26/50/1 14/51/1 17/52/1
f 18/53/6 22/54/6 19/55/6
f 26/56/1 17/57/1 20/58/1
f 21/59/7 25/60/7 22/61/7
f 26/62/1 20/63/1 23/64/1
f 13/65/1 23/66/1 10/67/1
f 12/68/8 24/69/8 11/70/8
f 6/29/2 5/71/2 2/30/2
f 9/35/3 8/72/3 5/36/3
f 12/41/4 11/73/4 8/42/4
f 15/47/5 18/74/5 19/48/5
f 18/53/6 21/75/6 22/54/6
f 21/59/7 24/76/7 25/60/7
f 13/65/1 26/77/1 23/66/1
f 12/68/8 25/78/8 24/69/8
