# Blender v2.80 (sub 75) OBJ File: 'end_04.blend'
# www.blender.org
o Plane
v 0.000000 0.009674 -3.352800
v 0.000000 0.000000 -4.572000
v 0.000000 0.009674 -3.502800
v 1.676400 0.009674 -2.903610
v 2.286000 0.000000 -3.959468
v 1.751400 0.009674 -3.033514
v 2.903610 0.009674 -1.676400
v 3.959468 0.000000 -2.286000
v 3.033514 0.009674 -1.751400
v 3.352800 0.009674 0.000000
v 4.572000 0.000000 0.000000
v 3.502800 0.009674 0.000000
v 2.903610 0.009674 1.676400
v 3.959467 0.000000 2.286000
v 3.033514 0.009674 1.751400
v 1.676400 0.009674 2.903610
v 2.285999 0.000000 3.959468
v 1.751400 0.009674 3.033514
v -0.000000 0.009674 3.352800
v -0.000000 0.000000 4.572000
v 0.000000 0.009674 3.502800
v 0.000000 0.009674 0.000000
vt 0.998999 0.998999
vt 0.834334 0.667668
vt 0.998999 0.667668
vt 0.998999 0.332332
vt 0.834334 0.001001
vt 0.998999 0.001001
vt 0.832332 0.332332
vt 0.667668 0.001001
vt 0.832332 0.001001
vt 0.832332 0.665666
vt 0.667668 0.334334
vt 0.832332 0.334334
vt 0.165666 0.667668
vt 0.001001 0.998999
vt 0.001001 0.667668
vt 0.998999 0.334334
vt 0.834334 0.665666
vt 0.834334 0.334334
vt 0.834334 0.998999
vt 0.834334 0.332332
vt 0.667668 0.332332
vt 0.667668 0.665666
vt 0.165666 0.998999
vt 0.998999 0.665666
vt 0.498999 0.998999
vt 0.167668 0.834334
vt 0.498999 0.834334
vt 0.332332 0.002002
vt 0.332332 0.332332
vt 0.002002 0.332332
vt 0.334334 0.498999
vt 0.665666 0.334334
vt 0.665666 0.498999
vt 0.001001 0.331331
vt 0.001001 0.001001
vt 0.331331 0.001001
vt 0.334334 0.665666
vt 0.665666 0.501001
vt 0.665666 0.665666
vt 0.665666 0.002002
vt 0.665666 0.332332
vt 0.335335 0.332332
vt 0.501001 0.998999
vt 0.832332 0.834334
vt 0.832332 0.998999
vt 0.334334 0.331331
vt 0.334334 0.001001
vt 0.664665 0.001001
vt 0.167668 0.832332
vt 0.498999 0.667668
vt 0.498999 0.832332
vt 0.332332 0.335335
vt 0.332332 0.665666
vt 0.002002 0.665666
vt 0.501001 0.832332
vt 0.832332 0.667668
vt 0.832332 0.832332
vt 0.001001 0.664665
vt 0.001001 0.334334
vt 0.331331 0.334334
vt 0.167668 0.998999
vt 0.334334 0.334334
vt 0.334334 0.501001
vt 0.501001 0.834334
vt 0.167668 0.667668
vt 0.501001 0.667668
vn 0.0000 1.0000 0.0000
vn 0.0024 1.0000 -0.0090
vn 0.0066 1.0000 -0.0066
vn 0.0090 1.0000 -0.0024
vn 0.0090 1.0000 0.0024
vn 0.0066 1.0000 0.0066
vn 0.0024 1.0000 0.0090
s off
f 4/1/1 3/2/1 1/3/1
f 7/4/1 6/5/1 4/6/1
f 10/7/1 9/8/1 7/9/1
f 13/10/1 12/11/1 10/12/1
f 13/13/1 18/14/1 15/15/1
f 16/16/1 21/17/1 18/18/1
f 4/1/1 6/19/1 3/2/1
f 7/4/1 9/20/1 6/5/1
f 10/7/1 12/21/1 9/8/1
f 13/10/1 15/22/1 12/11/1
f 13/13/1 16/23/1 18/14/1
f 16/16/1 19/24/1 21/17/1
f 3/25/2 5/26/2 2/27/2
f 22/28/1 4/29/1 1/30/1
f 9/31/3 5/32/3 6/33/3
f 22/34/1 7/35/1 4/36/1
f 12/37/4 8/38/4 9/39/4
f 22/40/1 10/41/1 7/42/1
f 15/43/5 11/44/5 12/45/5
f 22/46/1 13/47/1 10/48/1
f 18/49/6 14/50/6 15/51/6
f 22/52/1 16/53/1 13/54/1
f 21/55/7 17/56/7 18/57/7
f 22/58/1 19/59/1 16/60/1
f 3/25/2 6/61/2 5/26/2
f 9/31/3 8/62/3 5/32/3
f 12/37/4 11/63/4 8/38/4
f 15/43/5 14/64/5 11/44/5
f 18/49/6 17/65/6 14/50/6
f 21/55/7 20/66/7 17/56/7
