# Blender v2.80 (sub 75) OBJ File: 'junction_01.blend'
# www.blender.org
o Plane
v 3.500000 -0.000000 -7.999843
v 3.500000 0.100000 -7.999843
v -0.000000 -0.000000 -6.780643
v -0.000000 0.100000 -6.780643
v -0.000000 0.100000 -7.999843
v -0.000000 -0.000000 -7.999843
v 0.500000 -0.000000 -6.780643
v 0.500000 0.100000 -6.780643
v 0.500000 0.100000 -7.999843
v 0.500000 -0.000000 -7.999843
v 3.500000 0.100000 -6.780643
v 3.500000 -0.000000 -6.780643
v -0.000000 -0.000000 6.780643
v -0.000000 0.100000 6.780643
v -0.000000 0.100000 7.999843
v -0.000000 -0.000000 7.999843
v 0.500000 -0.000000 6.780643
v 0.500000 0.100000 6.780643
v 0.500000 0.100000 7.999843
v 0.500000 -0.000000 7.999843
v 3.500000 -0.000000 6.780643
v 3.500000 0.100000 6.780643
v 3.500000 0.100000 7.999843
v 3.500000 -0.000000 7.999843
v 3.000000 0.100000 6.780643
v 3.000000 -0.000000 6.780643
v 3.000000 -0.000000 -6.780643
v 3.000000 0.100000 -6.780643
v 3.000000 -0.000000 7.999843
v 3.000000 0.100000 7.999843
v 3.000000 0.100000 -7.999843
v 3.000000 -0.000000 -7.999843
v 0.500000 -0.000000 -6.191022
v 0.500000 -0.000000 -5.601401
v 0.500000 -0.000000 -5.011780
v 0.500000 -0.000000 -4.422159
v 0.500000 -0.000000 -3.832538
v 0.500000 -0.000000 -3.242917
v 0.500000 -0.000000 -2.653296
v 0.500000 -0.000000 -2.063674
v 0.500000 -0.000000 -1.474053
v 0.500000 -0.000000 -0.884432
v 0.500000 -0.000000 -0.294811
v 0.500000 -0.000000 0.294810
v 0.500000 -0.000000 0.884432
v 0.500000 -0.000000 1.474053
v 0.500000 -0.000000 2.063674
v 0.500000 -0.000000 2.653295
v 0.500000 -0.000000 3.242916
v 0.500000 -0.000000 3.832538
v 0.500000 -0.000000 4.422159
v 0.500000 -0.000000 5.011780
v 0.500000 -0.000000 5.601401
v 0.500000 -0.000000 6.191022
v 3.000000 -0.000000 6.191022
v 3.000000 -0.000000 5.601401
v 3.000000 -0.000000 5.011780
v 3.000000 -0.000000 4.422159
v 3.000000 -0.000000 3.832538
v 3.000000 -0.000000 3.242917
v 3.000000 -0.000000 2.653296
v 3.000000 -0.000000 2.063674
v 3.000000 -0.000000 1.474053
v 3.000000 -0.000000 0.884432
v 3.000000 -0.000000 0.294811
v 3.000000 -0.000000 -0.294810
v 3.000000 -0.000000 -0.884432
v 3.000000 -0.000000 -1.474053
v 3.000000 -0.000000 -2.063674
v 3.000000 -0.000000 -2.653295
v 3.000000 -0.000000 -3.242916
v 3.000000 -0.000000 -3.832538
v 3.000000 -0.000000 -4.422159
v 3.000000 -0.000000 -5.011780
v 3.000000 -0.000000 -5.601401
v 3.000000 -0.000000 -6.191022
v -0.000000 -0.000000 0.000000
vt 0.473305 0.086957
vt 0.078884 0.043478
vt 0.473305 0.043478
vt 0.473305 0.173913
vt 0.078884 0.130435
vt 0.473305 0.130435
vt 0.473305 0.260870
vt 0.078884 0.217391
vt 0.473305 0.217391
vt 0.473305 0.347826
vt 0.078884 0.304348
vt 0.473305 0.304348
vt 0.473305 0.434783
vt 0.078884 0.391304
vt 0.473305 0.391304
vt 0.473305 0.521739
vt 0.078884 0.478261
vt 0.473305 0.478261
vt 0.473305 0.608696
vt 0.078884 0.565217
vt 0.473305 0.565217
vt 0.473305 0.695652
vt 0.078884 0.652174
vt 0.473305 0.652174
vt 0.473305 0.782609
vt 0.078884 0.739130
vt 0.473305 0.739130
vt 0.473305 0.869565
vt 0.078884 0.826087
vt 0.473305 0.826087
vt 0.473305 0.956522
vt 0.078884 0.913043
vt 0.473305 0.913043
vt 0.078884 0.086957
vt 0.078884 0.173913
vt 0.078884 0.260870
vt 0.078884 0.347826
vt 0.078884 0.434783
vt 0.078884 0.521739
vt 0.078884 0.608696
vt 0.078884 0.695652
vt 0.078884 0.782609
vt 0.078884 0.869565
vt 0.078884 0.956522
vt 0.473305 1.000000
vt 0.078884 0.000000
vt 0.473305 0.000000
vt 0.000000 1.000000
vt 0.552190 0.500000
vt 0.078884 1.000000
vt 0.000000 0.000000
vt 0.552190 0.000000
vt 0.552190 1.000000
vt 0.952669 0.036870
vt 0.968446 0.000000
vt 0.968446 0.036870
vt 0.744541 0.036870
vt 0.936892 0.000000
vt 0.936892 0.036870
vt 0.984223 0.221218
vt 0.968446 0.258088
vt 0.968446 0.221218
vt 0.936892 0.036870
vt 0.952669 0.000000
vt 0.952669 0.036870
vt 0.952669 0.258088
vt 0.936893 0.221218
vt 0.952669 0.221218
vt 0.552190 0.000000
vt 0.744541 0.036870
vt 0.552190 0.036870
vt 0.984223 0.000000
vt 1.000000 0.036870
vt 0.984223 0.036870
vt 1.000000 0.221218
vt 0.984223 0.258088
vt 0.984223 0.221218
vt 0.968446 0.221218
vt 0.952669 0.258088
vt 0.952669 0.221218
vt 0.968446 0.036870
vt 0.984223 0.000000
vt 0.984223 0.036870
vt 0.744541 0.221218
vt 0.552190 0.258088
vt 0.552190 0.221218
vt 0.936892 0.221218
vt 0.744541 0.258088
vt 0.744541 0.221218
vt 0.952669 0.000000
vt 0.744541 0.000000
vt 0.984223 0.258088
vt 0.936892 0.000000
vt 0.936893 0.258088
vt 0.744541 0.000000
vt 1.000000 0.000000
vt 1.000000 0.258088
vt 0.968446 0.258088
vt 0.968446 0.000000
vt 0.744541 0.258088
vt 0.936892 0.258088
vn 0.0000 1.0000 0.0000
vn 0.0000 0.0000 1.0000
vn 0.0000 0.0000 -1.0000
s off
f 34/1/1 76/2/1 33/3/1
f 36/4/1 74/5/1 35/6/1
f 38/7/1 72/8/1 37/9/1
f 40/10/1 70/11/1 39/12/1
f 42/13/1 68/14/1 41/15/1
f 44/16/1 66/17/1 43/18/1
f 46/19/1 64/20/1 45/21/1
f 48/22/1 62/23/1 47/24/1
f 50/25/1 60/26/1 49/27/1
f 52/28/1 58/29/1 51/30/1
f 54/31/1 56/32/1 53/33/1
f 34/1/1 75/34/1 76/2/1
f 36/4/1 73/35/1 74/5/1
f 38/7/1 71/36/1 72/8/1
f 40/10/1 69/37/1 70/11/1
f 42/13/1 67/38/1 68/14/1
f 44/16/1 65/39/1 66/17/1
f 46/19/1 63/40/1 64/20/1
f 48/22/1 61/41/1 62/23/1
f 50/25/1 59/42/1 60/26/1
f 52/28/1 57/43/1 58/29/1
f 54/31/1 55/44/1 56/32/1
f 17/45/1 55/44/1 54/31/1
f 33/3/1 27/46/1 7/47/1
f 35/6/1 75/34/1 34/1/1
f 37/9/1 73/35/1 36/4/1
f 39/12/1 71/36/1 38/7/1
f 41/15/1 69/37/1 40/10/1
f 43/18/1 67/38/1 42/13/1
f 45/21/1 65/39/1 44/16/1
f 47/24/1 63/40/1 46/19/1
f 49/27/1 61/41/1 48/22/1
f 51/30/1 59/42/1 50/25/1
f 53/33/1 57/43/1 52/28/1
f 65/39/1 64/20/1 21/48/1
f 77/49/1 43/18/1 42/13/1
f 17/45/1 26/50/1 55/44/1
f 33/3/1 76/2/1 27/46/1
f 35/6/1 74/5/1 75/34/1
f 37/9/1 72/8/1 73/35/1
f 39/12/1 70/11/1 71/36/1
f 41/15/1 68/14/1 69/37/1
f 43/18/1 66/17/1 67/38/1
f 45/21/1 64/20/1 65/39/1
f 47/24/1 62/23/1 63/40/1
f 49/27/1 60/26/1 61/41/1
f 51/30/1 58/29/1 59/42/1
f 53/33/1 56/32/1 57/43/1
f 21/48/1 12/51/1 66/17/1
f 12/51/1 27/46/1 76/2/1
f 76/2/1 75/34/1 12/51/1
f 75/34/1 74/5/1 12/51/1
f 12/51/1 74/5/1 73/35/1
f 55/44/1 26/50/1 21/48/1
f 58/29/1 57/43/1 21/48/1
f 57/43/1 56/32/1 21/48/1
f 56/32/1 55/44/1 21/48/1
f 73/35/1 72/8/1 12/51/1
f 72/8/1 71/36/1 12/51/1
f 12/51/1 71/36/1 70/11/1
f 61/41/1 60/26/1 21/48/1
f 60/26/1 59/42/1 21/48/1
f 59/42/1 58/29/1 21/48/1
f 70/11/1 69/37/1 12/51/1
f 69/37/1 68/14/1 12/51/1
f 12/51/1 68/14/1 67/38/1
f 64/20/1 63/40/1 21/48/1
f 63/40/1 62/23/1 21/48/1
f 62/23/1 61/41/1 21/48/1
f 67/38/1 66/17/1 12/51/1
f 66/17/1 65/39/1 21/48/1
f 7/47/1 3/52/1 33/3/1
f 3/52/1 77/49/1 38/7/1
f 33/3/1 3/52/1 34/1/1
f 77/49/1 13/53/1 49/27/1
f 13/53/1 17/45/1 54/31/1
f 54/31/1 53/33/1 13/53/1
f 53/33/1 52/28/1 13/53/1
f 13/53/1 52/28/1 51/30/1
f 34/1/1 3/52/1 35/6/1
f 36/4/1 35/6/1 3/52/1
f 36/4/1 3/52/1 37/9/1
f 51/30/1 50/25/1 13/53/1
f 50/25/1 49/27/1 13/53/1
f 37/9/1 3/52/1 38/7/1
f 39/12/1 38/7/1 77/49/1
f 48/22/1 47/24/1 77/49/1
f 47/24/1 46/19/1 77/49/1
f 77/49/1 49/27/1 48/22/1
f 42/13/1 41/15/1 77/49/1
f 41/15/1 40/10/1 77/49/1
f 40/10/1 39/12/1 77/49/1
f 45/21/1 44/16/1 77/49/1
f 44/16/1 43/18/1 77/49/1
f 77/49/1 46/19/1 45/21/1
f 8/54/2 3/55/2 7/56/2
f 9/57/1 4/58/1 8/59/1
f 10/60/3 5/61/3 9/62/3
f 25/63/3 21/64/3 26/65/3
f 13/66/3 18/67/3 17/68/3
f 14/69/1 19/70/1 18/71/1
f 15/72/2 20/73/2 19/74/2
f 29/75/2 23/76/2 30/77/2
f 27/78/2 11/79/2 28/80/2
f 31/81/3 1/82/3 32/83/3
f 30/84/1 22/85/1 25/86/1
f 28/87/1 2/88/1 31/89/1
f 8/59/1 31/89/1 9/57/1
f 19/70/1 25/86/1 18/71/1
f 9/62/3 32/83/3 10/60/3
f 7/56/2 28/80/2 8/54/2
f 20/73/2 30/77/2 19/74/2
f 18/67/3 26/65/3 17/68/3
f 8/54/2 4/90/2 3/55/2
f 9/57/1 5/91/1 4/58/1
f 10/60/3 6/92/3 5/61/3
f 25/63/3 22/93/3 21/64/3
f 13/66/3 14/94/3 18/67/3
f 14/69/1 15/95/1 19/70/1
f 15/72/2 16/96/2 20/73/2
f 29/75/2 24/97/2 23/76/2
f 27/78/2 12/98/2 11/79/2
f 31/81/3 2/99/3 1/82/3
f 30/84/1 23/100/1 22/85/1
f 28/87/1 11/101/1 2/88/1
f 8/59/1 28/87/1 31/89/1
f 19/70/1 30/84/1 25/86/1
f 9/62/3 31/81/3 32/83/3
f 7/56/2 27/78/2 28/80/2
f 20/73/2 29/75/2 30/77/2
f 18/67/3 25/63/3 26/65/3
