# Blender v2.80 (sub 75) OBJ File: 'junction_02.blend'
# www.blender.org
o Plane
v 3.500000 -0.000000 -5.131600
v 3.500000 0.100000 -5.131600
v -0.000000 -0.000000 -3.912400
v -0.000000 0.100000 -3.912400
v -0.000000 0.100000 -5.131600
v -0.000000 -0.000000 -5.131600
v 0.500000 -0.000000 -3.912400
v 0.500000 0.100000 -3.912400
v 0.500000 0.100000 -5.131600
v 0.500000 -0.000000 -5.131600
v 3.500000 0.100000 -3.912400
v 3.500000 -0.000000 -3.912400
v -0.000000 -0.000000 3.912400
v -0.000000 0.100000 3.912400
v -0.000000 0.100000 5.131600
v -0.000000 -0.000000 5.131600
v 0.500000 -0.000000 3.912400
v 0.500000 0.100000 3.912400
v 0.500000 0.100000 5.131600
v 0.500000 -0.000000 5.131600
v 3.500000 -0.000000 3.912400
v 3.500000 0.100000 3.912400
v 3.500000 0.100000 5.131600
v 3.500000 -0.000000 5.131600
v 3.000000 0.100000 3.912400
v 3.000000 -0.000000 3.912400
v 3.000000 -0.000000 -3.912400
v 3.000000 0.100000 -3.912400
v 3.000000 -0.000000 5.131600
v 3.000000 0.100000 5.131600
v 3.000000 0.100000 -5.131600
v 3.000000 -0.000000 -5.131600
v -0.000000 -0.000000 0.000000
v 0.499996 -0.000000 -0.609600
v 0.499996 0.100000 -0.609600
v 0.499996 0.100000 0.609600
v 0.499996 -0.000000 0.609600
v 3.499996 -0.000000 -0.609600
v 3.499996 0.100000 -0.609600
v 3.499996 0.100000 0.609600
v 3.499996 -0.000000 0.609600
v 2.999996 0.100000 -0.609600
v 2.999996 -0.000000 -0.609600
v 2.999996 -0.000000 0.609600
v 2.999996 0.100000 0.609600
v 2.999997 -0.000000 1.081429
v 2.999997 -0.000000 1.553257
v 2.999998 -0.000000 2.025086
v 2.999998 -0.000000 2.496914
v 2.999999 -0.000000 2.968743
v 3.000000 -0.000000 3.440572
v 0.499997 -0.000000 1.081429
v 0.499997 -0.000000 1.553257
v 0.499998 -0.000000 2.025086
v 0.499998 -0.000000 2.496914
v 0.499999 -0.000000 2.968743
v 0.499999 -0.000000 3.440572
v 0.499999 -0.000000 -3.440572
v 0.499999 -0.000000 -2.968743
v 0.499998 -0.000000 -2.496914
v 0.499998 -0.000000 -2.025085
v 0.499997 -0.000000 -1.553257
v 0.499997 -0.000000 -1.081428
v 2.999997 -0.000000 -1.081429
v 2.999997 -0.000000 -1.553257
v 2.999998 -0.000000 -2.025086
v 2.999998 -0.000000 -2.496914
v 2.999999 -0.000000 -2.968743
v 3.000000 -0.000000 -3.440572
vt 0.367647 0.120598
vt 0.000000 0.060300
vt 0.367647 0.060299
vt 0.367647 0.241197
vt 0.000000 0.180898
vt 0.367647 0.180897
vt 0.367647 0.361795
vt 0.000000 0.301496
vt 0.367647 0.301496
vt 0.882353 0.060300
vt 0.514706 0.120598
vt 0.514706 0.060299
vt 0.882353 0.180898
vt 0.514706 0.241197
vt 0.514706 0.180897
vt 0.882353 0.301496
vt 0.514706 0.361795
vt 0.514706 0.301496
vt 0.000000 0.120599
vt 0.000000 0.241197
vt 0.000000 0.361795
vt 0.882353 0.120599
vt 0.882353 0.241197
vt 0.882353 0.361795
vt 0.955882 0.500000
vt 0.955882 1.000000
vt 0.882353 1.000000
vt 0.514706 0.422094
vt 0.367647 0.422094
vt 0.441176 0.000000
vt 0.000000 0.000000
vt 0.367647 0.000000
vt 0.882353 0.000000
vt 0.514706 0.000000
vt 0.441176 0.422094
vt 0.955882 0.000000
vt 0.882353 0.422094
vt 0.000000 0.422094
vt 0.441176 0.422094
vt 0.441176 0.000000
vt 0.955882 0.063899
vt 0.970588 0.000000
vt 0.970588 0.063899
vt 0.000000 0.485994
vt 0.179294 0.422094
vt 0.179294 0.485994
vt 0.985294 0.383396
vt 0.970588 0.447296
vt 0.970588 0.383396
vt 0.537882 0.485994
vt 0.552588 0.422094
vt 0.552588 0.485994
vt 0.552588 0.869390
vt 0.537882 0.805491
vt 0.552588 0.805491
vt 0.179294 0.422094
vt 0.358588 0.485994
vt 0.179294 0.485994
vt 0.985294 0.000000
vt 1.000000 0.063899
vt 0.985294 0.063899
vt 1.000000 0.383396
vt 0.985294 0.447296
vt 0.985294 0.383396
vt 0.970588 0.383396
vt 0.955882 0.447296
vt 0.955882 0.383396
vt 0.970588 0.063899
vt 0.985294 0.000000
vt 0.985294 0.063899
vt 0.358588 0.805491
vt 0.179294 0.869390
vt 0.179294 0.805491
vt 0.179294 0.805491
vt 0.000000 0.869390
vt 0.000000 0.805491
vt 0.567294 0.485994
vt 0.582000 0.422094
vt 0.582000 0.485994
vt 0.567294 0.741591
vt 0.552588 0.805491
vt 0.552588 0.741591
vt 0.537882 0.741591
vt 0.358588 0.805491
vt 0.358588 0.741591
vt 0.537882 0.422094
vt 0.358588 0.422094
vt 0.567294 0.422094
vt 0.552588 0.422094
vt 0.567294 0.805491
vt 0.582000 0.805491
vt 0.596706 0.577907
vt 0.582000 0.422094
vt 0.596706 0.422094
vt 0.955882 0.000000
vt 0.000000 0.422094
vt 0.985294 0.447296
vt 0.537882 0.422094
vt 0.537882 0.869390
vt 0.358588 0.422094
vt 1.000000 0.000000
vt 1.000000 0.447296
vt 0.970588 0.447296
vt 0.970588 0.000000
vt 0.358588 0.869390
vt 0.179294 0.869390
vt 0.567294 0.422094
vt 0.567294 0.805491
vt 0.537882 0.805491
vt 0.582000 0.577907
vn 0.0000 1.0000 0.0000
vn 0.0000 0.0000 1.0000
vn 0.0000 0.0000 -1.0000
vn -1.0000 0.0000 0.0000
s off
f 50/1/1 57/2/1 51/3/1
f 48/4/1 55/5/1 49/6/1
f 46/7/1 53/8/1 47/9/1
f 58/10/1 68/11/1 69/12/1
f 60/13/1 66/14/1 67/15/1
f 62/16/1 64/17/1 65/18/1
f 50/1/1 56/19/1 57/2/1
f 48/4/1 54/20/1 55/5/1
f 46/7/1 52/21/1 53/8/1
f 58/10/1 59/22/1 68/11/1
f 60/13/1 61/23/1 66/14/1
f 62/16/1 63/24/1 64/17/1
f 33/25/1 13/26/1 17/27/1
f 63/24/1 43/28/1 64/17/1
f 44/29/1 52/21/1 46/7/1
f 49/6/1 50/1/1 21/30/1
f 51/3/1 17/31/1 26/32/1
f 49/6/1 56/19/1 50/1/1
f 47/9/1 54/20/1 48/4/1
f 7/33/1 69/12/1 27/34/1
f 59/22/1 67/15/1 68/11/1
f 61/23/1 65/18/1 66/14/1
f 66/14/1 65/18/1 38/35/1
f 17/27/1 7/33/1 33/25/1
f 7/33/1 3/36/1 33/25/1
f 63/24/1 34/37/1 43/28/1
f 44/29/1 37/38/1 52/21/1
f 26/32/1 21/30/1 51/3/1
f 21/30/1 41/39/1 49/6/1
f 51/3/1 21/30/1 50/1/1
f 41/39/1 44/29/1 46/7/1
f 47/9/1 48/4/1 41/39/1
f 48/4/1 49/6/1 41/39/1
f 41/39/1 46/7/1 47/9/1
f 51/3/1 57/2/1 17/31/1
f 49/6/1 55/5/1 56/19/1
f 47/9/1 53/8/1 54/20/1
f 7/33/1 58/10/1 69/12/1
f 59/22/1 60/13/1 67/15/1
f 61/23/1 62/16/1 65/18/1
f 64/17/1 43/28/1 38/35/1
f 38/35/1 12/40/1 67/15/1
f 12/40/1 27/34/1 69/12/1
f 69/12/1 68/11/1 12/40/1
f 68/11/1 67/15/1 12/40/1
f 65/18/1 64/17/1 38/35/1
f 67/15/1 66/14/1 38/35/1
f 8/41/2 3/42/2 7/43/2
f 9/44/1 4/45/1 8/46/1
f 10/47/3 5/48/3 9/49/3
f 25/50/3 21/51/3 26/52/3
f 13/53/3 18/54/3 17/55/3
f 14/56/1 19/57/1 18/58/1
f 15/59/2 20/60/2 19/61/2
f 29/62/2 23/63/2 30/64/2
f 27/65/2 11/66/2 28/67/2
f 31/68/3 1/69/3 32/70/3
f 30/71/1 22/72/1 25/73/1
f 28/74/1 2/75/1 31/76/1
f 8/46/1 31/76/1 9/44/1
f 19/57/1 25/73/1 18/58/1
f 9/49/3 32/70/3 10/47/3
f 7/43/2 28/67/2 8/41/2
f 20/60/2 30/64/2 19/61/2
f 18/54/3 26/52/3 17/55/3
f 42/77/3 38/78/3 43/79/3
f 44/80/2 40/81/2 45/82/2
f 45/83/1 39/84/1 42/85/1
f 36/86/1 42/85/1 35/87/1
f 37/88/2 45/82/2 36/89/2
f 35/90/3 43/79/3 34/91/3
f 35/92/4 37/93/4 36/94/4
f 8/41/2 4/95/2 3/42/2
f 9/44/1 5/96/1 4/45/1
f 10/47/3 6/97/3 5/48/3
f 25/50/3 22/98/3 21/51/3
f 13/53/3 14/99/3 18/54/3
f 14/56/1 15/100/1 19/57/1
f 15/59/2 16/101/2 20/60/2
f 29/62/2 24/102/2 23/63/2
f 27/65/2 12/103/2 11/66/2
f 31/68/3 2/104/3 1/69/3
f 30/71/1 23/105/1 22/72/1
f 28/74/1 11/106/1 2/75/1
f 8/46/1 28/74/1 31/76/1
f 19/57/1 30/71/1 25/73/1
f 9/49/3 31/68/3 32/70/3
f 7/43/2 27/65/2 28/67/2
f 20/60/2 29/62/2 30/64/2
f 18/54/3 25/50/3 26/52/3
f 42/77/3 39/107/3 38/78/3
f 44/80/2 41/108/2 40/81/2
f 45/83/1 40/109/1 39/84/1
f 36/86/1 45/83/1 42/85/1
f 37/88/2 44/80/2 45/82/2
f 35/90/3 42/77/3 43/79/3
f 35/92/4 34/110/4 37/93/4
