# Blender v2.80 (sub 75) OBJ File: 'end_02.blend'
# www.blender.org
o Plane
v 0.000000 -0.000000 -3.912400
v 0.000000 -0.000000 -0.609600
v 0.000000 0.100000 -3.912400
v 0.000000 0.100000 -5.131600
v 0.000000 -0.000000 -5.131600
v 0.157776 0.100000 -0.588828
v 1.328156 -0.000000 -4.956745
v 1.328156 0.100000 -4.956745
v 1.012604 0.100000 -3.779088
v 0.000000 0.100000 -0.609600
v 0.157776 -0.000000 -0.588828
v 1.012604 -0.000000 -3.779088
v 0.304800 0.100000 -0.527929
v 2.565800 -0.000000 -4.444096
v 2.565800 0.100000 -4.444096
v 1.956200 0.100000 -3.388238
v 0.304800 -0.000000 -0.527929
v 1.956200 -0.000000 -3.388238
v 0.431052 0.100000 -0.431052
v 3.628589 -0.000000 -3.628589
v 3.628589 0.100000 -3.628589
v 2.766485 0.100000 -2.766485
v 0.431052 -0.000000 -0.431052
v 2.766485 -0.000000 -2.766485
v 0.527929 0.100000 -0.304800
v 4.444096 -0.000000 -2.565800
v 4.444096 0.100000 -2.565800
v 3.388238 0.100000 -1.956200
v 0.527929 -0.000000 -0.304800
v 3.388238 -0.000000 -1.956200
v 0.588828 0.100000 -0.157776
v 4.956744 -0.000000 -1.328156
v 4.956744 0.100000 -1.328156
v 3.779088 0.100000 -1.012604
v 0.588828 -0.000000 -0.157776
v 3.779088 -0.000000 -1.012604
v 0.609600 0.100000 0.000000
v 5.131599 -0.000000 0.000000
v 5.131599 0.100000 0.000000
v 3.912400 0.100000 0.000000
v 0.609600 -0.000000 -0.000000
v 3.912400 -0.000000 0.000000
v 0.588828 0.100000 0.157776
v 4.956744 -0.000000 1.328156
v 4.956744 0.100000 1.328156
v 3.779088 0.100000 1.012604
v 0.588828 -0.000000 0.157776
v 3.779088 -0.000000 1.012604
v 0.527929 0.100000 0.304800
v 4.444095 -0.000000 2.565799
v 4.444095 0.100000 2.565799
v 3.388238 0.100000 1.956200
v 0.527929 -0.000000 0.304800
v 3.388238 -0.000000 1.956200
v 0.431052 0.100000 0.431052
v 3.628588 -0.000000 3.628588
v 3.628588 0.100000 3.628588
v 2.766485 0.100000 2.766485
v 0.431052 -0.000000 0.431052
v 2.766485 -0.000000 2.766485
v 0.304800 0.100000 0.527929
v 2.565799 -0.000000 4.444095
v 2.565799 0.100000 4.444095
v 1.956200 0.100000 3.388238
v 0.304800 -0.000000 0.527929
v 1.956200 -0.000000 3.388238
v 0.157776 0.100000 0.588828
v 1.328155 -0.000000 4.956744
v 1.328155 0.100000 4.956744
v 1.012604 0.100000 3.779088
v 0.157776 -0.000000 0.588828
v 1.012604 -0.000000 3.779088
v -0.000000 0.100000 -0.000000
v 0.000000 0.100000 0.609600
v -0.000000 -0.000000 5.131598
v -0.000000 0.100000 5.131598
v 0.000000 0.100000 3.912400
v 0.000000 -0.000000 0.609600
v 0.000000 -0.000000 3.912400
vt 0.841104 0.431431
vt 0.737843 0.217217
vt 0.841104 0.217217
vt 0.422054 0.649650
vt 0.630578 0.755756
vt 0.422054 0.755756
vt 0.735841 0.431431
vt 0.632580 0.217217
vt 0.735841 0.217217
vt 0.632580 0.433433
vt 0.841104 0.539540
vt 0.632580 0.539540
vt 0.737843 0.755756
vt 0.841104 0.541542
vt 0.841104 0.755756
vt 0.211527 0.865866
vt 0.420052 0.971972
vt 0.211527 0.971972
vt 0.001001 0.971972
vt 0.209525 0.865866
vt 0.209525 0.971972
vt 0.422054 0.865866
vt 0.630578 0.971972
vt 0.422054 0.971972
vt 0.735841 0.755756
vt 0.632580 0.541542
vt 0.735841 0.541542
vt 0.422054 0.757758
vt 0.630578 0.863864
vt 0.422054 0.863864
vt 0.843106 0.215215
vt 0.946367 0.001001
vt 0.946367 0.215215
vt 0.632580 0.757758
vt 0.841104 0.863864
vt 0.632580 0.863864
vt 0.737843 0.431431
vt 0.630578 0.649650
vt 0.632580 0.431431
vt 0.841104 0.433433
vt 0.737843 0.541542
vt 0.420052 0.865866
vt 0.001001 0.865866
vt 0.630578 0.865866
vt 0.632580 0.755756
vt 0.630578 0.757758
vt 0.843106 0.001001
vt 0.841104 0.757758
vt 0.893736 0.431431
vt 0.869422 0.217217
vt 0.893736 0.217217
vt 0.211527 0.998999
vt 0.314788 0.973974
vt 0.314788 0.998999
vt 0.998999 0.161161
vt 0.974685 0.136136
vt 0.998999 0.136136
vt 0.420052 0.215215
vt 0.211527 0.001001
vt 0.420052 0.001001
vt 0.528318 0.998999
vt 0.630578 0.998999
vt 0.630578 0.974975
vt 0.209525 0.647648
vt 0.001001 0.433433
vt 0.209525 0.433433
vt 0.972683 0.161161
vt 0.948369 0.136136
vt 0.972683 0.136136
vt 0.106264 0.998999
vt 0.209525 0.973974
vt 0.209525 0.998999
vt 0.893736 0.863864
vt 0.869422 0.649650
vt 0.893736 0.649650
vt 0.629577 0.973974
vt 0.527317 0.997998
vt 0.527317 0.973974
vt 0.946367 0.539540
vt 0.922054 0.433433
vt 0.946367 0.433433
vt 0.632580 0.917918
vt 0.841104 0.892893
vt 0.841104 0.917918
vt 0.946367 0.758759
vt 0.923055 0.863864
vt 0.946367 0.863864
vt 0.420052 0.649650
vt 0.211527 0.863864
vt 0.211527 0.649650
vt 0.998999 0.134134
vt 0.974685 0.109109
vt 0.998999 0.109109
vt 0.843106 0.971972
vt 0.946367 0.946947
vt 0.946367 0.971972
vt 0.867420 0.863864
vt 0.843106 0.649650
vt 0.867420 0.649650
vt 0.922054 0.862863
vt 0.945366 0.757758
vt 0.922054 0.757758
vt 0.630578 0.431431
vt 0.422054 0.217217
vt 0.630578 0.217217
vt 0.972683 0.134134
vt 0.948369 0.109109
vt 0.972683 0.109109
vt 0.946367 0.431431
vt 0.922054 0.325325
vt 0.946367 0.325325
vt 0.632580 0.971972
vt 0.841104 0.946947
vt 0.841104 0.971972
vt 0.423055 0.998999
vt 0.525315 0.974975
vt 0.525315 0.998999
vt 0.209525 0.431431
vt 0.001001 0.217217
vt 0.209525 0.217217
vt 0.998999 0.082082
vt 0.974685 0.107107
vt 0.974685 0.082082
vt 0.843106 0.917918
vt 0.946367 0.892893
vt 0.946367 0.917918
vt 0.867420 0.647648
vt 0.843106 0.433433
vt 0.867420 0.433433
vt 0.524314 0.973974
vt 0.422054 0.997998
vt 0.422054 0.973974
vt 0.841104 0.001001
vt 0.632580 0.215215
vt 0.632580 0.001001
vt 0.972683 0.082082
vt 0.948369 0.107107
vt 0.948369 0.082082
vt 0.867420 0.431431
vt 0.843106 0.217217
vt 0.867420 0.217217
vt 0.946367 0.650651
vt 0.923055 0.755756
vt 0.946367 0.755756
vt 0.420052 0.647648
vt 0.211527 0.433433
vt 0.420052 0.433433
vt 0.998999 0.055055
vt 0.974685 0.080080
vt 0.974685 0.055055
vt 0.946367 0.323323
vt 0.922054 0.217217
vt 0.946367 0.217217
vt 0.922054 0.754755
vt 0.945366 0.649650
vt 0.922054 0.649650
vt 0.209525 0.215215
vt 0.001001 0.001001
vt 0.209525 0.001001
vt 0.972683 0.055055
vt 0.948369 0.080080
vt 0.948369 0.055055
vt 0.920052 0.755756
vt 0.895738 0.649650
vt 0.920052 0.649650
vt 0.632580 0.944945
vt 0.841104 0.919920
vt 0.841104 0.944945
vt 0.630578 0.001001
vt 0.422054 0.215215
vt 0.422054 0.001001
vt 0.998999 0.028028
vt 0.974685 0.053053
vt 0.974685 0.028028
vt 0.843106 0.890891
vt 0.946367 0.865866
vt 0.946367 0.890891
vt 0.920052 0.647648
vt 0.895738 0.433433
vt 0.920052 0.433433
vt 0.317791 0.998999
vt 0.420052 0.974975
vt 0.420052 0.998999
vt 0.209525 0.863864
vt 0.001001 0.649650
vt 0.209525 0.649650
vt 0.972683 0.028028
vt 0.948369 0.053053
vt 0.948369 0.028028
vt 0.920052 0.863864
vt 0.895738 0.757758
vt 0.920052 0.757758
vt 0.632580 0.890891
vt 0.841104 0.865866
vt 0.841104 0.890891
vt 0.419051 0.973974
vt 0.316790 0.997998
vt 0.316790 0.973974
vt 0.420052 0.431431
vt 0.211527 0.217217
vt 0.420052 0.217217
vt 0.998999 0.001001
vt 0.974685 0.026026
vt 0.974685 0.001001
vt 0.843106 0.944945
vt 0.946367 0.919920
vt 0.946367 0.944945
vt 0.893736 0.647648
vt 0.869422 0.433433
vt 0.893736 0.433433
vt 0.946367 0.542543
vt 0.946367 0.647648
vt 0.923055 0.647648
vt 0.630578 0.647648
vt 0.422054 0.433433
vt 0.630578 0.433433
vt 0.972683 0.001001
vt 0.948369 0.026026
vt 0.948369 0.001001
vt 0.001001 0.998999
vt 0.104262 0.973974
vt 0.104262 0.998999
vt 0.920052 0.431431
vt 0.895738 0.217217
vt 0.920052 0.217217
vt 0.922054 0.646647
vt 0.945366 0.541542
vt 0.922054 0.541542
vt 0.869422 0.431431
vt 0.211527 0.973974
vt 0.974685 0.161161
vt 0.211527 0.215215
vt 0.001001 0.647648
vt 0.948369 0.161161
vt 0.106264 0.973974
vt 0.869422 0.863864
vt 0.922054 0.539540
vt 0.632580 0.892893
vt 0.420052 0.863864
vt 0.974685 0.134134
vt 0.843106 0.946947
vt 0.843106 0.863864
vt 0.422054 0.431431
vt 0.948369 0.134134
vt 0.922054 0.431431
vt 0.632580 0.946947
vt 0.001001 0.431431
vt 0.998999 0.107107
vt 0.843106 0.892893
vt 0.843106 0.647648
vt 0.841104 0.215215
vt 0.972683 0.107107
vt 0.843106 0.431431
vt 0.211527 0.647648
vt 0.998999 0.080080
vt 0.922054 0.323323
vt 0.001001 0.215215
vt 0.972683 0.080080
vt 0.895738 0.755756
vt 0.632580 0.919920
vt 0.630578 0.215215
vt 0.998999 0.053053
vt 0.843106 0.865866
vt 0.895738 0.647648
vt 0.001001 0.863864
vt 0.972683 0.053053
vt 0.895738 0.863864
vt 0.632580 0.865866
vt 0.211527 0.431431
vt 0.998999 0.026026
vt 0.843106 0.919920
vt 0.869422 0.647648
vt 0.422054 0.647648
vt 0.972683 0.026026
vt 0.001001 0.973974
vt 0.895738 0.431431
vn 0.0000 1.0000 0.0000
vn 0.1305 0.0000 -0.9914
vn -0.1305 0.0000 0.9914
vn 0.3827 0.0000 -0.9239
vn -0.3827 0.0000 0.9239
vn -0.6088 0.0000 0.7934
vn 0.6088 0.0000 -0.7934
vn -0.7934 0.0000 0.6088
vn 0.7934 0.0000 -0.6088
vn -0.9239 0.0000 0.3827
vn 0.9239 0.0000 -0.3827
vn -0.9914 0.0000 0.1305
vn 0.9914 0.0000 -0.1305
vn 0.9914 0.0000 0.1305
vn -0.9914 0.0000 -0.1305
vn 0.9239 0.0000 0.3827
vn -0.9239 0.0000 -0.3827
vn 0.7934 0.0000 0.6088
vn -0.7934 0.0000 -0.6088
vn 0.6088 0.0000 0.7934
vn -0.6088 0.0000 -0.7934
vn 0.3827 0.0000 0.9239
vn -0.3827 0.0000 -0.9239
vn 0.1305 0.0000 0.9914
vn -0.1305 0.0000 -0.9914
s off
f 2/1/1 12/2/1 1/3/1
f 17/4/1 12/5/1 11/6/1
f 17/7/1 24/8/1 18/9/1
f 29/10/1 24/11/1 23/12/1
f 35/13/1 30/14/1 29/15/1
f 41/16/1 36/17/1 35/18/1
f 41/19/1 48/20/1 42/21/1
f 53/22/1 48/23/1 47/24/1
f 53/25/1 60/26/1 54/27/1
f 65/28/1 60/29/1 59/30/1
f 71/31/1 66/32/1 65/33/1
f 78/34/1 72/35/1 71/36/1
f 2/1/1 11/37/1 12/2/1
f 17/4/1 18/38/1 12/5/1
f 17/7/1 23/39/1 24/8/1
f 29/10/1 30/40/1 24/11/1
f 35/13/1 36/41/1 30/14/1
f 41/16/1 42/42/1 36/17/1
f 41/19/1 47/43/1 48/20/1
f 53/22/1 54/44/1 48/23/1
f 53/25/1 59/45/1 60/26/1
f 65/28/1 66/46/1 60/29/1
f 71/31/1 72/47/1 66/32/1
f 78/34/1 79/48/1 72/35/1
f 8/49/2 5/50/2 4/51/2
f 12/52/3 3/53/3 1/54/3
f 6/55/2 2/56/2 10/57/2
f 9/58/1 4/59/1 3/60/1
f 73/61/1 6/62/1 10/63/1
f 16/64/1 8/65/1 9/66/1
f 13/67/4 11/68/4 6/69/4
f 18/70/5 9/71/5 12/72/5
f 15/73/4 7/74/4 8/75/4
f 73/76/1 13/77/1 6/78/1
f 24/79/6 16/80/6 18/81/6
f 21/82/7 14/83/7 15/84/7
f 73/85/1 19/86/1 13/87/1
f 16/88/1 21/89/1 15/90/1
f 19/91/7 17/92/7 13/93/7
f 30/94/8 22/95/8 24/96/8
f 27/97/9 20/98/9 21/99/9
f 73/100/1 25/101/1 19/102/1
f 28/103/1 21/104/1 22/105/1
f 25/106/9 23/107/9 19/108/9
f 36/109/10 28/110/10 30/111/10
f 33/112/11 26/113/11 27/114/11
f 73/115/1 31/116/1 25/117/1
f 34/118/1 27/119/1 28/120/1
f 25/121/11 35/122/11 29/123/11
f 42/124/12 34/125/12 36/126/12
f 39/127/13 32/128/13 33/129/13
f 73/130/1 37/131/1 31/132/1
f 34/133/1 39/134/1 33/135/1
f 31/136/13 41/137/13 35/138/13
f 45/139/14 38/140/14 39/141/14
f 73/142/1 43/143/1 37/144/1
f 46/145/1 39/146/1 40/147/1
f 37/148/14 47/149/14 41/150/14
f 48/151/15 40/152/15 42/153/15
f 73/154/1 49/155/1 43/156/1
f 52/157/1 45/158/1 46/159/1
f 43/160/16 53/161/16 47/162/16
f 54/163/17 46/164/17 48/165/17
f 51/166/16 44/167/16 45/168/16
f 52/169/1 57/170/1 51/171/1
f 49/172/18 59/173/18 53/174/18
f 60/175/19 52/176/19 54/177/19
f 57/178/18 50/179/18 51/180/18
f 73/181/1 55/182/1 49/183/1
f 64/184/1 57/185/1 58/186/1
f 55/187/20 65/188/20 59/189/20
f 66/190/21 58/191/21 60/192/21
f 63/193/20 56/194/20 57/195/20
f 73/196/1 61/197/1 55/198/1
f 70/199/1 63/200/1 64/201/1
f 61/202/22 71/203/22 65/204/22
f 72/205/23 64/206/23 66/207/23
f 69/208/22 62/209/22 63/210/22
f 73/211/1 67/212/1 61/213/1
f 77/214/1 69/215/1 70/216/1
f 67/217/24 78/218/24 71/219/24
f 79/220/25 70/221/25 72/222/25
f 76/223/24 68/224/24 69/225/24
f 73/226/1 74/227/1 67/228/1
f 8/49/2 7/229/2 5/50/2
f 12/52/3 9/230/3 3/53/3
f 6/55/2 11/231/2 2/56/2
f 9/58/1 8/232/1 4/59/1
f 16/64/1 15/233/1 8/65/1
f 13/67/4 17/234/4 11/68/4
f 18/70/5 16/235/5 9/71/5
f 15/73/4 14/236/4 7/74/4
f 24/79/6 22/237/6 16/80/6
f 21/82/7 20/238/7 14/83/7
f 16/88/1 22/239/1 21/89/1
f 19/91/7 23/240/7 17/92/7
f 30/94/8 28/241/8 22/95/8
f 27/97/9 26/242/9 20/98/9
f 28/103/1 27/243/1 21/104/1
f 25/106/9 29/244/9 23/107/9
f 36/109/10 34/245/10 28/110/10
f 33/112/11 32/246/11 26/113/11
f 34/118/1 33/247/1 27/119/1
f 25/121/11 31/248/11 35/122/11
f 42/124/12 40/249/12 34/125/12
f 39/127/13 38/250/13 32/128/13
f 34/133/1 40/251/1 39/134/1
f 31/136/13 37/252/13 41/137/13
f 45/139/14 44/253/14 38/140/14
f 46/145/1 45/254/1 39/146/1
f 37/148/14 43/255/14 47/149/14
f 48/151/15 46/256/15 40/152/15
f 52/157/1 51/257/1 45/158/1
f 43/160/16 49/258/16 53/161/16
f 54/163/17 52/259/17 46/164/17
f 51/166/16 50/260/16 44/167/16
f 52/169/1 58/261/1 57/170/1
f 49/172/18 55/262/18 59/173/18
f 60/175/19 58/263/19 52/176/19
f 57/178/18 56/264/18 50/179/18
f 64/184/1 63/265/1 57/185/1
f 55/187/20 61/266/20 65/188/20
f 66/190/21 64/267/21 58/191/21
f 63/193/20 62/268/20 56/194/20
f 70/199/1 69/269/1 63/200/1
f 61/202/22 67/270/22 71/203/22
f 72/205/23 70/271/23 64/206/23
f 69/208/22 68/272/22 62/209/22
f 77/214/1 76/273/1 69/215/1
f 67/217/24 74/274/24 78/218/24
f 79/220/25 77/275/25 70/221/25
f 76/223/24 75/276/24 68/224/24
