# Blender v2.80 (sub 75) OBJ File: 'road_00.blend'
# www.blender.org
o Plane
v 0.000000 -0.000000 3.352800
v 0.000000 -0.000000 0.050000
v 0.000000 0.100000 3.352800
v 0.000000 0.100000 4.572000
v 0.000000 -0.000000 4.572000
v 1.500000 -0.000000 0.050000
v 1.500000 -0.000000 3.352800
v 1.500000 0.100000 3.352800
v 1.500000 0.100000 4.572000
v 1.500000 -0.000000 4.572000
v 0.000000 -0.000000 -3.352800
v 0.000000 -0.000000 -0.050000
v 0.000000 0.100000 -3.352800
v 0.000000 0.100000 -4.572000
v 0.000000 -0.000000 -4.572000
v 1.500000 -0.000000 -0.050000
v 1.500000 -0.000000 -3.352800
v 1.500000 0.100000 -3.352800
v 1.500000 0.100000 -4.572000
v 1.500000 -0.000000 -4.572000
v 4.500000 -0.000000 3.352800
v 4.500000 -0.000000 0.050000
v 4.500000 0.100000 3.352800
v 4.500000 0.100000 4.572000
v 4.500000 -0.000000 4.572000
v 3.000000 -0.000000 0.050000
v 3.000000 -0.000000 3.352800
v 3.000000 0.100000 3.352800
v 3.000000 0.100000 4.572000
v 3.000000 -0.000000 4.572000
v 4.500000 -0.000000 -3.352800
v 4.500000 -0.000000 -0.050000
v 4.500000 0.100000 -3.352800
v 4.500000 0.100000 -4.572000
v 4.500000 -0.000000 -4.572000
v 3.000000 -0.000000 -0.050000
v 3.000000 -0.000000 -3.352800
v 3.000000 0.100000 -3.352800
v 3.000000 0.100000 -4.572000
v 3.000000 -0.000000 -4.572000
vt 0.728274 0.601001
vt 0.817181 0.798999
vt 0.817181 0.601001
vt 0.728274 0.798999
vt 0.728274 0.201001
vt 0.817181 0.398999
vt 0.817181 0.201001
vt 0.726272 0.598999
vt 0.364637 0.401001
vt 0.364637 0.598999
vt 0.182819 0.201001
vt 0.362635 0.598999
vt 0.362635 0.201001
vt 0.362635 0.001001
vt 0.001001 0.198999
vt 0.362635 0.198999
vt 0.544454 0.001001
vt 0.364637 0.398999
vt 0.544454 0.398999
vt 0.001001 0.201001
vt 0.180817 0.598999
vt 0.180817 0.201001
vt 0.362635 0.798999
vt 0.001001 0.601001
vt 0.001001 0.798999
vt 0.908090 0.998999
vt 0.728274 0.901001
vt 0.728274 0.998999
vt 0.728274 0.398999
vt 0.726272 0.401001
vt 0.182819 0.598999
vt 0.001001 0.001001
vt 0.364637 0.001001
vt 0.001001 0.598999
vt 0.362635 0.601001
vt 0.908090 0.901001
vt 0.544454 0.898999
vt 0.364637 0.801001
vt 0.364637 0.898999
vt 0.364637 0.601001
vt 0.544454 0.798999
vt 0.544454 0.601001
vt 0.908090 0.201001
vt 0.819183 0.398999
vt 0.908090 0.398999
vt 0.362635 0.898999
vt 0.182819 0.801001
vt 0.182819 0.898999
vt 0.546456 0.201001
vt 0.726272 0.398999
vt 0.726272 0.201001
vt 0.726272 0.998999
vt 0.546456 0.901001
vt 0.546456 0.998999
vt 0.726272 0.801001
vt 0.546456 0.898999
vt 0.726272 0.898999
vt 0.728274 0.001001
vt 0.908090 0.198999
vt 0.908090 0.001001
vt 0.819183 0.601001
vt 0.908090 0.798999
vt 0.908090 0.601001
vt 0.546456 0.001001
vt 0.726272 0.198999
vt 0.726272 0.001001
vt 0.362635 0.998999
vt 0.182819 0.901001
vt 0.182819 0.998999
vt 0.728274 0.401001
vt 0.817181 0.598999
vt 0.817181 0.401001
vt 0.546456 0.601001
vt 0.726272 0.798999
vt 0.726272 0.601001
vt 0.544454 0.901001
vt 0.364637 0.998999
vt 0.544454 0.998999
vt 0.908090 0.898999
vt 0.728274 0.801001
vt 0.728274 0.898999
vt 0.001001 0.801001
vt 0.180817 0.998999
vt 0.180817 0.801001
vt 0.908090 0.401001
vt 0.819183 0.598999
vt 0.908090 0.598999
vt 0.998999 0.001001
vt 0.910092 0.198999
vt 0.998999 0.198999
vt 0.544454 0.801001
vt 0.364637 0.798999
vt 0.819183 0.201001
vt 0.362635 0.801001
vt 0.546456 0.398999
vt 0.726272 0.901001
vt 0.546456 0.801001
vt 0.728274 0.198999
vt 0.819183 0.798999
vt 0.546456 0.198999
vt 0.362635 0.901001
vt 0.728274 0.598999
vt 0.546456 0.798999
vt 0.364637 0.901001
vt 0.908090 0.801001
vt 0.001001 0.998999
vt 0.819183 0.401001
vt 0.910092 0.001001
vn 0.0000 1.0000 0.0000
vn 0.0000 0.0000 -1.0000
vn 0.0000 0.0000 1.0000
s off
f 36/1/1 6/2/1 26/3/1
f 36/1/1 16/4/1 6/2/1
f 26/5/1 32/6/1 36/7/1
f 1/8/1 6/9/1 2/10/1
f 6/11/1 27/12/1 26/13/1
f 16/14/1 11/15/1 12/16/1
f 37/17/1 16/18/1 36/19/1
f 26/20/1 21/21/1 22/22/1
f 31/23/1 36/24/1 32/25/1
f 12/26/1 6/27/1 16/28/1
f 26/5/1 22/29/1 32/6/1
f 1/8/1 7/30/1 6/9/1
f 6/11/1 7/31/1 27/12/1
f 16/14/1 17/32/1 11/15/1
f 37/17/1 17/33/1 16/18/1
f 26/20/1 27/34/1 21/21/1
f 31/23/1 37/35/1 36/24/1
f 12/26/1 2/36/1 6/27/1
f 1/37/2 8/38/2 7/39/2
f 3/40/1 9/41/1 8/42/1
f 4/43/3 10/44/3 9/45/3
f 37/46/3 18/47/3 17/48/3
f 29/49/1 8/50/1 9/51/1
f 30/52/3 9/53/3 10/54/3
f 18/55/3 11/56/3 17/57/3
f 19/58/1 13/59/1 18/60/1
f 20/61/2 14/62/2 19/63/2
f 38/64/1 19/65/1 18/66/1
f 39/67/2 20/68/2 19/69/2
f 28/70/2 21/71/2 27/72/2
f 29/73/1 23/74/1 28/75/1
f 30/76/3 24/77/3 29/78/3
f 31/79/3 38/80/3 37/81/3
f 33/82/1 39/83/1 38/84/1
f 34/85/2 40/86/2 39/87/2
f 28/88/2 7/89/2 8/90/2
f 1/37/2 3/91/2 8/38/2
f 3/40/1 4/92/1 9/41/1
f 4/43/3 5/93/3 10/44/3
f 37/46/3 38/94/3 18/47/3
f 29/49/1 28/95/1 8/50/1
f 30/52/3 29/96/3 9/53/3
f 18/55/3 13/97/3 11/56/3
f 19/58/1 14/98/1 13/59/1
f 20/61/2 15/99/2 14/62/2
f 38/64/1 39/100/1 19/65/1
f 39/67/2 40/101/2 20/68/2
f 28/70/2 23/102/2 21/71/2
f 29/73/1 24/103/1 23/74/1
f 30/76/3 25/104/3 24/77/3
f 31/79/3 33/105/3 38/80/3
f 33/82/1 34/106/1 39/83/1
f 34/85/2 35/107/2 40/86/2
f 28/88/2 27/108/2 7/89/2
