# Blender v2.80 (sub 75) OBJ File: 'junction_03.blend'
# www.blender.org
o Plane
v 3.500000 -0.000000 -6.833030
v 3.500000 0.100000 -6.833030
v -0.000000 -0.000000 -5.613830
v -0.000000 0.100000 -5.613830
v -0.000000 0.100000 -6.833030
v -0.000000 -0.000000 -6.833030
v 0.500000 -0.000000 -5.613830
v 0.500000 0.100000 -5.613830
v 0.500000 0.100000 -6.833030
v 0.500000 -0.000000 -6.833030
v 3.500000 0.100000 -5.613830
v 3.500000 -0.000000 -5.613830
v -0.000000 -0.000000 5.613770
v -0.000000 0.100000 5.613770
v -0.000000 0.100000 6.832969
v -0.000000 -0.000000 6.832969
v 0.500000 -0.000000 5.613770
v 0.500000 0.100000 5.613770
v 0.500000 0.100000 6.832969
v 0.500000 -0.000000 6.832969
v 3.500000 -0.000000 5.613770
v 3.500000 0.100000 5.613770
v 3.500000 0.100000 6.832969
v 3.500000 -0.000000 6.832969
v 3.000000 0.100000 5.613770
v 3.000000 -0.000000 5.613770
v 3.000000 -0.000000 -5.613830
v 3.000000 0.100000 -5.613830
v 3.000000 -0.000000 6.832969
v 3.000000 0.100000 6.832969
v 3.000000 0.100000 -6.833030
v 3.000000 -0.000000 -6.833030
v 0.000000 0.000000 0.000000
v 0.499996 -0.000000 -2.311030
v 0.499996 0.100000 -2.311030
v 0.499996 0.100000 -1.091830
v 0.499996 -0.000000 -1.091830
v 3.499996 -0.000000 -2.311030
v 3.499996 0.100000 -2.311030
v 3.499996 0.100000 -1.091830
v 3.499996 -0.000000 -1.091830
v 2.999996 0.100000 -2.311030
v 2.999996 -0.000000 -2.311030
v 2.999996 -0.000000 -1.091830
v 2.999996 0.100000 -1.091830
v 0.499999 -0.000000 -5.142002
v 0.499999 -0.000000 -4.670173
v 0.499998 -0.000000 -4.198344
v 0.499998 -0.000000 -3.726515
v 0.499997 -0.000000 -3.254687
v 0.499997 -0.000000 -2.782858
v 2.999997 -0.000000 -2.782858
v 2.999997 -0.000000 -3.254687
v 2.999998 -0.000000 -3.726516
v 2.999998 -0.000000 -4.198344
v 2.999999 -0.000000 -4.670173
v 3.000000 -0.000000 -5.142002
v 2.999997 -0.000000 -0.576015
v 2.999997 -0.000000 -0.060199
v 2.999997 -0.000000 0.455616
v 2.999997 -0.000000 0.971431
v 2.999998 -0.000000 1.487247
v 2.999998 -0.000000 2.003062
v 2.999998 -0.000000 2.518878
v 2.999998 -0.000000 3.034693
v 2.999999 -0.000000 3.550508
v 2.999999 -0.000000 4.066323
v 2.999999 -0.000000 4.582139
v 3.000000 -0.000000 5.097954
v 0.499997 -0.000000 -0.576015
v 0.499997 -0.000000 -0.060199
v 0.499997 -0.000000 0.455616
v 0.499997 -0.000000 0.971431
v 0.499998 -0.000000 1.487247
v 0.499998 -0.000000 2.003062
v 0.499998 -0.000000 2.518878
v 0.499999 -0.000000 3.034693
v 0.499999 -0.000000 3.550508
v 0.499999 -0.000000 4.066323
v 0.499999 -0.000000 4.582139
v 0.500000 -0.000000 5.097954
vt 0.832332 0.334334
vt 0.751001 0.665666
vt 0.832332 0.665666
vt 0.832332 0.001001
vt 0.751001 0.332332
vt 0.832332 0.332332
vt 0.748999 0.001001
vt 0.667668 0.332332
vt 0.748999 0.332332
vt 0.998999 0.334334
vt 0.917668 0.665666
vt 0.998999 0.665666
vt 0.834334 0.334334
vt 0.915666 0.665666
vt 0.915666 0.334334
vt 0.584334 0.001001
vt 0.665666 0.332332
vt 0.665666 0.001001
vt 0.667668 0.334334
vt 0.748999 0.665666
vt 0.748999 0.334334
vt 0.334334 0.001001
vt 0.415666 0.332332
vt 0.415666 0.001001
vt 0.501001 0.001001
vt 0.582332 0.332332
vt 0.582332 0.001001
vt 0.751001 0.334334
vt 0.751001 0.001001
vt 0.667668 0.001001
vt 0.917668 0.334334
vt 0.834334 0.665666
vt 0.584334 0.332332
vt 0.667668 0.665666
vt 0.334334 0.332332
vt 0.501001 0.332332
vt 0.876182 0.332332
vt 0.834334 0.332332
vt 0.834334 0.001002
vt 0.998999 0.001001
vt 0.917668 0.332332
vt 0.998999 0.332332
vt 0.332332 0.832332
vt 0.001001 0.751001
vt 0.001001 0.832332
vt 0.332332 0.748999
vt 0.001001 0.667668
vt 0.001001 0.748999
vt 0.665666 0.665666
vt 0.334334 0.584334
vt 0.334334 0.665666
vt 0.334334 0.452524
vt 0.334334 0.440905
vt 0.665666 0.417668
vt 0.417668 0.001001
vt 0.498999 0.332332
vt 0.498999 0.001001
vt 0.665666 0.582332
vt 0.334334 0.501001
vt 0.334334 0.582332
vt 0.332332 0.915666
vt 0.001001 0.834334
vt 0.001001 0.915666
vt 0.665666 0.667668
vt 0.334334 0.748999
vt 0.665666 0.748999
vt 0.665666 0.334334
vt 0.334334 0.415666
vt 0.665666 0.415666
vt 0.332332 0.584334
vt 0.001001 0.665666
vt 0.332332 0.665666
vt 0.332332 0.501001
vt 0.001001 0.582332
vt 0.332332 0.582332
vt 0.665666 0.751001
vt 0.334334 0.788539
vt 0.334334 0.782282
vt 0.915666 0.001001
vt 0.915666 0.332332
vt 0.917668 0.001001
vt 0.332332 0.751001
vt 0.332332 0.667668
vt 0.665666 0.584334
vt 0.334334 0.429286
vt 0.334334 0.417668
vt 0.665666 0.498999
vt 0.334334 0.498999
vt 0.334334 0.487380
vt 0.334334 0.475761
vt 0.334334 0.464143
vt 0.417668 0.332332
vt 0.665666 0.501001
vt 0.332332 0.834334
vt 0.334334 0.667668
vt 0.334334 0.334334
vt 0.001001 0.584334
vt 0.001001 0.501001
vt 0.334334 0.751001
vt 0.334334 0.757257
vt 0.665666 0.832332
vt 0.334334 0.794795
vt 0.334334 0.807307
vt 0.334334 0.813564
vt 0.334334 0.832332
vt 0.334334 0.826076
vt 0.334334 0.819820
vt 0.334334 0.801051
vt 0.334334 0.763514
vt 0.334334 0.776026
vt 0.334334 0.769770
vt 0.959334 0.917668
vt 0.998999 0.998999
vt 0.998999 0.917668
vt 0.665666 0.998999
vt 0.501001 0.917668
vt 0.501001 0.998999
vt 0.959334 0.834334
vt 0.998999 0.915666
vt 0.998999 0.834334
vt 0.832332 0.959334
vt 0.751001 0.998999
vt 0.832332 0.998999
vt 0.998999 0.751001
vt 0.959334 0.832332
vt 0.998999 0.832332
vt 0.498999 0.917668
vt 0.334334 0.998999
vt 0.498999 0.998999
vt 0.998999 0.667668
vt 0.959334 0.748999
vt 0.998999 0.748999
vt 0.332332 0.959334
vt 0.251001 0.998999
vt 0.332332 0.998999
vt 0.792668 0.834334
vt 0.832332 0.915666
vt 0.832332 0.834334
vt 0.248999 0.959334
vt 0.167668 0.998999
vt 0.248999 0.998999
vt 0.748999 0.834334
vt 0.667668 0.998999
vt 0.748999 0.998999
vt 0.832332 0.832332
vt 0.667668 0.751001
vt 0.667668 0.832332
vt 0.167668 0.001001
vt 0.332332 0.332332
vt 0.332332 0.001001
vt 0.332332 0.334334
vt 0.001001 0.498999
vt 0.332332 0.498999
vt 0.876001 0.667668
vt 0.915666 0.998999
vt 0.915666 0.667668
vt 0.332332 0.917668
vt 0.001001 0.957332
vt 0.332332 0.957332
vt 0.834334 0.667668
vt 0.873999 0.998999
vt 0.873999 0.667668
vt 0.665666 0.876001
vt 0.334334 0.915666
vt 0.665666 0.915666
vt 0.832332 0.917668
vt 0.751001 0.957332
vt 0.832332 0.957332
vt 0.751001 0.834334
vt 0.790666 0.915666
vt 0.790666 0.834334
vt 0.832332 0.748999
vt 0.667668 0.667668
vt 0.667668 0.748999
vt 0.001001 0.001001
vt 0.165666 0.332332
vt 0.165666 0.001001
vt 0.665666 0.834334
vt 0.334334 0.873999
vt 0.665666 0.873999
vt 0.917668 0.667668
vt 0.957332 0.998999
vt 0.957332 0.667668
vt 0.165666 0.998999
vt 0.001001 0.959334
vt 0.001001 0.998999
vt 0.959334 0.998999
vt 0.665666 0.917668
vt 0.959334 0.915666
vt 0.751001 0.959334
vt 0.959334 0.751001
vt 0.334334 0.917668
vt 0.959334 0.667668
vt 0.251001 0.959334
vt 0.792668 0.915666
vt 0.167668 0.959334
vt 0.667668 0.834334
vt 0.832332 0.751001
vt 0.167668 0.332332
vt 0.001001 0.334334
vt 0.876001 0.998999
vt 0.001001 0.917668
vt 0.834334 0.998999
vt 0.334334 0.876001
vt 0.751001 0.917668
vt 0.751001 0.915666
vt 0.832332 0.667668
vt 0.001001 0.332332
vt 0.334334 0.834334
vt 0.917668 0.998999
vt 0.165666 0.959334
vn 0.0000 1.0000 0.0000
vn 0.0000 0.0000 1.0000
vn 0.0000 0.0000 -1.0000
vn -1.0000 0.0000 0.0000
s off
f 46/1/1 56/2/1 57/3/1
f 48/4/1 54/5/1 55/6/1
f 50/7/1 52/8/1 53/9/1
f 70/10/1 59/11/1 58/12/1
f 73/13/1 60/14/1 72/15/1
f 75/16/1 62/17/1 74/18/1
f 77/19/1 64/20/1 76/21/1
f 79/22/1 66/23/1 78/24/1
f 81/25/1 68/26/1 80/27/1
f 46/1/1 47/28/1 56/2/1
f 48/4/1 49/29/1 54/5/1
f 50/7/1 51/30/1 52/8/1
f 70/10/1 71/31/1 59/11/1
f 73/13/1 61/32/1 60/14/1
f 75/16/1 63/33/1 62/17/1
f 77/19/1 65/34/1 64/20/1
f 79/22/1 67/35/1 66/23/1
f 81/25/1 69/36/1 68/26/1
f 33/37/1 13/38/1 17/39/1
f 51/40/1 43/41/1 52/42/1
f 7/43/1 57/44/1 27/45/1
f 47/46/1 55/47/1 56/48/1
f 49/49/1 53/50/1 54/51/1
f 54/52/1 53/53/1 38/54/1
f 17/55/1 69/56/1 81/57/1
f 37/58/1 58/59/1 44/60/1
f 71/61/1 60/62/1 59/63/1
f 74/64/1 61/65/1 73/66/1
f 76/67/1 63/68/1 75/69/1
f 78/70/1 65/71/1 77/72/1
f 80/73/1 67/74/1 79/75/1
f 21/76/1 64/77/1 65/78/1
f 17/39/1 7/79/1 33/37/1
f 7/79/1 3/80/1 33/37/1
f 51/40/1 34/81/1 43/41/1
f 7/43/1 46/82/1 57/44/1
f 47/46/1 48/83/1 55/47/1
f 49/49/1 50/84/1 53/50/1
f 52/85/1 43/86/1 38/54/1
f 38/54/1 12/87/1 54/52/1
f 12/87/1 27/88/1 57/89/1
f 57/89/1 56/90/1 12/87/1
f 56/90/1 55/91/1 12/87/1
f 54/52/1 12/87/1 55/91/1
f 53/53/1 52/85/1 38/54/1
f 17/55/1 26/92/1 69/56/1
f 37/58/1 70/93/1 58/59/1
f 71/61/1 72/94/1 60/62/1
f 74/64/1 62/95/1 61/65/1
f 76/67/1 64/96/1 63/68/1
f 78/70/1 66/97/1 65/71/1
f 80/73/1 68/98/1 67/74/1
f 26/99/1 21/76/1 69/100/1
f 21/76/1 41/101/1 63/102/1
f 61/103/1 41/101/1 60/104/1
f 41/101/1 44/105/1 58/106/1
f 58/106/1 59/107/1 41/101/1
f 59/107/1 60/104/1 41/101/1
f 41/101/1 61/103/1 62/108/1
f 68/109/1 69/100/1 21/76/1
f 65/78/1 66/110/1 21/76/1
f 66/110/1 67/111/1 21/76/1
f 67/111/1 68/109/1 21/76/1
f 62/108/1 63/102/1 41/101/1
f 63/102/1 64/77/1 21/76/1
f 8/112/2 3/113/2 7/114/2
f 9/115/1 4/116/1 8/117/1
f 10/118/3 5/119/3 9/120/3
f 25/121/3 21/122/3 26/123/3
f 13/124/3 18/125/3 17/126/3
f 14/127/1 19/128/1 18/129/1
f 15/130/2 20/131/2 19/132/2
f 29/133/2 23/134/2 30/135/2
f 27/136/2 11/137/2 28/138/2
f 31/139/3 1/140/3 32/141/3
f 30/142/1 22/143/1 25/144/1
f 28/145/1 2/146/1 31/147/1
f 8/148/1 31/149/1 9/150/1
f 19/151/1 25/152/1 18/153/1
f 9/154/3 32/155/3 10/156/3
f 7/157/2 28/158/2 8/159/2
f 20/160/2 30/161/2 19/162/2
f 18/163/3 26/164/3 17/165/3
f 42/166/3 38/167/3 43/168/3
f 44/169/2 40/170/2 45/171/2
f 45/172/1 39/173/1 42/174/1
f 36/175/1 42/176/1 35/177/1
f 37/178/2 45/179/2 36/180/2
f 35/181/3 43/182/3 34/183/3
f 35/184/4 37/185/4 36/186/4
f 8/112/2 4/187/2 3/113/2
f 9/115/1 5/188/1 4/116/1
f 10/118/3 6/189/3 5/119/3
f 25/121/3 22/190/3 21/122/3
f 13/124/3 14/191/3 18/125/3
f 14/127/1 15/192/1 19/128/1
f 15/130/2 16/193/2 20/131/2
f 29/133/2 24/194/2 23/134/2
f 27/136/2 12/195/2 11/137/2
f 31/139/3 2/196/3 1/140/3
f 30/142/1 23/197/1 22/143/1
f 28/145/1 11/198/1 2/146/1
f 8/148/1 28/199/1 31/149/1
f 19/151/1 30/200/1 25/152/1
f 9/154/3 31/201/3 32/155/3
f 7/157/2 27/202/2 28/158/2
f 20/160/2 29/203/2 30/161/2
f 18/163/3 25/204/3 26/164/3
f 42/166/3 39/205/3 38/167/3
f 44/169/2 41/206/2 40/170/2
f 45/172/1 40/207/1 39/173/1
f 36/175/1 45/208/1 42/176/1
f 37/178/2 44/209/2 45/179/2
f 35/181/3 42/210/3 43/182/3
f 35/184/4 34/211/4 37/185/4
