# Blender v2.80 (sub 75) OBJ File: 'end_03.blend'
# www.blender.org
o Plane
v 0.000000 -0.000000 -5.613798
v 0.000000 -0.000000 -2.310986
v 0.000000 0.100000 -5.613798
v 0.000000 0.100000 -6.832998
v 0.000000 -0.000000 -6.832998
v 0.157776 0.100000 -2.290214
v 1.328156 -0.000000 -6.658143
v 1.328156 0.100000 -6.658143
v 1.012604 0.100000 -5.480486
v 0.000000 0.100000 -2.310985
v 0.157776 -0.000000 -2.290214
v 1.012604 -0.000000 -5.480486
v 0.304800 0.100000 -2.229314
v 2.565800 -0.000000 -6.145494
v 2.565800 0.100000 -6.145494
v 1.956200 0.100000 -5.089636
v 0.304800 -0.000000 -2.229315
v 1.956200 -0.000000 -5.089636
v 0.431052 0.100000 -2.132438
v 3.628589 -0.000000 -5.329987
v 3.628589 0.100000 -5.329987
v 2.766485 0.100000 -4.467883
v 0.431052 -0.000000 -2.132438
v 2.766485 -0.000000 -4.467883
v 0.527929 0.100000 -2.006186
v 4.444096 -0.000000 -4.267198
v 4.444096 0.100000 -4.267198
v 3.388238 0.100000 -3.657598
v 0.527929 -0.000000 -2.006186
v 3.388238 -0.000000 -3.657598
v 0.588828 0.100000 -1.859162
v 4.956744 -0.000000 -3.029553
v 4.956744 0.100000 -3.029553
v 3.779088 0.100000 -2.714001
v 0.588828 -0.000000 -1.859162
v 3.779088 -0.000000 -2.714001
v 5.131599 -0.000000 -1.701398
v 5.131599 0.100000 -1.701398
v 3.912400 0.100000 -1.701398
v 3.912400 -0.000000 -1.701398
v 0.588828 0.100000 -1.543610
v 4.956744 -0.000000 3.029554
v 4.956744 0.100000 3.029554
v 3.779088 0.100000 2.714002
v 0.588828 -0.000000 -1.543610
v 3.779088 -0.000000 2.714002
v 0.527929 0.100000 -1.396586
v 4.444095 -0.000000 4.267202
v 4.444095 0.100000 4.267202
v 3.388238 0.100000 3.657604
v 0.527929 -0.000000 -1.396586
v 3.388238 -0.000000 3.657604
v 0.431052 0.100000 -1.270334
v 3.628588 -0.000000 5.329991
v 3.628588 0.100000 5.329991
v 2.766485 0.100000 4.467888
v 0.431052 -0.000000 -1.270334
v 2.766485 -0.000000 4.467888
v 0.304800 0.100000 -1.173457
v 2.565799 -0.000000 6.145498
v 2.565799 0.100000 6.145498
v 1.956200 0.100000 5.089641
v 0.304800 -0.000000 -1.173457
v 1.956200 -0.000000 5.089641
v 0.157776 0.100000 -1.112558
v 1.328155 -0.000000 6.658147
v 1.328155 0.100000 6.658147
v 1.012604 0.100000 5.480492
v 0.157776 -0.000000 -1.112557
v 1.012604 -0.000000 5.480492
v -0.000000 0.100000 -1.701386
v 0.000000 0.100000 -1.091786
v -0.000000 -0.000000 6.832998
v -0.000000 0.100000 6.832998
v 0.000000 0.100000 5.613803
v 0.000000 -0.000000 -1.091786
v 0.000000 -0.000000 5.613803
v 5.131599 -0.000000 1.701378
v 5.131599 0.100000 1.701378
v 0.609600 0.100000 -1.701386
v 3.912400 -0.000000 1.701378
v 0.609600 -0.000000 -1.701386
v 3.912400 0.100000 1.701378
vt 0.334334 0.167668
vt 0.415666 0.498999
vt 0.415666 0.167668
vt 0.332332 0.584334
vt 0.001001 0.665666
vt 0.332332 0.665666
vt 0.498999 0.334334
vt 0.417668 0.665666
vt 0.498999 0.665666
vt 0.665666 0.748999
vt 0.334334 0.667668
vt 0.334334 0.748999
vt 0.832332 0.501001
vt 0.751001 0.832332
vt 0.832332 0.832332
vt 0.498999 0.915666
vt 0.167668 0.834334
vt 0.167668 0.915666
vt 0.332332 0.917668
vt 0.001001 0.998999
vt 0.332332 0.998999
vt 0.498999 0.751001
vt 0.167668 0.832332
vt 0.498999 0.832332
vt 0.501001 0.334334
vt 0.582332 0.665666
vt 0.582332 0.334334
vt 0.332332 0.667668
vt 0.001001 0.748999
vt 0.332332 0.748999
vt 0.584334 0.167668
vt 0.665666 0.498999
vt 0.665666 0.167668
vt 0.332332 0.501001
vt 0.001001 0.582332
vt 0.332332 0.582332
vt 0.001001 0.331331
vt 0.331331 0.167668
vt 0.001001 0.167668
vt 0.334334 0.498999
vt 0.001001 0.584334
vt 0.417668 0.334334
vt 0.665666 0.667668
vt 0.751001 0.501001
vt 0.498999 0.834334
vt 0.001001 0.917668
vt 0.167668 0.751001
vt 0.501001 0.665666
vt 0.001001 0.667668
vt 0.584334 0.498999
vt 0.001001 0.501001
vt 0.894832 0.167668
vt 0.876001 0.332332
vt 0.894832 0.332332
vt 0.498999 0.978166
vt 0.334334 0.959334
vt 0.334334 0.978166
vt 0.915666 0.688501
vt 0.896834 0.707332
vt 0.915666 0.707332
vt 0.334334 0.001001
vt 0.498999 0.165666
vt 0.498999 0.001001
vt 0.894832 0.502002
vt 0.894832 0.582332
vt 0.877002 0.582332
vt 0.001001 0.334334
vt 0.165666 0.498999
vt 0.165666 0.334334
vt 0.894832 0.688501
vt 0.876001 0.707332
vt 0.894832 0.707332
vt 0.665666 0.957332
vt 0.501001 0.938501
vt 0.501001 0.957332
vt 0.873999 0.334334
vt 0.855168 0.498999
vt 0.873999 0.498999
vt 0.667668 0.893831
vt 0.747998 0.876001
vt 0.667668 0.876001
vt 0.748999 0.667668
vt 0.730168 0.832332
vt 0.748999 0.832332
vt 0.665666 0.936499
vt 0.501001 0.917668
vt 0.501001 0.936499
vt 0.876001 0.581331
vt 0.893831 0.501001
vt 0.876001 0.501001
vt 0.665666 0.001001
vt 0.501001 0.165666
vt 0.665666 0.165666
vt 0.915666 0.667668
vt 0.896834 0.686499
vt 0.915666 0.686499
vt 0.832332 0.957332
vt 0.667668 0.938501
vt 0.667668 0.957332
vt 0.686499 0.667668
vt 0.667668 0.832332
vt 0.686499 0.832332
vt 0.668669 0.873999
vt 0.748999 0.856169
vt 0.748999 0.873999
vt 0.832332 0.001001
vt 0.667668 0.165666
vt 0.832332 0.165666
vt 0.894832 0.667668
vt 0.876001 0.686499
vt 0.894832 0.686499
vt 0.394832 0.501001
vt 0.376001 0.665666
vt 0.394832 0.665666
vt 0.915666 0.894832
vt 0.751001 0.876001
vt 0.751001 0.894832
vt 0.668669 0.853166
vt 0.748999 0.835335
vt 0.748999 0.853166
vt 0.667668 0.334334
vt 0.832332 0.498999
vt 0.832332 0.334334
vt 0.915666 0.646834
vt 0.896834 0.665666
vt 0.915666 0.665666
vt 0.915666 0.853166
vt 0.751001 0.834334
vt 0.751001 0.853166
vt 0.353166 0.501001
vt 0.334334 0.665666
vt 0.353166 0.665666
vt 0.894832 0.418669
vt 0.877002 0.498999
vt 0.894832 0.498999
vt 0.501001 0.751001
vt 0.665666 0.915666
vt 0.665666 0.751001
vt 0.894832 0.646834
vt 0.876001 0.665666
vt 0.894832 0.665666
vt 0.873999 0.667668
vt 0.855168 0.832332
vt 0.873999 0.832332
vt 0.747998 0.855168
vt 0.667668 0.872998
vt 0.667668 0.855168
vt 0.834334 0.001001
vt 0.998999 0.165666
vt 0.998999 0.001001
vt 0.915666 0.626001
vt 0.896834 0.644832
vt 0.915666 0.644832
vt 0.707332 0.667668
vt 0.688501 0.832332
vt 0.707332 0.832332
vt 0.002002 0.332332
vt 0.332332 0.168669
vt 0.332332 0.332332
vt 0.001001 0.751001
vt 0.165666 0.915666
vt 0.165666 0.751001
vt 0.894832 0.626001
vt 0.876001 0.644832
vt 0.894832 0.644832
vt 0.373999 0.501001
vt 0.355168 0.665666
vt 0.373999 0.665666
vt 0.915666 0.873999
vt 0.751001 0.855168
vt 0.751001 0.873999
vt 0.832332 0.167668
vt 0.667668 0.332332
vt 0.832332 0.332332
vt 0.915666 0.605168
vt 0.896834 0.623999
vt 0.915666 0.623999
vt 0.915666 0.915666
vt 0.751001 0.896834
vt 0.751001 0.915666
vt 0.415666 0.501001
vt 0.396834 0.665666
vt 0.415666 0.665666
vt 0.876001 0.497998
vt 0.893831 0.417668
vt 0.876001 0.417668
vt 0.584334 0.501001
vt 0.748999 0.665666
vt 0.748999 0.501001
vt 0.894832 0.605168
vt 0.876001 0.623999
vt 0.894832 0.623999
vt 0.728166 0.667668
vt 0.709334 0.832332
vt 0.728166 0.832332
vt 0.498999 0.936499
vt 0.334334 0.917668
vt 0.334334 0.936499
vt 0.894832 0.335335
vt 0.894832 0.415666
vt 0.877002 0.415666
vt 0.417668 0.167668
vt 0.582332 0.332332
vt 0.582332 0.167668
vt 0.896834 0.584334
vt 0.915666 0.603166
vt 0.915666 0.584334
vt 0.832332 0.936499
vt 0.667668 0.917668
vt 0.667668 0.936499
vt 0.873999 0.167668
vt 0.855168 0.332332
vt 0.873999 0.332332
vt 0.747998 0.834334
vt 0.667668 0.834334
vt 0.667668 0.852165
vt 0.332332 0.334334
vt 0.167668 0.498999
vt 0.332332 0.498999
vt 0.894832 0.584334
vt 0.876001 0.603166
vt 0.894832 0.603166
vt 0.498999 0.957332
vt 0.334334 0.938501
vt 0.334334 0.957332
vt 0.873999 0.501001
vt 0.855168 0.665666
vt 0.873999 0.665666
vt 0.876001 0.414665
vt 0.893831 0.334334
vt 0.876001 0.334334
vt 0.853166 0.501001
vt 0.834334 0.832332
vt 0.853166 0.832332
vt 0.332332 0.165666
vt 0.001001 0.001001
vt 0.001001 0.165666
vt 0.853166 0.167668
vt 0.834334 0.498999
vt 0.853166 0.498999
vt 0.876001 0.167668
vt 0.498999 0.959334
vt 0.896834 0.688501
vt 0.334334 0.165666
vt 0.001001 0.498999
vt 0.876001 0.688501
vt 0.665666 0.938501
vt 0.855168 0.334334
vt 0.730168 0.667668
vt 0.665666 0.917668
vt 0.501001 0.001001
vt 0.896834 0.667668
vt 0.832332 0.938501
vt 0.667668 0.667668
vt 0.667668 0.001001
vt 0.876001 0.667668
vt 0.376001 0.501001
vt 0.915666 0.876001
vt 0.667668 0.498999
vt 0.896834 0.646834
vt 0.915666 0.834334
vt 0.334334 0.501001
vt 0.501001 0.915666
vt 0.876001 0.646834
vt 0.855168 0.667668
vt 0.834334 0.165666
vt 0.896834 0.626001
vt 0.688501 0.667668
vt 0.001001 0.915666
vt 0.876001 0.626001
vt 0.355168 0.501001
vt 0.915666 0.855168
vt 0.667668 0.167668
vt 0.896834 0.605168
vt 0.915666 0.896834
vt 0.396834 0.501001
vt 0.584334 0.665666
vt 0.876001 0.605168
vt 0.709334 0.667668
vt 0.498999 0.917668
vt 0.417668 0.332332
vt 0.896834 0.603166
vt 0.832332 0.917668
vt 0.855168 0.167668
vt 0.167668 0.334334
vt 0.876001 0.584334
vt 0.498999 0.938501
vt 0.855168 0.501001
vt 0.834334 0.501001
vt 0.332332 0.001001
vt 0.834334 0.167668
vn 0.0000 1.0000 0.0000
vn 0.1305 0.0000 -0.9914
vn -0.1305 0.0000 0.9914
vn 0.3827 0.0000 -0.9239
vn -0.3827 0.0000 0.9239
vn -0.6088 0.0000 0.7934
vn 0.6088 0.0000 -0.7934
vn -0.7934 0.0000 0.6088
vn 0.7934 0.0000 -0.6088
vn -0.9239 0.0000 0.3827
vn 0.9239 0.0000 -0.3827
vn -0.9914 0.0000 0.1305
vn 0.9914 0.0000 -0.1305
vn 0.9914 -0.0000 0.1305
vn -0.9914 0.0000 -0.1305
vn 0.9239 0.0000 0.3827
vn -0.9239 0.0000 -0.3827
vn 0.7934 0.0000 0.6088
vn -0.7934 0.0000 -0.6088
vn 0.6088 0.0000 0.7934
vn -0.6088 0.0000 -0.7934
vn 0.3827 0.0000 0.9239
vn -0.3827 0.0000 -0.9239
vn 0.1305 0.0000 0.9914
vn -0.1305 0.0000 -0.9914
vn -1.0000 0.0000 0.0000
vn 1.0000 0.0000 0.0000
s off
f 11/1/1 1/2/1 2/3/1
f 17/4/1 12/5/1 11/6/1
f 17/7/1 24/8/1 18/9/1
f 23/10/1 30/11/1 24/12/1
f 29/13/1 36/14/1 30/15/1
f 35/16/1 40/17/1 36/18/1
f 45/19/1 81/20/1 82/21/1
f 51/22/1 46/23/1 45/24/1
f 57/25/1 52/26/1 51/27/1
f 63/28/1 58/29/1 57/30/1
f 69/31/1 64/32/1 63/33/1
f 76/34/1 70/35/1 69/36/1
f 82/37/1 81/38/1 40/39/1
f 11/1/1 12/40/1 1/2/1
f 17/4/1 18/41/1 12/5/1
f 17/7/1 23/42/1 24/8/1
f 23/10/1 29/43/1 30/11/1
f 29/13/1 35/44/1 36/14/1
f 35/16/1 82/45/1 40/17/1
f 45/19/1 46/46/1 81/20/1
f 51/22/1 52/47/1 46/23/1
f 57/25/1 58/48/1 52/26/1
f 63/28/1 64/49/1 58/29/1
f 69/31/1 70/50/1 64/32/1
f 76/34/1 77/51/1 70/35/1
f 8/52/2 5/53/2 4/54/2
f 12/55/3 3/56/3 1/57/3
f 10/58/2 11/59/2 2/60/2
f 9/61/1 4/62/1 3/63/1
f 71/64/1 6/65/1 10/66/1
f 16/67/1 8/68/1 9/69/1
f 6/70/4 17/71/4 11/72/4
f 18/73/5 9/74/5 12/75/5
f 15/76/4 7/77/4 8/78/4
f 71/79/1 13/80/1 6/81/1
f 24/82/6 16/83/6 18/84/6
f 21/85/7 14/86/7 15/87/7
f 71/88/1 19/89/1 13/90/1
f 16/91/1 21/92/1 15/93/1
f 13/94/7 23/95/7 17/96/7
f 30/97/8 22/98/8 24/99/8
f 27/100/9 20/101/9 21/102/9
f 71/103/1 25/104/1 19/105/1
f 22/106/1 27/107/1 21/108/1
f 19/109/9 29/110/9 23/111/9
f 36/112/10 28/113/10 30/114/10
f 33/115/11 26/116/11 27/117/11
f 71/118/1 31/119/1 25/120/1
f 34/121/1 27/122/1 28/123/1
f 25/124/11 35/125/11 29/126/11
f 40/127/12 34/128/12 36/129/12
f 38/130/13 32/131/13 33/132/13
f 71/133/1 80/134/1 31/135/1
f 39/136/1 33/137/1 34/138/1
f 31/139/13 82/140/13 35/141/13
f 43/142/14 78/143/14 79/144/14
f 71/145/1 41/146/1 80/147/1
f 44/148/1 79/149/1 83/150/1
f 80/151/14 45/152/14 82/153/14
f 46/154/15 83/155/15 81/156/15
f 71/157/1 47/158/1 41/159/1
f 50/160/1 43/161/1 44/162/1
f 41/163/16 51/164/16 45/165/16
f 52/166/17 44/167/17 46/168/17
f 49/169/16 42/170/16 43/171/16
f 50/172/1 55/173/1 49/174/1
f 47/175/18 57/176/18 51/177/18
f 58/178/19 50/179/19 52/180/19
f 55/181/18 48/182/18 49/183/18
f 71/184/1 53/185/1 47/186/1
f 62/187/1 55/188/1 56/189/1
f 53/190/20 63/191/20 57/192/20
f 64/193/21 56/194/21 58/195/21
f 61/196/20 54/197/20 55/198/20
f 71/199/1 59/200/1 53/201/1
f 68/202/1 61/203/1 62/204/1
f 65/205/22 63/206/22 59/207/22
f 70/208/23 62/209/23 64/210/23
f 67/211/22 60/212/22 61/213/22
f 71/214/1 65/215/1 59/216/1
f 68/217/1 74/218/1 67/219/1
f 65/220/24 76/221/24 69/222/24
f 77/223/25 68/224/25 70/225/25
f 74/226/24 66/227/24 67/228/24
f 71/229/1 72/230/1 65/231/1
f 81/232/26 39/233/26 40/234/26
f 83/235/1 38/236/1 39/237/1
f 79/238/27 37/239/27 38/240/27
f 8/52/2 7/241/2 5/53/2
f 12/55/3 9/242/3 3/56/3
f 10/58/2 6/243/2 11/59/2
f 9/61/1 8/244/1 4/62/1
f 16/67/1 15/245/1 8/68/1
f 6/70/4 13/246/4 17/71/4
f 18/73/5 16/247/5 9/74/5
f 15/76/4 14/248/4 7/77/4
f 24/82/6 22/249/6 16/83/6
f 21/85/7 20/250/7 14/86/7
f 16/91/1 22/251/1 21/92/1
f 13/94/7 19/252/7 23/95/7
f 30/97/8 28/253/8 22/98/8
f 27/100/9 26/254/9 20/101/9
f 22/106/1 28/255/1 27/107/1
f 19/109/9 25/256/9 29/110/9
f 36/112/10 34/257/10 28/113/10
f 33/115/11 32/258/11 26/116/11
f 34/121/1 33/259/1 27/122/1
f 25/124/11 31/260/11 35/125/11
f 40/127/12 39/261/12 34/128/12
f 38/130/13 37/262/13 32/131/13
f 39/136/1 38/263/1 33/137/1
f 31/139/13 80/264/13 82/140/13
f 43/142/14 42/265/14 78/143/14
f 44/148/1 43/266/1 79/149/1
f 80/151/14 41/267/14 45/152/14
f 46/154/15 44/268/15 83/155/15
f 50/160/1 49/269/1 43/161/1
f 41/163/16 47/270/16 51/164/16
f 52/166/17 50/271/17 44/167/17
f 49/169/16 48/272/16 42/170/16
f 50/172/1 56/273/1 55/173/1
f 47/175/18 53/274/18 57/176/18
f 58/178/19 56/275/19 50/179/19
f 55/181/18 54/276/18 48/182/18
f 62/187/1 61/277/1 55/188/1
f 53/190/20 59/278/20 63/191/20
f 64/193/21 62/279/21 56/194/21
f 61/196/20 60/280/20 54/197/20
f 68/202/1 67/281/1 61/203/1
f 65/205/22 69/282/22 63/206/22
f 70/208/23 68/283/23 62/209/23
f 67/211/22 66/284/22 60/212/22
f 68/217/1 75/285/1 74/218/1
f 65/220/24 72/286/24 76/221/24
f 77/223/25 75/287/25 68/224/25
f 74/226/24 73/288/24 66/227/24
f 81/232/26 83/289/26 39/233/26
f 83/235/1 79/290/1 38/236/1
f 79/238/27 78/291/27 37/239/27
