# Blender v2.80 (sub 75) OBJ File: 'junction_06.blend'
# www.blender.org
o Plane
v 0.500000 0.009674 -6.780600
v 0.500000 0.000000 -7.999800
v 1.000000 0.009674 -0.075000
v 0.000000 0.000000 -7.999800
v -0.000000 0.000000 -6.780600
v 1.000000 0.009674 0.075000
v 0.500000 0.009674 6.780600
v 0.500000 0.009674 0.075000
v 0.500000 0.009674 -0.075000
v 0.500000 0.000000 7.999800
v 1.000000 0.009674 6.930600
v 0.000000 0.000000 7.999800
v 0.000000 0.000000 6.780600
v 0.500000 0.009674 6.930600
v 0.000000 0.000000 6.930600
v 0.500000 0.009674 -6.930600
v 1.000000 0.000000 -7.999800
v 1.000000 0.009674 -6.780600
v 1.000000 0.009674 -6.930601
v -0.000000 0.000000 -6.930600
v 1.000000 0.000000 7.999800
v 1.000000 0.009674 6.780600
v 0.000000 -0.000000 0.000000
v 0.500000 0.009674 -3.477801
v 1.000000 0.009674 -3.477801
v 0.500000 0.009674 -3.377800
v 1.000000 0.009674 -3.377800
v 1.000000 0.009674 3.477801
v 0.500000 0.009674 3.477801
v 1.000000 0.009674 3.377800
v 0.500000 0.009674 3.377800
vt 0.748999 0.582332
vt 0.584334 0.501001
vt 0.584334 0.582332
vt 0.501001 0.501001
vt 0.582332 0.665666
vt 0.582332 0.501001
vt 0.748999 0.167668
vt 0.667668 0.332332
vt 0.748999 0.332332
vt 0.832332 0.748999
vt 0.667668 0.667668
vt 0.667668 0.748999
vt 0.751001 0.501001
vt 0.832332 0.665666
vt 0.832332 0.501001
vt 0.748999 0.501001
vt 0.501001 0.665666
vt 0.667668 0.167668
vt 0.832332 0.667668
vt 0.751001 0.665666
vt 0.998999 0.665666
vt 0.834334 0.334334
vt 0.834334 0.665666
vt 0.665666 0.832332
vt 0.001001 0.667668
vt 0.001001 0.832332
vt 0.498999 0.334334
vt 0.334334 0.665666
vt 0.498999 0.665666
vt 0.665666 0.332332
vt 0.334334 0.167668
vt 0.334334 0.332332
vt 0.832332 0.334334
vt 0.501001 0.498999
vt 0.832332 0.498999
vt 0.165666 0.001001
vt 0.001001 0.665666
vt 0.165666 0.665666
vt 0.335793 0.834335
vt 0.498270 0.834334
vt 0.333333 0.998999
vt 0.332332 0.665666
vt 0.167668 0.001001
vt 0.167668 0.665666
vt 0.748999 0.665666
vt 0.584334 0.584334
vt 0.584334 0.665666
vt 0.751001 0.167668
vt 0.832332 0.332332
vt 0.832332 0.167668
vt 0.998999 0.165666
vt 0.334334 0.001001
vt 0.334334 0.165666
vt 0.998999 0.334334
vt 0.665666 0.667668
vt 0.334334 0.334334
vt 0.665666 0.167668
vt 0.501001 0.334334
vt 0.001001 0.001001
vt 0.665666 0.834334
vt 0.665666 0.998999
vt 0.503189 0.834334
vt 0.001001 0.998999
vt 0.168397 0.834335
vt 0.001001 0.834335
vt 0.163478 0.834335
vt 0.330874 0.834335
vt 0.332332 0.001001
vt 0.748999 0.584334
vt 0.751001 0.332332
vt 0.998999 0.001001
vn 0.0000 1.0000 0.0000
vn -0.0193 0.9998 0.0000
vn 0.0000 1.0000 -0.0090
vn -0.0193 0.9998 -0.0090
vn 0.0000 1.0000 0.0090
vn -0.0193 0.9998 0.0090
s off
f 7/1/1 11/2/1 22/3/1
f 8/4/1 3/5/1 9/6/1
f 16/7/1 18/8/1 19/9/1
f 20/10/2 1/11/2 16/12/2
f 7/13/2 15/14/2 14/15/2
f 7/1/1 14/16/1 11/2/1
f 8/4/1 6/17/1 3/5/1
f 16/7/1 1/18/1 18/8/1
f 20/10/2 5/19/2 1/11/2
f 7/13/2 13/20/2 15/14/2
f 10/21/1 15/22/1 12/23/1
f 9/24/1 27/25/1 26/26/1
f 17/27/3 16/28/3 19/29/3
f 2/30/4 20/31/4 16/32/4
f 14/33/5 21/34/5 11/35/5
f 7/36/1 28/37/1 29/38/1
f 9/39/2 26/40/2 23/41/2
f 1/42/1 25/43/1 18/44/1
f 24/45/1 27/46/1 25/47/1
f 29/48/1 30/49/1 31/50/1
f 31/51/1 6/52/1 8/53/1
f 10/21/6 14/54/6 15/22/6
f 9/24/1 3/55/1 27/25/1
f 17/27/3 2/56/3 16/28/3
f 2/30/1 4/57/1 20/31/1
f 14/33/5 10/58/5 21/34/5
f 7/36/1 22/59/1 28/37/1
f 1/60/2 5/61/2 24/62/2
f 5/61/2 23/41/2 26/40/2
f 24/62/2 5/61/2 26/40/2
f 23/41/2 13/63/2 31/64/2
f 13/63/2 7/65/2 29/66/2
f 31/64/2 13/63/2 29/66/2
f 31/64/2 8/67/2 23/41/2
f 8/67/2 9/39/2 23/41/2
f 1/42/1 24/68/1 25/43/1
f 24/45/1 26/69/1 27/46/1
f 29/48/1 28/70/1 30/49/1
f 31/51/1 30/71/1 6/52/1
