# Blender v2.80 (sub 75) OBJ File: 'House_000002.blend'
# www.blender.org
o Plane
v -1.000000 0.500000 -0.750000
v -1.000000 0.500000 0.750000
v -1.000000 0.500000 1.500000
v -1.000000 0.500000 -2.000000
v 1.000000 0.500000 1.500000
v 1.000000 2.213916 -2.000000
v -1.000000 2.213916 -2.000000
v -1.000000 2.000000 -2.000000
v -1.000000 0.000000 1.500000
v 1.000000 0.000000 1.500000
v -0.375000 0.000000 1.500000
v 0.375000 0.000000 1.500000
v 1.000000 2.213916 1.500000
v -1.000000 2.213916 1.500000
v -0.375000 2.000000 1.500000
v 0.375000 2.000000 1.500000
v 1.000000 2.000000 1.500000
v -1.000000 2.000000 1.500000
v -1.000000 2.000000 0.750000
v 1.000000 2.000000 -2.000000
v 1.000000 0.500000 -2.000000
v -1.000000 2.000000 -0.750000
v 1.000000 0.500000 0.000000
v 1.000000 2.000000 0.000000
v 1.000000 0.500000 -1.500000
v 1.000000 2.000000 -1.500000
v 0.900000 0.500000 0.000000
v 0.900000 2.000000 0.000000
v 0.900000 0.500000 -1.500000
v 0.900000 2.000000 -1.500000
v -0.900000 0.500000 -0.750000
v -0.900000 2.000000 -0.750000
v -0.900000 0.500000 0.750000
v -0.900000 2.000000 0.750000
v 0.375000 2.000000 1.400000
v -0.375000 0.000000 1.400000
v 0.375000 0.000000 1.400000
v -0.375000 2.000000 1.400000
v -1.000000 -0.100000 -2.000000
v 1.000000 -0.100000 1.500000
v -1.000000 -0.100000 1.500000
v 1.000000 -0.100000 -2.000000
v 0.000000 3.268503 1.500000
v 1.137616 2.068789 1.500000
v -1.137616 2.068789 -2.000000
v -1.137616 2.068789 1.500000
v 0.000000 3.268503 1.700000
v 0.000058 3.413401 1.700000
v 1.137616 2.068789 1.700000
v 1.210179 2.137597 1.700000
v -1.210179 2.137597 1.700000
v -1.137616 2.068789 1.700000
v 0.000000 3.268503 -2.000000
v 1.137616 2.068789 -2.000000
v 0.000000 3.268503 -2.200000
v -0.000058 3.414148 -2.200000
v 1.210179 2.137597 -2.200000
v 1.137616 2.068789 -2.200000
v -1.137616 2.068789 -2.200000
v -1.210179 2.137597 -2.200000
vt 0.957523 0.501001
vt 0.998999 0.520920
vt 0.957523 0.665666
vt 0.522740 0.957332
vt 0.694651 0.917668
vt 0.522740 0.917668
vt 0.955521 0.501001
vt 0.914044 0.665666
vt 0.955521 0.665666
vt 0.694651 0.915666
vt 0.348827 0.876001
vt 0.348827 0.915666
vt 0.870566 0.001001
vt 0.912042 0.332332
vt 0.912042 0.001001
vt 0.001001 0.915666
vt 0.018736 0.876001
vt 0.329091 0.876001
vt 0.914044 0.812413
vt 0.955521 0.667668
vt 0.955521 0.832332
vt 0.694651 0.165666
vt 0.348827 0.001001
vt 0.348827 0.165666
vt 0.998999 0.001001
vt 0.957523 0.165666
vt 0.998999 0.165666
vt 0.696653 0.922466
vt 0.696653 0.917668
vt 0.868564 0.917668
vt 0.998999 0.332332
vt 0.957523 0.167668
vt 0.957523 0.332332
vt 0.001001 0.917668
vt 0.346823 0.917668
vt 0.346823 0.919702
vt 0.957523 0.354254
vt 0.998999 0.334334
vt 0.998999 0.498999
vt 0.348827 0.332332
vt 0.694651 0.167668
vt 0.348827 0.167668
vt 0.998999 0.501001
vt 0.998999 0.665666
vt 0.694651 0.957332
vt 0.914044 0.501001
vt 0.694651 0.876001
vt 0.870566 0.332332
vt 0.346825 0.876001
vt 0.346825 0.915665
vt 0.001001 0.876001
vt 0.914044 0.832332
vt 0.914044 0.667668
vt 0.694651 0.001001
vt 0.957523 0.001001
vt 0.868564 0.957332
vt 0.696653 0.957332
vt 0.998999 0.167668
vt 0.346824 0.955298
vt 0.346825 0.957332
vt 0.001003 0.957332
vt 0.957523 0.498999
vt 0.957523 0.334334
vt 0.694651 0.332332
vt 0.870566 0.334334
vt 0.912042 0.665666
vt 0.912042 0.334334
vt 0.346825 0.834334
vt 0.001001 0.873999
vt 0.346825 0.873999
vt 0.955521 0.915666
vt 0.870566 0.876001
vt 0.870566 0.915666
vt 0.955521 0.334334
vt 0.914044 0.498999
vt 0.955521 0.498999
vt 0.868564 0.915666
vt 0.696653 0.876001
vt 0.696653 0.915666
vt 0.520738 0.957332
vt 0.348827 0.917668
vt 0.348827 0.957332
vt 0.955521 0.167668
vt 0.914044 0.332332
vt 0.955521 0.332332
vt 0.868564 0.873999
vt 0.696653 0.834334
vt 0.696653 0.873999
vt 0.870566 0.667668
vt 0.912042 0.832332
vt 0.912042 0.667668
vt 0.172912 0.998999
vt 0.001001 0.959334
vt 0.001001 0.998999
vt 0.955521 0.001001
vt 0.914044 0.165666
vt 0.955521 0.165666
vt 0.955521 0.873999
vt 0.870566 0.834334
vt 0.870566 0.873999
vt 0.870566 0.665666
vt 0.001001 0.834334
vt 0.955521 0.876001
vt 0.914044 0.334334
vt 0.868564 0.876001
vt 0.520738 0.917668
vt 0.914044 0.167668
vt 0.868564 0.834334
vt 0.870566 0.832332
vt 0.172912 0.959334
vt 0.914044 0.001001
vt 0.955521 0.834334
vt 0.087457 0.667668
vt 0.346825 0.667668
vt 0.346825 0.748999
vt 0.522740 0.501001
vt 0.694651 0.665666
vt 0.694651 0.501001
vt 0.422932 0.667668
vt 0.571143 0.667668
vt 0.348827 0.748999
vt 0.522740 0.334334
vt 0.694651 0.498999
vt 0.694651 0.334334
vt 0.868564 0.667668
vt 0.783610 0.832332
vt 0.868564 0.832332
vt 0.001001 0.540894
vt 0.001001 0.393351
vt 0.346825 0.540894
vt 0.001001 0.751001
vt 0.346825 0.751001
vt 0.149211 0.832332
vt 0.781608 0.667668
vt 0.696653 0.832332
vt 0.781608 0.832332
vt 0.783610 0.001002
vt 0.825086 0.001001
vt 0.810273 0.332332
vt 0.844863 0.001001
vt 0.862639 0.001001
vt 0.868564 0.332332
vt 0.348828 0.873999
vt 0.348827 0.834334
vt 0.694651 0.846730
vt 0.348827 0.609791
vt 0.434783 0.334334
vt 0.402549 0.665666
vt 0.348827 0.832332
vt 0.348827 0.751001
vt 0.608195 0.751001
vt 0.001001 0.748999
vt 0.001001 0.667668
vt 0.522740 0.665666
vt 0.694651 0.667668
vt 0.694651 0.748999
vt 0.348827 0.735444
vt 0.348827 0.667668
vt 0.522740 0.498999
vt 0.783610 0.667668
vt 0.001001 0.334334
vt 0.346825 0.334334
vt 0.346825 0.393351
vt 0.346825 0.561935
vt 0.001001 0.561935
vt 0.173913 0.665666
vt 0.346825 0.832332
vt 0.297422 0.832332
vt 0.001001 0.832332
vt 0.001001 0.764556
vt 0.696653 0.667668
vt 0.825086 0.332332
vt 0.792497 0.332332
vt 0.783610 0.332332
vt 0.827088 0.332332
vt 0.827088 0.001001
vt 0.868564 0.001001
vt 0.694651 0.834334
vt 0.694651 0.861604
vt 0.694651 0.873999
vt 0.520738 0.665666
vt 0.467016 0.665666
vt 0.520738 0.609791
vt 0.348827 0.665666
vt 0.694651 0.751001
vt 0.694651 0.832332
vt 0.696653 0.501001
vt 0.868564 0.665666
vt 0.868564 0.501001
vt 0.696653 0.334334
vt 0.868564 0.498999
vt 0.868564 0.334334
vt 0.001001 0.001001
vt 0.346825 0.332332
vt 0.346825 0.001001
vt 0.696653 0.001001
vt 0.781608 0.332332
vt 0.781608 0.001001
vt 0.696653 0.665666
vt 0.696653 0.498999
vt 0.001001 0.332332
vt 0.696653 0.332332
vn 0.7256 -0.6881 0.0000
vn 0.0000 0.0000 -1.0000
vn -0.7256 -0.6881 0.0000
vn 0.6881 -0.7256 0.0000
vn 0.7257 0.6880 0.0001
vn 0.0000 0.0000 1.0000
vn -0.6881 -0.7256 0.0000
vn -0.7257 0.6880 0.0002
vn 0.7255 0.6882 0.0000
vn -0.7255 0.6882 0.0000
vn -1.0000 0.0000 0.0000
vn 1.0000 0.0000 0.0000
vn 0.0000 -1.0000 0.0000
vn 0.0000 1.0000 0.0000
s off
f 52/1/1 14/2/1 47/3/1
f 55/4/2 60/5/2 56/6/2
f 57/7/2 55/8/2 56/9/2
f 6/10/3 44/11/3 13/12/3
f 46/13/1 7/14/1 14/15/1
f 50/16/4 44/17/4 54/18/4
f 6/19/3 55/20/3 58/21/3
f 48/22/5 57/23/5 56/24/5
f 51/25/6 47/26/6 48/27/6
f 13/28/3 44/29/3 49/30/3
f 47/31/6 50/32/6 48/33/6
f 60/34/7 59/35/7 45/36/7
f 7/37/1 59/38/1 55/39/1
f 60/40/8 48/41/8 56/42/8
f 46/43/1 14/2/1 52/1/1
f 14/2/1 43/44/1 47/3/1
f 55/4/2 59/45/2 60/5/2
f 57/7/2 58/46/2 55/8/2
f 6/10/3 54/47/3 44/11/3
f 46/13/1 45/48/1 7/14/1
f 58/49/4 57/50/4 54/18/4
f 57/50/4 50/16/4 54/18/4
f 50/16/4 49/51/4 44/17/4
f 58/21/3 54/52/3 6/19/3
f 6/19/3 53/53/3 55/20/3
f 48/22/9 50/54/9 57/23/9
f 51/25/6 52/55/6 47/26/6
f 49/30/3 47/56/3 13/28/3
f 47/56/3 43/57/3 13/28/3
f 47/31/6 49/58/6 50/32/6
f 45/36/7 46/59/7 60/34/7
f 46/59/7 52/60/7 51/61/7
f 60/34/7 46/59/7 51/61/7
f 55/39/1 53/62/1 7/37/1
f 7/37/1 45/63/1 59/38/1
f 60/40/10 51/64/10 48/41/10
f 35/65/11 12/66/11 16/67/11
f 36/68/12 15/69/12 11/70/12
f 15/71/13 35/72/13 16/73/13
f 26/74/6 29/75/6 25/76/6
f 2/77/14 31/78/14 1/79/14
f 25/80/14 27/81/14 23/82/14
f 24/83/13 30/84/13 26/85/13
f 23/86/2 28/87/2 24/88/2
f 32/89/13 19/90/13 22/91/13
f 1/92/6 32/93/6 22/94/6
f 19/95/2 33/96/2 2/97/2
f 12/98/14 36/99/14 11/100/14
f 35/65/11 37/101/11 12/66/11
f 36/68/12 38/102/12 15/69/12
f 15/71/13 38/103/13 35/72/13
f 26/74/6 30/104/6 29/75/6
f 2/77/14 33/105/14 31/78/14
f 25/80/14 29/106/14 27/81/14
f 24/83/13 28/107/13 30/84/13
f 23/86/2 27/108/2 28/87/2
f 32/89/13 34/109/13 19/90/13
f 1/92/6 31/110/6 32/93/6
f 19/95/2 34/111/2 33/96/2
f 12/98/14 37/112/14 36/99/14
f 5/113/6 17/114/6 16/115/6
f 23/116/12 17/117/12 5/118/12
f 2/119/11 1/120/11 41/121/11
f 22/122/11 4/123/11 1/124/11
f 2/125/11 18/126/11 19/127/11
f 20/128/2 21/129/2 8/130/2
f 40/131/12 42/132/12 23/133/12
f 25/134/12 20/135/12 26/136/12
f 14/137/11 7/138/11 22/139/11
f 24/140/12 26/141/12 6/142/12
f 41/143/6 40/144/6 12/145/6
f 13/146/6 43/147/6 16/148/6
f 15/149/6 18/150/6 3/151/6
f 16/115/6 12/152/6 5/113/6
f 12/152/6 10/153/6 5/113/6
f 23/116/12 24/154/12 17/117/12
f 1/120/11 4/155/11 39/156/11
f 39/156/11 41/121/11 1/120/11
f 41/121/11 9/157/11 2/119/11
f 9/157/11 3/158/11 2/119/11
f 22/122/11 8/159/11 4/123/11
f 2/125/11 3/160/11 18/126/11
f 42/161/2 39/162/2 4/163/2
f 8/130/2 7/164/2 6/165/2
f 7/164/2 53/166/2 6/165/2
f 42/161/2 4/163/2 21/129/2
f 4/163/2 8/130/2 21/129/2
f 6/165/2 20/128/2 8/130/2
f 42/132/12 21/167/12 25/168/12
f 23/133/12 5/169/12 10/170/12
f 42/132/12 25/168/12 23/133/12
f 10/170/12 40/131/12 23/133/12
f 25/134/12 21/171/12 20/135/12
f 8/172/11 22/139/11 7/138/11
f 22/139/11 19/173/11 14/137/11
f 19/173/11 18/174/11 14/137/11
f 13/175/12 17/176/12 24/140/12
f 26/141/12 20/177/12 6/142/12
f 13/175/12 24/140/12 6/142/12
f 10/178/6 12/145/6 40/144/6
f 12/145/6 11/179/6 41/143/6
f 11/179/6 9/180/6 41/143/6
f 18/181/6 15/182/6 14/183/6
f 15/182/6 16/148/6 43/147/6
f 14/183/6 15/182/6 43/147/6
f 16/148/6 17/184/6 13/146/6
f 3/151/6 9/185/6 11/186/6
f 11/186/6 15/149/6 3/151/6
f 29/187/12 28/188/12 27/189/12
f 33/190/11 32/191/11 31/192/11
f 42/193/13 41/194/13 39/195/13
f 37/196/6 38/197/6 36/198/6
f 29/187/12 30/199/12 28/188/12
f 33/190/11 34/200/11 32/191/11
f 42/193/13 40/201/13 41/194/13
f 37/196/6 35/202/6 38/197/6
