# Blender v2.80 (sub 75) OBJ File: 'tunnel.blend'
# www.blender.org
o Plane
v 0.000000 -0.000000 -3.912400
v 0.000000 -0.000000 -0.609600
v 0.000000 0.100000 -3.912400
v 0.000000 0.100000 -5.131600
v 1.500000 -0.000000 -3.912400
v 1.500000 0.100000 -3.912400
v 1.500000 0.100000 -5.131600
v 4.500000 -0.000000 -3.912400
v 4.500000 0.100000 -3.912400
v 4.500000 0.100000 -5.131600
v 3.000000 -0.000000 -0.609600
v 3.000000 -0.000000 -3.912400
v 3.000000 0.100000 -3.912400
v 3.000000 0.100000 -5.131600
v 1.500000 -0.000000 -0.609600
v 4.500000 -0.000000 -0.609600
v -0.000000 1.065585 -5.443559
v 1.500000 1.065585 -5.443559
v 4.500000 1.065585 -5.443559
v 3.000000 1.065585 -5.443559
v -0.000000 2.438173 -4.982280
v 1.500000 2.438173 -4.982280
v 4.500000 2.438173 -4.982280
v 3.000000 2.438173 -4.982280
v -0.000000 3.644603 -4.181468
v 1.500000 3.644603 -4.181468
v 4.500000 3.644603 -4.181468
v 2.999999 3.644603 -4.181468
v -0.000001 4.602659 -3.095695
v 1.499999 4.602659 -3.095695
v 4.500000 4.602659 -3.095695
v 2.999999 4.602659 -3.095695
v -0.000001 5.129876 -1.779427
v 1.499999 5.129876 -1.779427
v 4.500000 5.129876 -1.779427
v 2.999999 5.129876 -1.779427
v -0.000001 5.247052 -0.609600
v 1.499999 5.247052 -0.609600
v 4.500000 5.247052 -0.609600
v 2.999999 5.247052 -0.609600
v -0.000001 4.482777 -0.609600
v 2.059108 4.405330 -0.609600
v 2.440890 4.405330 -0.609600
v 4.500000 4.482778 -0.609600
v 2.059108 4.346328 -0.609600
v 2.440890 4.346328 -0.609600
v 4.500000 4.268882 -0.609600
v -0.000001 4.268881 -0.609600
v 1.499999 4.482777 -0.609600
v 2.999999 4.482777 -0.609600
v 1.499999 4.268881 -0.609600
v 2.999999 4.268881 -0.609600
v 2.059108 4.405330 -0.644298
v 2.440890 4.405330 -0.644298
v 2.059108 4.346328 -0.644298
v 2.440890 4.346328 -0.644298
v 1.901474 4.429691 -0.651871
v 2.598525 4.429691 -0.651871
v 1.901474 4.321967 -0.651871
v 2.598525 4.321967 -0.651871
v 1.901474 4.429691 -0.691743
v 2.598525 4.429691 -0.691744
v 1.901474 4.321967 -0.691743
v 2.598525 4.321967 -0.691744
v 0.000000 -0.000000 3.912400
v 0.000000 -0.000000 0.609600
v 0.000000 0.100000 3.912400
v 0.000000 0.100000 5.131600
v 1.500000 -0.000000 3.912400
v 1.500000 0.100000 3.912400
v 1.500000 0.100000 5.131600
v 4.500000 -0.000000 3.912400
v 4.500000 0.100000 3.912400
v 4.500000 0.100000 5.131600
v 3.000000 -0.000000 0.609600
v 3.000000 -0.000000 3.912400
v 3.000000 0.100000 3.912400
v 3.000000 0.100000 5.131600
v 1.500000 -0.000000 0.609600
v 4.500000 -0.000000 0.609600
v -0.000000 1.065585 5.443559
v 1.500000 1.065585 5.443559
v 4.500000 1.065585 5.443559
v 3.000000 1.065585 5.443559
v -0.000000 2.438173 4.982280
v 1.500000 2.438173 4.982280
v 4.500000 2.438173 4.982280
v 3.000000 2.438173 4.982280
v -0.000000 3.644603 4.181468
v 1.500000 3.644603 4.181468
v 4.500000 3.644603 4.181468
v 2.999999 3.644603 4.181468
v -0.000001 4.602659 3.095695
v 1.499999 4.602659 3.095695
v 4.500000 4.602659 3.095695
v 2.999999 4.602659 3.095695
v -0.000001 5.129876 1.779427
v 1.499999 5.129876 1.779427
v 4.500000 5.129876 1.779427
v 2.999999 5.129876 1.779427
v -0.000001 5.247052 0.609600
v 1.499999 5.247052 0.609600
v 4.500000 5.247052 0.609600
v 2.999999 5.247052 0.609600
v -0.000001 4.482777 0.609600
v 2.059108 4.405330 0.609600
v 2.440890 4.405330 0.609600
v 4.500000 4.482778 0.609600
v 2.059108 4.346328 0.609600
v 2.440890 4.346328 0.609600
v 4.500000 4.268882 0.609600
v -0.000001 4.268881 0.609600
v 1.499999 4.482777 0.609600
v 2.999999 4.482777 0.609600
v 1.499999 4.268881 0.609600
v 2.999999 4.268881 0.609600
v 2.059108 4.405330 0.644298
v 2.440890 4.405330 0.644298
v 2.059108 4.346328 0.644298
v 2.440890 4.346328 0.644298
v 1.901474 4.429691 0.651871
v 2.598525 4.429691 0.651871
v 1.901474 4.321967 0.651871
v 2.598525 4.321967 0.651871
v 1.901474 4.429691 0.691743
v 2.598525 4.429691 0.691744
v 1.901474 4.321967 0.691743
v 2.598525 4.321967 0.691744
vt 0.415666 0.889890
vt 0.403779 0.943443
vt 0.415666 0.943443
vt 0.896834 0.834334
vt 0.901777 0.839277
vt 0.901777 0.834334
vt 0.896834 0.848223
vt 0.901777 0.860110
vt 0.901777 0.848223
vt 0.889890 0.848223
vt 0.894832 0.860110
vt 0.894832 0.848223
vt 0.401777 0.943443
vt 0.389890 0.889890
vt 0.389890 0.943443
vt 0.341279 0.889890
vt 0.346221 0.943443
vt 0.346221 0.889890
vt 0.339277 0.889890
vt 0.334334 0.943443
vt 0.339277 0.943443
vt 0.360110 0.889890
vt 0.355168 0.943443
vt 0.360110 0.943443
vt 0.889890 0.834334
vt 0.894832 0.839277
vt 0.894832 0.834334
vt 0.903779 0.667668
vt 0.915666 0.721221
vt 0.915666 0.667668
vt 0.910723 0.834334
vt 0.915666 0.839277
vt 0.915666 0.834334
vt 0.915666 0.848223
vt 0.910723 0.860110
vt 0.915666 0.860110
vt 0.908721 0.848223
vt 0.903779 0.860110
vt 0.908721 0.860110
vt 0.901777 0.667668
vt 0.889890 0.721221
vt 0.901777 0.721221
vt 0.353166 0.889890
vt 0.348223 0.943443
vt 0.353166 0.943443
vt 0.721221 0.903779
vt 0.667668 0.908721
vt 0.721221 0.908721
vt 0.721221 0.896834
vt 0.667668 0.901777
vt 0.721221 0.901777
vt 0.903779 0.834334
vt 0.908721 0.839277
vt 0.908721 0.834334
vt 0.403779 0.889890
vt 0.896834 0.839277
vt 0.896834 0.860110
vt 0.889890 0.860110
vt 0.401777 0.889890
vt 0.341279 0.943443
vt 0.334334 0.889890
vt 0.355168 0.889890
vt 0.889890 0.839277
vt 0.903779 0.721221
vt 0.910723 0.839277
vt 0.910723 0.848223
vt 0.903779 0.848223
vt 0.889890 0.667668
vt 0.348223 0.889890
vt 0.667668 0.903779
vt 0.667668 0.896834
vt 0.903779 0.839277
vt 0.332332 0.001001
vt 0.223223 0.221221
vt 0.332332 0.221221
vt 0.001001 0.443443
vt 0.221221 0.334334
vt 0.001001 0.334334
vt 0.221221 0.554555
vt 0.001001 0.445445
vt 0.001001 0.554555
vt 0.896834 0.841279
vt 0.901777 0.846221
vt 0.901777 0.841279
vt 0.901777 0.862112
vt 0.896834 0.887888
vt 0.901777 0.887888
vt 0.894832 0.862112
vt 0.889890 0.887888
vt 0.894832 0.887888
vt 0.889890 0.841279
vt 0.894832 0.846221
vt 0.894832 0.841279
vt 0.223223 0.332332
vt 0.443443 0.223223
vt 0.223223 0.223223
vt 0.110110 0.001001
vt 0.001001 0.221221
vt 0.110110 0.221221
vt 0.334334 0.001001
vt 0.443443 0.221221
vt 0.443443 0.001001
vt 0.910723 0.841279
vt 0.915666 0.846221
vt 0.915666 0.841279
vt 0.910723 0.862112
vt 0.915666 0.887888
vt 0.915666 0.862112
vt 0.903779 0.862112
vt 0.908721 0.887888
vt 0.908721 0.862112
vt 0.903779 0.841279
vt 0.908721 0.846221
vt 0.908721 0.841279
vt 0.223223 0.001001
vt 0.221221 0.443443
vt 0.221221 0.445445
vt 0.896834 0.846221
vt 0.896834 0.862112
vt 0.889890 0.862112
vt 0.889890 0.846221
vt 0.443443 0.332332
vt 0.001001 0.001001
vt 0.334334 0.221221
vt 0.910723 0.846221
vt 0.910723 0.887888
vt 0.903779 0.887888
vt 0.903779 0.846221
vt 0.929555 0.667668
vt 0.924612 0.776777
vt 0.929555 0.776777
vt 0.832332 0.896834
vt 0.723223 0.901777
vt 0.832332 0.901777
vt 0.778779 0.334334
vt 0.887888 0.443443
vt 0.887888 0.334334
vt 0.778779 0.223223
vt 0.887888 0.332332
vt 0.887888 0.223223
vt 0.922610 0.778779
vt 0.917668 0.887888
vt 0.922610 0.887888
vt 0.445445 0.667668
vt 0.554555 0.776777
vt 0.554555 0.667668
vt 0.887888 0.889890
vt 0.778779 0.894832
vt 0.887888 0.894832
vt 0.922610 0.667668
vt 0.917668 0.776777
vt 0.922610 0.776777
vt 0.667668 0.667668
vt 0.776777 0.776777
vt 0.776777 0.667668
vt 0.778779 0.112112
vt 0.887888 0.221221
vt 0.887888 0.112112
vt 0.776777 0.889890
vt 0.667668 0.894832
vt 0.776777 0.894832
vt 0.223223 0.778779
vt 0.332332 0.887888
vt 0.332332 0.778779
vt 0.924612 0.667668
vt 0.723223 0.896834
vt 0.778779 0.443443
vt 0.778779 0.332332
vt 0.917668 0.778779
vt 0.445445 0.776777
vt 0.778779 0.889890
vt 0.917668 0.667668
vt 0.667668 0.776777
vt 0.778779 0.221221
vt 0.667668 0.889890
vt 0.223223 0.887888
vt 0.554555 0.001001
vt 0.445445 0.221221
vt 0.554555 0.221221
vt 0.223223 0.554555
vt 0.443443 0.445445
vt 0.223223 0.445445
vt 0.556557 0.556557
vt 0.665666 0.665666
vt 0.665666 0.556557
vt 0.554555 0.223223
vt 0.445445 0.332332
vt 0.554555 0.332332
vt 0.445445 0.334334
vt 0.554555 0.443443
vt 0.554555 0.334334
vt 0.445445 0.445445
vt 0.554555 0.554555
vt 0.554555 0.445445
vt 0.556557 0.001001
vt 0.665666 0.110110
vt 0.665666 0.001001
vt 0.556557 0.112112
vt 0.665666 0.221221
vt 0.665666 0.112112
vt 0.665666 0.223223
vt 0.556557 0.332332
vt 0.665666 0.332332
vt 0.332332 0.556557
vt 0.223223 0.665666
vt 0.332332 0.665666
vt 0.665666 0.334334
vt 0.556557 0.443443
vt 0.665666 0.443443
vt 0.334334 0.556557
vt 0.443443 0.665666
vt 0.443443 0.556557
vt 0.554555 0.556557
vt 0.445445 0.665666
vt 0.554555 0.665666
vt 0.665666 0.445445
vt 0.556557 0.554555
vt 0.665666 0.554555
vt 0.445445 0.778779
vt 0.554555 0.887888
vt 0.554555 0.778779
vt 0.776777 0.001001
vt 0.667668 0.110110
vt 0.776777 0.110110
vt 0.001001 0.667668
vt 0.110110 0.776777
vt 0.110110 0.667668
vt 0.112112 0.667668
vt 0.221221 0.776777
vt 0.221221 0.667668
vt 0.776777 0.112112
vt 0.667668 0.221221
vt 0.776777 0.221221
vt 0.223223 0.667668
vt 0.332332 0.776777
vt 0.332332 0.667668
vt 0.889890 0.445445
vt 0.943443 0.554555
vt 0.943443 0.445445
vt 0.332332 0.889890
vt 0.223223 0.943443
vt 0.332332 0.943443
vt 0.889890 0.556557
vt 0.943443 0.665666
vt 0.943443 0.556557
vt 0.665666 0.889890
vt 0.556557 0.901777
vt 0.665666 0.901777
vt 0.903779 0.723223
vt 0.915666 0.832332
vt 0.915666 0.723223
vt 0.834334 0.056557
vt 0.887888 0.110110
vt 0.887888 0.056557
vt 0.376001 0.889890
vt 0.387888 0.943443
vt 0.387888 0.889890
vt 0.362112 0.889890
vt 0.373999 0.943443
vt 0.373999 0.889890
vt 0.778779 0.056557
vt 0.832332 0.110110
vt 0.832332 0.056557
vt 0.221221 0.332332
vt 0.001001 0.223223
vt 0.001001 0.332332
vt 0.221221 0.001001
vt 0.112112 0.221221
vt 0.221221 0.221221
vt 0.221221 0.665666
vt 0.001001 0.556557
vt 0.001001 0.665666
vt 0.778779 0.445445
vt 0.887888 0.554555
vt 0.887888 0.445445
vt 0.887888 0.556557
vt 0.778779 0.665666
vt 0.887888 0.665666
vt 0.556557 0.778779
vt 0.665666 0.887888
vt 0.665666 0.778779
vt 0.778779 0.667668
vt 0.887888 0.776777
vt 0.887888 0.667668
vt 0.667668 0.778779
vt 0.776777 0.887888
vt 0.776777 0.778779
vt 0.778779 0.778779
vt 0.887888 0.887888
vt 0.887888 0.778779
vt 0.001001 0.889890
vt 0.110110 0.998999
vt 0.110110 0.889890
vt 0.998999 0.001001
vt 0.889890 0.110110
vt 0.998999 0.110110
vt 0.889890 0.112112
vt 0.998999 0.221221
vt 0.998999 0.112112
vt 0.001001 0.778779
vt 0.110110 0.887888
vt 0.110110 0.778779
vt 0.776777 0.556557
vt 0.667668 0.665666
vt 0.776777 0.665666
vt 0.665666 0.667668
vt 0.556557 0.776777
vt 0.665666 0.776777
vt 0.667668 0.445445
vt 0.776777 0.554555
vt 0.776777 0.445445
vt 0.667668 0.334334
vt 0.776777 0.443443
vt 0.776777 0.334334
vt 0.667668 0.223223
vt 0.776777 0.332332
vt 0.776777 0.223223
vt 0.334334 0.778779
vt 0.443443 0.887888
vt 0.443443 0.778779
vt 0.334334 0.667668
vt 0.443443 0.776777
vt 0.443443 0.667668
vt 0.112112 0.778779
vt 0.221221 0.887888
vt 0.221221 0.778779
vt 0.943443 0.223223
vt 0.889890 0.332332
vt 0.943443 0.332332
vt 0.221221 0.943443
vt 0.112112 0.889890
vt 0.112112 0.943443
vt 0.943443 0.334334
vt 0.889890 0.443443
vt 0.943443 0.443443
vt 0.554555 0.901777
vt 0.445445 0.889890
vt 0.445445 0.901777
vt 0.901777 0.723223
vt 0.889890 0.832332
vt 0.901777 0.832332
vt 0.834334 0.001001
vt 0.887888 0.054555
vt 0.887888 0.001001
vt 0.443443 0.889890
vt 0.431557 0.943443
vt 0.443443 0.943443
vt 0.429555 0.889890
vt 0.417668 0.943443
vt 0.429555 0.943443
vt 0.778779 0.001001
vt 0.832332 0.054555
vt 0.832332 0.001001
vt 0.443443 0.443443
vt 0.223223 0.334334
vt 0.223223 0.443443
vt 0.445445 0.001001
vt 0.443443 0.554555
vt 0.556557 0.665666
vt 0.445445 0.223223
vt 0.445445 0.443443
vt 0.445445 0.554555
vt 0.556557 0.110110
vt 0.556557 0.221221
vt 0.556557 0.223223
vt 0.223223 0.556557
vt 0.556557 0.334334
vt 0.334334 0.665666
vt 0.445445 0.556557
vt 0.556557 0.445445
vt 0.445445 0.887888
vt 0.667668 0.001001
vt 0.001001 0.776777
vt 0.112112 0.776777
vt 0.667668 0.112112
vt 0.223223 0.776777
vt 0.889890 0.554555
vt 0.223223 0.889890
vt 0.889890 0.665666
vt 0.556557 0.889890
vt 0.903779 0.832332
vt 0.834334 0.110110
vt 0.376001 0.943443
vt 0.362112 0.943443
vt 0.778779 0.110110
vt 0.221221 0.223223
vt 0.112112 0.001001
vt 0.221221 0.556557
vt 0.778779 0.554555
vt 0.778779 0.556557
vt 0.556557 0.887888
vt 0.778779 0.776777
vt 0.667668 0.887888
vt 0.778779 0.887888
vt 0.001001 0.998999
vt 0.889890 0.001001
vt 0.889890 0.221221
vt 0.001001 0.887888
vt 0.667668 0.556557
vt 0.556557 0.667668
vt 0.667668 0.554555
vt 0.667668 0.443443
vt 0.667668 0.332332
vt 0.334334 0.887888
vt 0.334334 0.776777
vt 0.112112 0.887888
vt 0.889890 0.223223
vt 0.221221 0.889890
vt 0.889890 0.334334
vt 0.554555 0.889890
vt 0.889890 0.723223
vt 0.834334 0.054555
vt 0.431557 0.889890
vt 0.417668 0.889890
vt 0.778779 0.054555
vt 0.443443 0.334334
vn 0.0000 -0.2968 0.9549
vn 1.0000 0.0000 0.0000
vn -0.0480 0.0000 0.9988
vn 0.0480 0.0000 0.9988
vn 0.0000 0.2968 0.9549
vn -0.0000 0.0000 -1.0000
vn 0.0000 1.0000 0.0000
vn 0.0000 -1.0000 0.0000
vn -1.0000 0.0000 0.0000
vn 0.0000 -0.2968 -0.9549
vn -0.0480 0.0000 -0.9988
vn 0.0480 0.0000 -0.9988
vn 0.0000 0.2968 -0.9549
vn -0.0000 0.0000 1.0000
vn 0.0000 0.3074 0.9516
vn 0.0000 -0.3186 0.9479
vn 0.0000 -0.5530 0.8332
vn 0.0000 -0.7498 0.6616
vn 0.0000 -0.9283 0.3718
vn 0.0000 -0.9950 0.0997
vn 0.0000 0.3074 -0.9516
vn 0.0000 -0.3186 -0.9479
vn 0.0000 -0.5530 -0.8332
vn 0.0000 -0.7498 -0.6616
vn 0.0000 -0.9283 -0.3718
vn 0.0000 -0.9950 -0.0997
s off
f 55/1/1 60/2/1 56/3/1
f 60/4/2 62/5/2 58/6/2
f 53/7/3 59/8/3 55/9/3
f 56/10/4 58/11/4 54/12/4
f 53/13/5 58/14/5 57/15/5
f 61/16/6 64/17/6 63/18/6
f 58/19/7 61/20/7 57/21/7
f 59/22/8 64/23/8 60/24/8
f 57/25/9 63/26/9 59/27/9
f 124/28/10 119/29/10 120/30/10
f 126/31/2 124/32/2 122/33/2
f 123/34/11 117/35/11 119/36/11
f 122/37/12 120/38/12 118/39/12
f 117/40/13 122/41/13 118/42/13
f 128/43/14 125/44/14 127/45/14
f 125/46/7 122/47/7 121/48/7
f 128/49/8 123/50/8 124/51/8
f 127/52/9 121/53/9 123/54/9
f 55/1/1 59/55/1 60/2/1
f 60/4/2 64/56/2 62/5/2
f 53/7/3 57/57/3 59/8/3
f 56/10/4 60/58/4 58/11/4
f 53/13/5 54/59/5 58/14/5
f 61/16/6 62/60/6 64/17/6
f 58/19/7 62/61/7 61/20/7
f 59/22/8 63/62/8 64/23/8
f 57/25/9 61/63/9 63/26/9
f 124/28/10 123/64/10 119/29/10
f 126/31/2 128/65/2 124/32/2
f 123/34/11 121/66/11 117/35/11
f 122/37/12 124/67/12 120/38/12
f 117/40/13 121/68/13 122/41/13
f 128/43/14 126/69/14 125/44/14
f 125/46/7 126/70/7 122/47/7
f 128/49/8 127/71/8 123/50/8
f 127/52/9 125/72/9 121/53/9
f 2/73/7 5/74/7 1/75/7
f 11/76/7 5/77/7 15/78/7
f 8/79/7 11/80/7 16/81/7
f 46/82/2 54/83/2 43/84/2
f 43/85/7 53/86/7 42/87/7
f 45/88/8 56/89/8 46/90/8
f 42/91/9 55/92/9 45/93/9
f 66/94/7 69/95/7 79/96/7
f 75/97/7 69/98/7 76/99/7
f 75/100/7 72/101/7 80/102/7
f 118/103/2 110/104/2 107/105/2
f 117/106/7 107/107/7 106/108/7
f 120/109/8 109/110/8 110/111/8
f 119/112/9 106/113/9 109/114/9
f 2/73/7 15/115/7 5/74/7
f 11/76/7 12/116/7 5/77/7
f 8/79/7 12/117/7 11/80/7
f 46/82/2 56/118/2 54/83/2
f 43/85/7 54/119/7 53/86/7
f 45/88/8 55/120/8 56/89/8
f 42/91/9 53/121/9 55/92/9
f 66/94/7 65/122/7 69/95/7
f 75/97/7 79/123/7 69/98/7
f 75/100/7 76/124/7 72/101/7
f 118/103/2 120/125/2 110/104/2
f 117/106/7 118/126/7 107/107/7
f 120/109/8 119/127/8 109/110/8
f 119/112/9 117/128/9 106/113/9
f 12/129/14 6/130/14 5/131/14
f 6/132/14 1/133/14 5/134/14
f 7/135/7 3/136/7 6/137/7
f 13/138/7 7/139/7 6/140/7
f 8/141/14 13/142/14 12/143/14
f 9/144/7 14/145/7 13/146/7
f 70/147/6 76/148/6 69/149/6
f 65/150/6 70/151/6 69/152/6
f 67/153/7 71/154/7 70/155/7
f 71/156/7 77/157/7 70/158/7
f 77/159/6 72/160/6 76/161/6
f 78/162/7 73/163/7 77/164/7
f 12/129/14 13/165/14 6/130/14
f 6/132/14 3/166/14 1/133/14
f 7/135/7 4/167/7 3/136/7
f 13/138/7 14/168/7 7/139/7
f 8/141/14 9/169/14 13/142/14
f 9/144/7 10/170/7 14/145/7
f 70/147/6 77/171/6 76/148/6
f 65/150/6 67/172/6 70/151/6
f 67/153/7 68/173/7 71/154/7
f 71/156/7 78/174/7 77/157/7
f 77/159/6 73/175/6 72/160/6
f 78/162/7 74/176/7 73/163/7
f 52/177/6 16/178/6 11/179/6
f 15/180/6 52/181/6 11/182/6
f 14/183/15 18/184/15 7/185/15
f 14/186/15 19/187/15 20/188/15
f 7/189/15 17/190/15 4/191/15
f 20/192/16 22/193/16 18/194/16
f 19/195/16 24/196/16 20/197/16
f 18/198/16 21/199/16 17/200/16
f 22/201/17 28/202/17 26/203/17
f 24/204/17 27/205/17 28/206/17
f 21/207/17 26/208/17 25/209/17
f 28/210/18 30/211/18 26/212/18
f 28/213/18 31/214/18 32/215/18
f 25/216/18 30/217/18 29/218/18
f 32/219/19 34/220/19 30/221/19
f 32/222/19 35/223/19 36/224/19
f 30/225/19 33/226/19 29/227/19
f 36/228/20 38/229/20 34/230/20
f 36/231/20 39/232/20 40/233/20
f 34/234/20 37/235/20 33/236/20
f 37/237/6 49/238/6 41/239/6
f 38/240/6 50/241/6 49/242/6
f 40/243/6 44/244/6 50/245/6
f 50/246/6 47/247/6 52/248/6
f 41/249/6 51/250/6 48/251/6
f 42/252/6 50/253/6 43/254/6
f 45/255/6 49/256/6 42/257/6
f 43/258/6 52/259/6 46/260/6
f 46/261/6 51/262/6 45/263/6
f 48/264/6 15/265/6 2/266/6
f 111/267/14 75/268/14 80/269/14
f 116/270/14 79/271/14 75/272/14
f 82/273/21 78/274/21 71/275/21
f 78/276/21 83/277/21 74/278/21
f 81/279/21 71/280/21 68/281/21
f 86/282/22 84/283/22 82/284/22
f 88/285/22 83/286/22 84/287/22
f 85/288/22 82/289/22 81/290/22
f 90/291/23 88/292/23 86/293/23
f 88/294/23 91/295/23 87/296/23
f 89/297/23 86/298/23 85/299/23
f 94/300/24 92/301/24 90/302/24
f 92/303/24 95/304/24 91/305/24
f 89/306/24 94/307/24 90/308/24
f 98/309/25 96/310/25 94/311/25
f 100/312/25 95/313/25 96/314/25
f 97/315/25 94/316/25 93/317/25
f 102/318/26 100/319/26 98/320/26
f 104/321/26 99/322/26 100/323/26
f 101/324/26 98/325/26 97/326/26
f 113/327/14 101/328/14 105/329/14
f 114/330/14 102/331/14 113/332/14
f 108/333/14 104/334/14 114/335/14
f 111/336/14 114/337/14 116/338/14
f 115/339/14 105/340/14 112/341/14
f 114/342/14 106/343/14 107/344/14
f 113/345/14 109/346/14 106/347/14
f 116/348/14 107/349/14 110/350/14
f 115/351/14 110/352/14 109/353/14
f 115/354/14 66/355/14 79/356/14
f 52/177/6 47/357/6 16/178/6
f 15/180/6 51/358/6 52/181/6
f 14/183/15 20/359/15 18/184/15
f 14/186/15 10/360/15 19/187/15
f 7/189/15 18/361/15 17/190/15
f 20/192/16 24/362/16 22/193/16
f 19/195/16 23/363/16 24/196/16
f 18/198/16 22/364/16 21/199/16
f 22/201/17 24/365/17 28/202/17
f 24/204/17 23/366/17 27/205/17
f 21/207/17 22/367/17 26/208/17
f 28/210/18 32/368/18 30/211/18
f 28/213/18 27/369/18 31/214/18
f 25/216/18 26/370/18 30/217/18
f 32/219/19 36/371/19 34/220/19
f 32/222/19 31/372/19 35/223/19
f 30/225/19 34/373/19 33/226/19
f 36/228/20 40/374/20 38/229/20
f 36/231/20 35/375/20 39/232/20
f 34/234/20 38/376/20 37/235/20
f 37/237/6 38/377/6 49/238/6
f 38/240/6 40/378/6 50/241/6
f 40/243/6 39/379/6 44/244/6
f 50/246/6 44/380/6 47/247/6
f 41/249/6 49/381/6 51/250/6
f 42/252/6 49/382/6 50/253/6
f 45/255/6 51/383/6 49/256/6
f 43/258/6 50/384/6 52/259/6
f 46/261/6 52/385/6 51/262/6
f 48/264/6 51/386/6 15/265/6
f 111/267/14 116/387/14 75/268/14
f 116/270/14 115/388/14 79/271/14
f 82/273/21 84/389/21 78/274/21
f 78/276/21 84/390/21 83/277/21
f 81/279/21 82/391/21 71/280/21
f 86/282/22 88/392/22 84/283/22
f 88/285/22 87/393/22 83/286/22
f 85/288/22 86/394/22 82/289/22
f 90/291/23 92/395/23 88/292/23
f 88/294/23 92/396/23 91/295/23
f 89/297/23 90/397/23 86/298/23
f 94/300/24 96/398/24 92/301/24
f 92/303/24 96/399/24 95/304/24
f 89/306/24 93/400/24 94/307/24
f 98/309/25 100/401/25 96/310/25
f 100/312/25 99/402/25 95/313/25
f 97/315/25 98/403/25 94/316/25
f 102/318/26 104/404/26 100/319/26
f 104/321/26 103/405/26 99/322/26
f 101/324/26 102/406/26 98/325/26
f 113/327/14 102/407/14 101/328/14
f 114/330/14 104/408/14 102/331/14
f 108/333/14 103/409/14 104/334/14
f 111/336/14 108/410/14 114/337/14
f 115/339/14 113/411/14 105/340/14
f 114/342/14 113/412/14 106/343/14
f 113/345/14 115/413/14 109/346/14
f 116/348/14 114/414/14 107/349/14
f 115/351/14 116/415/14 110/352/14
f 115/354/14 112/416/14 66/355/14
