# Blender v2.93.1 OBJ File: 'tunnel_entrance.blend'
# www.blender.org
o Plane
v 0.000000 0.609600 -0.748041
v 0.000000 5.131600 0.100000
v 1.500000 5.131600 0.100000
v 1.500000 0.609600 -0.748041
v -0.000000 5.443559 1.065585
v 1.500000 5.131600 1.065585
v -0.000000 4.982280 2.438173
v 1.500000 5.131600 2.438173
v -0.000000 4.181468 3.644603
v 1.500000 5.131600 3.920394
v -0.000001 3.095695 4.602659
v 1.499999 5.131600 5.247052
v -0.000001 1.779427 5.129876
v 1.499999 2.574272 5.247052
v -0.000001 0.609600 5.247052
v 1.499999 0.609600 5.247052
v 1.500000 5.131600 -0.748041
v 0.000000 5.131600 -0.748041
v 1.500000 5.755916 0.100000
v 1.500000 5.755916 1.065585
v 1.500000 5.755916 2.438173
v 1.500000 5.755916 3.920394
v 1.499999 5.755916 5.247052
v 1.500000 5.755916 -0.748041
v 1.499999 5.131600 5.652013
v 1.499999 2.574272 5.652013
v 1.499999 0.609600 5.652013
v 1.499999 5.755916 5.652013
v -0.000001 5.755916 5.247052
v -0.000000 5.755916 3.920394
v -0.000000 5.755916 2.438173
v -0.000000 5.755916 1.065585
v 0.000000 5.755916 0.100000
v 0.000000 5.755916 -0.748041
v -0.000001 5.131600 5.652013
v -0.000001 2.574272 5.652013
v -0.000001 0.609600 5.652013
v -0.000001 5.755916 5.652013
v 0.000000 -0.609600 -0.748041
v 0.000000 -5.131600 0.100000
v 1.500000 -5.131600 0.100000
v 1.500000 -0.609600 -0.748041
v -0.000000 -5.443559 1.065585
v 1.500000 -5.131600 1.065585
v -0.000000 -4.982280 2.438173
v 1.500000 -5.131600 2.438173
v -0.000000 -4.181468 3.644603
v 1.500000 -5.131600 3.920394
v -0.000001 -3.095695 4.602659
v 1.499999 -5.131600 5.247052
v -0.000001 -1.779427 5.129876
v 1.499999 -2.574272 5.247052
v -0.000001 -0.609600 5.247052
v 1.499999 -0.609600 5.247052
v 1.500000 -5.131600 -0.748041
v 0.000000 -5.131600 -0.748041
v 1.500000 -5.755916 0.100000
v 1.500000 -5.755916 1.065585
v 1.500000 -5.755916 2.438173
v 1.500000 -5.755916 3.920394
v 1.499999 -5.755916 5.247052
v 1.500000 -5.755916 -0.748041
v 1.499999 -5.131600 5.652013
v 1.499999 -2.574272 5.652013
v 1.499999 -0.609600 5.652013
v 1.499999 -5.755916 5.652013
v -0.000001 -5.755916 5.247052
v -0.000000 -5.755916 3.920394
v -0.000000 -5.755916 2.438173
v -0.000000 -5.755916 1.065585
v 0.000000 -5.755916 0.100000
v 0.000000 -5.755916 -0.748041
v -0.000001 -5.131600 5.652013
v -0.000001 -2.574272 5.652013
v -0.000001 -0.609600 5.652013
v -0.000001 -5.755916 5.652013
vt 0.141856 0.001001
vt 0.001001 0.284713
vt 0.141856 0.284713
vt 0.715287 0.927570
vt 0.856142 0.858144
vt 0.715287 0.858144
vt 0.715287 0.429572
vt 0.856142 0.570428
vt 0.856142 0.429572
vt 0.784713 0.001001
vt 0.643858 0.141856
vt 0.784713 0.141856
vt 0.856142 0.572430
vt 0.715287 0.713285
vt 0.856142 0.713285
vt 0.427570 0.143858
vt 0.286715 0.284713
vt 0.427570 0.284713
vt 0.427570 0.286715
vt 0.286715 0.427570
vt 0.427570 0.427570
vt 0.927570 0.429572
vt 0.858144 0.570428
vt 0.927570 0.570428
vt 0.141856 0.998999
vt 0.001001 0.929572
vt 0.001001 0.998999
vt 0.998999 0.001001
vt 0.929572 0.141856
vt 0.998999 0.141856
vt 0.358144 0.929572
vt 0.427570 0.998999
vt 0.427570 0.929572
vt 0.427570 0.927570
vt 0.286715 0.858144
vt 0.286715 0.927570
vt 0.215287 0.929572
vt 0.284713 0.998999
vt 0.284713 0.929572
vt 0.856142 0.715287
vt 0.786715 0.856142
vt 0.856142 0.856142
vt 0.570428 0.641856
vt 0.286715 0.572430
vt 0.286715 0.641856
vt 0.784713 0.715287
vt 0.715287 0.856142
vt 0.784713 0.856142
vt 0.572430 0.429572
vt 0.713285 0.570428
vt 0.713285 0.429572
vt 0.929572 0.286715
vt 0.998999 0.356142
vt 0.998999 0.286715
vt 0.001001 0.570428
vt 0.284713 0.429572
vt 0.001001 0.429572
vt 0.786715 0.001001
vt 0.856142 0.141856
vt 0.856142 0.001001
vt 0.286715 0.643858
vt 0.427570 0.784713
vt 0.427570 0.643858
vt 0.570428 0.643858
vt 0.429572 0.784713
vt 0.570428 0.784713
vt 0.141856 0.715287
vt 0.001001 0.856142
vt 0.141856 0.856142
vt 0.143858 0.715287
vt 0.284713 0.856142
vt 0.284713 0.715287
vt 0.856142 0.286715
vt 0.715287 0.427570
vt 0.856142 0.427570
vt 0.427570 0.786715
vt 0.286715 0.856142
vt 0.427570 0.856142
vt 0.929572 0.143858
vt 0.998999 0.284713
vt 0.998999 0.143858
vt 0.713285 0.715287
vt 0.572430 0.784713
vt 0.713285 0.784713
vt 0.143858 0.001001
vt 0.284713 0.284713
vt 0.284713 0.001001
vt 0.570428 0.856142
vt 0.429572 0.786715
vt 0.429572 0.856142
vt 0.643858 0.143858
vt 0.784713 0.284713
vt 0.784713 0.143858
vt 0.713285 0.572430
vt 0.572430 0.713285
vt 0.713285 0.713285
vt 0.713285 0.286715
vt 0.572430 0.427570
vt 0.713285 0.427570
vt 0.284713 0.572430
vt 0.143858 0.713285
vt 0.284713 0.713285
vt 0.141856 0.572430
vt 0.001001 0.713285
vt 0.141856 0.713285
vt 0.858144 0.001001
vt 0.927570 0.141856
vt 0.927570 0.001001
vt 0.141856 0.858144
vt 0.001001 0.927570
vt 0.141856 0.927570
vt 0.143858 0.929572
vt 0.213285 0.998999
vt 0.213285 0.929572
vt 0.858144 0.286715
vt 0.927570 0.427570
vt 0.927570 0.286715
vt 0.858144 0.858144
vt 0.927570 0.927570
vt 0.927570 0.858144
vt 0.284713 0.858144
vt 0.143858 0.927570
vt 0.284713 0.927570
vt 0.572430 0.001001
vt 0.641856 0.284713
vt 0.641856 0.001001
vt 0.570428 0.858144
vt 0.429572 0.927570
vt 0.570428 0.927570
vt 0.858144 0.572430
vt 0.927570 0.713285
vt 0.927570 0.572430
vt 0.286715 0.929572
vt 0.356142 0.998999
vt 0.356142 0.929572
vt 0.284713 0.427570
vt 0.001001 0.286715
vt 0.001001 0.427570
vt 0.927570 0.715287
vt 0.858144 0.856142
vt 0.927570 0.856142
vt 0.429572 0.429572
vt 0.570428 0.570428
vt 0.570428 0.429572
vt 0.570428 0.286715
vt 0.429572 0.427570
vt 0.570428 0.427570
vt 0.427570 0.429572
vt 0.286715 0.570428
vt 0.427570 0.570428
vt 0.713285 0.858144
vt 0.572430 0.927570
vt 0.713285 0.927570
vt 0.570428 0.143858
vt 0.429572 0.284713
vt 0.570428 0.284713
vt 0.927570 0.143858
vt 0.858144 0.284713
vt 0.927570 0.284713
vt 0.713285 0.856142
vt 0.572430 0.786715
vt 0.572430 0.856142
vt 0.856142 0.143858
vt 0.786715 0.284713
vt 0.856142 0.284713
vt 0.570428 0.001001
vt 0.286715 0.141856
vt 0.570428 0.141856
vt 0.001001 0.001001
vt 0.856142 0.927570
vt 0.715287 0.570428
vt 0.643858 0.001001
vt 0.715287 0.572430
vt 0.286715 0.143858
vt 0.286715 0.286715
vt 0.858144 0.429572
vt 0.141856 0.929572
vt 0.929572 0.001001
vt 0.358144 0.998999
vt 0.427570 0.858144
vt 0.215287 0.998999
vt 0.786715 0.715287
vt 0.570428 0.572430
vt 0.715287 0.715287
vt 0.572430 0.570428
vt 0.929572 0.356142
vt 0.284713 0.570428
vt 0.786715 0.141856
vt 0.286715 0.784713
vt 0.429572 0.643858
vt 0.001001 0.715287
vt 0.143858 0.856142
vt 0.715287 0.286715
vt 0.286715 0.786715
vt 0.929572 0.284713
vt 0.572430 0.715287
vt 0.143858 0.284713
vt 0.570428 0.786715
vt 0.643858 0.284713
vt 0.572430 0.572430
vt 0.572430 0.286715
vt 0.143858 0.572430
vt 0.001001 0.572430
vt 0.858144 0.141856
vt 0.001001 0.858144
vt 0.143858 0.998999
vt 0.858144 0.427570
vt 0.858144 0.927570
vt 0.143858 0.858144
vt 0.572430 0.284713
vt 0.429572 0.858144
vt 0.858144 0.713285
vt 0.286715 0.998999
vt 0.284713 0.286715
vt 0.858144 0.715287
vt 0.429572 0.570428
vt 0.429572 0.286715
vt 0.286715 0.429572
vt 0.572430 0.858144
vt 0.429572 0.143858
vt 0.858144 0.143858
vt 0.713285 0.786715
vt 0.786715 0.143858
vt 0.286715 0.001001
vn 0.0000 1.0000 0.0000
vn -0.1941 -0.9335 0.3016
vn -0.1934 -0.9300 -0.3125
vn 0.5327 -0.7051 -0.4680
vn 0.7734 -0.4194 -0.4753
vn 0.2603 -0.3590 -0.8963
vn 0.0000 -0.0997 -0.9950
vn 0.0000 -1.0000 0.0000
vn 1.0000 0.0000 0.0000
vn 0.0000 0.0000 1.0000
vn 0.0000 0.0000 -1.0000
vn -0.1934 0.9300 -0.3125
vn 0.0991 0.9951 0.0000
vn 0.5351 0.8448 0.0000
vn 0.3947 0.0000 -0.9188
vn 0.0779 0.0000 -0.9970
vn 0.0991 -0.9951 0.0000
vn 0.5351 -0.8448 0.0000
vn -0.1941 0.9335 0.3016
vn 0.5327 0.7051 -0.4680
vn 0.7734 0.4194 -0.4753
vn 0.2603 0.3590 -0.8963
vn 0.0000 0.0997 -0.9950
s off
f 15/1/1 4/2/1 1/3/1
f 2/4/2 6/5/2 5/6/2
f 6/7/3 7/8/3 5/9/3
f 7/10/4 10/11/4 9/12/4
f 9/13/5 12/14/5 11/15/5
f 11/16/6 14/17/6 13/18/6
f 13/19/7 16/20/7 15/21/7
f 2/22/8 17/23/8 3/24/8
f 65/25/9 16/26/9 27/27/9
f 6/28/9 21/29/9 8/30/9
f 17/31/9 19/32/9 3/33/9
f 8/34/9 22/35/9 10/36/9
f 3/37/9 20/38/9 6/39/9
f 10/40/9 23/41/9 12/42/9
f 12/43/9 26/44/9 14/45/9
f 14/46/9 27/47/9 16/48/9
f 75/49/10 27/50/10 37/51/10
f 23/52/9 25/53/9 12/54/9
f 26/55/10 35/56/10 36/57/10
f 23/58/1 38/59/1 28/60/1
f 26/61/10 37/62/10 27/63/10
f 21/64/1 32/65/1 31/66/1
f 22/67/1 31/68/1 30/69/1
f 42/70/11 1/71/11 4/72/11
f 23/73/1 30/74/1 29/75/1
f 19/76/1 32/77/1 20/78/1
f 28/79/10 35/80/10 25/81/10
f 24/82/1 33/83/1 19/84/1
f 42/85/8 53/86/8 39/87/8
f 40/88/1 44/89/1 41/90/1
f 45/91/12 44/92/12 43/93/12
f 45/94/13 48/95/13 46/96/13
f 47/97/14 50/98/14 48/99/14
f 49/100/15 52/101/15 50/102/15
f 51/103/16 54/104/16 52/105/16
f 55/106/1 40/107/1 41/108/1
f 59/109/9 44/110/9 46/111/9
f 57/112/9 55/113/9 41/114/9
f 60/115/9 46/116/9 48/117/9
f 58/118/9 41/119/9 44/120/9
f 61/121/9 48/122/9 50/123/9
f 64/124/9 50/125/9 52/126/9
f 65/127/9 52/128/9 54/129/9
f 56/130/11 62/131/11 72/132/11
f 63/133/9 61/134/9 50/135/9
f 64/136/10 73/137/10 63/138/10
f 76/139/8 61/140/8 66/141/8
f 75/142/10 64/143/10 65/144/10
f 59/145/8 70/146/8 58/147/8
f 60/148/8 69/149/8 59/150/8
f 34/151/11 17/152/11 18/153/11
f 61/154/8 68/155/8 60/156/8
f 70/157/8 57/158/8 58/159/8
f 73/160/10 66/161/10 63/162/10
f 71/163/8 62/164/8 57/165/8
f 54/166/9 4/167/9 16/168/9
f 15/1/1 16/169/1 4/2/1
f 2/4/8 3/170/8 6/5/8
f 6/7/17 8/171/17 7/8/17
f 7/10/17 8/172/17 10/11/17
f 9/13/18 10/173/18 12/14/18
f 11/16/15 12/174/15 14/17/15
f 13/19/16 14/175/16 16/20/16
f 2/22/8 18/176/8 17/23/8
f 65/25/9 54/177/9 16/26/9
f 6/28/9 20/178/9 21/29/9
f 17/31/9 24/179/9 19/32/9
f 8/34/9 21/180/9 22/35/9
f 3/37/9 19/181/9 20/38/9
f 10/40/9 22/182/9 23/41/9
f 12/43/9 25/183/9 26/44/9
f 14/46/9 26/184/9 27/47/9
f 75/49/10 65/185/10 27/50/10
f 23/52/9 28/186/9 25/53/9
f 26/55/10 25/187/10 35/56/10
f 23/58/1 29/188/1 38/59/1
f 26/61/10 36/189/10 37/62/10
f 21/64/1 20/190/1 32/65/1
f 22/67/1 21/191/1 31/68/1
f 42/70/11 39/192/11 1/71/11
f 23/73/1 22/193/1 30/74/1
f 19/76/1 33/194/1 32/77/1
f 28/79/10 38/195/10 35/80/10
f 24/82/1 34/196/1 33/83/1
f 42/85/8 54/197/8 53/86/8
f 40/88/19 43/198/19 44/89/19
f 45/91/13 46/199/13 44/92/13
f 45/94/20 47/200/20 48/95/20
f 47/97/21 49/201/21 50/98/21
f 49/100/22 51/202/22 52/101/22
f 51/103/23 53/203/23 54/104/23
f 55/106/1 56/204/1 40/107/1
f 59/109/9 58/205/9 44/110/9
f 57/112/9 62/206/9 55/113/9
f 60/115/9 59/207/9 46/116/9
f 58/118/9 57/208/9 41/119/9
f 61/121/9 60/209/9 48/122/9
f 64/124/9 63/210/9 50/125/9
f 65/127/9 64/211/9 52/128/9
f 56/130/11 55/212/11 62/131/11
f 63/133/9 66/213/9 61/134/9
f 64/136/10 74/214/10 73/137/10
f 76/139/8 67/215/8 61/140/8
f 75/142/10 74/216/10 64/143/10
f 59/145/8 69/217/8 70/146/8
f 60/148/8 68/218/8 69/149/8
f 34/151/11 24/219/11 17/152/11
f 61/154/8 67/220/8 68/155/8
f 70/157/8 71/221/8 57/158/8
f 73/160/10 76/222/10 66/161/10
f 71/163/8 72/223/8 62/164/8
f 54/166/9 42/224/9 4/167/9
