# Blender v2.80 (sub 75) OBJ File: 'tunne_end.blend'
# www.blender.org
o Plane
v 0.000000 -0.000000 -3.912400
v 0.000000 -0.000000 -0.609600
v 0.000000 0.100000 -3.912400
v 0.000000 0.100000 -5.131600
v 4.956744 0.100000 -1.328156
v 3.779088 0.100000 -1.012604
v 0.588828 -0.000000 -0.157776
v 3.779088 -0.000000 -1.012604
v 3.388238 -0.000000 -1.956200
v 0.527929 -0.000000 -0.304800
v 3.388238 0.100000 -1.956200
v 4.444096 0.100000 -2.565800
v 4.714260 1.065585 -2.721779
v 4.314781 2.438173 -2.491140
v 3.621257 3.644603 -2.090734
v 2.680950 4.602659 -1.547848
v -0.000000 1.065585 -5.443559
v 1.541028 5.129876 -0.889714
v 0.527928 5.247052 -0.304801
v -0.000000 2.438173 -4.982280
v -0.000000 3.644603 -4.181468
v 0.431052 5.247052 -0.431053
v 1.258244 5.129876 -1.258245
v 2.188987 4.602659 -2.188987
v -0.000001 4.602659 -3.095695
v 2.956744 3.644603 -2.956744
v 3.523004 2.438173 -3.523004
v 3.849177 1.065585 -3.849177
v -0.000001 5.129876 -1.779427
v 3.628589 0.100000 -3.628589
v 2.766485 0.100000 -2.766485
v 0.431052 -0.000000 -0.431052
v -0.000001 5.247052 -0.609600
v 2.766485 -0.000000 -2.766485
v 1.956200 -0.000000 -3.388238
v 0.304800 -0.000000 -0.527929
v 1.956200 0.100000 -3.388238
v 2.565800 0.100000 -4.444096
v 2.721779 1.065585 -4.714260
v 2.491140 2.438173 -4.314781
v 2.090733 3.644603 -3.621257
v 1.547847 4.602659 -2.680951
v 0.889713 5.129876 -1.541029
v 0.304799 5.247052 -0.527929
v 0.157775 5.247052 -0.588828
v 0.460549 5.129876 -1.718794
v 0.801224 4.602659 -2.990212
v 1.082243 3.644603 -4.038988
v 1.289509 2.438173 -4.812513
v 1.408897 1.065585 -5.258074
v 1.328156 0.100000 -4.956745
v 1.012604 0.100000 -3.779088
v 0.157776 -0.000000 -0.588828
v 1.012604 -0.000000 -3.779088
v 0.588828 5.247052 -0.157777
v 1.718794 5.129876 -0.460550
v 2.990211 4.602659 -0.801225
v 4.038987 3.644603 -1.082244
v 4.812512 2.438173 -1.289509
v 5.258074 1.065585 -1.408897
v 0.000000 -0.000000 3.912400
v 0.000000 -0.000000 0.609600
v 0.000000 0.100000 3.912400
v 0.000000 0.100000 5.131600
v 4.956744 0.100000 1.328156
v 3.779088 0.100000 1.012604
v 0.588828 -0.000000 0.157776
v 3.779088 -0.000000 1.012604
v 3.388238 -0.000000 1.956200
v 0.527929 -0.000000 0.304800
v 3.388238 0.100000 1.956200
v 4.444096 0.100000 2.565800
v 4.714260 1.065585 2.721779
v 4.314781 2.438173 2.491140
v 3.621257 3.644603 2.090734
v 2.680950 4.602659 1.547848
v -0.000000 1.065585 5.443559
v 1.541028 5.129876 0.889714
v 0.527928 5.247052 0.304801
v -0.000000 2.438173 4.982280
v -0.000000 3.644603 4.181468
v 0.431052 5.247052 0.431053
v 1.258244 5.129876 1.258245
v 2.188987 4.602659 2.188987
v -0.000001 4.602659 3.095695
v 2.956744 3.644603 2.956744
v 3.523004 2.438173 3.523004
v 3.849177 1.065585 3.849177
v -0.000001 5.129876 1.779427
v 3.628589 0.100000 3.628589
v 2.766485 0.100000 2.766485
v 0.431052 -0.000000 0.431052
v -0.000001 5.247052 0.609600
v 2.766485 -0.000000 2.766485
v 1.956200 -0.000000 3.388238
v 0.304800 -0.000000 0.527929
v 1.956200 0.100000 3.388238
v 2.565800 0.100000 4.444096
v 2.721779 1.065585 4.714260
v 2.491140 2.438173 4.314781
v 2.090733 3.644603 3.621257
v 1.547847 4.602659 2.680951
v 0.889713 5.129876 1.541029
v 0.304799 5.247052 0.527929
v 0.157775 5.247052 0.588828
v 0.460549 5.129876 1.718794
v 0.801224 4.602659 2.990212
v 1.082243 3.644603 4.038988
v 1.289509 2.438173 4.812513
v 1.408897 1.065585 5.258074
v 1.328156 0.100000 4.956745
v 1.012604 0.100000 3.779088
v 0.157776 -0.000000 0.588828
v 1.012604 -0.000000 3.779088
v 5.443559 1.065585 0.000000
v 4.982279 2.438173 0.000000
v 4.181467 3.644603 0.000000
v 3.095694 4.602659 0.000000
v 1.779426 5.129876 0.000000
v 0.609600 5.247052 0.000000
v 3.912400 -0.000000 0.000000
v 0.609600 -0.000000 0.000000
v 3.912400 0.100000 0.000000
v 5.131599 0.100000 0.000000
v 0.588828 5.247052 0.157777
v 1.718794 5.129876 0.460550
v 2.990211 4.602659 0.801225
v 4.038987 3.644603 1.082244
v 4.812512 2.438173 1.289509
v 5.258074 1.065585 1.408897
vt 0.786878 0.706883
vt 0.728274 0.822528
vt 0.786878 0.822528
vt 0.607062 0.881352
vt 0.726272 0.824530
vt 0.607062 0.824530
vt 0.847484 0.001001
vt 0.788880 0.116646
vt 0.847484 0.116646
vt 0.786878 0.234293
vt 0.728274 0.118648
vt 0.728274 0.234293
vt 0.847484 0.118648
vt 0.788880 0.234293
vt 0.847484 0.234293
vt 0.847484 0.351940
vt 0.788880 0.236295
vt 0.788880 0.351940
vt 0.483847 0.824530
vt 0.364637 0.881352
vt 0.483847 0.881352
vt 0.968696 0.236295
vt 0.910092 0.351940
vt 0.968696 0.351940
vt 0.120211 0.883354
vt 0.001001 0.940175
vt 0.120211 0.940175
vt 0.726272 0.822528
vt 0.607062 0.765707
vt 0.607062 0.822528
vt 0.605060 0.824530
vt 0.485849 0.881352
vt 0.605060 0.881352
vt 0.788880 0.353942
vt 0.847484 0.469587
vt 0.847484 0.353942
vt 0.728274 0.706883
vt 0.726272 0.881352
vt 0.788880 0.001001
vt 0.786878 0.118648
vt 0.788880 0.118648
vt 0.847484 0.236295
vt 0.364637 0.824530
vt 0.910092 0.236295
vt 0.001001 0.883354
vt 0.726272 0.765707
vt 0.485849 0.824530
vt 0.788880 0.469587
vt 0.120211 0.001001
vt 0.001001 0.116646
vt 0.120211 0.116646
vt 0.243425 0.236295
vt 0.362635 0.351940
vt 0.362635 0.236295
vt 0.665666 0.942177
vt 0.607062 0.969587
vt 0.665666 0.969587
vt 0.605060 0.118648
vt 0.485849 0.234293
vt 0.605060 0.234293
vt 0.786878 0.942177
vt 0.728274 0.969587
vt 0.786878 0.969587
vt 0.001001 0.589236
vt 0.120211 0.704881
vt 0.120211 0.589236
vt 0.968696 0.942177
vt 0.910092 0.969587
vt 0.968696 0.969587
vt 0.607062 0.471589
vt 0.726272 0.587234
vt 0.726272 0.471589
vt 0.970698 0.589236
vt 0.998999 0.646058
vt 0.998999 0.589236
vt 0.362635 0.589236
vt 0.243425 0.704881
vt 0.362635 0.704881
vt 0.970698 0.530413
vt 0.998999 0.587234
vt 0.998999 0.530413
vt 0.847484 0.942177
vt 0.788880 0.969587
vt 0.847484 0.969587
vt 0.607062 0.118648
vt 0.726272 0.234293
vt 0.726272 0.118648
vt 0.485849 0.353942
vt 0.605060 0.469587
vt 0.605060 0.353942
vt 0.998999 0.471589
vt 0.970698 0.528411
vt 0.998999 0.528411
vt 0.120211 0.471589
vt 0.001001 0.587234
vt 0.120211 0.587234
vt 0.998999 0.412766
vt 0.970698 0.469587
vt 0.998999 0.469587
vt 0.364637 0.236295
vt 0.483847 0.351940
vt 0.483847 0.236295
vt 0.998999 0.353942
vt 0.970698 0.410764
vt 0.998999 0.410764
vt 0.364637 0.001001
vt 0.483847 0.116646
vt 0.483847 0.001001
vt 0.059605 0.998999
vt 0.001001 0.971589
vt 0.001001 0.998999
vt 0.120211 0.236295
vt 0.001001 0.351940
vt 0.120211 0.351940
vt 0.726272 0.969587
vt 0.667668 0.942177
vt 0.667668 0.969587
vt 0.908090 0.969587
vt 0.849486 0.942177
vt 0.849486 0.969587
vt 0.001001 0.001001
vt 0.243425 0.351940
vt 0.607062 0.942177
vt 0.485849 0.118648
vt 0.728274 0.942177
vt 0.001001 0.704881
vt 0.910092 0.942177
vt 0.607062 0.587234
vt 0.970698 0.646058
vt 0.243425 0.589236
vt 0.970698 0.587234
vt 0.788880 0.942177
vt 0.607062 0.234293
vt 0.485849 0.469587
vt 0.970698 0.471589
vt 0.001001 0.471589
vt 0.970698 0.412766
vt 0.364637 0.351940
vt 0.970698 0.353942
vt 0.364637 0.116646
vt 0.059605 0.971589
vt 0.001001 0.236295
vt 0.726272 0.942177
vt 0.908090 0.942177
vt 0.001001 0.118648
vt 0.120211 0.234293
vt 0.120211 0.118648
vt 0.849486 0.589236
vt 0.908090 0.704881
vt 0.908090 0.589236
vt 0.122213 0.118648
vt 0.241423 0.234293
vt 0.241423 0.118648
vt 0.362635 0.942177
vt 0.243425 0.969587
vt 0.362635 0.969587
vt 0.998999 0.118648
vt 0.970698 0.234293
vt 0.998999 0.234293
vt 0.243425 0.118648
vt 0.362635 0.234293
vt 0.362635 0.118648
vt 0.726272 0.763705
vt 0.607062 0.706883
vt 0.607062 0.763705
vt 0.001001 0.353942
vt 0.120211 0.469587
vt 0.120211 0.353942
vt 0.241423 0.881352
vt 0.122213 0.824530
vt 0.122213 0.881352
vt 0.877787 0.824530
vt 0.849486 0.940175
vt 0.877787 0.940175
vt 0.938393 0.589236
vt 0.910092 0.704881
vt 0.938393 0.704881
vt 0.364637 0.353942
vt 0.483847 0.469587
vt 0.483847 0.353942
vt 0.847484 0.881352
vt 0.728274 0.824530
vt 0.728274 0.881352
vt 0.485849 0.001001
vt 0.605060 0.116646
vt 0.605060 0.001001
vt 0.968696 0.118648
vt 0.910092 0.234293
vt 0.968696 0.234293
vt 0.908090 0.353942
vt 0.849486 0.469587
vt 0.908090 0.469587
vt 0.940395 0.706883
vt 0.968696 0.822528
vt 0.968696 0.706883
vt 0.120211 0.881352
vt 0.001001 0.824530
vt 0.001001 0.881352
vt 0.847484 0.706883
vt 0.788880 0.822528
vt 0.847484 0.822528
vt 0.726272 0.940175
vt 0.607062 0.912766
vt 0.607062 0.940175
vt 0.120211 0.969587
vt 0.001001 0.942177
vt 0.001001 0.969587
vt 0.607062 0.236295
vt 0.726272 0.351940
vt 0.726272 0.236295
vt 0.728274 0.471589
vt 0.786878 0.587234
vt 0.786878 0.471589
vt 0.485849 0.589236
vt 0.605060 0.704881
vt 0.605060 0.589236
vt 0.998999 0.236295
vt 0.970698 0.351940
vt 0.998999 0.351940
vt 0.605060 0.910764
vt 0.485849 0.883354
vt 0.485849 0.910764
vt 0.726272 0.589236
vt 0.607062 0.704881
vt 0.726272 0.704881
vt 0.241423 0.763705
vt 0.122213 0.706883
vt 0.122213 0.763705
vt 0.786878 0.236295
vt 0.728274 0.351940
vt 0.786878 0.351940
vt 0.607062 0.353942
vt 0.726272 0.469587
vt 0.726272 0.353942
vt 0.362635 0.706883
vt 0.243425 0.763705
vt 0.362635 0.763705
vt 0.364637 0.589236
vt 0.483847 0.704881
vt 0.483847 0.589236
vt 0.605060 0.763705
vt 0.485849 0.706883
vt 0.485849 0.763705
vt 0.122213 0.589236
vt 0.241423 0.704881
vt 0.241423 0.589236
vt 0.998999 0.001001
vt 0.970698 0.116646
vt 0.998999 0.116646
vt 0.120211 0.765707
vt 0.001001 0.822528
vt 0.120211 0.822528
vt 0.122213 0.822528
vt 0.241423 0.765707
vt 0.122213 0.765707
vt 0.483847 0.822528
vt 0.364637 0.765707
vt 0.364637 0.822528
vt 0.938393 0.824530
vt 0.910092 0.940175
vt 0.938393 0.940175
vt 0.605060 0.765707
vt 0.485849 0.822528
vt 0.605060 0.822528
vt 0.847484 0.589236
vt 0.788880 0.704881
vt 0.847484 0.704881
vt 0.847484 0.940175
vt 0.728274 0.912766
vt 0.728274 0.940175
vt 0.607062 0.001001
vt 0.726272 0.116646
vt 0.726272 0.001001
vt 0.908090 0.001001
vt 0.849486 0.116646
vt 0.908090 0.116646
vt 0.485849 0.471589
vt 0.605060 0.587234
vt 0.605060 0.471589
vt 0.605060 0.912766
vt 0.485849 0.940175
vt 0.605060 0.940175
vt 0.364637 0.471589
vt 0.483847 0.587234
vt 0.483847 0.471589
vt 0.849486 0.236295
vt 0.908090 0.351940
vt 0.908090 0.236295
vt 0.485849 0.236295
vt 0.605060 0.351940
vt 0.605060 0.236295
vt 0.849486 0.471589
vt 0.908090 0.587234
vt 0.908090 0.471589
vt 0.483847 0.969587
vt 0.364637 0.942177
vt 0.364637 0.969587
vt 0.726272 0.883354
vt 0.607062 0.910764
vt 0.726272 0.910764
vt 0.243425 0.471589
vt 0.362635 0.587234
vt 0.362635 0.471589
vt 0.968696 0.001001
vt 0.910092 0.116646
vt 0.968696 0.116646
vt 0.122213 0.471589
vt 0.241423 0.587234
vt 0.241423 0.471589
vt 0.120211 0.763705
vt 0.001001 0.706883
vt 0.001001 0.763705
vt 0.241423 0.883354
vt 0.122213 0.940175
vt 0.241423 0.940175
vt 0.483847 0.910764
vt 0.364637 0.883354
vt 0.364637 0.910764
vt 0.910092 0.471589
vt 0.968696 0.587234
vt 0.968696 0.471589
vt 0.362635 0.940175
vt 0.243425 0.883354
vt 0.243425 0.940175
vt 0.910092 0.706883
vt 0.938393 0.822528
vt 0.938393 0.706883
vt 0.940395 0.589236
vt 0.968696 0.704881
vt 0.968696 0.589236
vt 0.243425 0.353942
vt 0.362635 0.469587
vt 0.362635 0.353942
vt 0.362635 0.881352
vt 0.243425 0.824530
vt 0.243425 0.881352
vt 0.364637 0.118648
vt 0.483847 0.234293
vt 0.483847 0.118648
vt 0.483847 0.912766
vt 0.364637 0.940175
vt 0.483847 0.940175
vt 0.879789 0.824530
vt 0.908090 0.940175
vt 0.908090 0.824530
vt 0.241423 0.353942
vt 0.122213 0.469587
vt 0.241423 0.469587
vt 0.788880 0.471589
vt 0.847484 0.587234
vt 0.847484 0.471589
vt 0.362635 0.765707
vt 0.243425 0.822528
vt 0.362635 0.822528
vt 0.122213 0.236295
vt 0.241423 0.351940
vt 0.241423 0.236295
vt 0.786878 0.589236
vt 0.728274 0.704881
vt 0.786878 0.704881
vt 0.362635 0.001001
vt 0.243425 0.116646
vt 0.362635 0.116646
vt 0.728274 0.001001
vt 0.786878 0.116646
vt 0.786878 0.001001
vt 0.122213 0.001001
vt 0.241423 0.116646
vt 0.241423 0.001001
vt 0.241423 0.942177
vt 0.122213 0.969587
vt 0.241423 0.969587
vt 0.908090 0.118648
vt 0.849486 0.234293
vt 0.908090 0.234293
vt 0.968696 0.353942
vt 0.910092 0.469587
vt 0.968696 0.469587
vt 0.849486 0.706883
vt 0.908090 0.822528
vt 0.908090 0.706883
vt 0.847484 0.910764
vt 0.728274 0.883354
vt 0.728274 0.910764
vt 0.968696 0.824530
vt 0.940395 0.940175
vt 0.968696 0.940175
vt 0.483847 0.763705
vt 0.364637 0.706883
vt 0.364637 0.763705
vt 0.728274 0.353942
vt 0.786878 0.469587
vt 0.786878 0.353942
vt 0.605060 0.942177
vt 0.485849 0.969587
vt 0.605060 0.969587
vt 0.001001 0.234293
vt 0.849486 0.704881
vt 0.122213 0.234293
vt 0.243425 0.942177
vt 0.970698 0.118648
vt 0.243425 0.234293
vt 0.726272 0.706883
vt 0.001001 0.469587
vt 0.241423 0.824530
vt 0.849486 0.824530
vt 0.910092 0.589236
vt 0.364637 0.469587
vt 0.847484 0.824530
vt 0.485849 0.116646
vt 0.910092 0.118648
vt 0.849486 0.353942
vt 0.940395 0.822528
vt 0.120211 0.824530
vt 0.788880 0.706883
vt 0.726272 0.912766
vt 0.120211 0.942177
vt 0.607062 0.351940
vt 0.728274 0.587234
vt 0.485849 0.704881
vt 0.970698 0.236295
vt 0.605060 0.883354
vt 0.607062 0.589236
vt 0.241423 0.706883
vt 0.728274 0.236295
vt 0.607062 0.469587
vt 0.243425 0.706883
vt 0.364637 0.704881
vt 0.605060 0.706883
vt 0.122213 0.704881
vt 0.970698 0.001001
vt 0.001001 0.765707
vt 0.241423 0.822528
vt 0.483847 0.765707
vt 0.910092 0.824530
vt 0.485849 0.765707
vt 0.788880 0.589236
vt 0.847484 0.912766
vt 0.607062 0.116646
vt 0.849486 0.001001
vt 0.485849 0.587234
vt 0.485849 0.912766
vt 0.364637 0.587234
vt 0.849486 0.351940
vt 0.485849 0.351940
vt 0.849486 0.587234
vt 0.483847 0.942177
vt 0.607062 0.883354
vt 0.243425 0.587234
vt 0.910092 0.001001
vt 0.122213 0.587234
vt 0.120211 0.706883
vt 0.122213 0.883354
vt 0.483847 0.883354
vt 0.910092 0.587234
vt 0.362635 0.883354
vt 0.910092 0.822528
vt 0.940395 0.704881
vt 0.243425 0.469587
vt 0.362635 0.824530
vt 0.364637 0.234293
vt 0.364637 0.912766
vt 0.879789 0.940175
vt 0.122213 0.353942
vt 0.788880 0.587234
vt 0.243425 0.765707
vt 0.122213 0.351940
vt 0.728274 0.589236
vt 0.243425 0.001001
vt 0.728274 0.116646
vt 0.122213 0.116646
vt 0.122213 0.942177
vt 0.849486 0.118648
vt 0.910092 0.353942
vt 0.849486 0.822528
vt 0.847484 0.883354
vt 0.940395 0.824530
vt 0.483847 0.706883
vt 0.728274 0.469587
vt 0.485849 0.942177
vn 0.0000 -1.0000 0.0000
vn 0.6088 0.0000 -0.7934
vn 0.3827 0.0000 -0.9239
vn 0.1305 0.0000 -0.9914
vn 0.7934 0.0000 -0.6088
vn 0.9914 0.0000 -0.1305
vn 0.9239 0.0000 -0.3827
vn 0.6088 0.0000 0.7934
vn 0.3827 0.0000 0.9239
vn 0.1305 0.0000 0.9914
vn 0.7934 0.0000 0.6088
vn 0.9914 0.0000 0.1305
vn 0.9239 0.0000 0.3827
vn -0.8765 -0.3161 0.3631
vn -0.7555 0.3050 0.5797
vn -0.7717 -0.5497 0.3197
vn -0.0797 -0.9949 0.0612
vn -0.7527 -0.3161 0.5775
vn -0.5274 -0.7470 0.4047
vn -0.6627 -0.5497 0.5085
vn -0.2972 -0.9272 0.2280
vn -0.0612 -0.9949 0.0797
vn -0.5775 -0.3161 0.7527
vn -0.4047 -0.7470 0.5274
vn -0.5085 -0.5497 0.6627
vn -0.5797 0.3050 0.7555
vn -0.2280 -0.9272 0.2972
vn -0.2544 -0.7470 0.6142
vn -0.1433 -0.9272 0.3461
vn -0.0131 -0.9949 0.0997
vn -0.3631 -0.3161 0.8765
vn -0.3644 0.3050 0.8798
vn -0.1090 -0.5497 0.8282
vn -0.0385 -0.9949 0.0929
vn -0.3197 -0.5497 0.7717
vn -0.0868 -0.7470 0.6591
vn -0.0489 -0.9272 0.3714
vn -0.1238 -0.3161 0.9406
vn -0.1243 0.3050 0.9442
vn -0.8282 -0.5497 0.1090
vn -0.6591 -0.7470 0.0868
vn -0.9406 -0.3161 0.1238
vn -0.0997 -0.9949 0.0131
vn -0.9442 0.3050 0.1243
vn -0.6142 -0.7470 0.2544
vn -0.3714 -0.9272 0.0489
vn -0.8798 0.3050 0.3644
vn -0.3461 -0.9272 0.1433
vn -0.0929 -0.9949 0.0385
vn -0.8765 -0.3161 -0.3631
vn -0.7555 0.3050 -0.5797
vn -0.7717 -0.5497 -0.3197
vn -0.0797 -0.9949 -0.0612
vn -0.7527 -0.3161 -0.5775
vn -0.5274 -0.7470 -0.4047
vn -0.6627 -0.5497 -0.5085
vn -0.2972 -0.9272 -0.2280
vn -0.0612 -0.9949 -0.0797
vn -0.5775 -0.3161 -0.7527
vn -0.4047 -0.7470 -0.5274
vn -0.5085 -0.5497 -0.6627
vn -0.5797 0.3050 -0.7555
vn -0.2280 -0.9272 -0.2972
vn -0.2544 -0.7470 -0.6142
vn -0.1433 -0.9272 -0.3461
vn -0.0131 -0.9949 -0.0997
vn -0.3631 -0.3161 -0.8765
vn -0.3644 0.3050 -0.8798
vn -0.1090 -0.5497 -0.8282
vn -0.0385 -0.9949 -0.0929
vn -0.3197 -0.5497 -0.7717
vn -0.0868 -0.7470 -0.6591
vn -0.0489 -0.9272 -0.3714
vn -0.1238 -0.3161 -0.9406
vn -0.1243 0.3050 -0.9442
vn -0.8282 -0.5497 -0.1090
vn -0.6591 -0.7470 -0.0868
vn -0.9406 -0.3161 -0.1238
vn -0.0997 -0.9949 -0.0131
vn -0.9442 0.3050 -0.1243
vn -0.6142 -0.7470 -0.2544
vn -0.3714 -0.9272 -0.0489
vn -0.8798 0.3050 -0.3644
vn -0.3461 -0.9272 -0.1433
vn -0.0929 -0.9949 -0.0385
s off
f 34/1/1 10/2/1 32/3/1
f 36/4/1 34/5/1 32/6/1
f 54/7/1 36/8/1 53/9/1
f 2/10/1 54/11/1 53/12/1
f 8/13/1 122/14/1 7/15/1
f 10/16/1 8/17/1 7/18/1
f 70/19/1 94/20/1 92/21/1
f 96/22/1 94/23/1 95/24/1
f 96/25/1 114/26/1 113/27/1
f 62/28/1 114/29/1 61/30/1
f 122/31/1 68/32/1 67/33/1
f 67/34/1 69/35/1 70/36/1
f 34/1/1 9/37/1 10/2/1
f 36/4/1 35/38/1 34/5/1
f 54/7/1 35/39/1 36/8/1
f 2/10/1 1/40/1 54/11/1
f 8/13/1 121/41/1 122/14/1
f 10/16/1 9/42/1 8/17/1
f 70/19/1 69/43/1 94/20/1
f 96/22/1 92/44/1 94/23/1
f 96/25/1 95/45/1 114/26/1
f 62/28/1 113/46/1 114/29/1
f 122/31/1 121/47/1 68/32/1
f 67/34/1 68/48/1 69/35/1
f 11/49/1 5/50/1 6/51/1
f 30/52/1 11/53/1 31/54/1
f 37/55/2 34/56/2 35/57/2
f 37/58/1 30/59/1 31/60/1
f 52/61/3 35/62/3 54/63/3
f 51/64/1 37/65/1 52/66/1
f 3/67/4 54/68/4 1/69/4
f 4/70/1 52/71/1 3/72/1
f 31/73/5 9/74/5 34/75/5
f 6/76/1 124/77/1 123/78/1
f 6/79/6 121/80/6 8/81/6
f 11/82/7 8/83/7 9/84/7
f 66/85/1 72/86/1 71/87/1
f 71/88/1 90/89/1 91/90/1
f 94/91/8 97/92/8 95/93/8
f 97/94/1 90/95/1 98/96/1
f 95/97/9 112/98/9 114/99/9
f 97/100/1 111/101/1 112/102/1
f 114/103/10 63/104/10 61/105/10
f 112/106/1 64/107/1 63/108/1
f 69/109/11 91/110/11 94/111/11
f 66/112/1 124/113/1 65/114/1
f 121/115/12 66/116/12 68/117/12
f 68/118/13 71/119/13 69/120/13
f 11/49/1 12/121/1 5/50/1
f 30/52/1 12/122/1 11/53/1
f 37/55/2 31/123/2 34/56/2
f 37/58/1 38/124/1 30/59/1
f 52/61/3 37/125/3 35/62/3
f 51/64/1 38/126/1 37/65/1
f 3/67/4 52/127/4 54/68/4
f 4/70/1 51/128/1 52/71/1
f 31/73/5 11/129/5 9/74/5
f 6/76/1 5/130/1 124/77/1
f 6/79/6 123/131/6 121/80/6
f 11/82/7 6/132/7 8/83/7
f 66/85/1 65/133/1 72/86/1
f 71/88/1 72/134/1 90/89/1
f 94/91/8 91/135/8 97/92/8
f 97/94/1 91/136/1 90/95/1
f 95/97/9 97/137/9 112/98/9
f 97/100/1 98/138/1 111/101/1
f 114/103/10 112/139/10 63/104/10
f 112/106/1 111/140/1 64/107/1
f 69/109/11 71/141/11 91/110/11
f 66/112/1 123/142/1 124/113/1
f 121/115/12 123/143/12 66/116/12
f 68/118/13 66/144/13 71/119/13
f 13/145/14 59/146/14 14/147/14
f 30/148/15 13/149/15 28/150/15
f 14/151/16 58/152/16 15/153/16
f 70/154/11 82/155/11 92/156/11
f 23/157/17 19/158/17 22/159/17
f 28/160/18 14/161/18 27/162/18
f 26/163/19 16/164/19 24/165/19
f 27/166/20 15/167/20 26/168/20
f 24/169/21 18/170/21 23/171/21
f 32/172/2 44/173/2 22/174/2
f 43/175/22 22/176/22 44/177/22
f 39/178/23 27/179/23 40/180/23
f 41/181/24 24/182/24 42/183/24
f 40/184/25 26/185/25 41/186/25
f 39/187/26 30/188/26 28/189/26
f 42/190/27 23/191/27 43/192/27
f 2/193/4 45/194/4 53/195/4
f 48/196/28 42/197/28 47/198/28
f 47/199/29 43/200/29 46/201/29
f 55/202/6 122/203/6 7/204/6
f 29/205/30 45/206/30 33/207/30
f 50/208/31 40/209/31 49/210/31
f 51/211/32 39/212/32 50/213/32
f 20/214/33 48/215/33 21/216/33
f 46/217/34 44/218/34 45/219/34
f 45/220/3 36/221/3 53/222/3
f 48/223/35 40/224/35 41/225/35
f 21/226/36 47/227/36 25/228/36
f 25/229/37 46/230/37 29/231/37
f 17/232/38 49/233/38 20/234/38
f 4/235/39 50/236/39 17/237/39
f 59/238/40 117/239/40 58/240/40
f 58/241/41 118/242/41 57/243/41
f 60/244/42 116/245/42 59/246/42
f 56/247/43 120/248/43 55/249/43
f 5/250/44 115/251/44 60/252/44
f 16/253/45 58/254/45 57/255/45
f 57/256/46 119/257/46 56/258/46
f 19/259/7 7/260/7 10/261/7
f 12/262/47 60/263/47 13/264/47
f 16/265/48 56/266/48 18/267/48
f 18/268/49 55/269/49 19/270/49
f 129/271/50 73/272/50 74/273/50
f 73/274/51 90/275/51 88/276/51
f 128/277/52 74/278/52 75/279/52
f 79/280/53 83/281/53 82/282/53
f 74/283/54 88/284/54 87/285/54
f 76/286/55 86/287/55 84/288/55
f 75/289/56 87/290/56 86/291/56
f 78/292/57 84/293/57 83/294/57
f 96/295/8 82/296/8 104/297/8
f 82/298/58 103/299/58 104/300/58
f 87/301/59 99/302/59 100/303/59
f 102/304/60 86/305/60 101/306/60
f 86/307/61 100/308/61 101/309/61
f 88/310/62 98/311/62 99/312/62
f 83/313/63 102/314/63 103/315/63
f 105/316/10 62/317/10 113/318/10
f 102/319/64 108/320/64 107/321/64
f 106/322/65 102/323/65 107/324/65
f 122/325/12 125/326/12 67/327/12
f 105/328/66 89/329/66 93/330/66
f 100/331/67 110/332/67 109/333/67
f 99/334/68 111/335/68 110/336/68
f 108/337/69 80/338/69 81/339/69
f 104/340/70 106/341/70 105/342/70
f 96/343/9 105/344/9 113/345/9
f 108/346/71 100/347/71 109/348/71
f 107/349/72 81/350/72 85/351/72
f 106/352/73 85/353/73 89/354/73
f 109/355/74 77/356/74 80/357/74
f 110/358/75 64/359/75 77/360/75
f 128/361/76 116/362/76 129/363/76
f 118/364/77 128/365/77 127/366/77
f 116/367/78 130/368/78 129/369/78
f 120/370/79 126/371/79 125/372/79
f 115/373/80 65/374/80 130/375/80
f 76/376/81 128/377/81 75/378/81
f 119/379/82 127/380/82 126/381/82
f 22/382/5 10/383/5 32/384/5
f 125/385/13 70/386/13 67/387/13
f 130/388/83 72/389/83 73/390/83
f 126/391/84 76/392/84 78/393/84
f 125/394/85 78/395/85 79/396/85
f 13/145/14 60/397/14 59/146/14
f 30/148/15 12/398/15 13/149/15
f 14/151/16 59/399/16 58/152/16
f 70/154/11 79/400/11 82/155/11
f 23/157/17 18/401/17 19/158/17
f 28/160/18 13/402/18 14/161/18
f 26/163/19 15/403/19 16/164/19
f 27/166/20 14/404/20 15/167/20
f 24/169/21 16/405/21 18/170/21
f 32/172/2 36/406/2 44/173/2
f 43/175/22 23/407/22 22/176/22
f 39/178/23 28/408/23 27/179/23
f 41/181/24 26/409/24 24/182/24
f 40/184/25 27/410/25 26/185/25
f 39/187/26 38/411/26 30/188/26
f 42/190/27 24/412/27 23/191/27
f 2/193/4 33/413/4 45/194/4
f 48/196/28 41/414/28 42/197/28
f 47/199/29 42/415/29 43/200/29
f 55/202/6 120/416/6 122/203/6
f 29/205/30 46/417/30 45/206/30
f 50/208/31 39/418/31 40/209/31
f 51/211/32 38/419/32 39/212/32
f 20/214/33 49/420/33 48/215/33
f 46/217/34 43/421/34 44/218/34
f 45/220/3 44/422/3 36/221/3
f 48/223/35 49/423/35 40/224/35
f 21/226/36 48/424/36 47/227/36
f 25/229/37 47/425/37 46/230/37
f 17/232/38 50/426/38 49/233/38
f 4/235/39 51/427/39 50/236/39
f 59/238/40 116/428/40 117/239/40
f 58/241/41 117/429/41 118/242/41
f 60/244/42 115/430/42 116/245/42
f 56/247/43 119/431/43 120/248/43
f 5/250/44 124/432/44 115/251/44
f 16/253/45 15/433/45 58/254/45
f 57/256/46 118/434/46 119/257/46
f 19/259/7 55/435/7 7/260/7
f 12/262/47 5/436/47 60/263/47
f 16/265/48 57/437/48 56/266/48
f 18/268/49 56/438/49 55/269/49
f 129/271/50 130/439/50 73/272/50
f 73/274/51 72/440/51 90/275/51
f 128/277/52 129/441/52 74/278/52
f 79/280/53 78/442/53 83/281/53
f 74/283/54 73/443/54 88/284/54
f 76/286/55 75/444/55 86/287/55
f 75/289/56 74/445/56 87/290/56
f 78/292/57 76/446/57 84/293/57
f 96/295/8 92/447/8 82/296/8
f 82/298/58 83/448/58 103/299/58
f 87/301/59 88/449/59 99/302/59
f 102/304/60 84/450/60 86/305/60
f 86/307/61 87/451/61 100/308/61
f 88/310/62 90/452/62 98/311/62
f 83/313/63 84/453/63 102/314/63
f 105/316/10 93/454/10 62/317/10
f 102/319/64 101/455/64 108/320/64
f 106/322/65 103/456/65 102/323/65
f 122/325/12 120/457/12 125/326/12
f 105/328/66 106/458/66 89/329/66
f 100/331/67 99/459/67 110/332/67
f 99/334/68 98/460/68 111/335/68
f 108/337/69 109/461/69 80/338/69
f 104/340/70 103/462/70 106/341/70
f 96/343/9 104/463/9 105/344/9
f 108/346/71 101/464/71 100/347/71
f 107/349/72 108/465/72 81/350/72
f 106/352/73 107/466/73 85/353/73
f 109/355/74 110/467/74 77/356/74
f 110/358/75 111/468/75 64/359/75
f 128/361/76 117/469/76 116/362/76
f 118/364/77 117/470/77 128/365/77
f 116/367/78 115/471/78 130/368/78
f 120/370/79 119/472/79 126/371/79
f 115/373/80 124/473/80 65/374/80
f 76/376/81 127/474/81 128/377/81
f 119/379/82 118/475/82 127/380/82
f 22/382/5 19/476/5 10/383/5
f 125/385/13 79/477/13 70/386/13
f 130/388/83 65/478/83 72/389/83
f 126/391/84 127/479/84 76/392/84
f 125/394/85 126/480/85 78/395/85
