# Blender v2.93.1 OBJ File: 'road_end.blend'
# www.blender.org
o Plane
v 0.000000 -6.780643 -0.000000
v 0.000000 -6.780643 0.100000
v 0.000000 -7.999842 0.100000
v 0.000000 -7.999842 -0.000000
v 1.754960 -6.549599 -0.000000
v 1.754960 -6.549599 0.100000
v 2.070512 -7.727255 0.100000
v 2.070512 -7.727255 -0.000000
v 3.390322 -5.872210 -0.000000
v 3.390322 -5.872210 0.100000
v 3.999921 -6.928067 0.100000
v 3.999921 -6.928067 -0.000000
v 4.794639 -4.794639 -0.000000
v 4.794639 -4.794639 0.100000
v 5.656743 -5.656743 0.100000
v 5.656743 -5.656743 -0.000000
v 5.872210 -3.390321 -0.000000
v 5.872210 -3.390321 0.100000
v 6.928067 -3.999921 0.100000
v 6.928067 -3.999921 -0.000000
v 6.549598 -1.754959 -0.000000
v 6.549598 -1.754959 0.100000
v 7.727254 -2.070512 0.100000
v 7.727254 -2.070512 -0.000000
v 6.780643 0.000000 -0.000000
v 6.780643 0.000000 0.100000
v 7.999842 0.000000 0.100000
v 7.999842 0.000000 -0.000000
v 6.549598 1.754960 -0.000000
v 6.549598 1.754960 0.100000
v 7.727254 2.070512 0.100000
v 7.727254 2.070512 -0.000000
v 5.872209 3.390322 -0.000000
v 5.872209 3.390322 0.100000
v 6.928066 3.999921 0.100000
v 6.928066 3.999921 -0.000000
v 4.794638 4.794639 -0.000000
v 4.794638 4.794639 0.100000
v 5.656742 5.656742 0.100000
v 5.656742 5.656742 -0.000000
v 3.390321 5.872209 -0.000000
v 3.390321 5.872209 0.100000
v 3.999920 6.928066 0.100000
v 3.999920 6.928066 -0.000000
v 1.754959 6.549597 -0.000000
v 1.754959 6.549597 0.100000
v 2.070511 7.727253 0.100000
v 2.070511 7.727253 -0.000000
v 0.000000 6.780643 -0.000000
v 0.000000 6.780643 0.100000
v 0.000000 7.999842 0.100000
v 0.000000 7.999842 -0.000000
v 0.000000 0.000001 -0.000000
vt 0.265666 0.132332
vt 0.265666 0.002002
vt 0.002002 0.132332
vt 0.001001 0.131331
vt 0.001001 0.001001
vt 0.264665 0.001001
vt 0.002002 0.398999
vt 0.132332 0.398999
vt 0.132332 0.135335
vt 0.131331 0.134334
vt 0.001001 0.134334
vt 0.001001 0.397998
vt 0.532332 0.268669
vt 0.532332 0.398999
vt 0.268669 0.398999
vt 0.267668 0.267668
vt 0.267668 0.397998
vt 0.531331 0.267668
vt 0.398999 0.665666
vt 0.268669 0.665666
vt 0.398999 0.402002
vt 0.397998 0.401001
vt 0.267668 0.401001
vt 0.267668 0.664665
vt 0.665666 0.535335
vt 0.665666 0.665666
vt 0.402002 0.665666
vt 0.401001 0.664665
vt 0.401001 0.534334
vt 0.664665 0.534334
vt 0.668669 0.265666
vt 0.798999 0.265666
vt 0.798999 0.002002
vt 0.667668 0.001001
vt 0.797998 0.001001
vt 0.667668 0.264665
vt 0.934334 0.001001
vt 0.998999 0.265666
vt 0.998999 0.001001
vt 0.532332 0.934334
vt 0.401001 0.998999
vt 0.532332 0.998999
vt 0.267668 0.001001
vt 0.398999 0.265666
vt 0.398999 0.001001
vt 0.265666 0.532332
vt 0.001001 0.401001
vt 0.001001 0.532332
vt 0.867668 0.267668
vt 0.932332 0.532332
vt 0.932332 0.267668
vt 0.398999 0.934334
vt 0.267668 0.998999
vt 0.398999 0.998999
vt 0.532332 0.001001
vt 0.401001 0.265666
vt 0.532332 0.265666
vt 0.265666 0.867668
vt 0.001001 0.932332
vt 0.265666 0.932332
vt 0.934334 0.534334
vt 0.998999 0.665666
vt 0.998999 0.534334
vt 0.265666 0.665666
vt 0.001001 0.534334
vt 0.001001 0.665666
vt 0.801001 0.534334
vt 0.865666 0.798999
vt 0.865666 0.534334
vt 0.265666 0.934334
vt 0.134334 0.998999
vt 0.265666 0.998999
vt 0.934334 0.401001
vt 0.998999 0.532332
vt 0.998999 0.401001
vt 0.265666 0.798999
vt 0.001001 0.667668
vt 0.001001 0.798999
vt 0.867668 0.534334
vt 0.932332 0.798999
vt 0.932332 0.534334
vt 0.265666 0.801001
vt 0.001001 0.865666
vt 0.265666 0.865666
vt 0.934334 0.267668
vt 0.998999 0.398999
vt 0.998999 0.267668
vt 0.798999 0.798999
vt 0.534334 0.667668
vt 0.534334 0.798999
vt 0.801001 0.001001
vt 0.865666 0.265666
vt 0.865666 0.001001
vt 0.798999 0.867668
vt 0.667668 0.932332
vt 0.798999 0.932332
vt 0.798999 0.401001
vt 0.667668 0.665666
vt 0.798999 0.665666
vt 0.532332 0.801001
vt 0.267668 0.865666
vt 0.532332 0.865666
vt 0.801001 0.801001
vt 0.865666 0.932332
vt 0.865666 0.801001
vt 0.665666 0.532332
vt 0.401001 0.401001
vt 0.401001 0.532332
vt 0.867668 0.001001
vt 0.932332 0.265666
vt 0.932332 0.001001
vt 0.665666 0.867668
vt 0.534334 0.932332
vt 0.665666 0.932332
vt 0.265666 0.134334
vt 0.134334 0.398999
vt 0.265666 0.398999
vt 0.532332 0.867668
vt 0.267668 0.932332
vt 0.532332 0.932332
vt 0.934334 0.667668
vt 0.998999 0.798999
vt 0.998999 0.667668
vt 0.798999 0.398999
vt 0.534334 0.267668
vt 0.534334 0.398999
vt 0.534334 0.001001
vt 0.665666 0.265666
vt 0.665666 0.001001
vt 0.798999 0.801001
vt 0.534334 0.865666
vt 0.798999 0.865666
vt 0.867668 0.801001
vt 0.932332 0.932332
vt 0.932332 0.801001
vt 0.532332 0.667668
vt 0.267668 0.798999
vt 0.532332 0.798999
vt 0.801001 0.267668
vt 0.865666 0.532332
vt 0.865666 0.267668
vt 0.132332 0.934334
vt 0.001001 0.998999
vt 0.132332 0.998999
vt 0.934334 0.265666
vt 0.401001 0.934334
vt 0.267668 0.265666
vt 0.265666 0.401001
vt 0.867668 0.532332
vt 0.267668 0.934334
vt 0.401001 0.001001
vt 0.001001 0.867668
vt 0.934334 0.665666
vt 0.265666 0.534334
vt 0.801001 0.798999
vt 0.134334 0.934334
vt 0.934334 0.532332
vt 0.265666 0.667668
vt 0.867668 0.798999
vt 0.001001 0.801001
vt 0.934334 0.398999
vt 0.798999 0.667668
vt 0.801001 0.265666
vt 0.667668 0.867668
vt 0.667668 0.401001
vt 0.267668 0.801001
vt 0.801001 0.932332
vt 0.665666 0.401001
vt 0.867668 0.265666
vt 0.534334 0.867668
vt 0.134334 0.134334
vt 0.267668 0.867668
vt 0.934334 0.798999
vt 0.798999 0.267668
vt 0.534334 0.265666
vt 0.534334 0.801001
vt 0.867668 0.932332
vt 0.267668 0.667668
vt 0.801001 0.532332
vt 0.001001 0.934334
vn 0.0000 0.0000 1.0000
vn 0.1305 -0.9914 0.0000
vn -0.1305 0.9914 0.0000
vn 0.3827 -0.9239 0.0000
vn -0.3827 0.9239 0.0000
vn 0.6088 -0.7934 0.0000
vn -0.6088 0.7934 0.0000
vn 0.7934 -0.6088 0.0000
vn -0.7934 0.6088 0.0000
vn -0.9239 0.3827 0.0000
vn 0.9239 -0.3827 0.0000
vn 0.9914 -0.1305 0.0000
vn -0.9914 0.1305 0.0000
vn 0.9914 0.1305 0.0000
vn -0.9914 -0.1305 0.0000
vn 0.9239 0.3827 0.0000
vn -0.9239 -0.3827 0.0000
vn 0.7934 0.6088 0.0000
vn -0.7934 -0.6088 0.0000
vn 0.6088 0.7934 0.0000
vn -0.6088 -0.7934 0.0000
vn 0.3827 0.9239 0.0000
vn -0.3827 -0.9239 0.0000
vn 0.1305 0.9914 0.0000
vn -0.1305 -0.9914 0.0000
s off
f 1/1/1 5/2/1 53/3/1
f 5/4/1 9/5/1 53/6/1
f 9/7/1 13/8/1 53/9/1
f 13/10/1 17/11/1 53/12/1
f 17/13/1 21/14/1 53/15/1
f 21/16/1 25/17/1 53/18/1
f 25/19/1 29/20/1 53/21/1
f 29/22/1 33/23/1 53/24/1
f 33/25/1 37/26/1 53/27/1
f 37/28/1 41/29/1 53/30/1
f 41/31/1 45/32/1 53/33/1
f 45/34/1 49/35/1 53/36/1
f 4/37/2 7/38/2 3/39/2
f 2/40/3 5/41/3 1/42/3
f 3/43/1 6/44/1 2/45/1
f 6/46/1 11/47/1 10/48/1
f 8/49/4 11/50/4 7/51/4
f 6/52/5 9/53/5 5/54/5
f 10/55/1 15/56/1 14/57/1
f 12/58/6 15/59/6 11/60/6
f 10/61/7 13/62/7 9/63/7
f 14/64/1 19/65/1 18/66/1
f 16/67/8 19/68/8 15/69/8
f 14/70/9 17/71/9 13/72/9
f 18/73/10 21/74/10 17/75/10
f 18/76/1 23/77/1 22/78/1
f 20/79/11 23/80/11 19/81/11
f 24/82/12 27/83/12 23/84/12
f 22/85/13 25/86/13 21/87/13
f 22/88/1 27/89/1 26/90/1
f 28/91/14 31/92/14 27/93/14
f 26/94/15 29/95/15 25/96/15
f 26/97/1 31/98/1 30/99/1
f 32/100/16 35/101/16 31/102/16
f 30/103/17 33/104/17 29/105/17
f 30/106/1 35/107/1 34/108/1
f 36/109/18 39/110/18 35/111/18
f 34/112/19 37/113/19 33/114/19
f 34/115/1 39/116/1 38/117/1
f 40/118/20 43/119/20 39/120/20
f 38/121/21 41/122/21 37/123/21
f 38/124/1 43/125/1 42/126/1
f 43/127/1 46/128/1 42/129/1
f 44/130/22 47/131/22 43/132/22
f 42/133/23 45/134/23 41/135/23
f 47/136/1 50/137/1 46/138/1
f 48/139/24 51/140/24 47/141/24
f 46/142/25 49/143/25 45/144/25
f 4/37/2 8/145/2 7/38/2
f 2/40/3 6/146/3 5/41/3
f 3/43/1 7/147/1 6/44/1
f 6/46/1 7/148/1 11/47/1
f 8/49/4 12/149/4 11/50/4
f 6/52/5 10/150/5 9/53/5
f 10/55/1 11/151/1 15/56/1
f 12/58/6 16/152/6 15/59/6
f 10/61/7 14/153/7 13/62/7
f 14/64/1 15/154/1 19/65/1
f 16/67/8 20/155/8 19/68/8
f 14/70/9 18/156/9 17/71/9
f 18/73/10 22/157/10 21/74/10
f 18/76/1 19/158/1 23/77/1
f 20/79/11 24/159/11 23/80/11
f 24/82/12 28/160/12 27/83/12
f 22/85/13 26/161/13 25/86/13
f 22/88/1 23/162/1 27/89/1
f 28/91/14 32/163/14 31/92/14
f 26/94/15 30/164/15 29/95/15
f 26/97/1 27/165/1 31/98/1
f 32/100/16 36/166/16 35/101/16
f 30/103/17 34/167/17 33/104/17
f 30/106/1 31/168/1 35/107/1
f 36/109/18 40/169/18 39/110/18
f 34/112/19 38/170/19 37/113/19
f 34/115/1 35/171/1 39/116/1
f 40/118/20 44/172/20 43/119/20
f 38/121/21 42/173/21 41/122/21
f 38/124/1 39/174/1 43/125/1
f 43/127/1 47/175/1 46/128/1
f 44/130/22 48/176/22 47/131/22
f 42/133/23 46/177/23 45/134/23
f 47/136/1 51/178/1 50/137/1
f 48/139/24 52/179/24 51/140/24
f 46/142/25 50/180/25 49/143/25
