# Blender v2.80 (sub 75) OBJ File: 'tunnel_junction.blend'
# www.blender.org
o Plane
v 3.000000 0.931953 -8.140460
v 3.500000 0.100000 -7.999843
v -0.000000 -0.000000 -6.780643
v -0.000000 0.100000 -6.780643
v -0.000000 0.100000 -7.999843
v 0.500000 0.931953 -8.140460
v 0.500000 -0.000000 -6.780643
v 0.500000 0.100000 -6.780643
v 0.500000 0.100000 -7.999843
v -0.000000 0.931953 -8.140460
v 3.500000 0.100000 -6.780643
v 3.500000 -0.000000 -6.780643
v 3.000000 -0.000000 -6.780643
v 3.000000 0.100000 -6.780643
v 3.000000 0.100000 -7.999843
v 3.500000 0.931953 -8.140460
v 0.500000 -0.000000 -6.191022
v 0.500000 -0.000000 -5.601401
v 0.500000 -0.000000 -5.011780
v 0.500000 -0.000000 -4.422159
v 0.500000 -0.000000 -3.832538
v 0.500000 -0.000000 -3.242917
v 0.500000 -0.000000 -2.653296
v 0.500000 -0.000000 -2.063674
v 0.500000 -0.000000 -1.474053
v 0.500000 -0.000000 -0.884432
v 0.500000 -0.000000 -0.294811
v 3.000000 -0.000000 -0.294810
v 3.000000 -0.000000 -0.884432
v 3.000000 -0.000000 -1.474053
v 3.000000 -0.000000 -2.063674
v 3.000000 -0.000000 -2.653295
v 3.000000 -0.000000 -3.242916
v 3.000000 -0.000000 -3.832538
v 3.000000 -0.000000 -4.422159
v 3.000000 -0.000000 -5.011780
v 3.000000 -0.000000 -5.601401
v 3.000000 -0.000000 -6.191022
v 3.000000 2.602880 -7.621873
v 0.500000 2.602880 -7.621873
v -0.000001 2.602880 -7.621873
v 3.500000 2.602880 -7.621873
v 3.000000 4.221690 -6.583869
v 0.499999 4.221690 -6.583869
v -0.000001 4.221690 -6.583869
v 3.500000 4.221690 -6.583869
v 2.999999 5.552810 -5.097184
v 0.499999 5.552810 -5.097184
v -0.000001 5.552810 -5.097184
v 3.499999 5.552810 -5.097184
v 2.999999 6.505510 -3.263135
v 0.499999 6.505510 -3.263135
v -0.000001 6.505510 -3.263135
v 3.499999 6.505510 -3.263135
v 2.999999 7.014870 -1.206710
v 0.499999 7.014870 -1.206710
v -0.000001 7.014870 -1.206710
v 3.499999 7.014870 -1.206710
v 3.000000 0.931953 8.140460
v 3.500000 0.100000 7.999843
v -0.000000 -0.000000 6.780643
v -0.000000 0.100000 6.780643
v -0.000000 0.100000 7.999843
v 0.500000 0.931953 8.140460
v 0.500000 -0.000000 6.780643
v 0.500000 0.100000 6.780643
v 0.500000 0.100000 7.999843
v -0.000000 0.931953 8.140460
v 3.500000 0.100000 6.780643
v 3.500000 -0.000000 6.780643
v 3.000000 -0.000000 6.780643
v 3.000000 0.100000 6.780643
v 3.000000 0.100000 7.999843
v 3.500000 0.931953 8.140460
v 0.500000 -0.000000 6.191022
v 0.500000 -0.000000 5.601401
v 0.500000 -0.000000 5.011780
v 0.500000 -0.000000 4.422159
v 0.500000 -0.000000 3.832538
v 0.500000 -0.000000 3.242917
v 0.500000 -0.000000 2.653296
v 0.500000 -0.000000 2.063674
v 0.500000 -0.000000 1.474053
v 0.500000 -0.000000 0.884432
v 0.500000 -0.000000 0.294811
v 3.000000 -0.000000 0.294810
v 3.000000 -0.000000 0.884432
v 3.000000 -0.000000 1.474053
v 3.000000 -0.000000 2.063674
v 3.000000 -0.000000 2.653295
v 3.000000 -0.000000 3.242916
v 3.000000 -0.000000 3.832538
v 3.000000 -0.000000 4.422159
v 3.000000 -0.000000 5.011780
v 3.000000 -0.000000 5.601401
v 3.000000 -0.000000 6.191022
v 3.000000 2.602880 7.621873
v 0.500000 2.602880 7.621873
v -0.000001 2.602880 7.621873
v 3.500000 2.602880 7.621873
v 3.000000 4.221690 6.583869
v 0.499999 4.221690 6.583869
v -0.000001 4.221690 6.583869
v 3.500000 4.221690 6.583869
v 2.999999 5.552810 5.097184
v 0.499999 5.552810 5.097184
v -0.000001 5.552810 5.097184
v 3.499999 5.552810 5.097184
v 2.999999 6.505510 3.263135
v 0.499999 6.505510 3.263135
v -0.000001 6.505510 3.263135
v 3.499999 6.505510 3.263135
v 2.999999 7.014870 1.206710
v 0.499999 7.014870 1.206710
v -0.000001 7.014870 1.206710
v 3.499999 7.014870 1.206710
v -0.000001 7.014870 0.000000
v -0.000000 -0.000000 0.000000
vt 0.420052 0.770232
vt 0.211527 0.819512
vt 0.420052 0.819512
vt 0.630578 0.718950
vt 0.422054 0.768230
vt 0.630578 0.768230
vt 0.209525 0.718950
vt 0.001001 0.768230
vt 0.209525 0.768230
vt 0.630578 0.616386
vt 0.422054 0.665666
vt 0.630578 0.665666
vt 0.630578 0.667668
vt 0.422054 0.716948
vt 0.630578 0.716948
vt 0.209525 0.870794
vt 0.001001 0.821514
vt 0.001001 0.870794
vt 0.420052 0.870794
vt 0.211527 0.821514
vt 0.211527 0.870794
vt 0.630578 0.870794
vt 0.422054 0.821514
vt 0.422054 0.870794
vt 0.841104 0.870794
vt 0.632580 0.821514
vt 0.632580 0.870794
vt 0.209525 0.922076
vt 0.001001 0.872796
vt 0.001001 0.922076
vt 0.420052 0.768230
vt 0.211527 0.718950
vt 0.211527 0.768230
vt 0.211527 0.770232
vt 0.422054 0.718950
vt 0.001001 0.718950
vt 0.422054 0.616386
vt 0.422054 0.667668
vt 0.209525 0.821514
vt 0.420052 0.821514
vt 0.630578 0.821514
vt 0.841104 0.821514
vt 0.209525 0.872796
vt 0.420052 0.718950
vt 0.737843 0.206129
vt 0.788473 0.409255
vt 0.788473 0.206129
vt 0.685212 0.411257
vt 0.735841 0.614384
vt 0.735841 0.411257
vt 0.685212 0.001001
vt 0.735841 0.204127
vt 0.735841 0.001001
vt 0.632580 0.001001
vt 0.683210 0.204127
vt 0.683210 0.001001
vt 0.632580 0.206129
vt 0.683210 0.409255
vt 0.683210 0.206129
vt 0.632580 0.411257
vt 0.683210 0.614384
vt 0.683210 0.411257
vt 0.893736 0.411257
vt 0.843106 0.614384
vt 0.893736 0.614384
vt 0.893736 0.616386
vt 0.843106 0.819512
vt 0.893736 0.819512
vt 0.946367 0.001001
vt 0.895738 0.204127
vt 0.946367 0.204127
vt 0.946367 0.206129
vt 0.895738 0.409255
vt 0.946367 0.409255
vt 0.946367 0.411257
vt 0.895738 0.614384
vt 0.946367 0.614384
vt 0.946367 0.819512
vt 0.895738 0.616386
vt 0.895738 0.819512
vt 0.974785 0.001001
vt 0.976986 0.001001
vt 0.973684 0.204127
vt 0.521783 0.922076
vt 0.512716 0.922076
vt 0.422054 0.872796
vt 0.737843 0.409255
vt 0.685212 0.614384
vt 0.685212 0.204127
vt 0.632580 0.204127
vt 0.632580 0.409255
vt 0.632580 0.614384
vt 0.843106 0.411257
vt 0.843106 0.616386
vt 0.895738 0.001001
vt 0.895738 0.206129
vt 0.895738 0.411257
vt 0.946367 0.616386
vt 0.996798 0.001001
vt 0.998999 0.001001
vt 0.998999 0.204127
vt 0.948369 0.204127
vt 0.961577 0.001001
vt 0.948369 0.001001
vt 0.950571 0.001001
vt 0.994596 0.001001
vt 0.985791 0.001001
vt 0.992395 0.001001
vt 0.990194 0.001001
vt 0.987993 0.001001
vt 0.952772 0.001001
vt 0.954973 0.001001
vt 0.957175 0.001001
vt 0.959376 0.001001
vt 0.983590 0.001001
vt 0.963778 0.001001
vt 0.979187 0.001001
vt 0.981389 0.001001
vt 0.965980 0.001001
vt 0.968181 0.001001
vt 0.970382 0.001001
vt 0.972584 0.001001
vt 0.630578 0.872796
vt 0.530849 0.922076
vt 0.630578 0.922076
vt 0.621512 0.922076
vt 0.612445 0.922076
vt 0.603379 0.922076
vt 0.594313 0.922076
vt 0.431120 0.922076
vt 0.422054 0.922076
vt 0.458319 0.922076
vt 0.449252 0.922076
vt 0.440186 0.922076
vt 0.585247 0.922076
vt 0.576180 0.922076
vt 0.567114 0.922076
vt 0.485518 0.922076
vt 0.476451 0.922076
vt 0.467385 0.922076
vt 0.558048 0.922076
vt 0.548981 0.922076
vt 0.539915 0.922076
vt 0.503650 0.922076
vt 0.494584 0.922076
vt 0.658896 0.718950
vt 0.683210 0.768230
vt 0.683210 0.718950
vt 0.314788 0.998999
vt 0.211527 0.949719
vt 0.211527 0.998999
vt 0.632580 0.718950
vt 0.656894 0.768230
vt 0.656894 0.718950
vt 0.998999 0.718950
vt 0.948369 0.819512
vt 0.998999 0.819512
vt 0.420052 0.411257
vt 0.211527 0.511820
vt 0.420052 0.511820
vt 0.946367 0.924078
vt 0.737843 0.947717
vt 0.946367 0.947717
vt 0.735841 0.718950
vt 0.711527 0.768230
vt 0.735841 0.768230
vt 0.525315 0.924078
vt 0.422054 0.973358
vt 0.525315 0.973358
vt 0.709525 0.718950
vt 0.685212 0.768230
vt 0.709525 0.768230
vt 0.948369 0.411257
vt 0.998999 0.511820
vt 0.998999 0.411257
vt 0.420052 0.716948
vt 0.211527 0.616386
vt 0.211527 0.716948
vt 0.420052 0.947717
vt 0.211527 0.924078
vt 0.211527 0.947717
vt 0.658896 0.768230
vt 0.314788 0.949719
vt 0.632580 0.768230
vt 0.948369 0.718950
vt 0.211527 0.411257
vt 0.737843 0.924078
vt 0.711527 0.718950
vt 0.422054 0.924078
vt 0.685212 0.718950
vt 0.948369 0.511820
vt 0.420052 0.616386
vt 0.420052 0.924078
vt 0.948369 0.821514
vt 0.998999 0.870794
vt 0.998999 0.821514
vt 0.998999 0.872796
vt 0.948369 0.922076
vt 0.998999 0.922076
vt 0.841104 0.411257
vt 0.790475 0.614384
vt 0.841104 0.614384
vt 0.735841 0.924078
vt 0.632580 0.973358
vt 0.735841 0.973358
vt 0.998999 0.616386
vt 0.948369 0.716948
vt 0.998999 0.716948
vt 0.001001 0.716948
vt 0.209525 0.616386
vt 0.001001 0.616386
vt 0.948369 0.513822
vt 0.998999 0.614384
vt 0.998999 0.513822
vt 0.630578 0.924078
vt 0.527317 0.973358
vt 0.630578 0.973358
vt 0.525315 0.411257
vt 0.422054 0.614384
vt 0.525315 0.614384
vt 0.209525 0.819512
vt 0.001001 0.770232
vt 0.001001 0.819512
vt 0.737843 0.001001
vt 0.788473 0.204127
vt 0.788473 0.001001
vt 0.209525 0.411257
vt 0.001001 0.614384
vt 0.209525 0.614384
vt 0.209525 0.924078
vt 0.001001 0.973358
vt 0.209525 0.973358
vt 0.737843 0.411257
vt 0.788473 0.614384
vt 0.788473 0.411257
vt 0.209525 0.001001
vt 0.001001 0.204127
vt 0.209525 0.204127
vt 0.630578 0.770232
vt 0.422054 0.819512
vt 0.630578 0.819512
vt 0.841104 0.206129
vt 0.790475 0.409255
vt 0.841104 0.409255
vt 0.422054 0.001001
vt 0.630578 0.204127
vt 0.630578 0.001001
vt 0.685212 0.770232
vt 0.735841 0.819512
vt 0.735841 0.770232
vt 0.683210 0.770232
vt 0.632580 0.819512
vt 0.683210 0.819512
vt 0.843106 0.001001
vt 0.893736 0.204127
vt 0.893736 0.001001
vt 0.841104 0.819512
vt 0.737843 0.770232
vt 0.737843 0.819512
vt 0.946367 0.922076
vt 0.895738 0.821514
vt 0.895738 0.922076
vt 0.420052 0.614384
vt 0.211527 0.513822
vt 0.211527 0.614384
vt 0.893736 0.821514
vt 0.843106 0.922076
vt 0.893736 0.922076
vt 0.841104 0.768230
vt 0.737843 0.718950
vt 0.737843 0.768230
vt 0.527317 0.411257
vt 0.630578 0.614384
vt 0.630578 0.411257
vt 0.841104 0.922076
vt 0.632580 0.872796
vt 0.632580 0.922076
vt 0.998999 0.206129
vt 0.948369 0.409255
vt 0.998999 0.409255
vt 0.420052 0.001001
vt 0.211527 0.204127
vt 0.420052 0.204127
vt 0.420052 0.922076
vt 0.211527 0.872796
vt 0.211527 0.922076
vt 0.893736 0.206129
vt 0.843106 0.409255
vt 0.893736 0.409255
vt 0.420052 0.206129
vt 0.211527 0.409255
vt 0.420052 0.409255
vt 0.841104 0.665666
vt 0.632580 0.616386
vt 0.632580 0.665666
vt 0.735841 0.409255
vt 0.685212 0.206129
vt 0.685212 0.409255
vt 0.001001 0.206129
vt 0.209525 0.409255
vt 0.209525 0.206129
vt 0.422054 0.206129
vt 0.630578 0.409255
vt 0.630578 0.206129
vt 0.790475 0.001001
vt 0.841104 0.001001
vt 0.841104 0.102564
vt 0.841104 0.716948
vt 0.632580 0.667668
vt 0.632580 0.716948
vt 0.948369 0.870794
vt 0.948369 0.872796
vt 0.790475 0.411257
vt 0.632580 0.924078
vt 0.948369 0.616386
vt 0.209525 0.716948
vt 0.948369 0.614384
vt 0.527317 0.924078
vt 0.422054 0.411257
vt 0.209525 0.770232
vt 0.737843 0.204127
vt 0.001001 0.411257
vt 0.001001 0.924078
vt 0.737843 0.614384
vt 0.001001 0.001001
vt 0.422054 0.770232
vt 0.790475 0.206129
vt 0.422054 0.204127
vt 0.685212 0.819512
vt 0.632580 0.770232
vt 0.843106 0.204127
vt 0.841104 0.770232
vt 0.946367 0.821514
vt 0.420052 0.513822
vt 0.843106 0.821514
vt 0.841104 0.718950
vt 0.527317 0.614384
vt 0.841104 0.872796
vt 0.948369 0.206129
vt 0.211527 0.001001
vt 0.420052 0.872796
vt 0.843106 0.206129
vt 0.211527 0.206129
vt 0.841104 0.616386
vt 0.735841 0.206129
vt 0.001001 0.409255
vt 0.422054 0.409255
vt 0.841104 0.204127
vt 0.790475 0.204127
vt 0.841104 0.667668
vn 0.0000 1.0000 0.0000
vn 0.0000 0.0000 1.0000
vn 0.0000 0.0000 -1.0000
vn 0.0000 0.1667 0.9860
vn 0.0000 -0.2964 0.9551
vn 0.0000 -0.5398 0.8418
vn 0.0000 -0.7450 0.6671
vn 0.0000 -0.8874 0.4610
vn 0.0000 -0.9707 0.2404
vn 0.0000 0.1667 -0.9860
vn 0.0000 -0.2964 -0.9551
vn 0.0000 -0.5398 -0.8418
vn 0.0000 -0.7450 -0.6671
vn 0.0000 -0.8874 -0.4610
vn 0.0000 -0.9707 -0.2404
vn 0.0000 -1.0000 0.0000
s off
f 18/1/1 38/2/1 17/3/1
f 20/4/1 36/5/1 19/6/1
f 22/7/1 34/8/1 21/9/1
f 24/10/1 32/11/1 23/12/1
f 26/13/1 30/14/1 25/15/1
f 96/16/1 76/17/1 75/18/1
f 94/19/1 78/20/1 77/21/1
f 92/22/1 80/23/1 79/24/1
f 90/25/1 82/26/1 81/27/1
f 88/28/1 84/29/1 83/30/1
f 27/31/1 86/32/1 28/33/1
f 18/1/1 37/34/1 38/2/1
f 20/4/1 35/35/1 36/5/1
f 22/7/1 33/36/1 34/8/1
f 24/10/1 31/37/1 32/11/1
f 26/13/1 29/38/1 30/14/1
f 96/16/1 95/39/1 76/17/1
f 94/19/1 93/40/1 78/20/1
f 92/22/1 91/41/1 80/23/1
f 90/25/1 89/42/1 82/26/1
f 88/28/1 87/43/1 84/29/1
f 27/31/1 85/44/1 86/32/1
f 17/45/1 13/46/1 7/47/1
f 19/48/1 37/49/1 18/50/1
f 21/51/1 35/52/1 20/53/1
f 23/54/1 33/55/1 22/56/1
f 25/57/1 31/58/1 24/59/1
f 27/60/1 29/61/1 26/62/1
f 71/63/1 75/64/1 65/65/1
f 95/66/1 77/67/1 76/68/1
f 93/69/1 79/70/1 78/71/1
f 91/72/1 81/73/1 80/74/1
f 89/75/1 83/76/1 82/77/1
f 84/78/1 86/79/1 85/80/1
f 27/81/1 26/82/1 118/83/1
f 86/84/1 87/85/1 70/86/1
f 17/45/1 38/87/1 13/46/1
f 19/48/1 36/88/1 37/49/1
f 21/51/1 34/89/1 35/52/1
f 23/54/1 32/90/1 33/55/1
f 25/57/1 30/91/1 31/58/1
f 27/60/1 28/92/1 29/61/1
f 71/63/1 96/93/1 75/64/1
f 95/66/1 94/94/1 77/67/1
f 93/69/1 92/95/1 79/70/1
f 91/72/1 90/96/1 81/73/1
f 89/75/1 88/97/1 83/76/1
f 84/78/1 87/98/1 86/79/1
f 17/99/1 7/100/1 3/101/1
f 118/83/1 61/102/1 80/103/1
f 61/102/1 65/104/1 75/105/1
f 17/99/1 3/101/1 18/106/1
f 3/101/1 118/83/1 22/107/1
f 18/106/1 3/101/1 19/108/1
f 20/109/1 19/108/1 3/101/1
f 20/109/1 3/101/1 21/110/1
f 61/102/1 75/105/1 76/111/1
f 76/111/1 77/112/1 61/102/1
f 77/112/1 78/113/1 61/102/1
f 61/102/1 78/113/1 79/114/1
f 21/110/1 3/101/1 22/107/1
f 23/115/1 22/107/1 118/83/1
f 79/114/1 80/103/1 61/102/1
f 80/103/1 81/116/1 118/83/1
f 26/82/1 25/117/1 118/83/1
f 25/117/1 24/118/1 118/83/1
f 24/118/1 23/115/1 118/83/1
f 82/119/1 83/120/1 118/83/1
f 83/120/1 84/121/1 118/83/1
f 118/83/1 81/116/1 82/119/1
f 84/121/1 85/122/1 118/83/1
f 85/122/1 27/81/1 118/83/1
f 70/86/1 12/123/1 28/124/1
f 12/123/1 13/125/1 38/126/1
f 38/126/1 37/127/1 12/123/1
f 37/127/1 36/128/1 12/123/1
f 12/123/1 36/128/1 35/129/1
f 96/130/1 71/131/1 70/86/1
f 93/132/1 94/133/1 70/86/1
f 94/133/1 95/134/1 70/86/1
f 95/134/1 96/130/1 70/86/1
f 35/129/1 34/135/1 12/123/1
f 34/135/1 33/136/1 12/123/1
f 12/123/1 33/136/1 32/137/1
f 90/138/1 91/139/1 70/86/1
f 91/139/1 92/140/1 70/86/1
f 92/140/1 93/132/1 70/86/1
f 32/137/1 31/141/1 12/123/1
f 31/141/1 30/142/1 12/123/1
f 12/123/1 30/142/1 29/143/1
f 87/85/1 88/144/1 70/86/1
f 88/144/1 89/145/1 70/86/1
f 89/145/1 90/138/1 70/86/1
f 29/143/1 28/124/1 12/123/1
f 28/124/1 86/84/1 70/86/1
f 8/146/2 3/147/2 7/148/2
f 9/149/1 4/150/1 8/151/1
f 13/152/2 11/153/2 14/154/2
f 14/155/1 2/156/1 15/157/1
f 8/158/1 15/159/1 9/160/1
f 7/161/2 14/162/2 8/163/2
f 61/164/3 66/165/3 65/166/3
f 62/167/1 67/168/1 66/169/1
f 69/170/3 71/171/3 72/172/3
f 60/173/1 72/174/1 73/175/1
f 73/176/1 66/177/1 67/178/1
f 72/179/3 65/180/3 66/181/3
f 8/146/2 4/182/2 3/147/2
f 9/149/1 5/183/1 4/150/1
f 13/152/2 12/184/2 11/153/2
f 14/155/1 11/185/1 2/156/1
f 8/158/1 14/186/1 15/159/1
f 7/161/2 13/187/2 14/162/2
f 61/164/3 62/188/3 66/165/3
f 62/167/1 63/189/1 67/168/1
f 69/170/3 70/190/3 71/171/3
f 60/173/1 69/191/1 72/174/1
f 73/176/1 72/192/1 66/177/1
f 72/179/3 71/193/3 65/180/3
f 2/194/4 1/195/4 15/196/4
f 5/197/4 6/198/4 10/199/4
f 15/200/4 6/201/4 9/202/4
f 6/203/5 41/204/5 10/205/5
f 1/206/5 42/207/5 39/208/5
f 6/209/5 39/210/5 40/211/5
f 40/212/6 45/213/6 41/214/6
f 42/215/6 43/216/6 39/217/6
f 39/218/6 44/219/6 40/220/6
f 45/221/7 48/222/7 49/223/7
f 46/224/7 47/225/7 43/226/7
f 44/227/7 47/228/7 48/229/7
f 48/230/8 53/231/8 49/232/8
f 50/233/8 51/234/8 47/235/8
f 48/236/8 51/237/8 52/238/8
f 52/239/9 57/240/9 53/241/9
f 51/242/9 58/243/9 55/244/9
f 51/245/9 56/246/9 52/247/9
f 59/248/10 60/249/10 73/250/10
f 63/251/10 64/252/10 67/253/10
f 64/254/10 73/255/10 67/256/10
f 99/257/11 64/258/11 68/259/11
f 59/260/11 100/261/11 74/262/11
f 64/263/11 97/264/11 59/265/11
f 103/266/12 98/267/12 99/268/12
f 101/269/12 100/270/12 97/271/12
f 102/272/12 97/273/12 98/274/12
f 107/275/13 102/276/13 103/277/13
f 105/278/13 104/279/13 101/280/13
f 102/281/13 105/282/13 101/283/13
f 111/284/14 106/285/14 107/286/14
f 109/287/14 108/288/14 105/289/14
f 106/290/14 109/291/14 105/292/14
f 115/293/15 110/294/15 111/295/15
f 109/296/15 116/297/15 112/298/15
f 114/299/15 109/300/15 110/301/15
f 113/302/16 56/303/16 55/304/16
f 114/305/16 115/306/16 117/307/16
f 116/308/16 55/309/16 58/310/16
f 2/194/4 16/311/4 1/195/4
f 5/197/4 9/312/4 6/198/4
f 15/200/4 1/313/4 6/201/4
f 6/203/5 40/314/5 41/204/5
f 1/206/5 16/315/5 42/207/5
f 6/209/5 1/316/5 39/210/5
f 40/212/6 44/317/6 45/213/6
f 42/215/6 46/318/6 43/216/6
f 39/218/6 43/319/6 44/219/6
f 45/221/7 44/320/7 48/222/7
f 46/224/7 50/321/7 47/225/7
f 44/227/7 43/322/7 47/228/7
f 48/230/8 52/323/8 53/231/8
f 50/233/8 54/324/8 51/234/8
f 48/236/8 47/325/8 51/237/8
f 52/239/9 56/326/9 57/240/9
f 51/242/9 54/327/9 58/243/9
f 51/245/9 55/328/9 56/246/9
f 59/248/10 74/329/10 60/249/10
f 63/251/10 68/330/10 64/252/10
f 64/254/10 59/331/10 73/255/10
f 99/257/11 98/332/11 64/258/11
f 59/260/11 97/333/11 100/261/11
f 64/263/11 98/334/11 97/264/11
f 103/266/12 102/335/12 98/267/12
f 101/269/12 104/336/12 100/270/12
f 102/272/12 101/337/12 97/273/12
f 107/275/13 106/338/13 102/276/13
f 105/278/13 108/339/13 104/279/13
f 102/281/13 106/340/13 105/282/13
f 111/284/14 110/341/14 106/285/14
f 109/287/14 112/342/14 108/288/14
f 106/290/14 110/343/14 109/291/14
f 115/293/15 114/344/15 110/294/15
f 109/296/15 113/345/15 116/297/15
f 114/299/15 113/346/15 109/300/15
f 113/302/16 114/347/16 56/303/16
f 57/348/16 56/349/16 117/307/16
f 56/349/16 114/305/16 117/307/16
f 116/308/16 113/350/16 55/309/16
